<?xml version="1.0" encoding="iso-8859-1"?>
<!-- Generator: Adobe Illustrator 19.0.0, SVG Export Plug-In . SVG Version: 6.00 Build 0)  -->
<svg xmlns="http://www.w3.org/2000/svg" xmlns:xlink="http://www.w3.org/1999/xlink" version="1.1" id="Layer_1" x="0px" y="0px" viewBox="0 0 512.01 512.01" style="enable-background:new 0 0 512.01 512.01;" xml:space="preserve">
<g transform="translate(-1 -1)">
	<g>
		<g>
			<path d="M299.671,257.01c2.782,0,5.385-1.357,6.98-3.635l86.246-122.829c11.776-16.606,12.297-38.409,1.34-55.561L349.531,4.953     c-0.068-0.106-0.149-0.2-0.221-0.303c-0.119-0.169-0.234-0.34-0.364-0.498c-0.171-0.212-0.356-0.407-0.543-0.601     c-0.047-0.047-0.089-0.099-0.137-0.145c-1.518-1.496-3.536-2.383-5.741-2.383c-0.062-0.001-0.123-0.012-0.185-0.012H171.672     c-0.048,0-0.094,0.008-0.141,0.009c-2.219-0.017-4.264,0.881-5.799,2.396c-0.036,0.035-0.068,0.074-0.104,0.11     c-0.203,0.207-0.401,0.419-0.583,0.646c-0.103,0.127-0.195,0.264-0.291,0.397c-0.092,0.128-0.194,0.248-0.279,0.381     l-44.792,70.238c-10.837,17.033-10.317,38.69,1.34,55.134l86.332,123.059c0.043,0.062,0.095,0.115,0.139,0.175     c0.111,0.15,0.226,0.294,0.346,0.436c0.115,0.136,0.233,0.266,0.356,0.393c0.119,0.124,0.24,0.244,0.366,0.36     c0.139,0.128,0.284,0.249,0.431,0.368c0.125,0.1,0.249,0.2,0.379,0.293c0.161,0.115,0.327,0.22,0.495,0.323     c0.131,0.081,0.26,0.162,0.395,0.236c0.176,0.095,0.357,0.178,0.539,0.261c0.139,0.064,0.276,0.131,0.419,0.187     c0.183,0.072,0.372,0.129,0.56,0.188c0.15,0.047,0.298,0.101,0.451,0.14c0.185,0.047,0.375,0.077,0.563,0.112     c0.162,0.03,0.322,0.068,0.486,0.089c0.187,0.023,0.378,0.026,0.568,0.037c0.163,0.009,0.324,0.032,0.488,0.032h17.068v19.837     c-53.615,11.751-93.867,59.605-93.867,116.696c0,65.877,53.589,119.467,119.467,119.467s119.467-53.589,119.467-119.467     c0-57.092-40.252-104.946-93.867-116.696V257.01H299.671z M257.251,150.286l-34.479-63.942h68.734L257.251,150.286z      M328.077,18.077l-27.429,51.2H213.58l-27.605-51.2H328.077z M134.08,84.361l36.975-57.984l76.535,141.935l-10.741,20.057     l-23.492,43.851l-78.391-111.737C127.33,109.697,126.98,95.514,134.08,84.361z M313.227,81.949     c0.02-0.036,0.045-0.067,0.065-0.103l29.692-55.422l36.874,57.743c7.194,11.273,6.852,25.6-0.905,36.54l-83.712,119.236h-21.17     h-34.133h-11.35L313.227,81.949z M359.405,393.544c0,56.465-45.935,102.4-102.4,102.4s-102.4-45.935-102.4-102.4     c0-51.121,37.653-93.61,86.683-101.194c1.174-0.182,2.356-0.339,3.543-0.479c0.212-0.025,0.425-0.049,0.638-0.073     c2.49-0.279,5.003-0.471,7.525-0.568c0.025-0.001,0.05-0.002,0.075-0.003c2.622-0.098,5.252-0.098,7.874,0     c0.025,0.001,0.05,0.002,0.075,0.003c2.522,0.096,5.035,0.289,7.525,0.568c0.213,0.024,0.425,0.048,0.638,0.073     c1.187,0.141,2.369,0.297,3.543,0.479C321.752,299.934,359.405,342.422,359.405,393.544z M265.538,274.376     c-0.274-0.019-0.551-0.026-0.825-0.043c-0.934-0.06-1.871-0.109-2.811-0.147c-0.353-0.014-0.705-0.029-1.059-0.04     c-1.275-0.04-2.554-0.068-3.839-0.068s-2.564,0.028-3.839,0.068c-0.353,0.011-0.706,0.026-1.059,0.04     c-0.94,0.038-1.877,0.087-2.811,0.147c-0.275,0.017-0.551,0.024-0.825,0.043V257.01h17.067V274.376z"/>
			<path d="M257.005,376.304l-23.578-4.836l-11.366-24.218c-1.408-2.987-4.412-4.907-7.723-4.907s-6.315,1.92-7.723,4.907     l-11.366,24.218l-25.293,5.188c-3.106,0.631-5.606,2.944-6.485,5.999c-0.87,3.055,0.017,6.34,2.321,8.533l18.159,17.314     l-3.661,26.539c-0.452,3.217,0.973,6.409,3.661,8.235c2.688,1.826,6.178,1.971,9.011,0.35l21.376-12.177l21.376,12.177     c1.314,0.751,2.773,1.118,4.224,1.118c1.672,0,3.345-0.495,4.787-1.468c2.688-1.826,4.113-5.018,3.661-8.235l-3.661-26.539     l12.279-11.708l12.279,11.708l-3.661,26.539c-0.452,3.217,0.973,6.409,3.661,8.235c2.697,1.826,6.178,1.971,9.011,0.35     l21.376-12.177l21.376,12.177c1.314,0.751,2.773,1.118,4.224,1.118c1.673,0,3.345-0.495,4.787-1.468     c2.688-1.826,4.113-5.018,3.661-8.235l-3.661-26.539l18.159-17.314c2.304-2.193,3.191-5.478,2.321-8.533     c-0.879-3.055-3.379-5.367-6.485-5.999l-25.293-5.188l-11.366-24.218c-1.408-2.987-4.412-4.907-7.723-4.907     c-3.311,0-6.315,1.92-7.723,4.907l-11.366,24.218L257.005,376.304z M229.792,399.159c-1.997,1.894-2.944,4.625-2.568,7.347     l1.886,13.722l-10.547-6.008c-1.306-0.742-2.765-1.118-4.224-1.118c-1.459,0-2.918,0.375-4.224,1.118l-10.547,6.008l1.886-13.722     c0.375-2.722-0.572-5.453-2.569-7.347l-9.506-9.062l13.491-2.773c2.637-0.538,4.873-2.287,6.008-4.727l5.461-11.631l5.461,11.631     c1.135,2.441,3.371,4.19,6.007,4.727l13.491,2.773L229.792,399.159z M294.21,382.595l5.461-11.631l5.461,11.631     c1.135,2.441,3.371,4.19,6.007,4.727l13.491,2.773l-9.506,9.062c-1.997,1.894-2.944,4.625-2.569,7.347l1.886,13.722     l-10.547-6.008c-1.306-0.742-2.765-1.118-4.224-1.118c-1.459,0-2.918,0.375-4.224,1.118l-10.547,6.008l1.886-13.722     c0.375-2.722-0.572-5.453-2.569-7.347l-9.506-9.062l13.491-2.773C290.84,386.785,293.075,385.036,294.21,382.595z"/>
		</g>
	</g>
</g>
<g>
</g>
<g>
</g>
<g>
</g>
<g>
</g>
<g>
</g>
<g>
</g>
<g>
</g>
<g>
</g>
<g>
</g>
<g>
</g>
<g>
</g>
<g>
</g>
<g>
</g>
<g>
</g>
<g>
</g>
</svg>
