<?xml version="1.0" encoding="iso-8859-1"?>
<!-- Generator: Adobe Illustrator 19.0.0, SVG Export Plug-In . SVG Version: 6.00 Build 0)  -->
<svg xmlns="http://www.w3.org/2000/svg" xmlns:xlink="http://www.w3.org/1999/xlink" version="1.1" id="Layer_1" x="0px" y="0px" viewBox="0 0 512.01 512.01" style="enable-background:new 0 0 512.01 512.01;" xml:space="preserve">
<g transform="translate(-1 -1)">
	<g>
		<g>
			<path d="M276.572,382.51c3.337,3.337,8.73,3.337,12.066,0s3.337-8.73,0-12.066c-3.337-3.336-8.73-3.336-12.066,0     C273.235,373.781,273.235,379.174,276.572,382.51z"/>
			<path d="M299.671,257.01c2.782,0,5.385-1.357,6.98-3.635l86.246-122.829c11.776-16.606,12.297-38.409,1.34-55.561L349.531,4.953     c-0.065-0.101-0.143-0.191-0.211-0.289c-0.124-0.177-0.246-0.356-0.382-0.522c-0.14-0.173-0.293-0.331-0.445-0.492     c-0.085-0.089-0.165-0.183-0.254-0.268c-1.523-1.482-3.545-2.359-5.714-2.36c-0.062-0.001-0.123-0.012-0.186-0.012H171.672     c-0.048,0-0.095,0.009-0.144,0.009c-1.386-0.007-2.767,0.373-3.999,1.068c-0.099,0.055-0.192,0.117-0.288,0.176     c-0.198,0.122-0.394,0.244-0.581,0.381c-0.148,0.107-0.287,0.226-0.428,0.343c-0.136,0.113-0.274,0.223-0.403,0.345     c-0.145,0.136-0.279,0.284-0.415,0.43c-0.118,0.127-0.237,0.251-0.347,0.385c-0.121,0.148-0.229,0.305-0.341,0.462     c-0.082,0.115-0.175,0.221-0.251,0.34l-44.792,70.238c-10.837,17.033-10.317,38.69,1.34,55.134l86.332,123.059     c0.043,0.062,0.095,0.115,0.139,0.175c0.111,0.15,0.226,0.294,0.346,0.436c0.115,0.136,0.233,0.266,0.356,0.393     c0.119,0.124,0.24,0.244,0.366,0.36c0.139,0.128,0.284,0.249,0.431,0.368c0.125,0.1,0.249,0.2,0.379,0.293     c0.161,0.115,0.327,0.22,0.495,0.323c0.131,0.081,0.26,0.162,0.395,0.236c0.176,0.095,0.357,0.178,0.539,0.261     c0.139,0.064,0.276,0.131,0.419,0.187c0.183,0.072,0.372,0.129,0.56,0.188c0.15,0.047,0.298,0.101,0.451,0.14     c0.185,0.047,0.375,0.077,0.563,0.112c0.162,0.03,0.322,0.068,0.486,0.089c0.187,0.023,0.378,0.026,0.568,0.037     c0.163,0.009,0.324,0.032,0.488,0.032h17.068v19.837c-53.615,11.751-93.867,59.605-93.867,116.696     c0,65.877,53.589,119.467,119.467,119.467s119.467-53.589,119.467-119.467c0-57.092-40.252-104.946-93.867-116.696V257.01     H299.671z M257.251,150.286l-34.479-63.942h68.734L257.251,150.286z M328.077,18.077l-27.429,51.2H213.58l-27.605-51.2H328.077z      M134.08,84.361l36.975-57.984l76.535,141.935l-10.741,20.057l-23.492,43.851l-78.391-111.737     C127.33,109.697,126.98,95.514,134.08,84.361z M313.227,81.949c0.02-0.036,0.045-0.067,0.065-0.103l29.692-55.422l36.874,57.743     c7.194,11.273,6.852,25.6-0.905,36.54l-83.712,119.236h-21.17h-34.133h-11.35L313.227,81.949z M359.405,393.544     c0,56.465-45.935,102.4-102.4,102.4s-102.4-45.935-102.4-102.4c0-51.121,37.653-93.61,86.683-101.194     c1.174-0.182,2.356-0.339,3.543-0.479c0.212-0.025,0.425-0.049,0.638-0.073c2.49-0.279,5.003-0.471,7.525-0.568     c0.025-0.001,0.05-0.002,0.075-0.003c2.622-0.098,5.252-0.098,7.874,0c0.025,0.001,0.05,0.002,0.075,0.003     c2.522,0.096,5.035,0.289,7.525,0.568c0.213,0.024,0.425,0.048,0.638,0.073c1.187,0.141,2.369,0.297,3.543,0.479     C321.752,299.934,359.405,342.422,359.405,393.544z M265.538,274.376c-0.274-0.019-0.551-0.026-0.825-0.043     c-0.934-0.06-1.871-0.109-2.811-0.147c-0.353-0.014-0.705-0.029-1.059-0.04c-1.275-0.04-2.554-0.068-3.839-0.068     s-2.564,0.028-3.839,0.068c-0.353,0.011-0.706,0.026-1.059,0.04c-0.94,0.038-1.877,0.087-2.811,0.147     c-0.275,0.017-0.551,0.024-0.825,0.043V257.01h17.067V274.376z"/>
			<path d="M238.473,331.745c-13.37,13.37-17.77,32.354-13.228,49.433l-29.01,29.002c-4.83,4.83-7.501,11.264-7.501,18.108     c0,6.827,2.671,13.261,7.501,18.099c4.992,4.992,11.546,7.484,18.099,7.484c6.562,0,13.107-2.492,18.099-7.484l28.982-28.982     c4.274,1.139,8.721,1.739,13.264,1.739c13.679,0,26.53-5.325,36.198-15.002c9.677-9.668,15.002-22.519,15.002-36.198     s-5.325-26.53-15.002-36.198c-9.668-9.677-22.519-15.002-36.198-15.002C261.001,316.744,248.15,322.069,238.473,331.745z      M220.368,434.321c-3.328,3.328-8.73,3.328-12.066,0c-1.604-1.621-2.5-3.763-2.5-6.033c0-2.287,0.887-4.429,2.5-6.033     l24.653-24.653c0.009,0.013,0.019,0.026,0.028,0.039c0.302,0.423,0.612,0.842,0.928,1.257c0.225,0.299,0.455,0.594,0.687,0.888     c0.203,0.256,0.407,0.511,0.616,0.764c0.425,0.516,0.861,1.023,1.307,1.522c0.062,0.069,0.122,0.14,0.184,0.209     c0.572,0.634,1.156,1.259,1.762,1.865c0.578,0.575,1.17,1.131,1.771,1.676c0.161,0.147,0.327,0.286,0.489,0.43     c0.384,0.339,0.769,0.677,1.163,1.004c0.373,0.312,0.752,0.614,1.133,0.915c0.15,0.117,0.298,0.236,0.449,0.351     c0.509,0.393,1.024,0.776,1.546,1.149L220.368,434.321z M308.813,367.944c0,9.114-3.55,17.681-10.001,24.132     c-12.902,12.902-35.371,12.902-48.273,0c-0.413-0.413-0.814-0.835-1.202-1.263c-2.726-3.026-4.877-6.526-6.408-10.431     c-0.051-0.129-0.118-0.248-0.174-0.373c-4.578-12.161-1.99-26.43,7.784-36.197c6.451-6.451,15.027-10.001,24.141-10.001     c9.114,0,17.681,3.55,24.132,10.001C305.263,350.263,308.813,358.83,308.813,367.944z"/>
		</g>
	</g>
</g>
<g>
</g>
<g>
</g>
<g>
</g>
<g>
</g>
<g>
</g>
<g>
</g>
<g>
</g>
<g>
</g>
<g>
</g>
<g>
</g>
<g>
</g>
<g>
</g>
<g>
</g>
<g>
</g>
<g>
</g>
</svg>
