<?xml version="1.0" encoding="iso-8859-1"?>
<!-- Generator: Adobe Illustrator 19.0.0, SVG Export Plug-In . SVG Version: 6.00 Build 0)  -->
<svg xmlns="http://www.w3.org/2000/svg" xmlns:xlink="http://www.w3.org/1999/xlink" version="1.1" id="Layer_1" x="0px" y="0px" viewBox="0 0 512.01 512.01" style="enable-background:new 0 0 512.01 512.01;" xml:space="preserve">
<g transform="translate(-1 -1)">
	<g>
		<g>
			<path d="M299.671,257.01c2.782,0,5.385-1.357,6.98-3.635l86.246-122.829c11.776-16.606,12.297-38.409,1.34-55.561L349.531,4.953     c-0.066-0.104-0.147-0.197-0.217-0.298c-0.121-0.172-0.239-0.346-0.371-0.507c-0.142-0.175-0.296-0.335-0.45-0.498     c-0.086-0.09-0.168-0.185-0.258-0.271c-1.527-1.479-3.563-2.354-5.71-2.356c-0.063-0.001-0.124-0.012-0.186-0.012H171.672     c-0.048,0-0.094,0.009-0.142,0.009c-1.807-0.012-3.544,0.607-4.97,1.691c-0.027,0.02-0.052,0.043-0.078,0.063     c-0.242,0.188-0.477,0.385-0.699,0.599c-0.102,0.097-0.195,0.204-0.293,0.307c-0.146,0.155-0.294,0.309-0.429,0.475     c-0.115,0.141-0.219,0.293-0.325,0.442c-0.085,0.119-0.18,0.229-0.259,0.352l-44.792,70.238     c-10.837,17.033-10.317,38.69,1.34,55.134l86.332,123.059c0.043,0.062,0.095,0.115,0.139,0.175     c0.111,0.15,0.226,0.294,0.346,0.436c0.115,0.136,0.233,0.266,0.356,0.393c0.119,0.124,0.24,0.244,0.366,0.36     c0.139,0.128,0.284,0.249,0.431,0.368c0.125,0.1,0.249,0.2,0.379,0.293c0.161,0.115,0.327,0.22,0.495,0.323     c0.131,0.081,0.26,0.162,0.395,0.236c0.176,0.095,0.357,0.178,0.539,0.261c0.139,0.064,0.276,0.131,0.419,0.187     c0.183,0.072,0.372,0.129,0.56,0.188c0.15,0.047,0.298,0.101,0.451,0.14c0.185,0.047,0.375,0.077,0.563,0.112     c0.162,0.03,0.322,0.068,0.486,0.089c0.187,0.023,0.378,0.026,0.568,0.037c0.163,0.009,0.324,0.032,0.488,0.032h17.068v19.837     c-53.615,11.751-93.867,59.605-93.867,116.696c0,65.877,53.589,119.467,119.467,119.467s119.467-53.589,119.467-119.467     c0-57.092-40.252-104.946-93.867-116.696V257.01H299.671z M257.251,150.286l-34.479-63.942h68.734L257.251,150.286z      M328.077,18.077l-27.429,51.2H213.58l-27.605-51.2H328.077z M134.08,84.361l36.975-57.984l76.535,141.935l-10.741,20.057     l-23.492,43.851l-78.391-111.737C127.33,109.697,126.98,95.514,134.08,84.361z M313.227,81.949     c0.02-0.036,0.045-0.067,0.065-0.103l29.692-55.422l36.874,57.743c7.194,11.273,6.852,25.6-0.905,36.54l-83.712,119.236h-21.17     h-34.133h-11.35L313.227,81.949z M359.405,393.544c0,56.465-45.935,102.4-102.4,102.4s-102.4-45.935-102.4-102.4     c0-51.121,37.653-93.61,86.683-101.194c1.174-0.182,2.356-0.339,3.543-0.479c0.212-0.025,0.425-0.049,0.638-0.073     c2.49-0.279,5.003-0.471,7.525-0.568c0.025-0.001,0.05-0.002,0.075-0.003c2.622-0.098,5.252-0.098,7.874,0     c0.025,0.001,0.05,0.002,0.075,0.003c2.522,0.096,5.035,0.289,7.525,0.568c0.213,0.024,0.425,0.048,0.638,0.073     c1.187,0.141,2.369,0.297,3.543,0.479C321.752,299.934,359.405,342.422,359.405,393.544z M265.538,274.376     c-0.274-0.019-0.551-0.026-0.825-0.043c-0.934-0.06-1.871-0.109-2.811-0.147c-0.353-0.014-0.705-0.029-1.059-0.04     c-1.275-0.04-2.554-0.068-3.839-0.068s-2.564,0.028-3.839,0.068c-0.353,0.011-0.706,0.026-1.059,0.04     c-0.94,0.038-1.877,0.087-2.811,0.147c-0.275,0.017-0.551,0.024-0.825,0.043V257.01h17.067V274.376z"/>
			<path d="M214.338,410.61c0,4.719,3.814,8.533,8.533,8.533h68.267c4.719,0,8.533-3.814,8.533-8.533s-3.814-8.533-8.533-8.533     h-68.267C218.153,402.077,214.338,405.891,214.338,410.61z"/>
			<path d="M239.938,367.944c-4.719,0-8.533,3.814-8.533,8.533s3.814,8.533,8.533,8.533h34.133c4.719,0,8.533-3.814,8.533-8.533     s-3.814-8.533-8.533-8.533H239.938z"/>
			<path d="M257.005,325.277c4.719,0,8.533-3.814,8.533-8.533s-3.814-8.533-8.533-8.533s-8.533,3.814-8.533,8.533     S252.286,325.277,257.005,325.277z"/>
			<path d="M257.005,461.81c-4.719,0-8.533,3.814-8.533,8.533s3.814,8.533,8.533,8.533s8.533-3.814,8.533-8.533     S261.724,461.81,257.005,461.81z"/>
			<path d="M333.805,402.077c4.719,0,8.533-3.814,8.533-8.533c0-4.719-3.814-8.533-8.533-8.533s-8.533,3.814-8.533,8.533     C325.272,398.263,329.086,402.077,333.805,402.077z"/>
			<path d="M180.205,385.01c-4.719,0-8.533,3.814-8.533,8.533c0,4.719,3.814,8.533,8.533,8.533s8.533-3.814,8.533-8.533     C188.738,388.825,184.924,385.01,180.205,385.01z"/>
			<path d="M317.347,345.269c3.337-3.337,3.337-8.73,0-12.066c-3.336-3.337-8.73-3.337-12.066,0s-3.337,8.73,0,12.066     C308.617,348.605,314.01,348.605,317.347,345.269z"/>
			<path d="M196.664,441.819c-3.336,3.337-3.336,8.73,0,12.066c3.337,3.337,8.73,3.337,12.066,0s3.337-8.73,0-12.066     C205.394,438.483,200,438.483,196.664,441.819z"/>
			<path d="M317.346,453.885c3.337-3.337,3.337-8.73,0-12.066c-3.336-3.336-8.73-3.336-12.066,0c-3.337,3.337-3.337,8.73,0,12.066     S314.009,457.222,317.346,453.885z"/>
			<path d="M208.729,345.269c3.337-3.337,3.337-8.73,0-12.066s-8.73-3.337-12.066,0c-3.337,3.337-3.337,8.73,0,12.066     C200,348.605,205.393,348.605,208.729,345.269z"/>
		</g>
	</g>
</g>
<g>
</g>
<g>
</g>
<g>
</g>
<g>
</g>
<g>
</g>
<g>
</g>
<g>
</g>
<g>
</g>
<g>
</g>
<g>
</g>
<g>
</g>
<g>
</g>
<g>
</g>
<g>
</g>
<g>
</g>
</svg>
