<?xml version="1.0" encoding="iso-8859-1"?>
<!-- Generator: Adobe Illustrator 19.0.0, SVG Export Plug-In . SVG Version: 6.00 Build 0)  -->
<svg xmlns="http://www.w3.org/2000/svg" xmlns:xlink="http://www.w3.org/1999/xlink" version="1.1" id="Layer_1" x="0px" y="0px" viewBox="0 0 512.01 512.01" style="enable-background:new 0 0 512.01 512.01;" xml:space="preserve">
<g transform="translate(-1 -1)">
	<g>
		<g>
			<path d="M299.671,257.01c2.782,0,5.385-1.357,6.98-3.635l86.246-122.829c11.776-16.606,12.297-38.409,1.34-55.561L349.531,4.953     c-0.067-0.104-0.147-0.197-0.217-0.298c-0.121-0.172-0.239-0.346-0.371-0.507c-0.158-0.195-0.329-0.375-0.502-0.555     c-0.063-0.065-0.121-0.134-0.186-0.197c-1.52-1.491-3.54-2.374-5.731-2.374c-0.062-0.001-0.123-0.012-0.185-0.012H171.672     c-0.048,0-0.095,0.009-0.143,0.009c-1.429-0.009-2.83,0.386-4.07,1.102c-0.009,0.005-0.017,0.011-0.025,0.016     c-0.283,0.165-0.558,0.342-0.821,0.538c-0.099,0.073-0.191,0.154-0.286,0.231c-0.175,0.143-0.35,0.284-0.515,0.441     c-0.133,0.126-0.256,0.262-0.381,0.397c-0.123,0.132-0.248,0.261-0.362,0.401c-0.122,0.149-0.232,0.308-0.344,0.466     c-0.081,0.114-0.173,0.219-0.249,0.338l-44.792,70.238c-10.837,17.033-10.317,38.69,1.34,55.134l86.332,123.059     c0.043,0.062,0.095,0.115,0.139,0.175c0.111,0.15,0.226,0.294,0.346,0.436c0.115,0.136,0.233,0.266,0.356,0.393     c0.119,0.124,0.24,0.244,0.366,0.36c0.139,0.128,0.284,0.249,0.431,0.368c0.125,0.1,0.249,0.2,0.379,0.293     c0.161,0.115,0.327,0.22,0.495,0.323c0.131,0.081,0.26,0.162,0.395,0.236c0.176,0.095,0.357,0.178,0.539,0.261     c0.139,0.064,0.276,0.131,0.419,0.187c0.183,0.072,0.372,0.129,0.56,0.188c0.15,0.047,0.298,0.101,0.451,0.14     c0.185,0.047,0.375,0.077,0.563,0.112c0.162,0.03,0.322,0.068,0.486,0.089c0.187,0.023,0.378,0.026,0.568,0.037     c0.163,0.009,0.324,0.032,0.488,0.032h17.068v19.837c-53.615,11.751-93.867,59.605-93.867,116.696     c0,65.877,53.589,119.467,119.467,119.467s119.467-53.589,119.467-119.467c0-57.092-40.252-104.946-93.867-116.696V257.01     H299.671z M257.251,150.286l-34.479-63.942h68.734L257.251,150.286z M328.077,18.077l-27.429,51.2H213.58l-27.605-51.2H328.077z      M134.08,84.361l36.975-57.984l76.535,141.935l-10.741,20.057l-23.492,43.851l-78.391-111.737     C127.33,109.697,126.98,95.514,134.08,84.361z M313.227,81.949c0.02-0.036,0.045-0.067,0.065-0.103l29.692-55.422l36.874,57.743     c7.194,11.273,6.852,25.6-0.905,36.54l-83.712,119.236h-21.17h-34.133h-11.35L313.227,81.949z M359.405,393.544     c0,56.465-45.935,102.4-102.4,102.4s-102.4-45.935-102.4-102.4c0-51.121,37.653-93.61,86.683-101.194     c1.174-0.182,2.356-0.339,3.543-0.479c0.212-0.025,0.425-0.049,0.638-0.073c2.49-0.279,5.003-0.471,7.525-0.568     c0.025-0.001,0.05-0.002,0.075-0.003c2.622-0.098,5.252-0.098,7.874,0c0.025,0.001,0.05,0.002,0.075,0.003     c2.522,0.096,5.035,0.289,7.525,0.568c0.213,0.024,0.425,0.048,0.638,0.073c1.187,0.141,2.369,0.297,3.543,0.479     C321.752,299.934,359.405,342.422,359.405,393.544z M265.538,274.376c-0.274-0.019-0.551-0.026-0.825-0.043     c-0.934-0.06-1.871-0.109-2.811-0.147c-0.353-0.014-0.705-0.029-1.059-0.04c-1.275-0.04-2.554-0.068-3.839-0.068     s-2.564,0.028-3.839,0.068c-0.353,0.011-0.706,0.026-1.059,0.04c-0.94,0.038-1.877,0.087-2.811,0.147     c-0.275,0.017-0.551,0.024-0.825,0.043V257.01h17.067V274.376z"/>
			<path d="M257.005,360.379l-17.852-38.678c-1.971-4.284-7.023-6.161-11.324-4.173c-4.284,1.971-6.153,7.049-4.173,11.324     l23.949,51.89l-21.662,46.934h-28.672c-4.719,0-8.533,3.814-8.533,8.533s3.814,8.533,8.533,8.533h34.133     c3.328,0,6.349-1.937,7.748-4.958l17.852-38.679l17.852,38.679c1.399,3.021,4.42,4.958,7.748,4.958h34.133     c4.719,0,8.533-3.814,8.533-8.533s-3.814-8.533-8.533-8.533h-28.672l-21.662-46.934l23.949-51.89     c1.98-4.275,0.111-9.353-4.173-11.324c-4.284-1.98-9.353-0.111-11.324,4.173L257.005,360.379z"/>
			<path d="M265.538,453.277h-17.067c-4.719,0-8.533,3.814-8.533,8.533c0,4.719,3.814,8.533,8.533,8.533h17.067     c4.719,0,8.533-3.814,8.533-8.533C274.072,457.091,270.257,453.277,265.538,453.277z"/>
		</g>
	</g>
</g>
<g>
</g>
<g>
</g>
<g>
</g>
<g>
</g>
<g>
</g>
<g>
</g>
<g>
</g>
<g>
</g>
<g>
</g>
<g>
</g>
<g>
</g>
<g>
</g>
<g>
</g>
<g>
</g>
<g>
</g>
</svg>
