<?xml version="1.0" encoding="iso-8859-1"?>
<!-- Generator: Adobe Illustrator 19.0.0, SVG Export Plug-In . SVG Version: 6.00 Build 0)  -->
<svg xmlns="http://www.w3.org/2000/svg" xmlns:xlink="http://www.w3.org/1999/xlink" version="1.1" id="Layer_1" x="0px" y="0px" viewBox="0 0 512.01 512.01" style="enable-background:new 0 0 512.01 512.01;" xml:space="preserve">
<g transform="translate(-1 -1)">
	<g>
		<g>
			<path d="M189.781,405.472c-0.683-3.891-1.033-7.91-1.041-11.93c0-1.297,0.034-2.603,0.102-3.9c0.282-4.702-3.319-8.73-8.03-9.003     c-4.42-0.282-8.73,3.319-9.003,8.038c-0.085,1.613-0.137,3.234-0.137,4.881c0.009,5.009,0.452,10.018,1.306,14.874     c0.725,4.147,4.326,7.049,8.388,7.049c0.495,0,0.998-0.034,1.493-0.128C187.503,414.535,190.609,410.115,189.781,405.472z"/>
			<path d="M186.18,362.644c1.34,0.776,2.807,1.143,4.258,1.143c2.953,0,5.82-1.527,7.398-4.267     c2.654-4.582,5.837-8.866,9.455-12.706c3.234-3.43,3.072-8.841-0.358-12.066c-3.43-3.234-8.841-3.081-12.058,0.358     c-4.531,4.804-8.508,10.146-11.819,15.88C180.693,355.058,182.092,360.28,186.18,362.644z"/>
			<path d="M230.613,329.944c0.973,0,1.971-0.171,2.944-0.529c4.958-1.809,10.129-3.055,15.386-3.669     c4.676-0.555,8.03-4.796,7.475-9.481c-0.546-4.676-4.762-8.055-9.472-7.475c-6.579,0.777-13.065,2.33-19.277,4.617     c-4.42,1.621-6.69,6.528-5.06,10.948C223.872,327.811,227.14,329.944,230.613,329.944z"/>
			<path d="M280.209,329.338c4.966,1.801,9.728,4.181,14.157,7.091c1.451,0.947,3.063,1.399,4.676,1.399     c2.782,0,5.504-1.357,7.134-3.849c2.586-3.942,1.493-9.233-2.449-11.819c-5.538-3.635-11.494-6.613-17.707-8.875     c-4.42-1.579-9.335,0.683-10.931,5.112C273.484,322.827,275.771,327.725,280.209,329.338z"/>
			<path d="M301.03,445.673c-4.045,3.422-8.474,6.366-13.184,8.755c-4.198,2.133-5.871,7.262-3.738,11.477     c1.502,2.953,4.497,4.659,7.612,4.659c1.297,0,2.62-0.299,3.857-0.922c5.888-2.987,11.426-6.673,16.486-10.957     c3.593-3.046,4.045-8.422,0.99-12.023C310.024,443.079,304.631,442.61,301.03,445.673z"/>
			<path d="M322.363,373.788c1.118,3.686,4.497,6.067,8.166,6.067c0.819,0,1.647-0.119,2.466-0.367     c4.514-1.365,7.066-6.127,5.7-10.633c-1.92-6.349-4.574-12.45-7.91-18.167c-2.381-4.062-7.595-5.427-11.674-3.081     c-4.062,2.381-5.444,7.603-3.072,11.674C318.703,363.855,320.827,368.728,322.363,373.788z"/>
			<path d="M334.139,398.228c-4.727-0.794-9.062,2.321-9.856,6.955c-0.905,5.214-2.415,10.317-4.506,15.181     c-1.86,4.326,0.145,9.335,4.48,11.204c1.092,0.469,2.236,0.691,3.362,0.691c3.302,0,6.451-1.929,7.842-5.163     c2.62-6.084,4.506-12.484,5.632-19.012C341.896,403.433,338.781,399.03,334.139,398.228z"/>
			<path d="M213.171,445.844c-4.045-3.396-7.706-7.279-10.889-11.537c-2.816-3.755-8.166-4.548-11.955-1.715     c-3.763,2.825-4.54,8.175-1.715,11.955c3.977,5.299,8.542,10.129,13.594,14.362c1.596,1.348,3.541,2.005,5.47,2.005     c2.449,0,4.864-1.033,6.545-3.055C217.258,454.249,216.78,448.873,213.171,445.844z"/>
			<path d="M257.007,461.81c-5.333,0-10.624-0.614-15.727-1.826c-4.565-1.075-9.173,1.741-10.274,6.323     c-1.092,4.599,1.741,9.199,6.323,10.283c6.4,1.519,13.022,2.287,19.678,2.287h0.307c4.719,0,8.38-3.814,8.38-8.533     S261.725,461.81,257.007,461.81z"/>
			<path d="M248.472,359.41v68.267c0,4.719,3.814,8.533,8.533,8.533s8.533-3.814,8.533-8.533V359.41     c0-4.719-3.814-8.533-8.533-8.533S248.472,354.691,248.472,359.41z"/>
			<path d="M231.405,359.41c0-4.719-3.814-8.533-8.533-8.533s-8.533,3.814-8.533,8.533v68.267c0,4.719,3.814,8.533,8.533,8.533     s8.533-3.814,8.533-8.533V359.41z"/>
			<path d="M291.138,436.21c4.719,0,8.533-3.814,8.533-8.533V359.41c0-4.719-3.814-8.533-8.533-8.533     c-4.719,0-8.533,3.814-8.533,8.533v68.267C282.605,432.396,286.419,436.21,291.138,436.21z"/>
			<path d="M299.671,257.01c2.782,0,5.385-1.357,6.98-3.635l86.246-122.829c11.776-16.606,12.297-38.409,1.34-55.561L349.531,4.953     c-0.064-0.099-0.141-0.187-0.208-0.284c-0.126-0.18-0.25-0.362-0.389-0.531c-0.13-0.16-0.272-0.306-0.412-0.456     c-0.098-0.104-0.192-0.212-0.295-0.31c-1.525-1.476-3.549-2.349-5.703-2.35c-0.063-0.001-0.123-0.012-0.186-0.012H171.672     c-0.048,0-0.095,0.009-0.143,0.009c-1.389-0.007-2.768,0.373-3.998,1.068c-0.103,0.057-0.2,0.123-0.301,0.184     c-0.19,0.118-0.38,0.235-0.562,0.368c-0.162,0.117-0.314,0.246-0.467,0.374c-0.121,0.102-0.244,0.199-0.359,0.307     c-0.161,0.151-0.31,0.313-0.46,0.477c-0.103,0.112-0.208,0.221-0.306,0.339c-0.128,0.156-0.244,0.323-0.362,0.489     c-0.078,0.11-0.167,0.211-0.24,0.324l-44.792,70.238c-10.837,17.033-10.317,38.69,1.34,55.134l86.332,123.059     c0.043,0.062,0.095,0.115,0.139,0.175c0.111,0.15,0.226,0.294,0.346,0.436c0.115,0.136,0.233,0.266,0.356,0.393     c0.119,0.124,0.24,0.244,0.366,0.36c0.139,0.128,0.284,0.249,0.431,0.368c0.125,0.1,0.249,0.2,0.379,0.293     c0.161,0.115,0.327,0.22,0.495,0.323c0.131,0.081,0.26,0.162,0.395,0.236c0.176,0.095,0.357,0.178,0.539,0.261     c0.139,0.064,0.276,0.131,0.419,0.187c0.183,0.072,0.372,0.129,0.56,0.188c0.15,0.047,0.298,0.101,0.451,0.14     c0.185,0.047,0.375,0.077,0.563,0.112c0.162,0.03,0.322,0.068,0.486,0.089c0.187,0.023,0.378,0.026,0.568,0.037     c0.163,0.009,0.324,0.032,0.488,0.032h17.068v19.837c-53.615,11.751-93.867,59.605-93.867,116.696     c0,65.877,53.589,119.467,119.467,119.467s119.467-53.589,119.467-119.467c0-57.092-40.252-104.946-93.867-116.696V257.01     H299.671z M257.251,150.286l-34.479-63.942h68.734L257.251,150.286z M328.077,18.077l-27.429,51.2H213.58l-27.605-51.2H328.077z      M134.08,84.361l36.975-57.984l76.535,141.935l-10.741,20.057l-23.492,43.851l-78.391-111.737     C127.33,109.697,126.98,95.514,134.08,84.361z M313.227,81.949c0.02-0.036,0.045-0.067,0.065-0.103l29.692-55.422l36.874,57.743     c7.194,11.273,6.852,25.6-0.905,36.54l-83.712,119.236h-21.17h-34.133h-11.35L313.227,81.949z M359.405,393.544     c0,56.465-45.935,102.4-102.4,102.4s-102.4-45.935-102.4-102.4c0-51.121,37.653-93.61,86.683-101.194     c1.174-0.182,2.356-0.339,3.543-0.479c0.212-0.025,0.425-0.049,0.638-0.073c2.49-0.279,5.003-0.471,7.525-0.568     c0.025-0.001,0.05-0.002,0.075-0.003c2.622-0.098,5.252-0.098,7.874,0c0.025,0.001,0.05,0.002,0.075,0.003     c2.522,0.096,5.035,0.289,7.525,0.568c0.213,0.024,0.425,0.048,0.638,0.073c1.187,0.141,2.369,0.297,3.543,0.479     C321.752,299.934,359.405,342.422,359.405,393.544z M265.538,274.376c-0.274-0.019-0.551-0.026-0.825-0.043     c-0.934-0.06-1.871-0.109-2.811-0.147c-0.353-0.014-0.705-0.029-1.059-0.04c-1.275-0.04-2.554-0.068-3.839-0.068     s-2.564,0.028-3.839,0.068c-0.353,0.011-0.706,0.026-1.059,0.04c-0.94,0.038-1.877,0.087-2.811,0.147     c-0.275,0.017-0.551,0.024-0.825,0.043V257.01h17.067V274.376z"/>
		</g>
	</g>
</g>
<g>
</g>
<g>
</g>
<g>
</g>
<g>
</g>
<g>
</g>
<g>
</g>
<g>
</g>
<g>
</g>
<g>
</g>
<g>
</g>
<g>
</g>
<g>
</g>
<g>
</g>
<g>
</g>
<g>
</g>
</svg>
