<?xml version="1.0" encoding="iso-8859-1"?>
<!-- Generator: Adobe Illustrator 19.0.0, SVG Export Plug-In . SVG Version: 6.00 Build 0)  -->
<svg xmlns="http://www.w3.org/2000/svg" xmlns:xlink="http://www.w3.org/1999/xlink" version="1.1" id="Layer_1" x="0px" y="0px" viewBox="0 0 512.032 512.032" style="enable-background:new 0 0 512.032 512.032;" xml:space="preserve">
<g transform="translate(-1 -1)">
	<g>
		<g>
			<path d="M189.789,405.485c-0.691-3.9-1.041-7.902-1.041-11.921c0-1.297,0.043-2.603,0.111-3.9c0.273-4.702-3.328-8.73-8.03-9.003     c-4.599-0.316-8.73,3.328-9.011,8.038c-0.085,1.613-0.137,3.234-0.137,4.855c0,5.009,0.435,10.027,1.297,14.908     c0.734,4.139,4.335,7.04,8.397,7.04c0.495,0,0.998-0.034,1.493-0.128C187.51,414.556,190.608,410.127,189.789,405.485z"/>
			<path d="M186.188,362.665c1.348,0.776,2.816,1.143,4.267,1.143c2.944,0,5.82-1.527,7.398-4.267     c2.654-4.591,5.837-8.866,9.455-12.698c3.234-3.439,3.072-8.841-0.35-12.075c-3.439-3.234-8.832-3.072-12.066,0.35     c-4.523,4.804-8.499,10.146-11.819,15.889C180.718,355.079,182.109,360.301,186.188,362.665z"/>
			<path d="M213.187,445.865c-4.053-3.396-7.714-7.279-10.889-11.529c-2.816-3.772-8.166-4.557-11.947-1.724     c-3.772,2.825-4.54,8.166-1.724,11.947c3.959,5.299,8.533,10.138,13.585,14.37c1.596,1.348,3.541,2.005,5.478,2.005     c2.441,0,4.855-1.033,6.545-3.055C217.266,454.27,216.797,448.894,213.187,445.865z"/>
			<path d="M322.371,373.81c1.109,3.686,4.497,6.067,8.158,6.067c0.828,0,1.655-0.119,2.483-0.367     c4.506-1.365,7.057-6.127,5.692-10.633c-1.911-6.332-4.574-12.442-7.919-18.167c-2.372-4.07-7.586-5.436-11.665-3.081     c-4.07,2.381-5.453,7.603-3.072,11.674C318.719,363.885,320.844,368.766,322.371,373.81z"/>
			<path d="M280.216,329.359c4.958,1.801,9.728,4.181,14.165,7.091c1.442,0.947,3.063,1.399,4.668,1.399     c2.782,0,5.513-1.357,7.142-3.857c2.586-3.942,1.485-9.225-2.458-11.81c-5.538-3.635-11.494-6.613-17.698-8.875     c-4.429-1.562-9.318,0.674-10.931,5.112C273.492,322.849,275.779,327.738,280.216,329.359z"/>
			<path d="M334.147,398.249c-4.676-0.811-9.062,2.304-9.856,6.955c-0.905,5.214-2.423,10.317-4.506,15.181     c-1.86,4.335,0.145,9.344,4.48,11.204c1.101,0.478,2.236,0.691,3.362,0.691c3.302,0,6.46-1.929,7.842-5.163     c2.611-6.084,4.506-12.484,5.632-19.012C341.912,403.463,338.789,399.051,334.147,398.249z"/>
			<path d="M301.055,445.686c-4.053,3.43-8.491,6.374-13.193,8.764c-4.198,2.133-5.871,7.262-3.738,11.477     c1.502,2.953,4.497,4.659,7.612,4.659c1.297,0,2.62-0.299,3.857-0.922c5.879-2.987,11.426-6.673,16.486-10.948     c3.593-3.055,4.045-8.431,0.998-12.032C310.04,443.092,304.656,442.656,301.055,445.686z"/>
			<path d="M257.014,461.831c-5.325,0-10.615-0.614-15.727-1.826c-4.591-1.109-9.182,1.741-10.274,6.323     c-1.084,4.599,1.749,9.199,6.34,10.283c6.391,1.519,13.005,2.287,19.661,2.287h0.307c4.71,0,8.38-3.814,8.38-8.533     S261.733,461.831,257.014,461.831z"/>
			<path d="M248.942,325.767c4.685-0.555,8.03-4.796,7.484-9.481c-0.555-4.676-4.847-8.055-9.472-7.475     c-6.579,0.777-13.073,2.33-19.277,4.617c-4.42,1.621-6.69,6.528-5.06,10.948c1.263,3.456,4.531,5.589,8.004,5.589     c0.981,0,1.971-0.171,2.944-0.529C238.514,327.627,243.694,326.381,248.942,325.767z"/>
			<path d="M248.483,359.432v68.267c0,4.719,3.823,8.533,8.533,8.533c4.71,0,8.533-3.814,8.533-8.533v-68.267     c0-4.719-3.823-8.533-8.533-8.533C252.306,350.898,248.483,354.713,248.483,359.432z"/>
			<path d="M299.686,257.032c2.773,0,5.385-1.357,6.98-3.635l86.246-122.829c11.768-16.606,12.297-38.409,1.34-55.561L349.689,5.211     c-0.006-0.01-0.01-0.021-0.016-0.032c-0.015-0.026-0.035-0.048-0.051-0.073l-0.084-0.132c-0.041-0.065-0.092-0.121-0.135-0.184     c-0.151-0.222-0.305-0.442-0.474-0.647c-0.106-0.13-0.223-0.248-0.336-0.37c-0.124-0.133-0.243-0.269-0.375-0.393     c-0.213-0.204-0.439-0.391-0.67-0.572c-0.035-0.027-0.067-0.057-0.102-0.083c-1.401-1.061-3.103-1.669-4.889-1.679     c-0.069-0.002-0.136-0.013-0.206-0.013H171.746c-2.552-0.175-5.063,1.13-6.7,3.178c-0.087,0.108-0.164,0.224-0.246,0.336     c-0.104,0.143-0.217,0.277-0.312,0.426l-44.783,70.238c-10.854,17.024-10.325,38.673,1.323,55.134l86.332,123.059     c0.068,0.097,0.149,0.183,0.221,0.276c0.065,0.084,0.131,0.166,0.198,0.248c0.156,0.188,0.318,0.367,0.488,0.54     c0.089,0.091,0.179,0.18,0.271,0.266c0.16,0.149,0.326,0.289,0.497,0.425c0.113,0.09,0.226,0.18,0.343,0.264     c0.162,0.116,0.329,0.222,0.499,0.326c0.135,0.083,0.269,0.167,0.408,0.243c0.163,0.088,0.331,0.165,0.499,0.242     c0.154,0.071,0.306,0.145,0.464,0.206c0.165,0.064,0.334,0.115,0.503,0.169c0.168,0.054,0.333,0.113,0.504,0.156     c0.172,0.044,0.349,0.071,0.524,0.104c0.173,0.033,0.343,0.073,0.519,0.095c0.192,0.024,0.388,0.027,0.583,0.038     c0.158,0.009,0.314,0.031,0.473,0.031h17.063v19.837c-53.615,11.751-93.867,59.605-93.867,116.696     c0,65.877,53.589,119.467,119.467,119.467s119.467-53.589,119.467-119.467c0-57.092-40.252-104.946-93.867-116.696v-19.837     H299.686z M257.269,150.303l-34.476-63.938h68.728L257.269,150.303z M185.983,18.098h142.11l-27.429,51.2h-87.072l-5.852-10.85     L185.983,18.098z M134.092,84.383l36.971-57.978l17.241,31.965l59.29,109.965l-25.598,47.812l-8.624,16.098l-78.393-111.731     C127.333,109.718,126.992,95.536,134.092,84.383z M313.26,81.937c0.013-0.024,0.031-0.045,0.044-0.069l29.69-55.431     l36.872,57.752c7.202,11.264,6.852,25.6-0.896,36.54l-83.721,119.236h-21.166h-34.133h-11.346L313.26,81.937z M359.416,393.565     c0,56.465-45.935,102.4-102.4,102.4s-102.4-45.935-102.4-102.4c0-51.109,37.634-93.589,86.647-101.188c0,0,0.001,0,0.001,0     c1.187-0.185,2.384-0.343,3.585-0.486c0.21-0.025,0.42-0.049,0.631-0.072c2.481-0.278,4.986-0.47,7.502-0.567     c0.035-0.001,0.07-0.003,0.105-0.004c2.621-0.098,5.251-0.098,7.874,0.001c0.014,0.001,0.029,0.001,0.043,0.002     c2.535,0.097,5.062,0.29,7.566,0.571c0.201,0.023,0.402,0.045,0.602,0.069c1.193,0.141,2.382,0.298,3.562,0.481     C321.763,299.955,359.416,342.444,359.416,393.565z M265.549,274.397c-0.274-0.019-0.551-0.026-0.825-0.043     c-0.934-0.06-1.871-0.109-2.811-0.147c-0.353-0.014-0.705-0.029-1.059-0.04c-1.275-0.04-2.554-0.068-3.839-0.068     c-1.285,0-2.564,0.028-3.839,0.068c-0.353,0.011-0.706,0.026-1.059,0.04c-0.94,0.038-1.877,0.087-2.811,0.147     c-0.275,0.017-0.551,0.024-0.825,0.043v-17.365h17.067V274.397z"/>
		</g>
	</g>
</g>
<g>
</g>
<g>
</g>
<g>
</g>
<g>
</g>
<g>
</g>
<g>
</g>
<g>
</g>
<g>
</g>
<g>
</g>
<g>
</g>
<g>
</g>
<g>
</g>
<g>
</g>
<g>
</g>
<g>
</g>
</svg>
