<?xml version="1.0" encoding="iso-8859-1"?>
<!-- Generator: Adobe Illustrator 19.0.0, SVG Export Plug-In . SVG Version: 6.00 Build 0)  -->
<svg xmlns="http://www.w3.org/2000/svg" xmlns:xlink="http://www.w3.org/1999/xlink" version="1.1" id="Layer_1" x="0px" y="0px" viewBox="0 0 512.032 512.032" style="enable-background:new 0 0 512.032 512.032;" xml:space="preserve">
<g transform="translate(-1 -1)">
	<g>
		<g>
			<path d="M299.686,257.032c2.773,0,5.385-1.357,6.98-3.635l86.246-122.829c11.768-16.606,12.297-38.409,1.34-55.561L349.689,5.211     c-0.006-0.01-0.01-0.021-0.016-0.032c-0.015-0.026-0.035-0.048-0.051-0.073l-0.084-0.132c-0.04-0.063-0.091-0.118-0.132-0.18     c-0.153-0.225-0.309-0.447-0.481-0.655c-0.097-0.118-0.204-0.226-0.307-0.339c-0.135-0.147-0.267-0.295-0.412-0.431     c-0.187-0.179-0.386-0.341-0.588-0.502c-0.065-0.051-0.127-0.107-0.194-0.157c-1.4-1.053-3.098-1.655-4.868-1.665     c-0.069-0.002-0.137-0.013-0.206-0.013H171.745c-2.559-0.175-5.065,1.131-6.701,3.18c-0.086,0.106-0.161,0.22-0.241,0.33     c-0.105,0.144-0.219,0.28-0.315,0.43l-44.783,70.238c-10.854,17.024-10.325,38.673,1.323,55.134l86.332,123.059     c0.068,0.097,0.149,0.183,0.221,0.276c0.065,0.084,0.131,0.166,0.198,0.248c0.156,0.188,0.318,0.367,0.488,0.54     c0.089,0.091,0.179,0.18,0.271,0.266c0.16,0.149,0.326,0.289,0.497,0.425c0.113,0.09,0.226,0.18,0.343,0.264     c0.162,0.116,0.329,0.222,0.499,0.326c0.135,0.083,0.269,0.167,0.408,0.243c0.163,0.088,0.331,0.165,0.499,0.242     c0.154,0.071,0.306,0.145,0.464,0.206c0.165,0.064,0.334,0.115,0.503,0.169c0.168,0.054,0.333,0.113,0.504,0.156     c0.172,0.044,0.349,0.071,0.524,0.104c0.173,0.033,0.343,0.073,0.519,0.095c0.192,0.024,0.388,0.027,0.583,0.038     c0.158,0.009,0.314,0.031,0.473,0.031h17.063v19.837c-53.615,11.751-93.867,59.605-93.867,116.696     c0,65.877,53.589,119.467,119.467,119.467s119.467-53.589,119.467-119.467c0-57.092-40.252-104.946-93.867-116.696v-19.837     H299.686z M257.269,150.303l-34.476-63.938h68.728L257.269,150.303z M185.983,18.098h142.11l-27.429,51.2h-87.072l-5.852-10.85     L185.983,18.098z M134.092,84.383l36.971-57.978l17.241,31.965l59.29,109.965l-25.598,47.812l-8.624,16.098l-78.393-111.731     C127.333,109.718,126.992,95.536,134.092,84.383z M313.26,81.937c0.013-0.024,0.031-0.045,0.044-0.069l29.69-55.431     l36.872,57.752c7.202,11.264,6.852,25.6-0.896,36.54l-83.721,119.236h-21.166h-34.133h-11.346L313.26,81.937z M359.416,393.565     c0,56.465-45.935,102.4-102.4,102.4s-102.4-45.935-102.4-102.4c0-51.109,37.634-93.589,86.647-101.188c0,0,0.001,0,0.001,0     c1.187-0.185,2.384-0.343,3.585-0.486c0.21-0.025,0.42-0.049,0.631-0.072c2.481-0.278,4.986-0.47,7.502-0.567     c0.035-0.001,0.07-0.003,0.105-0.004c2.621-0.098,5.251-0.098,7.874,0.001c0.014,0.001,0.029,0.001,0.043,0.002     c2.535,0.097,5.062,0.29,7.566,0.571c0.201,0.023,0.402,0.045,0.602,0.069c1.193,0.141,2.382,0.298,3.562,0.481     C321.763,299.955,359.416,342.444,359.416,393.565z M265.549,274.397c-0.274-0.019-0.551-0.026-0.825-0.043     c-0.934-0.06-1.871-0.109-2.811-0.147c-0.353-0.014-0.705-0.029-1.059-0.04c-1.275-0.04-2.554-0.068-3.839-0.068     c-1.285,0-2.564,0.028-3.839,0.068c-0.353,0.011-0.706,0.026-1.059,0.04c-0.94,0.038-1.877,0.087-2.811,0.147     c-0.275,0.017-0.551,0.024-0.825,0.043v-17.365h17.067V274.397z"/>
			<path d="M257.016,345.421c-6.259-7.099-15.411-11.59-25.6-11.59c-18.825,0-34.133,15.309-34.133,34.133     c0,3.228,0.46,6.349,1.301,9.311c-15.36,3.326-26.901,17.012-26.901,33.355c0,18.825,15.309,34.133,34.133,34.133     c10.189,0,19.342-4.491,25.601-11.59c6.259,7.101,15.412,11.592,25.602,11.592c10.185,0,19.338-4.491,25.599-11.591     c6.259,7.1,15.412,11.591,25.602,11.591c18.816,0,34.133-15.309,34.133-34.133c0-16.343-11.548-30.029-26.904-33.355     c0.841-2.963,1.302-6.084,1.302-9.313c0-18.825-15.309-34.133-34.133-34.133C272.427,333.832,263.275,338.322,257.016,345.421z      M231.416,350.898c9.412,0,17.067,7.654,17.067,17.067c0,4.658-1.879,8.882-4.914,11.964c-0.125,0.106-0.255,0.205-0.374,0.317     c-1.766,1.707-3.968,2.995-6.519,3.831c-0.329,0.108-0.648,0.239-0.96,0.384c-1.376,0.359-2.812,0.57-4.299,0.57     c-1.495,0-2.938-0.213-4.321-0.575c-0.304-0.141-0.615-0.267-0.936-0.372c-2.56-0.845-4.753-2.125-6.519-3.84     c-0.125-0.118-0.261-0.222-0.392-0.332c-3.026-3.081-4.899-7.297-4.899-11.947C214.349,358.553,222.004,350.898,231.416,350.898z      M205.816,427.698c-9.412,0-17.067-7.654-17.067-17.067c0-9.412,7.654-17.067,17.067-17.067c1.139,0,2.312,0.16,3.616,0.485     c2.795,2.359,5.973,4.274,9.426,5.646c2.6,3.079,4.025,6.903,4.025,10.936C222.883,420.044,215.228,427.698,205.816,427.698z      M257.019,427.7c-9.412,0-17.067-7.663-17.067-17.067c0-4.044,1.425-7.861,4.028-10.94c3.456-1.373,6.637-3.291,9.433-5.654     c2.602-0.644,4.605-0.644,7.207,0.001c2.795,2.361,5.974,4.279,9.428,5.652c2.611,3.08,4.037,6.897,4.037,10.942     C274.085,420.037,266.431,427.7,257.019,427.7z M325.285,410.633c0,9.404-7.654,17.067-17.067,17.067     c-9.412,0-17.067-7.663-17.067-17.067c0-4.044,1.425-7.861,4.028-10.94c3.456-1.373,6.636-3.291,9.433-5.654     c1.305-0.322,2.473-0.472,3.606-0.472C317.631,393.567,325.285,401.221,325.285,410.633z M299.683,367.965     c0,4.658-1.879,8.882-4.914,11.964c-0.125,0.106-0.255,0.205-0.374,0.317c-1.766,1.707-3.968,2.995-6.519,3.831     c-0.329,0.108-0.648,0.239-0.96,0.384c-1.376,0.359-2.812,0.57-4.299,0.57c-1.487,0-2.922-0.211-4.298-0.57     c-0.312-0.146-0.633-0.276-0.964-0.384c-2.552-0.836-4.745-2.125-6.519-3.831c-0.115-0.109-0.241-0.204-0.362-0.307     c-3.041-3.083-4.923-7.311-4.923-11.974c0-9.412,7.654-17.067,17.067-17.067C292.028,350.898,299.683,358.553,299.683,367.965z"/>
		</g>
	</g>
</g>
<g>
</g>
<g>
</g>
<g>
</g>
<g>
</g>
<g>
</g>
<g>
</g>
<g>
</g>
<g>
</g>
<g>
</g>
<g>
</g>
<g>
</g>
<g>
</g>
<g>
</g>
<g>
</g>
<g>
</g>
</svg>
