<?xml version="1.0" encoding="iso-8859-1"?>
<!-- Generator: Adobe Illustrator 19.0.0, SVG Export Plug-In . SVG Version: 6.00 Build 0)  -->
<svg xmlns="http://www.w3.org/2000/svg" xmlns:xlink="http://www.w3.org/1999/xlink" version="1.1" id="Layer_1" x="0px" y="0px" viewBox="0 0 512.032 512.032" style="enable-background:new 0 0 512.032 512.032;" xml:space="preserve">
<g transform="translate(-1 -1)">
	<g>
		<g>
			<path d="M299.686,257.032c2.773,0,5.385-1.357,6.98-3.635l86.246-122.829c11.768-16.606,12.297-38.409,1.34-55.561L349.689,5.211     c-0.006-0.01-0.01-0.021-0.016-0.032c-0.015-0.026-0.035-0.048-0.051-0.073l-0.084-0.132c-0.04-0.062-0.089-0.116-0.13-0.177     c-0.154-0.228-0.312-0.452-0.486-0.661c-0.089-0.108-0.187-0.207-0.281-0.311c-0.145-0.159-0.289-0.319-0.445-0.466     c-0.164-0.155-0.338-0.296-0.513-0.438c-0.093-0.075-0.182-0.154-0.278-0.225c-0.271-0.202-0.554-0.384-0.845-0.553     c-0.001-0.001-0.002-0.002-0.004-0.002c-1.213-0.699-2.584-1.088-3.998-1.096c-0.069-0.002-0.137-0.014-0.206-0.014H171.744     c-2.574-0.175-5.07,1.132-6.703,3.183c-0.082,0.102-0.155,0.212-0.233,0.318c-0.107,0.147-0.223,0.286-0.321,0.439     l-44.783,70.238c-10.854,17.024-10.325,38.673,1.323,55.134l86.332,123.059c0.068,0.097,0.149,0.183,0.221,0.276     c0.065,0.084,0.131,0.166,0.198,0.248c0.156,0.188,0.318,0.367,0.488,0.54c0.089,0.091,0.179,0.18,0.271,0.266     c0.16,0.149,0.326,0.289,0.497,0.425c0.113,0.09,0.226,0.18,0.343,0.264c0.162,0.116,0.329,0.222,0.499,0.326     c0.135,0.083,0.269,0.167,0.408,0.243c0.163,0.088,0.331,0.165,0.499,0.242c0.154,0.071,0.306,0.145,0.464,0.206     c0.165,0.064,0.334,0.115,0.503,0.169c0.168,0.054,0.333,0.113,0.504,0.156c0.172,0.044,0.349,0.071,0.524,0.104     c0.173,0.033,0.343,0.073,0.519,0.095c0.192,0.024,0.388,0.027,0.583,0.038c0.158,0.009,0.314,0.031,0.473,0.031h17.063v19.837     c-53.615,11.751-93.867,59.605-93.867,116.696c0,65.877,53.589,119.467,119.467,119.467s119.467-53.589,119.467-119.467     c0-57.092-40.252-104.946-93.867-116.696v-19.837H299.686z M257.269,150.303l-34.476-63.938h68.728L257.269,150.303z      M185.983,18.098h142.11l-27.429,51.2h-87.072l-5.852-10.85L185.983,18.098z M134.092,84.383l36.971-57.978l17.241,31.965     l59.29,109.965l-25.598,47.812l-8.624,16.098l-78.393-111.731C127.333,109.718,126.992,95.536,134.092,84.383z M313.26,81.937     c0.013-0.024,0.031-0.045,0.044-0.069l29.69-55.431l36.872,57.752c7.202,11.264,6.852,25.6-0.896,36.54l-83.721,119.236h-21.166     h-34.133h-11.346L313.26,81.937z M359.416,393.565c0,56.465-45.935,102.4-102.4,102.4s-102.4-45.935-102.4-102.4     c0-51.109,37.634-93.589,86.647-101.188c0,0,0.001,0,0.001,0c1.187-0.185,2.384-0.343,3.585-0.486     c0.21-0.025,0.42-0.049,0.631-0.072c2.481-0.278,4.986-0.47,7.502-0.567c0.035-0.001,0.07-0.003,0.105-0.004     c2.621-0.098,5.251-0.098,7.874,0.001c0.014,0.001,0.029,0.001,0.043,0.002c2.535,0.097,5.062,0.29,7.566,0.571     c0.201,0.023,0.402,0.045,0.602,0.069c1.193,0.141,2.382,0.298,3.562,0.481C321.763,299.955,359.416,342.444,359.416,393.565z      M265.549,274.397c-0.274-0.019-0.551-0.026-0.825-0.043c-0.934-0.06-1.871-0.109-2.811-0.147     c-0.353-0.014-0.705-0.029-1.059-0.04c-1.275-0.04-2.554-0.068-3.839-0.068c-1.285,0-2.564,0.028-3.839,0.068     c-0.353,0.011-0.706,0.026-1.059,0.04c-0.94,0.038-1.877,0.087-2.811,0.147c-0.275,0.017-0.551,0.024-0.825,0.043v-17.365h17.067     V274.397z"/>
			<path d="M257.018,308.232C257.017,308.232,257.017,308.232,257.018,308.232c-0.001,0-0.001,0-0.001,0c0,0,0,0,0,0     c0,0-0.001,0-0.001,0c-1.368,0-2.731,0.039-4.089,0.104c-0.145,0.007-0.291,0.011-0.437,0.018     c-1.298,0.068-2.59,0.17-3.876,0.296c-0.18,0.018-0.36,0.034-0.54,0.053c-1.291,0.135-2.575,0.299-3.852,0.491     c-0.13,0.02-0.26,0.04-0.39,0.06c-20.785,3.225-39.688,14.017-53.187,30.722c-0.156,0.193-0.303,0.393-0.441,0.599     c-10.181,12.81-16.757,28.595-18.198,45.826c-0.025,0.284-0.043,0.567-0.065,0.851c-0.069,0.932-0.131,1.866-0.169,2.806     c-0.047,1.066-0.077,2.129-0.081,3.187c0,0.107-0.008,0.213-0.008,0.32c0,0.098,0.007,0.194,0.007,0.291     c0.004,1.197,0.037,2.39,0.091,3.581c0.011,0.246,0.017,0.494,0.03,0.739c0.062,1.14,0.153,2.274,0.26,3.406     c0.035,0.374,0.067,0.748,0.107,1.121c0.11,1.02,0.242,2.036,0.388,3.048c0.069,0.484,0.141,0.966,0.218,1.447     c0.149,0.919,0.313,1.833,0.492,2.745c0.111,0.567,0.228,1.13,0.35,1.693c0.167,0.771,0.345,1.539,0.533,2.304     c0.169,0.685,0.347,1.366,0.532,2.044c0.131,0.48,0.269,0.958,0.409,1.436c0.273,0.937,0.561,1.867,0.865,2.791     c0.138,0.42,0.281,0.839,0.426,1.257c0.327,0.941,0.669,1.874,1.027,2.8c0.168,0.434,0.338,0.868,0.513,1.299     c0.332,0.816,0.676,1.625,1.032,2.429c0.238,0.539,0.48,1.077,0.729,1.611c0.25,0.533,0.501,1.065,0.761,1.592     c0.389,0.789,0.792,1.572,1.205,2.35c0.248,0.465,0.501,0.926,0.757,1.386c0.455,0.818,0.919,1.63,1.401,2.433     c0.229,0.382,0.466,0.758,0.701,1.135c0.446,0.718,0.902,1.43,1.37,2.136c0.265,0.399,0.533,0.796,0.805,1.19     c0.503,0.731,1.018,1.454,1.544,2.17c0.211,0.287,0.418,0.577,0.633,0.861c0.627,0.831,1.273,1.648,1.932,2.457     c0.242,0.297,0.484,0.594,0.729,0.888c0.659,0.788,1.332,1.566,2.021,2.333c0.264,0.294,0.532,0.583,0.8,0.874     c0.675,0.73,1.359,1.453,2.061,2.162c0.292,0.294,0.59,0.582,0.885,0.872c0.57,0.559,1.148,1.11,1.735,1.655     c0.379,0.352,0.759,0.702,1.144,1.046c0.482,0.431,0.966,0.86,1.459,1.282c0.063,0.053,0.13,0.099,0.193,0.15     c14.891,12.659,34.155,20.321,55.184,20.321c17.195,0,33.207-5.13,46.619-13.914c0.054-0.035,0.108-0.069,0.162-0.104     c0.63-0.415,1.253-0.838,1.871-1.269c0.523-0.362,1.039-0.732,1.552-1.105c0.359-0.262,0.722-0.518,1.076-0.785     c17.759-13.31,29.572-32.923,33.007-54.835c0.032-0.202,0.065-0.404,0.095-0.607c0.197-1.316,0.37-2.638,0.506-3.969     c0.006-0.054,0.009-0.109,0.014-0.164c0.123-1.232,0.213-2.472,0.283-3.716c0.017-0.307,0.034-0.615,0.048-0.923     c0.06-1.309,0.101-2.622,0.101-3.943c0-0.012-0.002-0.023-0.002-0.035C342.329,346.494,304.058,308.233,257.018,308.232z      M320.66,368.919c-1.199-0.619-2.536-0.954-3.91-0.954h-25.6v-25.6c0-2.27-0.904-4.437-2.5-6.033l-6.034-6.034     C300.012,337.363,313.85,351.396,320.66,368.919z M324.955,400.199c-0.019,0.198-0.038,0.397-0.059,0.595     c-0.108,1.025-0.236,2.045-0.39,3.056c-0.017,0.109-0.036,0.218-0.053,0.327c-0.153,0.976-0.326,1.944-0.52,2.906     c-0.023,0.112-0.043,0.224-0.066,0.336c-0.218,1.053-0.459,2.098-0.725,3.133c-0.012,0.046-0.024,0.091-0.036,0.136     c-3.378,13.028-10.516,24.558-20.182,33.357c-0.017,0.016-0.034,0.032-0.052,0.048c-0.728,0.662-1.475,1.304-2.232,1.934     c-0.275,0.228-0.555,0.45-0.834,0.674c-0.374,0.302-0.753,0.597-1.133,0.891c-2.729,2.096-5.634,4.01-8.709,5.707h-3.814     l-20.599-20.599v-27.068l20.599-20.599h27.068l11.978,11.978C325.142,398.08,325.058,399.142,324.955,400.199z M194.74,421.474     c-0.428-0.951-0.833-1.911-1.217-2.88c-0.008-0.021-0.017-0.043-0.025-0.064c-0.377-0.956-0.732-1.921-1.066-2.893     c-0.014-0.04-0.027-0.081-0.041-0.121c-0.325-0.953-0.629-1.913-0.911-2.881c-0.021-0.071-0.04-0.142-0.061-0.213     c-0.271-0.94-0.523-1.885-0.753-2.837c-0.027-0.112-0.052-0.225-0.078-0.337c-0.217-0.916-0.417-1.837-0.596-2.764     c-0.032-0.166-0.059-0.333-0.089-0.499c-0.163-0.88-0.314-1.764-0.443-2.652c-0.034-0.238-0.06-0.478-0.091-0.716     c-0.111-0.829-0.216-1.659-0.297-2.494c-0.031-0.323-0.048-0.65-0.074-0.975c-0.063-0.766-0.127-1.532-0.164-2.302     c-0.019-0.396-0.018-0.797-0.03-1.195c-0.021-0.694-0.049-1.388-0.049-2.085c0-0.131,0.006-0.263,0.007-0.394     c0.004-0.779,0.029-1.553,0.059-2.326c0.021-0.501,0.042-1.002,0.075-1.505c0.001-0.017,0.003-0.034,0.004-0.051     c0.094-1.409,0.233-2.829,0.419-4.257h4.435l20.602,20.602v27.065l-7.305,7.296c-5.119-5.496-9.259-11.75-12.297-18.496     C194.747,421.49,194.744,421.482,194.74,421.474z M226.419,393.565l-20.602-20.602v-24.479c0.117-0.133,0.23-0.27,0.349-0.403     c0.368-0.412,0.747-0.813,1.124-1.215c0.42-0.447,0.837-0.896,1.269-1.331c0.268-0.271,0.544-0.532,0.816-0.798     c0.558-0.544,1.116-1.088,1.692-1.613c0.115-0.105,0.233-0.204,0.348-0.308c9.554-8.594,21.538-14.533,34.782-16.651     c0.153-0.024,0.303-0.057,0.456-0.081c0.836-0.128,1.681-0.225,2.526-0.322c0.3-0.034,0.596-0.082,0.897-0.113     c0.866-0.088,1.74-0.145,2.615-0.2c0.28-0.018,0.557-0.049,0.837-0.063c0.015-0.001,0.03,0,0.045-0.001l20.512,20.512v27.068     l-20.599,20.599H226.419z M220.186,450.998l8.733-8.733c1.596-1.596,2.5-3.763,2.5-6.033v-25.6h17.064v25.6     c0,2.27,0.896,4.437,2.5,6.033l18.42,18.42c-4.02,0.74-8.156,1.147-12.388,1.147     C243.458,461.832,230.821,457.842,220.186,450.998z"/>
		</g>
	</g>
</g>
<g>
</g>
<g>
</g>
<g>
</g>
<g>
</g>
<g>
</g>
<g>
</g>
<g>
</g>
<g>
</g>
<g>
</g>
<g>
</g>
<g>
</g>
<g>
</g>
<g>
</g>
<g>
</g>
<g>
</g>
</svg>
