<?xml version="1.0" encoding="iso-8859-1"?>
<!-- Generator: Adobe Illustrator 19.0.0, SVG Export Plug-In . SVG Version: 6.00 Build 0)  -->
<svg xmlns="http://www.w3.org/2000/svg" xmlns:xlink="http://www.w3.org/1999/xlink" version="1.1" id="Layer_1" x="0px" y="0px" viewBox="0 0 512.032 512.032" style="enable-background:new 0 0 512.032 512.032;" xml:space="preserve">
<g transform="translate(-1 -1)">
	<g>
		<g>
			<path d="M264.798,312.869c-2.918-5.683-12.254-5.683-15.172,0l-21.043,40.917l-49.152,5.7c-3.251,0.375-5.999,2.577-7.074,5.675     c-1.075,3.089-0.299,6.519,2.022,8.841l39.561,39.552l-7.808,46.882c-0.563,3.362,0.939,6.741,3.806,8.576     c2.876,1.843,6.571,1.792,9.395-0.111l37.88-25.694l37.879,25.694c1.442,0.973,3.115,1.468,4.787,1.468     c1.596,0,3.2-0.452,4.608-1.357c2.867-1.835,4.369-5.214,3.806-8.576l-7.808-46.882l39.56-39.552     c2.321-2.321,3.098-5.751,2.022-8.841c-1.075-3.098-3.823-5.299-7.074-5.675l-49.152-5.7L264.798,312.869z M285.313,404.602     c-1.954,1.946-2.842,4.71-2.381,7.432l5.257,31.556l-26.189-17.758c-1.442-0.973-3.115-1.468-4.787-1.468     c-1.673,0-3.345,0.495-4.787,1.468l-26.189,17.758l5.257-31.556c0.461-2.722-0.427-5.487-2.381-7.432l-30.191-30.191     l36.156-4.198c2.825-0.324,5.299-2.039,6.605-4.574l15.531-30.208l15.531,30.208c1.306,2.534,3.78,4.25,6.605,4.574l36.156,4.198     L285.313,404.602z"/>
			<path d="M299.686,257.032c2.773,0,5.385-1.357,6.98-3.635l86.246-122.829c11.768-16.606,12.297-38.409,1.34-55.561L349.689,5.211     c-0.006-0.01-0.01-0.021-0.016-0.032c-0.015-0.026-0.035-0.048-0.051-0.073l-0.084-0.132c-0.039-0.061-0.087-0.114-0.128-0.174     c-0.156-0.23-0.316-0.457-0.492-0.669c-0.081-0.099-0.171-0.189-0.257-0.283c-0.156-0.171-0.31-0.342-0.479-0.499     c-0.142-0.134-0.293-0.255-0.443-0.378c-0.119-0.097-0.234-0.198-0.357-0.288c-0.236-0.175-0.483-0.331-0.734-0.48     c-0.041-0.024-0.08-0.051-0.121-0.074c-1.209-0.691-2.572-1.074-3.969-1.083c-0.069-0.002-0.137-0.014-0.207-0.014H171.744     c-2.581-0.175-5.072,1.133-6.704,3.185c-0.081,0.1-0.151,0.208-0.228,0.312c-0.108,0.148-0.225,0.289-0.324,0.443l-44.783,70.238     c-10.854,17.024-10.325,38.673,1.323,55.134l86.332,123.059c0.068,0.097,0.149,0.183,0.221,0.276     c0.065,0.084,0.131,0.166,0.198,0.248c0.156,0.188,0.318,0.367,0.488,0.54c0.089,0.091,0.179,0.18,0.271,0.266     c0.16,0.149,0.326,0.289,0.497,0.425c0.113,0.09,0.226,0.18,0.343,0.264c0.162,0.116,0.329,0.222,0.499,0.326     c0.135,0.083,0.269,0.167,0.408,0.243c0.163,0.088,0.331,0.165,0.499,0.242c0.154,0.071,0.306,0.145,0.464,0.206     c0.165,0.064,0.334,0.115,0.503,0.169c0.168,0.054,0.333,0.113,0.504,0.156c0.172,0.044,0.349,0.071,0.524,0.104     c0.173,0.033,0.343,0.073,0.519,0.095c0.192,0.024,0.388,0.027,0.583,0.038c0.158,0.009,0.314,0.031,0.473,0.031h17.063v19.837     c-53.615,11.751-93.867,59.605-93.867,116.696c0,65.877,53.589,119.467,119.467,119.467s119.467-53.589,119.467-119.467     c0-57.092-40.252-104.946-93.867-116.696v-19.837H299.686z M257.269,150.303l-34.476-63.938h68.728L257.269,150.303z      M185.983,18.098h142.11l-27.429,51.2h-87.072l-5.852-10.85L185.983,18.098z M134.092,84.383l36.971-57.978l17.241,31.965     l59.29,109.965l-25.598,47.812l-8.624,16.098l-78.393-111.731C127.333,109.718,126.992,95.536,134.092,84.383z M313.26,81.937     c0.013-0.024,0.031-0.045,0.044-0.069l29.69-55.431l36.872,57.752c7.202,11.264,6.852,25.6-0.896,36.54l-83.721,119.236h-21.166     h-34.133h-11.346L313.26,81.937z M359.416,393.565c0,56.465-45.935,102.4-102.4,102.4s-102.4-45.935-102.4-102.4     c0-51.109,37.634-93.589,86.647-101.188c0,0,0.001,0,0.001,0c1.187-0.185,2.384-0.343,3.585-0.486     c0.21-0.025,0.42-0.049,0.631-0.072c2.481-0.278,4.986-0.47,7.502-0.567c0.035-0.001,0.07-0.003,0.105-0.004     c2.621-0.098,5.251-0.098,7.874,0.001c0.014,0.001,0.029,0.001,0.043,0.002c2.535,0.097,5.062,0.29,7.566,0.571     c0.201,0.023,0.402,0.045,0.602,0.069c1.193,0.141,2.382,0.298,3.562,0.481C321.763,299.955,359.416,342.444,359.416,393.565z      M265.549,274.397c-0.274-0.019-0.551-0.026-0.825-0.043c-0.934-0.06-1.871-0.109-2.811-0.147     c-0.353-0.014-0.705-0.029-1.059-0.04c-1.275-0.04-2.554-0.068-3.839-0.068c-1.285,0-2.564,0.028-3.839,0.068     c-0.353,0.011-0.706,0.026-1.059,0.04c-0.94,0.038-1.877,0.087-2.811,0.147c-0.275,0.017-0.551,0.024-0.825,0.043v-17.365h17.067     V274.397z"/>
		</g>
	</g>
</g>
<g>
</g>
<g>
</g>
<g>
</g>
<g>
</g>
<g>
</g>
<g>
</g>
<g>
</g>
<g>
</g>
<g>
</g>
<g>
</g>
<g>
</g>
<g>
</g>
<g>
</g>
<g>
</g>
<g>
</g>
</svg>
