<?xml version="1.0" encoding="iso-8859-1"?>
<!-- Generator: Adobe Illustrator 19.0.0, SVG Export Plug-In . SVG Version: 6.00 Build 0)  -->
<svg xmlns="http://www.w3.org/2000/svg" xmlns:xlink="http://www.w3.org/1999/xlink" version="1.1" id="Layer_1" x="0px" y="0px" viewBox="0 0 512.015 512.015" style="enable-background:new 0 0 512.015 512.015;" xml:space="preserve">
<g transform="translate(-1 -1)">
	<g>
		<g>
			<path d="M341.955,388.626c-0.032-0.21-0.062-0.42-0.098-0.63c-0.103-0.59-0.227-1.178-0.363-1.763     c-5.753-25.12-40.791-43.885-84.487-43.885c-43.697,0-78.736,18.766-84.487,43.887c-0.136,0.585-0.259,1.171-0.362,1.761     c-0.036,0.21-0.066,0.422-0.098,0.633c-0.113,0.727-0.206,1.456-0.269,2.189c-0.005,0.062-0.008,0.124-0.012,0.186     c-0.067,0.845-0.106,1.694-0.106,2.546c0,0.853,0.039,1.702,0.107,2.548c0.005,0.06,0.007,0.119,0.012,0.179     c0.063,0.735,0.157,1.467,0.27,2.196c0.032,0.209,0.061,0.418,0.097,0.626c0.103,0.59,0.227,1.177,0.363,1.762     c5.751,25.121,40.79,43.887,84.488,43.887c43.697,0,78.735-18.765,84.487-43.886c0.136-0.586,0.26-1.174,0.363-1.765     c0.036-0.207,0.065-0.415,0.097-0.623c0.113-0.73,0.207-1.463,0.27-2.199c0.005-0.058,0.007-0.117,0.012-0.175     c0.068-0.847,0.107-1.697,0.107-2.55c0-0.853-0.039-1.702-0.106-2.548c-0.005-0.061-0.007-0.122-0.012-0.183     C342.162,390.084,342.068,389.354,341.955,388.626z M299.676,393.55c0-7.678,3.568-14.99,10.141-21.015     c9.821,6.188,15.456,13.783,15.456,21.013c0,7.23-5.636,14.826-15.458,21.015C303.243,408.538,299.676,401.218,299.676,393.55z      M293.508,364.979c-5.054,6.019-8.473,12.848-9.991,20.036H265.54c0-4.719-3.814-8.533-8.533-8.533     c-4.719,0-8.533,3.814-8.533,8.533h-17.976c-1.519-7.188-4.938-14.017-9.991-20.036c10.299-3.441,22.68-5.564,36.501-5.564     C270.828,359.415,283.208,361.538,293.508,364.979z M188.74,393.548c0-7.23,5.635-14.825,15.456-21.013     c6.574,6.025,10.141,13.337,10.141,21.015c0,7.669-3.567,14.989-10.139,21.013C194.376,408.374,188.74,400.779,188.74,393.548z      M220.504,422.117c5.055-6.018,8.475-12.847,9.994-20.035h17.975c0,4.719,3.814,8.533,8.533,8.533     c4.719,0,8.533-3.814,8.533-8.533h17.975c1.519,7.188,4.939,14.017,9.994,20.035c-10.3,3.442-22.681,5.565-36.503,5.565     C243.185,427.681,230.804,425.558,220.504,422.117z"/>
			<path d="M299.673,257.015c2.782,0,5.385-1.357,6.98-3.635L392.9,130.551c11.776-16.606,12.297-38.409,1.34-55.561L349.533,4.957     c-0.07-0.11-0.155-0.208-0.229-0.315c-0.115-0.162-0.225-0.327-0.35-0.48c-0.206-0.257-0.428-0.498-0.659-0.729     c-0.001-0.001-0.002-0.002-0.003-0.003c-1.539-1.538-3.596-2.456-5.844-2.408c-0.036,0-0.07-0.007-0.106-0.007H171.675     c-0.074,0-0.145,0.012-0.219,0.014c-2.179,0.023-4.187,0.896-5.701,2.374c-0.066,0.064-0.125,0.134-0.19,0.2     c-0.177,0.184-0.352,0.368-0.513,0.568c-0.107,0.132-0.203,0.274-0.302,0.412c-0.09,0.125-0.189,0.241-0.272,0.371     l-44.792,70.238c-10.837,17.033-10.317,38.69,1.34,55.134l86.332,123.059c0.043,0.062,0.095,0.115,0.139,0.175     c0.111,0.15,0.226,0.294,0.346,0.436c0.115,0.136,0.233,0.266,0.356,0.393c0.119,0.124,0.24,0.244,0.366,0.36     c0.139,0.128,0.284,0.249,0.431,0.368c0.125,0.1,0.249,0.2,0.379,0.293c0.161,0.115,0.327,0.22,0.495,0.323     c0.131,0.081,0.26,0.162,0.395,0.236c0.176,0.095,0.357,0.178,0.539,0.261c0.139,0.064,0.276,0.131,0.419,0.187     c0.183,0.072,0.372,0.129,0.56,0.188c0.15,0.047,0.298,0.101,0.451,0.14c0.185,0.047,0.375,0.077,0.563,0.112     c0.162,0.03,0.322,0.068,0.486,0.089c0.187,0.023,0.378,0.026,0.568,0.037c0.163,0.009,0.324,0.032,0.488,0.032h17.068v19.837     c-53.615,11.751-93.867,59.605-93.867,116.696c0,65.877,53.589,119.467,119.467,119.467s119.467-53.589,119.467-119.467     c0-57.092-40.252-104.946-93.867-116.696v-19.837H299.673z M257.253,150.29l-34.479-63.942h68.734L257.253,150.29z      M328.079,18.081l-27.429,51.2h-87.069l-27.605-51.2H328.079z M134.082,84.366l36.975-57.984l76.535,141.935l-10.741,20.057     l-23.492,43.851l-78.391-111.737C127.332,109.701,126.982,95.519,134.082,84.366z M313.229,81.954     c0.02-0.036,0.045-0.067,0.065-0.103l29.692-55.422l36.874,57.743c7.194,11.273,6.852,25.6-0.905,36.54l-83.712,119.236h-21.17     H239.94h-11.35L313.229,81.954z M359.407,393.548c0,56.465-45.935,102.4-102.4,102.4s-102.4-45.935-102.4-102.4     c0-51.121,37.653-93.61,86.683-101.194c1.174-0.182,2.356-0.339,3.543-0.479c0.212-0.025,0.425-0.049,0.638-0.073     c2.49-0.279,5.003-0.471,7.525-0.568c0.025-0.001,0.05-0.002,0.075-0.003c2.622-0.098,5.252-0.098,7.874,0     c0.025,0.001,0.05,0.002,0.075,0.003c2.522,0.096,5.035,0.289,7.525,0.568c0.213,0.024,0.425,0.048,0.638,0.073     c1.187,0.141,2.369,0.297,3.543,0.479C321.754,299.938,359.407,342.427,359.407,393.548z M265.54,274.38     c-0.274-0.019-0.551-0.026-0.825-0.043c-0.934-0.06-1.871-0.109-2.811-0.147c-0.353-0.014-0.705-0.029-1.059-0.04     c-1.275-0.04-2.554-0.068-3.839-0.068c-1.285,0-2.564,0.028-3.839,0.068c-0.353,0.011-0.706,0.026-1.059,0.04     c-0.94,0.038-1.877,0.087-2.811,0.147c-0.275,0.017-0.551,0.024-0.825,0.043v-17.365h17.067V274.38z"/>
		</g>
	</g>
</g>
<g>
</g>
<g>
</g>
<g>
</g>
<g>
</g>
<g>
</g>
<g>
</g>
<g>
</g>
<g>
</g>
<g>
</g>
<g>
</g>
<g>
</g>
<g>
</g>
<g>
</g>
<g>
</g>
<g>
</g>
</svg>
