<?xml version="1.0" encoding="iso-8859-1"?>
<!-- Generator: Adobe Illustrator 19.0.0, SVG Export Plug-In . SVG Version: 6.00 Build 0)  -->
<svg xmlns="http://www.w3.org/2000/svg" xmlns:xlink="http://www.w3.org/1999/xlink" version="1.1" id="Layer_1" x="0px" y="0px" viewBox="0 0 512.015 512.015" style="enable-background:new 0 0 512.015 512.015;" xml:space="preserve">
<g transform="translate(-1 -1)">
	<g>
		<g>
			<path d="M341.944,385.426c-0.04-0.42-0.084-0.838-0.13-1.255c-0.106-0.969-0.23-1.934-0.369-2.896     c-0.052-0.362-0.101-0.725-0.158-1.086c-0.181-1.145-0.385-2.284-0.612-3.417c-0.032-0.162-0.058-0.325-0.092-0.487     c-0.271-1.314-0.573-2.621-0.906-3.918c-0.068-0.265-0.148-0.524-0.218-0.788c-0.257-0.96-0.525-1.917-0.816-2.867     c-0.167-0.549-0.349-1.091-0.527-1.635c-0.204-0.619-0.41-1.237-0.628-1.851c-0.25-0.708-0.51-1.41-0.778-2.11     c-0.14-0.364-0.284-0.726-0.43-1.088c-12.567-31.492-43.353-53.814-79.274-53.814c-35.922,0-66.708,22.322-79.274,53.814     c-0.145,0.362-0.289,0.724-0.429,1.087c-0.268,0.7-0.529,1.403-0.779,2.112c-0.218,0.613-0.423,1.23-0.626,1.847     c-0.178,0.545-0.36,1.088-0.527,1.638c-0.29,0.948-0.558,1.903-0.815,2.862c-0.071,0.266-0.151,0.528-0.22,0.795     c-0.333,1.297-0.635,2.603-0.906,3.917c-0.033,0.161-0.059,0.325-0.092,0.487c-0.227,1.133-0.431,2.272-0.612,3.417     c-0.057,0.361-0.106,0.724-0.158,1.086c-0.139,0.962-0.263,1.927-0.369,2.896c-0.046,0.418-0.09,0.836-0.13,1.255     c-0.091,0.963-0.163,1.93-0.221,2.899c-0.024,0.392-0.054,0.781-0.073,1.175c-0.063,1.344-0.103,2.692-0.103,4.047     c0,0,0,0.001,0,0.001c0,0,0,0,0,0.001c0,0.002,0,0.005,0,0.007c0,1.352,0.04,2.697,0.102,4.039     c0.019,0.396,0.049,0.788,0.073,1.182c0.058,0.967,0.13,1.932,0.221,2.893c0.04,0.419,0.084,0.837,0.13,1.255     c0.106,0.972,0.231,1.94,0.37,2.904c0.052,0.358,0.1,0.716,0.156,1.073c0.183,1.16,0.39,2.314,0.62,3.463     c0.029,0.145,0.052,0.292,0.082,0.437c0.273,1.323,0.576,2.637,0.912,3.942c0.059,0.231,0.129,0.457,0.19,0.687     c0.266,0.998,0.545,1.992,0.848,2.979c0.159,0.522,0.332,1.038,0.501,1.556c0.213,0.649,0.429,1.297,0.658,1.941     c0.241,0.682,0.492,1.359,0.75,2.033c0.152,0.395,0.309,0.789,0.467,1.182c12.58,31.464,43.352,53.761,79.253,53.761     c35.901,0,66.673-22.296,79.253-53.76c0.158-0.393,0.315-0.787,0.467-1.183c0.258-0.673,0.508-1.35,0.749-2.031     c0.229-0.645,0.446-1.294,0.659-1.945c0.169-0.517,0.341-1.032,0.5-1.553c0.303-0.989,0.583-1.984,0.849-2.984     c0.06-0.228,0.129-0.452,0.188-0.68c0.336-1.306,0.639-2.62,0.912-3.943c0.03-0.145,0.053-0.292,0.082-0.437     c0.231-1.148,0.437-2.303,0.62-3.463c0.056-0.356,0.104-0.715,0.156-1.073c0.139-0.965,0.264-1.932,0.37-2.904     c0.046-0.418,0.09-0.836,0.13-1.255c0.091-0.961,0.162-1.926,0.221-2.893c0.024-0.394,0.054-0.787,0.073-1.182     c0.063-1.341,0.102-2.687,0.102-4.039c0-0.002,0-0.005,0-0.007c0,0,0,0,0-0.001c0,0,0-0.001,0-0.001     c0-1.355-0.04-2.703-0.103-4.047c-0.018-0.393-0.049-0.783-0.073-1.175C342.107,387.356,342.035,386.389,341.944,385.426z      M324.412,404.341c-0.143,0.897-0.301,1.789-0.479,2.674c-0.057,0.281-0.12,0.56-0.18,0.84c-0.15,0.698-0.311,1.392-0.482,2.083     c-0.111,0.444-0.224,0.888-0.344,1.329c-0.114,0.422-0.237,0.839-0.358,1.258c-1.608,5.508-3.914,10.805-6.904,15.795     c-7.977-7.333-13.209-16.422-15.143-26.238h24.199c-0.059,0.471-0.111,0.944-0.18,1.412     C324.5,403.776,324.457,404.059,324.412,404.341z M191.087,411.267c-0.12-0.442-0.233-0.885-0.344-1.329     c-0.171-0.69-0.332-1.384-0.482-2.083c-0.06-0.28-0.123-0.559-0.18-0.84c-0.178-0.885-0.336-1.777-0.479-2.674     c-0.045-0.282-0.088-0.565-0.129-0.848c-0.069-0.468-0.121-0.941-0.18-1.412h24.199c-1.934,9.816-7.166,18.905-15.143,26.238     c-2.991-4.99-5.297-10.287-6.904-15.795C191.323,412.106,191.2,411.689,191.087,411.267z M189.599,382.774     c0.148-0.929,0.311-1.853,0.496-2.77c0.046-0.227,0.098-0.452,0.146-0.678c0.157-0.738,0.328-1.471,0.509-2.201     c0.105-0.422,0.213-0.843,0.327-1.263c0.125-0.465,0.26-0.926,0.395-1.387c0.315-1.074,0.65-2.142,1.019-3.199     c0.02-0.057,0.038-0.113,0.058-0.17c1.503-4.271,3.441-8.398,5.8-12.334c7.977,7.333,13.209,16.427,15.143,26.242h-24.199     c0.06-0.478,0.113-0.958,0.183-1.433C189.515,383.312,189.556,383.043,189.599,382.774z M321.523,371.277     c0.369,1.057,0.704,2.125,1.019,3.199c0.134,0.461,0.27,0.922,0.395,1.387c0.113,0.42,0.221,0.841,0.327,1.263     c0.181,0.729,0.352,1.462,0.509,2.201c0.048,0.226,0.1,0.451,0.146,0.678c0.185,0.916,0.348,1.841,0.496,2.77     c0.043,0.269,0.083,0.538,0.123,0.807c0.07,0.475,0.123,0.955,0.183,1.433h-24.199c1.934-9.814,7.166-18.909,15.143-26.242     c2.359,3.936,4.298,8.063,5.8,12.334C321.485,371.163,321.504,371.22,321.523,371.277z M283.204,385.015H265.54v-59.181     c15.384,1.929,29.199,8.978,39.654,19.408C293,355.994,285.312,369.894,283.204,385.015z M248.474,385.015H230.81     c-2.108-15.121-9.796-29.021-21.991-39.773c10.455-10.43,24.27-17.479,39.654-19.408V385.015z M230.81,402.081h17.664v59.181     c-15.383-1.928-29.197-8.977-39.652-19.405C221.014,431.104,228.701,417.201,230.81,402.081z M265.54,402.081h17.664     c2.109,15.12,9.795,29.023,21.988,39.776c-10.455,10.428-24.269,17.477-39.652,19.405V402.081z"/>
			<path d="M299.673,257.015c2.782,0,5.385-1.357,6.98-3.635L392.9,130.551c11.776-16.606,12.297-38.409,1.34-55.561L349.533,4.957     c-0.067-0.105-0.148-0.198-0.219-0.299c-0.12-0.171-0.237-0.344-0.369-0.505c-0.168-0.208-0.351-0.401-0.535-0.592     c-0.049-0.05-0.094-0.104-0.144-0.153c-1.545-1.525-3.608-2.433-5.819-2.387c-0.036,0-0.07-0.007-0.106-0.007H171.675     c-0.076,0-0.15,0.013-0.226,0.015c-0.286,0.004-0.57,0.02-0.854,0.056c-0.04,0.005-0.079,0.013-0.119,0.019     c-0.314,0.045-0.625,0.104-0.933,0.185c-0.083,0.021-0.163,0.049-0.245,0.073c-0.246,0.073-0.49,0.15-0.729,0.246     c-0.163,0.064-0.319,0.139-0.477,0.212c-0.155,0.073-0.309,0.142-0.46,0.224c-0.21,0.113-0.41,0.24-0.609,0.37     c-0.1,0.066-0.202,0.127-0.3,0.197c-0.205,0.146-0.399,0.306-0.591,0.471c-0.092,0.078-0.186,0.153-0.274,0.235     c-0.166,0.155-0.32,0.321-0.474,0.489c-0.104,0.113-0.21,0.223-0.308,0.342c-0.125,0.152-0.237,0.314-0.351,0.476     c-0.08,0.112-0.171,0.216-0.245,0.332l-44.792,70.238c-10.837,17.033-10.317,38.69,1.34,55.134l86.332,123.059     c0.043,0.062,0.095,0.115,0.139,0.175c0.111,0.15,0.226,0.294,0.346,0.436c0.115,0.136,0.233,0.266,0.356,0.393     c0.119,0.124,0.24,0.244,0.366,0.36c0.139,0.128,0.284,0.249,0.431,0.368c0.125,0.1,0.249,0.2,0.379,0.293     c0.161,0.115,0.327,0.22,0.495,0.323c0.131,0.081,0.26,0.162,0.395,0.236c0.176,0.095,0.357,0.178,0.539,0.261     c0.139,0.064,0.276,0.131,0.419,0.187c0.183,0.072,0.372,0.129,0.56,0.188c0.15,0.047,0.298,0.101,0.451,0.14     c0.185,0.047,0.375,0.077,0.563,0.112c0.162,0.03,0.322,0.068,0.486,0.089c0.187,0.023,0.378,0.026,0.568,0.037     c0.163,0.009,0.324,0.032,0.488,0.032h17.068v19.837c-53.615,11.751-93.867,59.605-93.867,116.696     c0,65.877,53.589,119.467,119.467,119.467s119.467-53.589,119.467-119.467c0-57.092-40.252-104.946-93.867-116.696v-19.837     H299.673z M257.253,150.29l-34.479-63.942h68.734L257.253,150.29z M328.079,18.081l-27.429,51.2h-87.069l-27.605-51.2H328.079z      M134.082,84.366l36.975-57.984l76.535,141.935l-10.741,20.057l-23.492,43.851l-78.391-111.737     C127.332,109.701,126.982,95.519,134.082,84.366z M313.229,81.954c0.02-0.036,0.045-0.067,0.065-0.103l29.692-55.422     l36.874,57.743c7.194,11.273,6.852,25.6-0.905,36.54l-83.712,119.236h-21.17H239.94h-11.35L313.229,81.954z M359.407,393.548     c0,56.465-45.935,102.4-102.4,102.4s-102.4-45.935-102.4-102.4c0-51.121,37.653-93.61,86.683-101.194     c1.174-0.182,2.356-0.339,3.543-0.479c0.212-0.025,0.425-0.049,0.638-0.073c2.49-0.279,5.003-0.471,7.525-0.568     c0.025-0.001,0.05-0.002,0.075-0.003c2.622-0.098,5.252-0.098,7.874,0c0.025,0.001,0.05,0.002,0.075,0.003     c2.522,0.096,5.035,0.289,7.525,0.568c0.213,0.024,0.425,0.048,0.638,0.073c1.187,0.141,2.369,0.297,3.543,0.479     C321.754,299.938,359.407,342.427,359.407,393.548z M265.54,274.38c-0.274-0.019-0.551-0.026-0.825-0.043     c-0.934-0.06-1.871-0.109-2.811-0.147c-0.353-0.014-0.705-0.029-1.059-0.04c-1.275-0.04-2.554-0.068-3.839-0.068     c-1.285,0-2.564,0.028-3.839,0.068c-0.353,0.011-0.706,0.026-1.059,0.04c-0.94,0.038-1.877,0.087-2.811,0.147     c-0.275,0.017-0.551,0.024-0.825,0.043v-17.365h17.067V274.38z"/>
		</g>
	</g>
</g>
<g>
</g>
<g>
</g>
<g>
</g>
<g>
</g>
<g>
</g>
<g>
</g>
<g>
</g>
<g>
</g>
<g>
</g>
<g>
</g>
<g>
</g>
<g>
</g>
<g>
</g>
<g>
</g>
<g>
</g>
</svg>
