<?xml version="1.0" encoding="iso-8859-1"?>
<!-- Generator: Adobe Illustrator 19.0.0, SVG Export Plug-In . SVG Version: 6.00 Build 0)  -->
<svg xmlns="http://www.w3.org/2000/svg" xmlns:xlink="http://www.w3.org/1999/xlink" version="1.1" id="Layer_1" x="0px" y="0px" viewBox="0 0 512.005 512.005" style="enable-background:new 0 0 512.005 512.005;" xml:space="preserve">
<g transform="translate(0 -1)">
	<g>
		<g>
			<path d="M298.671,257.004c3.917,0,7.322-2.671,8.269-6.468l8.362-33.448l85.11-204.265c1.101-2.637,0.811-5.641-0.777-8.021     c-1.587-2.372-4.25-3.797-7.1-3.797h-42.6c-0.06,0-0.12-0.001-0.18,0h-42.553c-3.439,0-6.554,2.074-7.876,5.248l-41.101,98.643     L221.331,6.534c-1.254-3.319-4.437-5.53-7.996-5.53h-93.867c-2.85,0-5.513,1.425-7.1,3.797c-1.587,2.381-1.877,5.385-0.777,8.021     l85.098,204.234l8.37,33.479c0.947,3.797,4.361,6.468,8.277,6.468h34.132v17.375c-61.909,4.39-110.933,56.151-110.933,119.159     c0,65.877,53.589,119.467,119.467,119.467s119.467-53.589,119.467-119.467c0-63.008-49.024-114.769-110.933-119.159v-17.375     H298.671z M358.402,393.538c0,56.465-45.935,102.4-102.4,102.4s-102.4-45.935-102.4-102.4c0-56.465,45.935-102.4,102.4-102.4     S358.402,337.073,358.402,393.538z M301.51,205.804h-24.174l78.222-187.733h24.177L301.51,205.804z M312.894,18.071h24.174     l-78.222,187.733H234.67l31.018-74.436c0.006-0.014,0.01-0.029,0.015-0.042L312.894,18.071z M248.635,127.912l-12.871,30.89     L182.981,18.071h24.441L248.635,127.912z M164.748,18.071l61.414,163.774l-2.372,5.693l-7.613,18.266h-5.683L132.269,18.071     H164.748z M215.735,222.871h6.134h74.404l-4.267,17.067h-72.004L215.735,222.871z"/>
			<path d="M221.869,333.804c0,15.879,10.893,29.256,25.6,33.054v18.146h-18.146c-3.798-14.707-17.175-25.6-33.054-25.6     c-18.825,0-34.133,15.309-34.133,34.133c0,18.825,15.309,34.133,34.133,34.133c15.879,0,29.256-10.893,33.054-25.6h18.146v18.146     c-14.707,3.798-25.6,17.175-25.6,33.054c0,18.825,15.309,34.133,34.133,34.133s34.133-15.309,34.133-34.133     c0-15.879-10.893-29.256-25.6-33.054v-18.146h18.146c3.798,14.707,17.175,25.6,33.054,25.6c18.825,0,34.133-15.309,34.133-34.133     c0-18.825-15.309-34.133-34.133-34.133c-15.879,0-29.256,10.893-33.054,25.6h-18.146v-18.146     c14.707-3.798,25.6-17.175,25.6-33.054c0-18.825-15.309-34.133-34.133-34.133S221.869,314.98,221.869,333.804z M196.269,410.605     c-9.412,0-17.067-7.654-17.067-17.067c0-9.412,7.654-17.067,17.067-17.067c9.412,0,17.067,7.654,17.067,17.067     C213.336,402.95,205.681,410.605,196.269,410.605z M273.069,453.271c0,9.412-7.654,17.067-17.067,17.067     c-9.412,0-17.067-7.654-17.067-17.067c0-9.412,7.654-17.067,17.067-17.067C265.415,436.204,273.069,443.859,273.069,453.271z      M315.736,376.471c9.412,0,17.067,7.654,17.067,17.067c0,9.412-7.654,17.067-17.067,17.067s-17.067-7.654-17.067-17.067     C298.669,384.126,306.323,376.471,315.736,376.471z M273.069,333.804c0,9.412-7.654,17.067-17.067,17.067     c-9.412,0-17.067-7.654-17.067-17.067c0-9.412,7.654-17.067,17.067-17.067C265.415,316.738,273.069,324.392,273.069,333.804z"/>
		</g>
	</g>
</g>
<g>
</g>
<g>
</g>
<g>
</g>
<g>
</g>
<g>
</g>
<g>
</g>
<g>
</g>
<g>
</g>
<g>
</g>
<g>
</g>
<g>
</g>
<g>
</g>
<g>
</g>
<g>
</g>
<g>
</g>
</svg>
