<?xml version="1.0" encoding="iso-8859-1"?>
<!-- Generator: Adobe Illustrator 19.0.0, SVG Export Plug-In . SVG Version: 6.00 Build 0)  -->
<svg xmlns="http://www.w3.org/2000/svg" xmlns:xlink="http://www.w3.org/1999/xlink" version="1.1" id="Layer_1" x="0px" y="0px" viewBox="0 0 512.004 512.004" style="enable-background:new 0 0 512.004 512.004;" xml:space="preserve">
<g>
	<g>
		<g>
			<path d="M298.67,238.937c3.917,0,7.322-2.671,8.269-6.468l8.339-33.354l85.02-187.045c1.203-2.645,0.981-5.717-0.589-8.149     c-1.57-2.441-4.275-3.917-7.177-3.917h-85.333c-3.345,0-6.383,1.954-7.765,5.001l-40.06,88.132L221.156,5.141     c-1.348-3.123-4.42-5.137-7.825-5.137h-42.544c-0.046-0.001-0.092,0-0.137,0h-51.185c-2.893,0-5.598,1.476-7.168,3.917     c-1.57,2.432-1.792,5.504-0.597,8.149l85.022,187.049l8.337,33.35c0.947,3.797,4.361,6.468,8.277,6.468h34.132v17.358     c-66.615,4.407-119.467,59.998-119.467,127.709c0,70.579,57.421,128,128,128s128-57.421,128-128     c0-67.711-52.852-123.302-119.467-127.709v-17.358H298.67z M366.935,384.004c0,61.167-49.766,110.933-110.933,110.933     s-110.933-49.766-110.933-110.933S194.834,273.07,256.001,273.07S366.935,322.837,366.935,384.004z M301.712,187.737h-23.536     L355.371,17.07h23.917L301.712,187.737z M312.694,17.07h23.949l-77.196,170.667h-24.324l31.848-70.059     c0.021-0.047,0.035-0.095,0.056-0.142L312.694,17.07z M249.861,114.064l-13.767,30.286L183.433,17.07h24.301L249.861,114.064z      M164.966,17.07l61.461,148.549l-10.054,22.118h-6.08L132.717,17.07H164.966z M215.734,204.804h6.13h0.001h74.406l-4.267,17.067     h-72.004L215.734,204.804z"/>
			<path d="M162.135,384.004c0,51.755,42.112,93.867,93.867,93.867s93.867-42.112,93.867-93.867     c0-51.755-42.112-93.867-93.867-93.867S162.135,332.249,162.135,384.004z M273.068,324.27c0,9.412-7.654,17.067-17.067,17.067     c-9.412,0-17.067-7.654-17.067-17.067c0-9.412,7.654-17.067,17.067-17.067C265.414,307.204,273.068,314.858,273.068,324.27z      M196.268,366.937c9.412,0,17.067,7.654,17.067,17.067c0,9.412-7.654,17.067-17.067,17.067c-9.412,0-17.067-7.654-17.067-17.067     C179.201,374.591,186.856,366.937,196.268,366.937z M238.935,443.737c0-9.412,7.654-17.067,17.067-17.067     c9.412,0,17.067,7.654,17.067,17.067c0,9.412-7.654,17.067-17.067,17.067C246.589,460.804,238.935,453.149,238.935,443.737z      M315.735,401.07c-9.412,0-17.067-7.654-17.067-17.067c0-9.412,7.654-17.067,17.067-17.067s17.067,7.654,17.067,17.067     C332.801,393.416,325.147,401.07,315.735,401.07z M325.469,351.292c-3.087-0.92-6.352-1.421-9.734-1.421     c-18.825,0-34.133,15.309-34.133,34.133c0,18.825,15.309,34.133,34.133,34.133c3.382,0,6.647-0.501,9.734-1.421     c-7.612,16.101-20.654,29.143-36.755,36.755c0.92-3.087,1.421-6.352,1.421-9.734c0-18.825-15.309-34.133-34.133-34.133     s-34.133,15.309-34.133,34.133c0,3.382,0.501,6.647,1.421,9.734c-16.101-7.612-29.143-20.654-36.755-36.755     c3.087,0.92,6.352,1.421,9.734,1.421c18.825,0,34.133-15.309,34.133-34.133c0-18.825-15.309-34.133-34.133-34.133     c-3.382,0-6.647,0.501-9.734,1.421c7.612-16.101,20.654-29.144,36.755-36.755c-0.92,3.087-1.421,6.352-1.421,9.734     c0,18.825,15.309,34.133,34.133,34.133s34.133-15.309,34.133-34.133c0-3.382-0.501-6.647-1.421-9.734     C304.814,322.148,317.857,335.191,325.469,351.292z"/>
		</g>
	</g>
</g>
<g>
</g>
<g>
</g>
<g>
</g>
<g>
</g>
<g>
</g>
<g>
</g>
<g>
</g>
<g>
</g>
<g>
</g>
<g>
</g>
<g>
</g>
<g>
</g>
<g>
</g>
<g>
</g>
<g>
</g>
</svg>
