<?xml version="1.0" encoding="iso-8859-1"?>
<!-- Generator: Adobe Illustrator 19.0.0, SVG Export Plug-In . SVG Version: 6.00 Build 0)  -->
<svg xmlns="http://www.w3.org/2000/svg" xmlns:xlink="http://www.w3.org/1999/xlink" version="1.1" id="Layer_1" x="0px" y="0px" viewBox="0 0 512.005 512.005" style="enable-background:new 0 0 512.005 512.005;" xml:space="preserve">
<g transform="translate(0 -1)">
	<g>
		<g>
			<path d="M298.671,257.004c3.917,0,7.322-2.671,8.269-6.468l8.362-33.448l85.11-204.265c1.101-2.637,0.811-5.641-0.777-8.021     c-1.587-2.372-4.25-3.797-7.1-3.797h-42.597c-0.06,0-0.12-0.001-0.18,0h-42.556c-3.439,0-6.554,2.074-7.876,5.248l-41.101,98.643     L221.331,6.534c-1.254-3.319-4.437-5.53-7.996-5.53h-93.867c-2.85,0-5.513,1.425-7.1,3.797c-1.587,2.381-1.877,5.385-0.777,8.021     l85.098,204.234l8.37,33.479c0.947,3.797,4.361,6.468,8.277,6.468h34.132v17.375c-61.909,4.39-110.933,56.151-110.933,119.159     c0,65.877,53.589,119.467,119.467,119.467s119.467-53.589,119.467-119.467c0-63.008-49.024-114.769-110.933-119.159v-17.375     H298.671z M273.069,308.204c0,9.412-7.654,17.067-17.067,17.067c-9.412,0-17.067-7.654-17.067-17.067s7.654-17.067,17.067-17.067     C265.415,291.138,273.069,298.792,273.069,308.204z M170.669,376.471c9.412,0,17.067,7.654,17.067,17.067     c0,9.412-7.654,17.067-17.067,17.067c-9.412,0-17.067-7.654-17.067-17.067C153.602,384.126,161.257,376.471,170.669,376.471z      M238.936,478.871c0-9.412,7.654-17.067,17.067-17.067c9.412,0,17.067,7.654,17.067,17.067s-7.654,17.067-17.067,17.067     C246.59,495.938,238.936,488.283,238.936,478.871z M341.336,410.605c-9.412,0-17.067-7.654-17.067-17.067     c0-9.412,7.654-17.067,17.067-17.067c9.412,0,17.067,7.654,17.067,17.067C358.402,402.95,350.748,410.605,341.336,410.605z      M353.286,361.567c-3.721-1.395-7.747-2.163-11.95-2.163c-18.825,0-34.133,15.309-34.133,34.133     c0,18.825,15.309,34.133,34.133,34.133c4.203,0,8.229-0.768,11.95-2.163c-10.144,30.791-34.522,55.169-65.313,65.313     c1.395-3.721,2.163-7.747,2.163-11.95c0-18.825-15.309-34.133-34.133-34.133s-34.133,15.309-34.133,34.133     c0,4.203,0.768,8.229,2.163,11.95c-30.791-10.144-55.169-34.522-65.313-65.313c3.721,1.395,7.747,2.163,11.95,2.163     c18.825,0,34.133-15.309,34.133-34.133c0-18.825-15.309-34.133-34.133-34.133c-4.203,0-8.229,0.768-11.95,2.163     c10.144-30.791,34.522-55.169,65.313-65.313c-1.395,3.721-2.163,7.747-2.163,11.95c0,18.825,15.309,34.133,34.133,34.133     s34.133-15.309,34.133-34.133c0-4.203-0.768-8.229-2.163-11.95C318.764,306.398,343.142,330.776,353.286,361.567z      M301.51,205.804h-24.174l78.222-187.733h24.177L301.51,205.804z M312.894,18.071h24.174l-78.222,187.733H234.67l31.018-74.436     c0.006-0.014,0.01-0.029,0.015-0.042L312.894,18.071z M248.635,127.912l-12.871,30.89L182.981,18.071h24.441L248.635,127.912z      M164.748,18.071l61.414,163.774l-2.372,5.693l-7.613,18.266h-5.683L132.269,18.071H164.748z M215.735,222.871h6.134h74.404     l-4.267,17.067h-72.004L215.735,222.871z"/>
			<path d="M281.602,385.004h-51.2c-4.719,0-8.533,3.814-8.533,8.533c0,4.719,3.814,8.533,8.533,8.533h51.2     c4.719,0,8.533-3.814,8.533-8.533C290.136,388.819,286.321,385.004,281.602,385.004z"/>
		</g>
	</g>
</g>
<g>
</g>
<g>
</g>
<g>
</g>
<g>
</g>
<g>
</g>
<g>
</g>
<g>
</g>
<g>
</g>
<g>
</g>
<g>
</g>
<g>
</g>
<g>
</g>
<g>
</g>
<g>
</g>
<g>
</g>
</svg>
