<?xml version="1.0" encoding="iso-8859-1"?>
<!-- Generator: Adobe Illustrator 19.0.0, SVG Export Plug-In . SVG Version: 6.00 Build 0)  -->
<svg xmlns="http://www.w3.org/2000/svg" xmlns:xlink="http://www.w3.org/1999/xlink" version="1.1" id="Layer_1" x="0px" y="0px" viewBox="0 0 512.007 512.007" style="enable-background:new 0 0 512.007 512.007;" xml:space="preserve">
<g transform="translate(0 -1)">
	<g>
		<g>
			<path d="M298.667,257.007c3.917,0,7.33-2.671,8.277-6.468l8.37-33.479l85.098-204.234c1.101-2.637,0.811-5.641-0.777-8.021     c-1.587-2.372-4.25-3.797-7.1-3.797h-42.564c-0.094-0.001-0.187-0.002-0.28,0h-42.49c-3.447,0-6.554,2.074-7.876,5.248     l-41.103,98.648L221.326,6.537c-1.246-3.319-4.437-5.53-7.996-5.53h-93.867c-2.85,0-5.513,1.425-7.1,3.797     c-1.579,2.381-1.869,5.385-0.768,8.021l85.078,204.188l8.381,33.525c0.947,3.797,4.361,6.468,8.277,6.468h34.135v17.375     c-61.909,4.39-110.933,56.151-110.933,119.159c0,65.877,53.589,119.467,119.467,119.467s119.467-53.589,119.467-119.467     c0-63.008-49.024-114.769-110.933-119.159v-17.375H298.667z M358.402,393.54c0,56.465-45.935,102.4-102.4,102.4     s-102.4-45.935-102.4-102.4c0-56.465,45.935-102.4,102.4-102.4S358.402,337.075,358.402,393.54z M301.51,205.807h-24.178     l78.222-187.733h24.181L301.51,205.807z M312.885,18.074h24.187L258.85,205.807h-24.181l20.729-49.754l10.285-24.682     c0.004-0.01,0.007-0.02,0.011-0.03L312.885,18.074z M248.632,127.92l-12.869,30.885L182.981,18.074h24.445L248.632,127.92z      M164.747,18.074l61.414,163.774l-9.983,23.959h-5.69L132.264,18.074H164.747z M215.731,222.874h6.133h0.004h74.4l-4.267,17.067     h-72.004L215.731,222.874z"/>
			<path d="M230.402,333.807c-18.825,0-34.133,15.309-34.133,34.133c0,3.228,0.46,6.349,1.301,9.311     c-15.36,3.326-26.901,17.012-26.901,33.355c0,18.825,15.309,34.133,34.133,34.133c10.189,0,19.342-4.491,25.601-11.59     c6.259,7.101,15.412,11.592,25.602,11.592c10.185,0,19.338-4.491,25.599-11.591c6.259,7.1,15.412,11.591,25.602,11.591     c18.816,0,34.133-15.309,34.133-34.133c0-16.343-11.548-30.029-26.904-33.355c0.841-2.963,1.302-6.084,1.302-9.313     c0-18.825-15.309-34.133-34.133-34.133c-10.189,0-19.341,4.49-25.6,11.59C249.743,338.297,240.59,333.807,230.402,333.807z      M230.402,350.874c9.412,0,17.067,7.654,17.067,17.067c0,4.658-1.879,8.882-4.914,11.964c-0.125,0.106-0.255,0.205-0.374,0.317     c-1.766,1.707-3.968,2.995-6.519,3.831c-0.329,0.108-0.648,0.239-0.96,0.384c-1.376,0.359-2.812,0.57-4.299,0.57     c-1.495,0-2.938-0.213-4.321-0.575c-0.304-0.141-0.615-0.267-0.936-0.372c-2.56-0.845-4.753-2.125-6.519-3.84     c-0.125-0.118-0.261-0.222-0.392-0.332c-3.026-3.081-4.899-7.297-4.899-11.947C213.335,358.528,220.989,350.874,230.402,350.874z      M204.802,427.674c-9.412,0-17.067-7.654-17.067-17.067c0-9.412,7.654-17.067,17.067-17.067c1.139,0,2.312,0.16,3.616,0.485     c2.795,2.359,5.973,4.274,9.426,5.646c2.6,3.079,4.025,6.903,4.025,10.936C221.868,420.019,214.214,427.674,204.802,427.674z      M256.004,427.675c-9.412,0-17.067-7.663-17.067-17.067c0-4.044,1.425-7.861,4.028-10.94c3.456-1.373,6.637-3.291,9.433-5.654     c2.602-0.644,4.605-0.644,7.207,0.001c2.795,2.361,5.974,4.279,9.428,5.652c2.611,3.08,4.037,6.897,4.037,10.942     C273.071,420.012,265.416,427.675,256.004,427.675z M324.271,410.609c0,9.404-7.654,17.067-17.067,17.067     c-9.412,0-17.067-7.663-17.067-17.067c0-4.044,1.425-7.861,4.028-10.94c3.456-1.373,6.636-3.291,9.433-5.654     c1.305-0.322,2.473-0.472,3.606-0.472C316.616,393.542,324.271,401.196,324.271,410.609z M281.602,350.874     c9.412,0,17.067,7.654,17.067,17.067c0,4.658-1.879,8.882-4.914,11.964c-0.125,0.106-0.255,0.205-0.374,0.317     c-1.766,1.707-3.968,2.995-6.519,3.831c-0.329,0.108-0.648,0.239-0.96,0.384c-1.376,0.359-2.812,0.57-4.299,0.57     c-1.487,0-2.922-0.211-4.298-0.57c-0.312-0.146-0.633-0.276-0.964-0.384c-2.552-0.836-4.745-2.125-6.519-3.831     c-0.115-0.109-0.241-0.204-0.362-0.307c-3.041-3.083-4.923-7.311-4.923-11.974C264.535,358.528,272.189,350.874,281.602,350.874z     "/>
		</g>
	</g>
</g>
<g>
</g>
<g>
</g>
<g>
</g>
<g>
</g>
<g>
</g>
<g>
</g>
<g>
</g>
<g>
</g>
<g>
</g>
<g>
</g>
<g>
</g>
<g>
</g>
<g>
</g>
<g>
</g>
<g>
</g>
</svg>
