<?xml version="1.0" encoding="iso-8859-1"?>
<!-- Generator: Adobe Illustrator 19.0.0, SVG Export Plug-In . SVG Version: 6.00 Build 0)  -->
<svg xmlns="http://www.w3.org/2000/svg" xmlns:xlink="http://www.w3.org/1999/xlink" version="1.1" id="Layer_1" x="0px" y="0px" viewBox="0 0 512.007 512.007" style="enable-background:new 0 0 512.007 512.007;" xml:space="preserve">
<g transform="translate(0 -1)">
	<g>
		<g>
			<path d="M298.667,257.007c3.917,0,7.33-2.671,8.277-6.468l8.37-33.479l85.098-204.234c1.101-2.637,0.811-5.641-0.777-8.021     c-1.587-2.372-4.25-3.797-7.1-3.797h-42.561c-0.094-0.001-0.187-0.002-0.28,0h-42.492c-3.447,0-6.554,2.074-7.876,5.248     l-41.103,98.648L221.326,6.537c-1.246-3.319-4.437-5.53-7.996-5.53h-93.867c-2.85,0-5.513,1.425-7.1,3.797     c-1.579,2.381-1.869,5.385-0.768,8.021l85.078,204.188l8.381,33.525c0.947,3.797,4.361,6.468,8.277,6.468h34.135v17.375     c-61.909,4.39-110.933,56.151-110.933,119.159c0,65.877,53.589,119.467,119.467,119.467s119.467-53.589,119.467-119.467     c0-63.008-49.024-114.769-110.933-119.159v-17.375H298.667z M358.402,393.54c0,56.465-45.935,102.4-102.4,102.4     s-102.4-45.935-102.4-102.4c0-56.465,45.935-102.4,102.4-102.4S358.402,337.075,358.402,393.54z M301.51,205.807h-24.178     l78.222-187.733h24.181L301.51,205.807z M312.893,18.074h24.178L258.85,205.807h-24.181L312.893,18.074z M248.632,127.92     l-12.869,30.885L182.981,18.074h24.445L248.632,127.92z M164.747,18.074l61.414,163.774l-9.983,23.959h-5.69L132.264,18.074     H164.747z M215.731,222.874h6.133h0.004h74.4l-4.267,17.067h-72.004L215.731,222.874z"/>
			<path d="M248.415,312.844l-21.043,40.917l-49.152,5.7c-3.285,0.384-6.05,2.628-7.108,5.76c-1.05,3.132-0.205,6.596,2.185,8.875     l35.661,34.185l-12.348,42.615c-0.913,3.132,0.043,6.511,2.458,8.695c2.406,2.185,5.879,2.816,8.892,1.604l48.043-19.14     l48.043,19.14c1.024,0.41,2.091,0.614,3.157,0.614c2.082,0,4.139-0.768,5.734-2.219c2.415-2.185,3.371-5.564,2.458-8.695     l-12.348-42.615l35.661-34.185c2.389-2.278,3.234-5.743,2.185-8.875c-1.058-3.132-3.823-5.376-7.108-5.76l-49.152-5.7     l-21.043-40.917C260.669,307.161,251.334,307.161,248.415,312.844z M271.532,365.614c1.306,2.534,3.78,4.25,6.605,4.574     l35.669,4.147l-26.3,25.207c-2.287,2.193-3.174,5.478-2.287,8.533l8.926,30.814l-34.987-13.943     c-1.016-0.41-2.091-0.606-3.157-0.606s-2.142,0.196-3.157,0.606l-34.987,13.943l8.926-30.814c0.887-3.055,0-6.34-2.287-8.533     l-26.3-25.207l35.669-4.147c2.825-0.324,5.299-2.039,6.605-4.574l15.531-30.208L271.532,365.614z"/>
		</g>
	</g>
</g>
<g>
</g>
<g>
</g>
<g>
</g>
<g>
</g>
<g>
</g>
<g>
</g>
<g>
</g>
<g>
</g>
<g>
</g>
<g>
</g>
<g>
</g>
<g>
</g>
<g>
</g>
<g>
</g>
<g>
</g>
</svg>
