<?xml version="1.0" encoding="iso-8859-1"?>
<!-- Generator: Adobe Illustrator 19.0.0, SVG Export Plug-In . SVG Version: 6.00 Build 0)  -->
<svg xmlns="http://www.w3.org/2000/svg" xmlns:xlink="http://www.w3.org/1999/xlink" version="1.1" id="Layer_1" x="0px" y="0px" viewBox="0 0 512.007 512.007" style="enable-background:new 0 0 512.007 512.007;" xml:space="preserve">
<g transform="translate(0 -1)">
	<g>
		<g>
			<path d="M298.667,257.007c3.917,0,7.33-2.671,8.277-6.468l8.37-33.479l85.098-204.234c1.101-2.637,0.811-5.641-0.777-8.021     c-1.587-2.372-4.25-3.797-7.1-3.797h-42.561c-0.094-0.001-0.187-0.002-0.28,0h-42.492c-3.447,0-6.554,2.074-7.876,5.248     l-41.103,98.648L221.326,6.537c-1.246-3.319-4.437-5.53-7.996-5.53h-93.867c-2.85,0-5.513,1.425-7.1,3.797     c-1.579,2.381-1.869,5.385-0.768,8.021l85.078,204.188l8.381,33.525c0.947,3.797,4.361,6.468,8.277,6.468h34.135v17.375     c-61.909,4.39-110.933,56.151-110.933,119.159c0,65.877,53.589,119.467,119.467,119.467s119.467-53.589,119.467-119.467     c0-63.008-49.024-114.769-110.933-119.159v-17.375H298.667z M358.402,393.54c0,56.465-45.935,102.4-102.4,102.4     s-102.4-45.935-102.4-102.4c0-56.465,45.935-102.4,102.4-102.4S358.402,337.075,358.402,393.54z M301.51,205.807h-24.178     l78.222-187.733h24.181L301.51,205.807z M312.893,18.074h24.178L258.85,205.807h-24.181L312.893,18.074z M248.632,127.92     l-12.869,30.885L182.981,18.074h24.445L248.632,127.92z M164.747,18.074l61.414,163.774l-9.983,23.959h-5.69L132.264,18.074     H164.747z M215.731,222.874h6.133h0.004h74.4l-4.267,17.067h-72.004L215.731,222.874z"/>
			<path d="M232.424,371.464l-11.366-24.218c-1.399-2.987-4.412-4.907-7.723-4.907s-6.323,1.92-7.723,4.907l-11.366,24.218     l-25.293,5.188c-3.106,0.631-5.606,2.944-6.485,5.999c-0.879,3.055,0.017,6.34,2.313,8.533l18.167,17.314l-3.669,26.539     c-0.435,3.217,0.981,6.409,3.669,8.235c2.688,1.818,6.178,1.963,9.011,0.35l21.376-12.177l21.376,12.177     c1.314,0.751,2.773,1.118,4.224,1.118c1.672,0,3.345-0.495,4.787-1.468c2.688-1.826,4.105-5.018,3.669-8.235l-3.669-26.539     l12.279-11.703l12.279,11.703l-3.669,26.539c-0.435,3.217,0.981,6.409,3.669,8.235c2.679,1.818,6.187,1.963,9.011,0.35     l21.376-12.177l21.376,12.177c1.314,0.751,2.773,1.118,4.224,1.118c1.673,0,3.345-0.495,4.787-1.468     c2.688-1.826,4.104-5.018,3.669-8.235l-3.669-26.539l18.167-17.314c2.295-2.193,3.191-5.478,2.313-8.533     c-0.879-3.055-3.379-5.367-6.485-5.999l-25.293-5.188l-11.366-24.218c-1.399-2.987-4.412-4.907-7.723-4.907     c-3.311,0-6.323,1.92-7.723,4.907l-11.366,24.218l-23.578,4.836L232.424,371.464z M228.78,399.155     c-1.988,1.894-2.944,4.625-2.569,7.347l1.894,13.722l-10.547-6.008c-1.314-0.742-2.765-1.118-4.224-1.118     c-1.459,0-2.91,0.375-4.224,1.118l-10.547,6.008l1.894-13.722c0.375-2.722-0.58-5.453-2.569-7.347l-9.515-9.062l13.491-2.773     c2.637-0.538,4.864-2.287,6.008-4.727l5.461-11.631l5.461,11.631c1.143,2.441,3.371,4.19,6.007,4.727l13.491,2.773     L228.78,399.155z M287.199,387.319c2.637-0.538,4.864-2.287,6.007-4.727l5.461-11.631l5.461,11.631     c1.143,2.441,3.371,4.19,6.007,4.727l13.491,2.773l-9.515,9.062c-1.988,1.894-2.944,4.625-2.569,7.347l1.894,13.722     l-10.547-6.008c-1.314-0.742-2.765-1.118-4.224-1.118c-1.459,0-2.91,0.375-4.224,1.118l-10.547,6.008l1.894-13.722     c0.375-2.722-0.58-5.453-2.569-7.347l-9.515-9.062L287.199,387.319z"/>
		</g>
	</g>
</g>
<g>
</g>
<g>
</g>
<g>
</g>
<g>
</g>
<g>
</g>
<g>
</g>
<g>
</g>
<g>
</g>
<g>
</g>
<g>
</g>
<g>
</g>
<g>
</g>
<g>
</g>
<g>
</g>
<g>
</g>
</svg>
