<?xml version="1.0" encoding="iso-8859-1"?>
<!-- Generator: Adobe Illustrator 19.0.0, SVG Export Plug-In . SVG Version: 6.00 Build 0)  -->
<svg xmlns="http://www.w3.org/2000/svg" xmlns:xlink="http://www.w3.org/1999/xlink" version="1.1" id="Layer_1" x="0px" y="0px" viewBox="0 0 512.007 512.007" style="enable-background:new 0 0 512.007 512.007;" xml:space="preserve">
<g transform="translate(0 -1)">
	<g>
		<g>
			<path d="M298.667,257.007c3.917,0,7.33-2.671,8.277-6.468l8.37-33.479l85.098-204.234c1.101-2.637,0.811-5.641-0.777-8.021     c-1.587-2.372-4.25-3.797-7.1-3.797h-42.561c-0.094-0.001-0.187-0.002-0.28,0h-42.492c-3.447,0-6.554,2.074-7.876,5.248     l-41.103,98.648L221.326,6.537c-1.246-3.319-4.437-5.53-7.996-5.53h-93.867c-2.85,0-5.513,1.425-7.1,3.797     c-1.579,2.381-1.869,5.385-0.768,8.021l85.078,204.188l8.381,33.525c0.947,3.797,4.361,6.468,8.277,6.468h34.135v17.375     c-61.909,4.39-110.933,56.151-110.933,119.159c0,65.877,53.589,119.467,119.467,119.467s119.467-53.589,119.467-119.467     c0-63.008-49.024-114.769-110.933-119.159v-17.375H298.667z M358.402,393.54c0,56.465-45.935,102.4-102.4,102.4     s-102.4-45.935-102.4-102.4c0-56.465,45.935-102.4,102.4-102.4S358.402,337.075,358.402,393.54z M301.51,205.807h-24.178     l78.222-187.733h24.181L301.51,205.807z M312.893,18.074h24.178L258.85,205.807h-24.181L312.893,18.074z M248.632,127.92     l-12.869,30.885L182.981,18.074h24.445L248.632,127.92z M164.747,18.074l61.414,163.774l-9.983,23.959h-5.69L132.264,18.074     H164.747z M215.731,222.874h6.133h0.004h74.4l-4.267,17.067h-72.004L215.731,222.874z"/>
			<path d="M188.214,401.619c-0.555-4.685-4.847-8.098-9.472-7.475c-4.685,0.546-8.03,4.787-7.484,9.472     c0.777,6.579,2.321,13.065,4.591,19.268c1.271,3.456,4.54,5.598,8.013,5.598c0.981,0,1.971-0.162,2.935-0.512     c4.429-1.63,6.699-6.528,5.077-10.957C190.065,412.055,188.828,406.884,188.214,401.619z"/>
			<path d="M267.932,460.772c-5.188,0.913-10.581,1.229-15.829,0.93c-4.582-0.196-8.73,3.319-9.003,8.021     c-0.273,4.71,3.319,8.738,8.03,9.011c1.613,0.085,3.243,0.137,4.873,0.137c4.992,0,10.001-0.427,14.891-1.297     c4.642-0.819,7.74-5.24,6.921-9.882C276.994,463.05,272.608,459.893,267.932,460.772z"/>
			<path d="M221.954,452.733c-4.582-2.654-8.866-5.837-12.723-9.463c-3.43-3.217-8.832-3.055-12.066,0.375     c-3.226,3.439-3.055,8.841,0.375,12.058c4.813,4.531,10.155,8.508,15.88,11.81c1.34,0.776,2.807,1.143,4.258,1.143     c2.953,0,5.82-1.527,7.398-4.267C227.433,460.311,226.042,455.089,221.954,452.733z"/>
			<path d="M180.858,375.447c0.956,0.35,1.937,0.512,2.901,0.512c3.49,0,6.767-2.159,8.021-5.632     c1.792-4.958,4.181-9.728,7.091-14.165c2.577-3.934,1.476-9.233-2.458-11.81c-3.942-2.594-9.233-1.476-11.819,2.449     c-3.635,5.547-6.622,11.511-8.866,17.724C174.134,368.953,176.421,373.851,180.858,375.447z"/>
			<path d="M217.432,335.648c1.451,0,2.927-0.375,4.275-1.161c4.591-2.662,9.481-4.787,14.515-6.298     c4.514-1.357,7.074-6.118,5.717-10.633c-1.357-4.514-6.135-7.049-10.633-5.717c-6.315,1.903-12.424,4.557-18.176,7.902     c-4.07,2.364-5.453,7.595-3.089,11.665C211.629,334.129,214.488,335.648,217.432,335.648z"/>
			<path d="M316.905,362.673c1.502,2.97,4.497,4.676,7.62,4.676c1.297,0,2.611-0.29,3.849-0.922     c4.207-2.125,5.879-7.27,3.755-11.469c-2.987-5.888-6.673-11.435-10.957-16.495c-3.038-3.61-8.422-4.028-12.023-1.007     c-3.593,3.046-4.045,8.431-0.998,12.023C311.572,353.542,314.516,357.971,316.905,362.673z"/>
			<path d="M320.344,436.349c-3.61-3.038-8.986-2.569-12.023,1.041c-3.405,4.062-7.279,7.714-11.529,10.889     c-3.772,2.816-4.548,8.166-1.724,11.947c1.672,2.236,4.241,3.422,6.844,3.422c1.775,0,3.567-0.546,5.094-1.698     c5.299-3.951,10.138-8.525,14.387-13.577C324.423,444.763,323.953,439.379,320.344,436.349z"/>
			<path d="M267.659,326.261c5.231,0.896,10.342,2.406,15.189,4.48c1.092,0.478,2.236,0.691,3.354,0.691     c3.311,0,6.46-1.937,7.851-5.171c1.852-4.335-0.154-9.353-4.489-11.204c-6.067-2.603-12.467-4.489-19.012-5.615     c-4.659-0.819-9.062,2.313-9.856,6.963C259.894,321.047,263.017,325.459,267.659,326.261z"/>
			<path d="M324.269,393.538c0,5.325-0.614,10.615-1.818,15.744c-1.084,4.582,1.758,9.182,6.34,10.266     c0.657,0.154,1.323,0.23,1.971,0.23c3.866,0,7.364-2.645,8.294-6.579c1.51-6.4,2.278-13.013,2.278-19.661v-0.307     c0-4.719-3.823-8.38-8.533-8.38S324.269,388.827,324.269,393.538z"/>
			<path d="M204.802,402.074c0,4.719,3.823,8.533,8.533,8.533h85.333c4.71,0,8.533-3.814,8.533-8.533     c0-4.719-3.823-8.533-8.533-8.533h-85.333C208.625,393.54,204.802,397.355,204.802,402.074z"/>
			<path d="M230.402,367.94c0,4.719,3.823,8.533,8.533,8.533h34.133c4.71,0,8.533-3.814,8.533-8.533s-3.823-8.533-8.533-8.533     h-34.133C234.225,359.407,230.402,363.221,230.402,367.94z"/>
		</g>
	</g>
</g>
<g>
</g>
<g>
</g>
<g>
</g>
<g>
</g>
<g>
</g>
<g>
</g>
<g>
</g>
<g>
</g>
<g>
</g>
<g>
</g>
<g>
</g>
<g>
</g>
<g>
</g>
<g>
</g>
<g>
</g>
</svg>
