<?xml version="1.0" encoding="iso-8859-1"?>
<!-- Generator: Adobe Illustrator 19.0.0, SVG Export Plug-In . SVG Version: 6.00 Build 0)  -->
<svg xmlns="http://www.w3.org/2000/svg" xmlns:xlink="http://www.w3.org/1999/xlink" version="1.1" id="Layer_1" x="0px" y="0px" viewBox="0 0 512.007 512.007" style="enable-background:new 0 0 512.007 512.007;" xml:space="preserve">
<g transform="translate(0 -1)">
	<g>
		<g>
			<path d="M298.667,257.007c3.917,0,7.33-2.671,8.277-6.468l8.37-33.479l85.098-204.234c1.101-2.637,0.811-5.641-0.777-8.021     c-1.587-2.372-4.25-3.797-7.1-3.797h-42.561c-0.094-0.001-0.187-0.002-0.28,0h-42.492c-3.447,0-6.554,2.074-7.876,5.248     l-41.103,98.648L221.326,6.537c-1.246-3.319-4.437-5.53-7.996-5.53h-93.867c-2.85,0-5.513,1.425-7.1,3.797     c-1.579,2.381-1.869,5.385-0.768,8.021l85.078,204.188l8.381,33.525c0.947,3.797,4.361,6.468,8.277,6.468h34.135v17.375     c-61.909,4.39-110.933,56.151-110.933,119.159c0,65.877,53.589,119.467,119.467,119.467s119.467-53.589,119.467-119.467     c0-63.008-49.024-114.769-110.933-119.159v-17.375H298.667z M358.402,393.54c0,56.465-45.935,102.4-102.4,102.4     s-102.4-45.935-102.4-102.4c0-56.465,45.935-102.4,102.4-102.4S358.402,337.075,358.402,393.54z M301.51,205.807h-24.178     l78.222-187.733h24.181L301.51,205.807z M312.893,18.074h24.178L258.85,205.807h-24.181L312.893,18.074z M248.632,127.92     l-12.869,30.885L182.981,18.074h24.445L248.632,127.92z M164.747,18.074l61.414,163.774l-9.983,23.959h-5.69L132.264,18.074     H164.747z M215.731,222.874h6.133h0.004h74.4l-4.267,17.067h-72.004L215.731,222.874z"/>
			<path d="M221.872,342.34c0,8.346,3.063,16.367,8.533,22.571v3.908c-9.02-5.009-19.584-9.412-25.6-9.412     c-18.825,0-34.133,15.309-34.133,34.133c0,18.825,15.309,34.133,34.133,34.133c2.517,0,14.746-0.853,25.489-3.823     c-0.768,12.066-5.837,23.296-14.456,31.923c-2.449,2.44-3.174,6.11-1.852,9.301c1.323,3.183,4.429,5.265,7.885,5.265h68.267     c3.448,0,6.562-2.082,7.876-5.265c1.323-3.191,0.597-6.861-1.843-9.301c-8.627-8.627-13.696-19.857-14.464-31.915     c10.743,2.961,22.98,3.814,25.498,3.814c18.816,0,34.133-15.309,34.133-34.133c0-18.825-15.317-34.133-34.133-34.133     c-6.025,0-16.589,4.395-25.6,9.412v-3.9c5.461-6.204,8.533-14.234,8.533-22.579c0-18.825-15.317-34.133-34.133-34.133     C237.181,308.207,221.872,323.516,221.872,342.34z M232.59,390.707c2.364,2.637,6.101,3.541,9.404,2.27     c3.294-1.271,5.478-4.437,5.478-7.97v-23.595c0-2.423-1.033-4.736-2.842-6.357c-3.618-3.234-5.692-7.876-5.692-12.715     c0-9.412,7.654-17.067,17.067-17.067c9.412,0,17.067,7.654,17.067,17.067c0,4.847-2.082,9.481-5.692,12.723     c-1.809,1.63-2.842,3.934-2.842,6.357v23.586c0,3.533,2.176,6.707,5.487,7.97c3.277,1.263,7.031,0.358,9.404-2.278     c3.311-3.703,22.707-14.029,27.793-14.225c9.404,0.009,17.05,7.654,17.05,17.067c0,9.412-7.654,17.067-17.067,17.067     c-7.859,0-24.755-3.294-27.767-5.683c-2.372-2.654-6.118-3.55-9.412-2.295c-3.311,1.271-5.487,4.437-5.487,7.979v10.001     c0,11.622,2.944,22.801,8.491,32.666h-34.057c5.547-9.865,8.499-21.043,8.499-32.666v-10.001c0-3.533-2.082-6.818-5.385-8.073     c-3.311-1.28-6.946-0.461-9.293,2.167c-3.243,2.603-20.147,5.905-27.989,5.905c-9.412,0-17.067-7.654-17.067-17.067     c0-9.412,7.654-17.067,17.041-17.067C209.84,376.661,229.262,387.004,232.59,390.707z"/>
		</g>
	</g>
</g>
<g>
</g>
<g>
</g>
<g>
</g>
<g>
</g>
<g>
</g>
<g>
</g>
<g>
</g>
<g>
</g>
<g>
</g>
<g>
</g>
<g>
</g>
<g>
</g>
<g>
</g>
<g>
</g>
<g>
</g>
</svg>
