<?xml version="1.0" encoding="iso-8859-1"?>
<!-- Generator: Adobe Illustrator 19.0.0, SVG Export Plug-In . SVG Version: 6.00 Build 0)  -->
<svg xmlns="http://www.w3.org/2000/svg" xmlns:xlink="http://www.w3.org/1999/xlink" version="1.1" id="Layer_1" x="0px" y="0px" viewBox="0 0 512.001 512.001" style="enable-background:new 0 0 512.001 512.001;" xml:space="preserve">
<g>
	<g>
		<g>
			<path d="M298.67,256.001c3.917,0,7.322-2.671,8.269-6.468l8.363-33.453L400.41,11.82c1.101-2.637,0.811-5.641-0.777-8.021     c-1.587-2.372-4.25-3.797-7.1-3.797h-42.679c-0.011,0-0.022,0-0.033,0h-42.621c-3.439,0-6.554,2.074-7.876,5.248l-41.101,98.643     L221.33,5.531c-1.254-3.319-4.437-5.53-7.996-5.53h-93.867c-2.85,0-5.513,1.425-7.1,3.797c-1.587,2.381-1.877,5.385-0.777,8.021     l85.1,204.239l8.368,33.474c0.947,3.797,4.361,6.468,8.277,6.468h34.131v17.375c-61.909,4.39-110.933,56.151-110.933,119.159     c0,65.877,53.589,119.467,119.467,119.467s119.467-53.589,119.467-119.467c0-63.008-49.024-114.769-110.933-119.159v-17.375     H298.67z M358.401,392.534c0,56.465-45.935,102.4-102.4,102.4s-102.4-45.935-102.4-102.4c0-56.465,45.935-102.4,102.4-102.4     S358.401,336.069,358.401,392.534z M301.509,204.801h-24.174l78.222-187.733h24.177L301.509,204.801z M312.892,17.068h24.174     l-78.222,187.733h-24.176l31.018-74.436c0.006-0.014,0.01-0.029,0.015-0.042L312.892,17.068z M248.633,126.908l-12.871,30.89     L182.979,17.068h24.441L248.633,126.908z M164.746,17.068l61.414,163.774l-2.372,5.693l-7.613,18.266h-5.683L132.267,17.068     H164.746z M215.734,221.868h6.133h74.405l-4.267,17.067h-72.004L215.734,221.868z"/>
			<path d="M248.77,319.745l-42.667,68.267c-1.732,2.765-1.732,6.281,0,9.045l42.667,68.267c1.553,2.492,4.292,4.011,7.228,4.011     c2.944,0,5.675-1.519,7.236-4.011l42.667-68.267c1.732-2.765,1.732-6.281,0-9.045l-42.667-68.267     C260.12,314.761,251.885,314.761,248.77,319.745z M288.604,392.534l-32.606,52.164l-32.597-52.164l32.597-52.164L288.604,392.534     z"/>
		</g>
	</g>
</g>
<g>
</g>
<g>
</g>
<g>
</g>
<g>
</g>
<g>
</g>
<g>
</g>
<g>
</g>
<g>
</g>
<g>
</g>
<g>
</g>
<g>
</g>
<g>
</g>
<g>
</g>
<g>
</g>
<g>
</g>
</svg>
