<?xml version="1.0" encoding="iso-8859-1"?>
<!-- Generator: Adobe Illustrator 19.0.0, SVG Export Plug-In . SVG Version: 6.00 Build 0)  -->
<svg xmlns="http://www.w3.org/2000/svg" xmlns:xlink="http://www.w3.org/1999/xlink" version="1.1" id="Layer_1" x="0px" y="0px" viewBox="0 0 512.001 512.001" style="enable-background:new 0 0 512.001 512.001;" xml:space="preserve">
<g>
	<g>
		<g>
			<path d="M298.669,256.001c3.917,0,7.322-2.671,8.269-6.468l8.362-33.448L400.41,11.82c1.101-2.637,0.811-5.641-0.777-8.021     c-1.587-2.372-4.25-3.797-7.1-3.797h-42.677c-0.011,0-0.022,0-0.033,0h-42.624c-3.439,0-6.554,2.074-7.876,5.248l-41.101,98.643     L221.33,5.531c-1.254-3.319-4.437-5.53-7.996-5.53h-93.867c-2.85,0-5.513,1.425-7.1,3.797c-1.587,2.381-1.877,5.385-0.777,8.021     l85.098,204.234l8.37,33.479c0.947,3.797,4.361,6.468,8.277,6.468h34.132v17.375c-61.909,4.39-110.933,56.151-110.933,119.159     c0,65.877,53.589,119.467,119.467,119.467s119.467-53.589,119.467-119.467c0-63.008-49.024-114.769-110.933-119.159v-17.375     H298.669z M358.401,392.534c0,56.465-45.935,102.4-102.4,102.4s-102.4-45.935-102.4-102.4c0-56.465,45.935-102.4,102.4-102.4     S358.401,336.069,358.401,392.534z M301.509,204.801h-24.174l78.222-187.733h24.177L301.509,204.801z M312.892,17.068h24.174     l-78.222,187.733h-24.176l31.018-74.436c0.006-0.014,0.01-0.029,0.015-0.042L312.892,17.068z M248.633,126.908l-12.871,30.89     L182.979,17.068h24.441L248.633,126.908z M164.746,17.068l61.414,163.774l-2.372,5.693l-7.613,18.266h-5.683L132.267,17.068     H164.746z M215.733,221.868h6.134h74.404l-4.267,17.067H220L215.733,221.868z"/>
			<path d="M227.712,341.338c-20.514,0-37.53,16.119-39.723,37.564c-0.282,1.852-0.725,6.955,1.203,14.609     c2.918,11.46,9.566,21.837,19.277,30.046l42.044,35.251c1.587,1.331,3.541,1.997,5.487,1.997c1.954,0,3.9-0.666,5.487-1.997     l42.061-35.268c9.685-8.175,16.341-18.552,19.26-30.029c1.937-7.654,1.485-12.757,1.203-14.609     c-2.193-21.444-19.209-37.564-39.723-37.564c-11.486,0-21.342,5.896-28.288,13.645     C249.063,347.234,239.198,341.338,227.712,341.338z M263.774,373.875c3.379-7.458,11.238-15.471,20.514-15.471     c13.542,0,21.692,11.281,22.852,23.1c0,0.034,0.384,2.816-0.87,7.817c-2.039,7.996-6.776,15.317-13.705,21.154L256,441.135     l-36.54-30.635c-6.955-5.871-11.691-13.201-13.722-21.18c-1.22-4.83-0.905-7.586-0.922-7.586v0.009     c0.06-0.307,0.111-0.606,0.137-0.913c1.067-11.145,9.216-22.426,22.758-22.426c9.284,0,17.135,8.013,20.514,15.471     c1.382,3.055,4.42,5.009,7.774,5.009C259.354,378.884,262.392,376.93,263.774,373.875z"/>
		</g>
	</g>
</g>
<g>
</g>
<g>
</g>
<g>
</g>
<g>
</g>
<g>
</g>
<g>
</g>
<g>
</g>
<g>
</g>
<g>
</g>
<g>
</g>
<g>
</g>
<g>
</g>
<g>
</g>
<g>
</g>
<g>
</g>
</svg>
