<?xml version="1.0" encoding="iso-8859-1"?>
<!-- Generator: Adobe Illustrator 19.0.0, SVG Export Plug-In . SVG Version: 6.00 Build 0)  -->
<svg xmlns="http://www.w3.org/2000/svg" xmlns:xlink="http://www.w3.org/1999/xlink" version="1.1" id="Layer_1" x="0px" y="0px" viewBox="0 0 512.001 512.001" style="enable-background:new 0 0 512.001 512.001;" xml:space="preserve">
<g>
	<g>
		<g>
			<path d="M298.669,256.001c3.917,0,7.322-2.671,8.269-6.468l8.362-33.448L400.41,11.82c1.101-2.637,0.811-5.641-0.777-8.021     c-1.587-2.372-4.25-3.797-7.1-3.797h-42.683c-0.011,0-0.022,0-0.033,0h-42.618c-3.439,0-6.554,2.074-7.876,5.248l-41.101,98.643     L221.33,5.531c-1.254-3.319-4.437-5.53-7.996-5.53h-93.867c-2.85,0-5.513,1.425-7.1,3.797c-1.587,2.381-1.877,5.385-0.777,8.021     l85.098,204.234l8.37,33.479c0.947,3.797,4.361,6.468,8.277,6.468h34.132v17.375c-61.909,4.39-110.933,56.151-110.933,119.159     c0,65.877,53.589,119.467,119.467,119.467s119.467-53.589,119.467-119.467c0-63.008-49.024-114.769-110.933-119.159v-17.375     H298.669z M358.401,392.534c0,56.465-45.935,102.4-102.4,102.4s-102.4-45.935-102.4-102.4c0-56.465,45.935-102.4,102.4-102.4     S358.401,336.069,358.401,392.534z M301.509,204.801h-24.174l78.222-187.733h24.177L301.509,204.801z M312.892,17.068h24.174     l-78.222,187.733h-24.176l31.018-74.436c0.006-0.014,0.01-0.029,0.015-0.042L312.892,17.068z M248.633,126.908l-12.871,30.89     L182.979,17.068h24.441L248.633,126.908z M164.746,17.068l61.414,163.774l-2.372,5.693l-7.613,18.266h-5.683L132.267,17.068     H164.746z M215.733,221.868h6.134h74.404l-4.267,17.067H220L215.733,221.868z"/>
			<path d="M247.467,315.734c0,4.719,3.814,8.533,8.533,8.533c4.719,0,8.533-3.814,8.533-8.533s-3.814-8.533-8.533-8.533     C251.282,307.201,247.467,311.015,247.467,315.734z"/>
			<path d="M256,460.801c-4.719,0-8.533,3.814-8.533,8.533s3.814,8.533,8.533,8.533c4.719,0,8.533-3.814,8.533-8.533     S260.719,460.801,256,460.801z"/>
			<path d="M332.8,401.068c4.719,0,8.533-3.814,8.533-8.533c0-4.719-3.814-8.533-8.533-8.533s-8.533,3.814-8.533,8.533     C324.267,397.253,328.082,401.068,332.8,401.068z"/>
			<path d="M179.2,384.001c-4.719,0-8.533,3.814-8.533,8.533c0,4.719,3.814,8.533,8.533,8.533s8.533-3.814,8.533-8.533     C187.734,387.815,183.919,384.001,179.2,384.001z"/>
			<path d="M316.342,344.26c3.337-3.337,3.337-8.73,0-12.066c-3.336-3.337-8.73-3.337-12.066,0s-3.337,8.73,0,12.066     C307.613,347.596,313.006,347.596,316.342,344.26z"/>
			<path d="M195.66,440.81c-3.336,3.337-3.336,8.73,0,12.066c3.337,3.337,8.73,3.337,12.066,0s3.337-8.73,0-12.066     C204.389,437.473,198.996,437.473,195.66,440.81z"/>
			<path d="M316.341,452.876c3.337-3.337,3.337-8.73,0-12.066c-3.336-3.336-8.73-3.336-12.066,0c-3.337,3.337-3.337,8.73,0,12.066     S313.005,456.213,316.341,452.876z"/>
			<path d="M207.725,344.26c3.337-3.337,3.337-8.73,0-12.066s-8.73-3.337-12.066,0c-3.337,3.337-3.337,8.73,0,12.066     C198.995,347.596,204.388,347.596,207.725,344.26z"/>
			<path d="M221.867,375.468c0,4.719,3.814,8.533,8.533,8.533c4.719,0,8.533-3.814,8.533-8.533c0-9.412,7.654-17.067,17.348-17.067     c7.074,0.119,10.197,5.359,11.204,7.612c1.835,4.062,2.244,10.189-2.065,15.224l-41.498,48.418     c-2.176,2.526-2.662,6.084-1.271,9.114c1.391,3.021,4.412,4.966,7.748,4.966h51.2c4.719,0,8.533-3.814,8.533-8.533     s-3.814-8.533-8.533-8.533h-32.649l29.423-34.321c7.962-9.284,9.754-22.05,4.676-33.34c-4.83-10.718-14.967-17.485-27.051-17.672     C237.176,341.334,221.867,356.643,221.867,375.468z"/>
		</g>
	</g>
</g>
<g>
</g>
<g>
</g>
<g>
</g>
<g>
</g>
<g>
</g>
<g>
</g>
<g>
</g>
<g>
</g>
<g>
</g>
<g>
</g>
<g>
</g>
<g>
</g>
<g>
</g>
<g>
</g>
<g>
</g>
</svg>
