<?xml version="1.0" encoding="iso-8859-1"?>
<!-- Generator: Adobe Illustrator 19.0.0, SVG Export Plug-In . SVG Version: 6.00 Build 0)  -->
<svg xmlns="http://www.w3.org/2000/svg" xmlns:xlink="http://www.w3.org/1999/xlink" version="1.1" id="Layer_1" x="0px" y="0px" viewBox="0 0 512.007 512.007" style="enable-background:new 0 0 512.007 512.007;" xml:space="preserve">
<g transform="translate(0 -1)">
	<g>
		<g>
			<path d="M298.667,257.007c3.917,0,7.33-2.671,8.277-6.468l8.37-33.479l85.098-204.234c1.101-2.637,0.811-5.641-0.777-8.021     c-1.587-2.372-4.25-3.797-7.1-3.797h-42.564c-0.094-0.001-0.187-0.002-0.28,0h-42.49c-3.447,0-6.554,2.074-7.876,5.248     l-41.103,98.648L221.326,6.537c-1.246-3.319-4.437-5.53-7.996-5.53h-93.867c-2.85,0-5.513,1.425-7.1,3.797     c-1.579,2.381-1.869,5.385-0.768,8.021l85.078,204.188l8.381,33.525c0.947,3.797,4.361,6.468,8.277,6.468h34.135v17.375     c-61.909,4.39-110.933,56.151-110.933,119.159c0,65.877,53.589,119.467,119.467,119.467s119.467-53.589,119.467-119.467     c0-63.008-49.024-114.769-110.933-119.159v-17.375H298.667z M358.402,393.54c0,56.465-45.935,102.4-102.4,102.4     s-102.4-45.935-102.4-102.4c0-56.465,45.935-102.4,102.4-102.4S358.402,337.075,358.402,393.54z M301.51,205.807h-24.178     l78.222-187.733h24.181L301.51,205.807z M312.885,18.074h24.187L258.85,205.807h-24.181l20.729-49.754l10.285-24.682     c0.004-0.01,0.007-0.02,0.011-0.03L312.885,18.074z M248.632,127.92l-12.869,30.885L182.981,18.074h24.445L248.632,127.92z      M164.747,18.074l61.414,163.774l-9.983,23.959h-5.69L132.264,18.074H164.747z M215.731,222.874h6.133h0.004h74.4l-4.267,17.067     h-72.004L215.731,222.874z"/>
			<path d="M258.698,342.784c-3.473-1.169-7.322,0.034-9.523,2.97l-25.6,34.133c-2.825,3.772-2.065,9.122,1.707,11.947     c3.78,2.833,9.122,2.074,11.947-1.707l10.24-13.653v59.733c0,4.719,3.823,8.533,8.533,8.533s8.533-3.814,8.533-8.533v-85.333     C264.535,347.196,262.188,343.936,258.698,342.784z"/>
			<path d="M247.468,316.74c0,4.719,3.823,8.533,8.533,8.533s8.533-3.814,8.533-8.533s-3.823-8.533-8.533-8.533     S247.468,312.021,247.468,316.74z"/>
			<path d="M256.002,461.807c-4.71,0-8.533,3.814-8.533,8.533s3.823,8.533,8.533,8.533s8.533-3.814,8.533-8.533     S260.712,461.807,256.002,461.807z"/>
			<path d="M332.802,402.074c4.71,0,8.533-3.814,8.533-8.533c0-4.719-3.823-8.533-8.533-8.533s-8.533,3.814-8.533,8.533     C324.268,398.259,328.091,402.074,332.802,402.074z"/>
			<path d="M179.202,385.007c-4.71,0-8.533,3.814-8.533,8.533c0,4.719,3.823,8.533,8.533,8.533c4.71,0,8.533-3.814,8.533-8.533     C187.735,388.821,183.912,385.007,179.202,385.007z"/>
			<path d="M316.343,345.266c3.328-3.337,3.328-8.73,0-12.066c-3.336-3.337-8.738-3.337-12.075,0c-3.328,3.337-3.328,8.73,0,12.066     C307.605,348.602,313.007,348.602,316.343,345.266z"/>
			<path d="M195.656,441.816c-3.328,3.337-3.328,8.73,0,12.066c3.336,3.337,8.738,3.337,12.075,0s3.337-8.73,0-12.066     C204.395,438.479,198.993,438.479,195.656,441.816z"/>
			<path d="M316.347,453.882c3.328-3.337,3.328-8.73,0-12.066c-3.336-3.336-8.738-3.336-12.075,0c-3.337,3.337-3.337,8.73,0,12.066     S313.01,457.219,316.347,453.882z"/>
			<path d="M207.735,345.266c3.328-3.337,3.328-8.73,0-12.066c-3.337-3.337-8.738-3.337-12.075,0c-3.328,3.337-3.328,8.73,0,12.066     C198.996,348.602,204.398,348.602,207.735,345.266z"/>
		</g>
	</g>
</g>
<g>
</g>
<g>
</g>
<g>
</g>
<g>
</g>
<g>
</g>
<g>
</g>
<g>
</g>
<g>
</g>
<g>
</g>
<g>
</g>
<g>
</g>
<g>
</g>
<g>
</g>
<g>
</g>
<g>
</g>
</svg>
