<?xml version="1.0" encoding="iso-8859-1"?>
<!-- Generator: Adobe Illustrator 19.0.0, SVG Export Plug-In . SVG Version: 6.00 Build 0)  -->
<svg xmlns="http://www.w3.org/2000/svg" xmlns:xlink="http://www.w3.org/1999/xlink" version="1.1" id="Layer_1" x="0px" y="0px" viewBox="0 0 512 512" style="enable-background:new 0 0 512 512;" xml:space="preserve">
<g>
	<g>
		<g>
			<path d="M217.642,450.513c-3.857-2.227-7.544-4.813-10.948-7.68c-3.601-3.029-8.986-2.586-12.023,1.033     c-3.029,3.601-2.569,8.986,1.033,12.015c4.173,3.507,8.678,6.682,13.397,9.404c1.348,0.785,2.816,1.152,4.267,1.152     c2.944,0,5.811-1.527,7.39-4.258C223.12,458.091,221.721,452.877,217.642,450.513z"/>
			<path d="M179.199,384.004c0-4.454,0.384-8.909,1.143-13.252c0.811-4.642-2.304-9.071-6.946-9.873     c-4.659-0.785-9.062,2.304-9.873,6.938c-0.922,5.308-1.391,10.752-1.391,16.188v0.085c0,4.719,3.823,8.482,8.533,8.482     C175.376,392.572,179.199,388.715,179.199,384.004z"/>
			<path d="M328.097,357.534c1.271,3.448,4.54,5.581,8.013,5.581c0.981,0,1.98-0.162,2.953-0.521     c4.42-1.638,6.682-6.537,5.052-10.957c-1.877-5.111-4.224-10.086-6.972-14.797c-2.372-4.062-7.595-5.436-11.674-3.072     c-4.07,2.372-5.444,7.595-3.072,11.674C324.65,349.291,326.561,353.361,328.097,357.534z"/>
			<path d="M255.999,307.204c4.403,0,8.832,0.375,13.167,1.126c0.495,0.085,0.981,0.128,1.468,0.128c4.079,0,7.68-2.927,8.397-7.074     c0.811-4.642-2.304-9.062-6.946-9.865c-5.291-0.922-10.701-1.382-16.085-1.382h-0.179c-4.719,0-8.448,3.814-8.448,8.533     C247.372,303.381,251.289,307.204,255.999,307.204z"/>
			<path d="M177.783,348.83c1.348,0.785,2.816,1.152,4.267,1.152c2.944,0,5.811-1.527,7.39-4.258     c2.236-3.866,4.821-7.561,7.689-10.974c3.021-3.618,2.551-9.003-1.067-12.023c-3.61-3.046-9.003-2.552-12.015,1.058     c-3.499,4.173-6.647,8.678-9.378,13.389C172.313,341.261,173.704,346.475,177.783,348.83z"/>
			<path d="M183.841,410.321c-1.621-4.429-6.519-6.733-10.948-5.077c-4.429,1.613-6.699,6.511-5.077,10.94     c1.869,5.111,4.207,10.086,6.938,14.797c1.587,2.731,4.454,4.25,7.39,4.25c1.459,0,2.927-0.367,4.275-1.143     c4.079-2.372,5.461-7.595,3.106-11.674C187.28,418.564,185.369,414.494,183.841,410.321z"/>
			<path d="M234.683,300.924c-1.621-4.42-6.536-6.682-10.948-5.086c-5.094,1.869-10.078,4.224-14.805,6.972     c-4.07,2.372-5.453,7.603-3.081,11.665c1.587,2.722,4.446,4.241,7.381,4.241c1.459,0,2.935-0.375,4.284-1.161     c3.866-2.244,7.936-4.164,12.083-5.683C234.026,310.251,236.304,305.353,234.683,300.924z"/>
			<path d="M334.284,418.991c-4.079-2.33-9.293-0.939-11.648,3.149c-2.227,3.874-4.796,7.569-7.646,10.974     c-3.021,3.618-2.543,9.003,1.075,12.032c1.596,1.331,3.541,1.98,5.47,1.98c2.441,0,4.864-1.041,6.554-3.055     c3.49-4.181,6.63-8.695,9.353-13.431C339.788,426.56,338.371,421.346,334.284,418.991z"/>
			<path d="M317.209,323.998c3.021-3.618,2.543-8.986-1.067-12.015c-4.19-3.499-8.704-6.656-13.414-9.37     c-4.07-2.347-9.301-0.939-11.648,3.14c-2.355,4.079-0.947,9.293,3.132,11.648c3.857,2.227,7.552,4.796,10.974,7.663     c1.596,1.348,3.541,1.997,5.47,1.997C313.096,327.061,315.519,326.02,317.209,323.998z"/>
			<path d="M341.333,375.334c-4.719,0-8.533,3.951-8.533,8.67c0,4.386-0.375,8.789-1.118,13.082     c-0.802,4.642,2.313,9.054,6.955,9.856c0.495,0.085,0.981,0.128,1.468,0.128c4.07,0,7.68-2.927,8.397-7.083     c0.905-5.248,1.365-10.633,1.365-16.205v-0.051C349.866,379.021,346.043,375.334,341.333,375.334z"/>
			<path d="M294.63,450.359c-3.866,2.261-7.927,4.181-12.075,5.709c-4.429,1.63-6.69,6.536-5.06,10.957     c1.28,3.447,4.54,5.581,8.013,5.581c0.973,0,1.98-0.162,2.944-0.521c5.094-1.877,10.069-4.232,14.788-6.997     c4.07-2.381,5.436-7.603,3.063-11.674C303.922,449.353,298.7,447.987,294.63,450.359z"/>
			<path d="M255.999,460.804c-4.48,0-8.96-0.393-13.312-1.161c-4.659-0.828-9.071,2.27-9.899,6.912     c-0.819,4.642,2.287,9.071,6.921,9.89c5.299,0.939,10.726,1.417,16.452,1.417h0.145h0.06c4.71,0,8.346-3.823,8.346-8.533     C264.712,464.619,260.71,460.804,255.999,460.804z"/>
			<path d="M264.533,256.291v-17.358h8.535c1.801,0,3.558-0.572,5.018-1.63l93.867-68.267c2.202-1.613,3.516-4.173,3.516-6.903     V8.533c0-4.719-3.823-8.533-8.533-8.533h-68.267h-85.333h-68.267c-4.71,0-8.533,3.814-8.533,8.533v153.6     c0,2.731,1.306,5.291,3.507,6.903l93.867,68.267c1.459,1.058,3.217,1.63,5.026,1.63h8.532v17.358     C180.852,260.698,128,316.289,128,384c0,70.579,57.421,128,128,128s128-57.421,128-128     C384,316.289,331.148,260.698,264.533,256.291z M358.402,157.79l-51.2,37.236V17.067h51.2V157.79z M153.602,17.067h51.2v177.959     l-51.2-37.236V17.067z M221.868,207.438V17.067h68.267v190.371l-19.84,14.429h-28.587L221.868,207.438z M256,494.933     c-61.167,0-110.933-49.766-110.933-110.933S194.833,273.067,256,273.067S366.933,322.833,366.933,384     S317.167,494.933,256,494.933z"/>
			<path d="M238.933,435.2c4.71,0,8.533-3.814,8.533-8.533v-85.333c0-4.719-3.823-8.533-8.533-8.533s-8.533,3.814-8.533,8.533     v85.333C230.4,431.386,234.223,435.2,238.933,435.2z"/>
			<path d="M281.6,426.667v-85.333c0-4.719-3.823-8.533-8.533-8.533c-4.71,0-8.533,3.814-8.533,8.533v85.333     c0,4.719,3.823,8.533,8.533,8.533C277.777,435.2,281.6,431.386,281.6,426.667z"/>
		</g>
	</g>
</g>
<g>
</g>
<g>
</g>
<g>
</g>
<g>
</g>
<g>
</g>
<g>
</g>
<g>
</g>
<g>
</g>
<g>
</g>
<g>
</g>
<g>
</g>
<g>
</g>
<g>
</g>
<g>
</g>
<g>
</g>
</svg>
