<?xml version="1.0" encoding="iso-8859-1"?>
<!-- Generator: Adobe Illustrator 19.0.0, SVG Export Plug-In . SVG Version: 6.00 Build 0)  -->
<svg xmlns="http://www.w3.org/2000/svg" xmlns:xlink="http://www.w3.org/1999/xlink" version="1.1" id="Layer_1" x="0px" y="0px" viewBox="0 0 512 512" style="enable-background:new 0 0 512 512;" xml:space="preserve">
<g>
	<g>
		<g>
			<path d="M264.533,256.291v-17.358h8.535c1.801,0,3.558-0.572,5.018-1.63l93.867-68.267c2.202-1.613,3.516-4.173,3.516-6.903     V8.533c0-4.719-3.823-8.533-8.533-8.533h-68.267h-85.333h-68.267c-4.71,0-8.533,3.814-8.533,8.533v153.6     c0,2.731,1.306,5.291,3.507,6.903l93.867,68.267c1.459,1.058,3.217,1.63,5.026,1.63h8.532v17.358     C180.852,260.698,128,316.289,128,384c0,70.579,57.421,128,128,128s128-57.421,128-128     C384,316.289,331.148,260.698,264.533,256.291z M358.402,157.79l-51.2,37.236V17.067h51.2V157.79z M153.602,17.067h51.2v177.959     l-51.2-37.236V17.067z M221.868,207.438V17.067h68.267v190.371l-19.84,14.429h-28.587L221.868,207.438z M256,494.933     c-61.167,0-110.933-49.766-110.933-110.933S194.833,273.067,256,273.067S366.933,322.833,366.933,384     S317.167,494.933,256,494.933z"/>
			<path d="M349.534,373.111c-0.879-3.055-3.379-5.367-6.485-5.999l-25.293-5.188l-11.366-24.218     c-1.399-2.987-4.412-4.907-7.723-4.907c-3.311,0-6.323,1.92-7.723,4.907l-11.366,24.218L256,366.761l-23.578-4.836     l-11.366-24.218c-1.399-2.987-4.412-4.907-7.723-4.907c-3.311,0-6.323,1.92-7.723,4.907l-11.366,24.218l-25.293,5.188     c-3.106,0.631-5.606,2.944-6.485,5.999c-0.879,3.055,0.017,6.34,2.313,8.533l18.167,17.314l-3.669,26.539     c-0.435,3.217,0.981,6.409,3.669,8.235c2.688,1.818,6.178,1.963,9.011,0.35l21.376-12.177l21.376,12.177     c1.314,0.751,2.773,1.118,4.224,1.118c1.673,0,3.345-0.495,4.787-1.468c2.688-1.826,4.105-5.018,3.669-8.235l-3.669-26.539     L256,387.256l12.279,11.703l-3.669,26.539c-0.435,3.217,0.981,6.409,3.669,8.235c2.679,1.818,6.187,1.963,9.011,0.35     l21.376-12.177l21.376,12.177c1.314,0.751,2.773,1.118,4.224,1.118c1.673,0,3.345-0.495,4.787-1.468     c2.688-1.826,4.104-5.018,3.669-8.235l-3.669-26.539l18.167-17.314C349.517,379.452,350.413,376.166,349.534,373.111z      M228.779,389.615c-1.988,1.894-2.944,4.625-2.569,7.347l1.894,13.722l-10.547-6.007c-1.314-0.742-2.765-1.118-4.224-1.118     c-1.459,0-2.91,0.375-4.224,1.118l-10.547,6.007l1.894-13.722c0.375-2.722-0.58-5.453-2.569-7.347l-9.515-9.062l13.491-2.773     c2.637-0.538,4.864-2.287,6.007-4.727l5.461-11.631l5.461,11.631c1.143,2.44,3.371,4.19,6.007,4.727l13.491,2.773     L228.779,389.615z M314.112,389.615c-1.988,1.894-2.944,4.625-2.569,7.347l1.894,13.722l-10.547-6.007     c-1.314-0.742-2.765-1.118-4.224-1.118c-1.459,0-2.91,0.375-4.224,1.118l-10.547,6.007l1.894-13.722     c0.375-2.722-0.58-5.453-2.568-7.347l-9.515-9.062l13.491-2.773c2.637-0.538,4.864-2.287,6.007-4.727l5.461-11.631l5.461,11.631     c1.143,2.44,3.371,4.19,6.008,4.727l13.491,2.773L314.112,389.615z"/>
		</g>
	</g>
</g>
<g>
</g>
<g>
</g>
<g>
</g>
<g>
</g>
<g>
</g>
<g>
</g>
<g>
</g>
<g>
</g>
<g>
</g>
<g>
</g>
<g>
</g>
<g>
</g>
<g>
</g>
<g>
</g>
<g>
</g>
</svg>
