<?xml version="1.0" encoding="iso-8859-1"?>
<!-- Generator: Adobe Illustrator 19.0.0, SVG Export Plug-In . SVG Version: 6.00 Build 0)  -->
<svg xmlns="http://www.w3.org/2000/svg" xmlns:xlink="http://www.w3.org/1999/xlink" version="1.1" id="Layer_1" x="0px" y="0px" viewBox="0 0 512 512" style="enable-background:new 0 0 512 512;" xml:space="preserve">
<g>
	<g>
		<g>
			<path d="M264.533,256.291v-17.358h8.535c1.801,0,3.558-0.572,5.018-1.63l93.867-68.267c2.202-1.613,3.516-4.173,3.516-6.903     V8.533c0-4.719-3.814-8.533-8.533-8.533h-68.267h-85.333h-68.267c-4.719,0-8.533,3.814-8.533,8.533v153.6     c0,2.731,1.306,5.291,3.516,6.903l93.867,68.267c1.459,1.058,3.217,1.63,5.018,1.63h8.532v17.358     C180.852,260.698,128,316.289,128,384c0,70.579,57.421,128,128,128s128-57.421,128-128     C384,316.289,331.148,260.698,264.533,256.291z M358.402,157.79l-51.2,37.236V17.067h51.2V157.79z M153.602,17.067h51.2v177.959     l-51.2-37.236V17.067z M221.868,207.438V17.067h68.267v190.371l-19.84,14.429h-28.587L221.868,207.438z M256,494.933     c-61.167,0-110.933-49.766-110.933-110.933S194.833,273.067,256,273.067S366.933,322.833,366.933,384     S317.167,494.933,256,494.933z"/>
			<path d="M317.201,332.921l-37.769-6.596l-15.804-31.479c-2.901-5.786-12.356-5.786-15.258,0l-15.804,31.479l-37.768,6.596     c-3.26,0.58-5.897,2.978-6.767,6.17c-0.862,3.191,0.188,6.605,2.714,8.747l27.503,23.39l-4.838,37.274     c-0.427,3.268,1.058,6.485,3.823,8.269c2.756,1.783,6.298,1.818,9.105,0.094L256,398.594l29.662,18.27     c1.374,0.845,2.918,1.271,4.471,1.271c1.604,0,3.226-0.461,4.634-1.365c2.765-1.783,4.25-5.001,3.823-8.269l-4.838-37.274     l27.503-23.39c2.526-2.142,3.576-5.555,2.714-8.747C323.098,335.899,320.461,333.501,317.201,332.921z M279.168,361.226     c-2.21,1.877-3.311,4.736-2.935,7.603l3.132,24.115l-18.893-11.648c-1.365-0.836-2.918-1.263-4.471-1.263     c-1.553,0-3.106,0.427-4.471,1.263l-18.893,11.648l3.132-24.115c0.375-2.867-0.725-5.726-2.935-7.603l-17.186-14.618l24.09-4.207     c2.662-0.469,4.949-2.167,6.153-4.582L256,317.681l10.112,20.139c1.203,2.415,3.49,4.113,6.153,4.582l24.09,4.207     L279.168,361.226z"/>
			<path d="M273.067,443.733c4.719,0,8.533-3.814,8.533-8.533s-3.814-8.533-8.533-8.533h-34.133c-4.719,0-8.533,3.814-8.533,8.533     s3.814,8.533,8.533,8.533H273.067z"/>
			<path d="M290.133,460.8h-68.267c-4.719,0-8.533,3.814-8.533,8.533s3.814,8.533,8.533,8.533h68.267     c4.719,0,8.533-3.814,8.533-8.533S294.852,460.8,290.133,460.8z"/>
		</g>
	</g>
</g>
<g>
</g>
<g>
</g>
<g>
</g>
<g>
</g>
<g>
</g>
<g>
</g>
<g>
</g>
<g>
</g>
<g>
</g>
<g>
</g>
<g>
</g>
<g>
</g>
<g>
</g>
<g>
</g>
<g>
</g>
</svg>
