<?xml version="1.0" encoding="iso-8859-1"?>
<!-- Generator: Adobe Illustrator 19.0.0, SVG Export Plug-In . SVG Version: 6.00 Build 0)  -->
<svg xmlns="http://www.w3.org/2000/svg" xmlns:xlink="http://www.w3.org/1999/xlink" version="1.1" id="Layer_1" x="0px" y="0px" viewBox="0 0 512 512" style="enable-background:new 0 0 512 512;" xml:space="preserve">
<g>
	<g>
		<g>
			<path d="M264.533,256.291v-17.358h8.535c1.801,0,3.558-0.572,5.018-1.63l93.867-68.267c2.202-1.613,3.516-4.173,3.516-6.903     V8.533c0-4.719-3.814-8.533-8.533-8.533h-68.267h-85.333h-68.267c-4.719,0-8.533,3.814-8.533,8.533v153.6     c0,2.731,1.306,5.291,3.516,6.903l93.867,68.267c1.459,1.058,3.217,1.63,5.018,1.63h8.532v17.358     C180.852,260.698,128,316.289,128,384c0,70.579,57.421,128,128,128s128-57.421,128-128     C384,316.289,331.148,260.698,264.533,256.291z M358.402,157.79l-51.2,37.236V17.067h51.2V157.79z M153.602,17.067h51.2v177.959     l-51.2-37.236V17.067z M221.868,207.438V17.067h68.267v190.371l-19.84,14.429h-28.587L221.868,207.438z M256,494.933     c-61.167,0-110.933-49.766-110.933-110.933S194.833,273.067,256,273.067S366.933,322.833,366.933,384     S317.167,494.933,256,494.933z"/>
			<path d="M289.929,315.107c4.574,2.261,8.943,5.001,12.996,8.132c1.553,1.212,3.388,1.792,5.214,1.792     c2.551,0,5.077-1.135,6.75-3.302c2.893-3.729,2.21-9.088-1.51-11.972c-4.941-3.831-10.291-7.185-15.889-9.95     c-4.233-2.082-9.335-0.35-11.435,3.866C283.964,307.896,285.696,313.016,289.929,315.107z"/>
			<path d="M243.908,308.058c0.393,0,0.802-0.026,1.203-0.085c5.06-0.708,10.317-0.922,15.352-0.649     c4.523,0.145,8.738-3.345,8.994-8.038c0.265-4.702-3.328-8.738-8.038-8.994c-6.127-0.341-12.535-0.094-18.697,0.785     c-4.668,0.657-7.91,4.975-7.253,9.643C236.066,304.986,239.727,308.058,243.908,308.058z"/>
			<path d="M329.079,360.359c1.169,3.61,4.514,5.905,8.124,5.905c0.862,0,1.749-0.128,2.62-0.418     c4.489-1.442,6.946-6.255,5.495-10.735c-1.92-5.939-4.463-11.716-7.552-17.178c-2.313-4.096-7.535-5.538-11.622-3.226     c-4.113,2.321-5.555,7.526-3.226,11.622C325.444,350.802,327.518,355.521,329.079,360.359z"/>
			<path d="M198.366,329.656c2.057,0,4.122-0.742,5.769-2.236c3.772-3.465,7.91-6.562,12.271-9.207     c4.045-2.432,5.333-7.671,2.893-11.708c-2.432-4.036-7.689-5.367-11.708-2.893c-5.342,3.217-10.385,6.997-14.993,11.221     c-3.473,3.183-3.703,8.585-0.521,12.058C193.758,328.726,196.062,329.656,198.366,329.656z"/>
			<path d="M277.513,457.733c-4.898,1.434-9.958,2.372-15.07,2.807c-1.143,0.094-2.219,0.41-3.174,0.913     c-1.007-0.418-2.108-0.657-3.268-0.657c-5.12,0-10.249-0.503-15.258-1.51c-4.634-0.964-9.114,2.065-10.052,6.682     c-0.922,4.625,2.065,9.122,6.682,10.052c6.118,1.22,12.39,1.843,18.628,1.843c1.399,0,2.722-0.341,3.891-0.939     c1.229,0.512,2.551,0.759,3.985,0.614c6.229-0.512,12.433-1.673,18.432-3.422c4.514-1.323,7.117-6.067,5.794-10.59     C286.771,459.013,282.035,456.393,277.513,457.733z"/>
			<path d="M212.668,447.374c-4.224-2.91-8.166-6.229-11.716-9.89c-3.285-3.379-8.687-3.456-12.066-0.179     c-3.388,3.268-3.465,8.678-0.188,12.066c4.335,4.463,9.156,8.533,14.319,12.075c1.476,1.016,3.149,1.493,4.813,1.493     c2.722,0,5.393-1.289,7.049-3.703C217.54,455.352,216.559,450.045,212.668,447.374z"/>
			<path d="M341.76,382.904c-4.736-0.469-8.832,3.063-9.242,7.757c-0.444,5.086-1.399,10.155-2.842,15.07     c-1.331,4.531,1.246,9.267,5.777,10.598c0.802,0.239,1.613,0.35,2.406,0.35c3.686,0,7.091-2.415,8.183-6.127     c1.766-5.999,2.935-12.194,3.473-18.406C349.926,387.444,346.453,383.305,341.76,382.904z"/>
			<path d="M327.364,431.476c-3.635-2.995-9.011-2.441-12.006,1.195c-3.251,3.951-6.903,7.595-10.846,10.812     c-3.652,2.978-4.207,8.354-1.229,12.006c1.69,2.074,4.139,3.149,6.622,3.149c1.894,0,3.806-0.631,5.385-1.92     c4.838-3.942,9.293-8.397,13.269-13.235C331.546,439.839,331.017,434.463,327.364,431.476z"/>
			<path d="M181.956,340.767c-4.292-1.954-9.353-0.085-11.315,4.198c-2.611,5.683-4.651,11.648-6.067,17.732     c-1.075,4.591,1.775,9.182,6.366,10.249c0.648,0.154,1.314,0.23,1.954,0.23c3.874,0,7.381-2.662,8.294-6.596     c1.169-4.975,2.833-9.847,4.966-14.498C188.126,347.798,186.24,342.729,181.956,340.767z"/>
			<path d="M180.309,397.07c-0.802-4.642-5.214-7.731-9.865-6.955c-4.642,0.811-7.765,5.231-6.955,9.865     c1.067,6.161,2.756,12.228,5.026,18.057c1.314,3.371,4.531,5.427,7.953,5.427c1.033,0,2.082-0.179,3.098-0.58     c4.395-1.707,6.562-6.656,4.847-11.051C182.571,407.079,181.18,402.104,180.309,397.07z"/>
			<path d="M307.2,392.533c0-4.719-3.814-8.533-8.533-8.533h-85.333c-4.719,0-8.533,3.814-8.533,8.533     c0,4.719,3.814,8.533,8.533,8.533h85.333C303.386,401.067,307.2,397.252,307.2,392.533z"/>
			<path d="M238.933,366.933h34.133c4.719,0,8.533-3.814,8.533-8.533s-3.814-8.533-8.533-8.533h-34.133     c-4.719,0-8.533,3.814-8.533,8.533S234.214,366.933,238.933,366.933z"/>
		</g>
	</g>
</g>
<g>
</g>
<g>
</g>
<g>
</g>
<g>
</g>
<g>
</g>
<g>
</g>
<g>
</g>
<g>
</g>
<g>
</g>
<g>
</g>
<g>
</g>
<g>
</g>
<g>
</g>
<g>
</g>
<g>
</g>
</svg>
