<?xml version="1.0" encoding="iso-8859-1"?>
<!-- Generator: Adobe Illustrator 19.0.0, SVG Export Plug-In . SVG Version: 6.00 Build 0)  -->
<svg xmlns="http://www.w3.org/2000/svg" xmlns:xlink="http://www.w3.org/1999/xlink" version="1.1" id="Layer_1" x="0px" y="0px" viewBox="0 0 512 512" style="enable-background:new 0 0 512 512;" xml:space="preserve">
<g>
	<g>
		<g>
			<path d="M281.6,275.837V256.1h76.8c4.719,0,8.533-3.814,8.533-8.533v-42.769c0-4.71-3.814-8.533-8.533-8.533h-8.533v-17.26     v-33.937v-34.133V76.8V59.733h8.533c4.719,0,8.533-3.814,8.533-8.533V8.533c0-4.719-3.814-8.533-8.533-8.533H153.6     c-4.719,0-8.533,3.814-8.533,8.533V51.2c0,4.719,3.814,8.533,8.533,8.533h8.533V76.8v34.133v34.133v33.937v17.26H153.6     c-4.719,0-8.533,3.823-8.533,8.533v42.769c0,4.719,3.814,8.533,8.533,8.533h76.8v19.737     c-53.615,11.751-93.867,59.605-93.867,116.696C136.533,458.411,190.123,512,256,512s119.467-53.589,119.467-119.467     C375.467,335.442,335.215,287.588,281.6,275.837z M332.8,102.4H179.2V85.333h153.6V102.4z M179.2,119.467h153.6v17.067H179.2     V119.467z M179.2,153.6h153.6v16.87H179.2V153.6z M162.133,17.067h187.733v25.6h-8.533v-8.533c0-4.719-3.814-8.533-8.533-8.533     H179.2c-4.719,0-8.533,3.814-8.533,8.533v8.533h-8.533V17.067z M187.733,51.2v-8.533h136.533V51.2     c0,4.719,3.814,8.533,8.533,8.533v8.533H179.2v-8.533C183.919,59.733,187.733,55.919,187.733,51.2z M179.2,187.537h153.6v8.727     c-1.933,0-3.709,0.649-5.139,1.731c-1.604,1.212-2.767,2.972-3.203,5.009c-0.124,0.579-0.192,1.178-0.192,1.793v0.003v8.531     H187.733V204.8v-0.003c0-0.616-0.068-1.215-0.192-1.793c-0.435-2.037-1.599-3.797-3.203-5.009     c-1.43-1.082-3.205-1.731-5.139-1.731V187.537z M162.133,213.331h8.482c0.017,0,0.034,0.003,0.051,0.003v8.531v0.003     c0,4.719,3.814,8.533,8.533,8.533h153.6c4.719,0,8.533-3.814,8.533-8.533v-0.003v-8.531c0.017,0,0.034-0.002,0.051-0.003h8.482     v25.702h-75.56c-0.406-0.059-0.818-0.1-1.24-0.1h-34.133c-0.423,0-0.834,0.041-1.24,0.1h-75.56V213.331z M247.467,273.365V256.1     h17.067v17.266c-0.274-0.019-0.551-0.026-0.825-0.043c-0.934-0.06-1.871-0.109-2.811-0.147c-0.353-0.014-0.705-0.029-1.059-0.04     c-1.275-0.04-2.554-0.068-3.839-0.068c-1.285,0-2.564,0.028-3.839,0.068c-0.353,0.011-0.706,0.026-1.059,0.04     c-0.94,0.038-1.877,0.087-2.811,0.147C248.017,273.339,247.741,273.346,247.467,273.365z M256,494.933     c-56.465,0-102.4-45.935-102.4-102.4c0-51.121,37.653-93.61,86.683-101.194c1.174-0.182,2.356-0.339,3.543-0.479     c0.212-0.025,0.425-0.049,0.638-0.073c2.49-0.279,5.003-0.471,7.525-0.568c0.025-0.001,0.05-0.002,0.075-0.003     c2.622-0.098,5.252-0.098,7.874,0c0.025,0.001,0.05,0.002,0.075,0.003c2.522,0.096,5.035,0.289,7.525,0.568     c0.213,0.024,0.425,0.048,0.638,0.073c1.187,0.141,2.369,0.297,3.543,0.479c49.03,7.584,86.683,50.073,86.683,101.194     C358.4,448.998,312.465,494.933,256,494.933z"/>
			<path d="M349.534,390.178c-0.879-3.055-3.379-5.367-6.485-5.999l-25.293-5.188l-11.366-24.218     c-1.408-2.987-4.412-4.907-7.723-4.907c-3.311,0-6.315,1.92-7.723,4.907l-11.366,24.218L256,383.827l-23.578-4.836     l-11.366-24.218c-1.408-2.987-4.412-4.907-7.723-4.907c-3.311,0-6.315,1.92-7.723,4.907l-11.366,24.218l-25.293,5.188     c-3.106,0.631-5.606,2.944-6.485,5.999c-0.87,3.055,0.017,6.34,2.321,8.533l18.159,17.314l-3.661,26.539     c-0.452,3.217,0.973,6.409,3.661,8.235c2.697,1.818,6.178,1.971,9.011,0.35l21.376-12.177l21.376,12.177     c1.314,0.751,2.773,1.118,4.224,1.118c1.672,0,3.345-0.495,4.787-1.468c2.688-1.826,4.113-5.018,3.661-8.235l-3.661-26.539     L256,404.317l12.279,11.708l-3.661,26.539c-0.452,3.217,0.973,6.409,3.661,8.235c2.697,1.818,6.17,1.971,9.011,0.35     l21.376-12.177l21.376,12.177c1.314,0.751,2.773,1.118,4.224,1.118c1.673,0,3.345-0.495,4.787-1.468     c2.688-1.826,4.113-5.018,3.661-8.235l-3.661-26.539l18.159-17.314C349.517,396.518,350.404,393.233,349.534,390.178z      M228.787,406.682c-1.997,1.894-2.944,4.625-2.568,7.347l1.886,13.722l-10.547-6.007c-1.306-0.742-2.765-1.118-4.224-1.118     c-1.459,0-2.918,0.375-4.224,1.118l-10.547,6.007l1.886-13.722c0.375-2.722-0.572-5.453-2.569-7.347l-9.506-9.062l13.491-2.773     c2.637-0.538,4.873-2.287,6.008-4.727l5.461-11.631l5.461,11.631c1.135,2.441,3.371,4.19,6.007,4.727l13.491,2.773     L228.787,406.682z M314.121,406.682c-1.997,1.894-2.944,4.625-2.569,7.347l1.886,13.722l-10.547-6.007     c-1.306-0.742-2.765-1.118-4.224-1.118c-1.459,0-2.918,0.375-4.224,1.118l-10.547,6.007l1.886-13.722     c0.375-2.722-0.572-5.453-2.569-7.347l-9.506-9.062l13.491-2.773c2.637-0.538,4.872-2.287,6.007-4.727l5.461-11.631l5.461,11.631     c1.135,2.441,3.371,4.19,6.007,4.727l13.491,2.773L314.121,406.682z"/>
		</g>
	</g>
</g>
<g>
</g>
<g>
</g>
<g>
</g>
<g>
</g>
<g>
</g>
<g>
</g>
<g>
</g>
<g>
</g>
<g>
</g>
<g>
</g>
<g>
</g>
<g>
</g>
<g>
</g>
<g>
</g>
<g>
</g>
</svg>
