<?xml version="1.0" encoding="iso-8859-1"?>
<!-- Generator: Adobe Illustrator 19.0.0, SVG Export Plug-In . SVG Version: 6.00 Build 0)  -->
<svg xmlns="http://www.w3.org/2000/svg" xmlns:xlink="http://www.w3.org/1999/xlink" version="1.1" id="Layer_1" x="0px" y="0px" viewBox="0 0 512 512" style="enable-background:new 0 0 512 512;" xml:space="preserve">
<g>
	<g>
		<g>
			<path d="M256,332.8c-37.641,0-68.267,30.626-68.267,68.267c0,37.641,30.626,68.267,68.267,68.267     c37.641,0,68.267-30.626,68.267-68.267C324.267,363.426,293.641,332.8,256,332.8z M306.476,392.533h-16.597     c-0.735-12.651-3.105-24.941-7.055-35.058C295.129,365.075,303.982,377.734,306.476,392.533z M256,452.267     c-5.457,0-15.055-15.993-16.792-42.667h33.585C271.055,436.274,261.457,452.267,256,452.267z M239.208,392.533     c1.738-26.674,11.336-42.667,16.792-42.667s15.054,15.993,16.792,42.667H239.208z M229.177,357.476     c-3.95,10.116-6.32,22.407-7.055,35.058h-16.597C208.018,377.734,216.871,365.075,229.177,357.476z M205.524,409.6h16.597     c0.735,12.651,3.105,24.941,7.055,35.058C216.871,437.059,208.018,424.399,205.524,409.6z M282.823,444.658     c3.95-10.116,6.32-22.407,7.055-35.058h16.597C303.983,424.399,295.129,437.059,282.823,444.658z"/>
			<path d="M349.867,145.067v-34.133V76.8V59.733h8.533c4.719,0,8.533-3.814,8.533-8.533V8.533c0-4.719-3.814-8.533-8.533-8.533     H153.6c-4.719,0-8.533,3.814-8.533,8.533V51.2c0,4.719,3.814,8.533,8.533,8.533h8.533V76.8v34.133v34.133v33.937v17.26H153.6     c-4.719,0-8.533,3.823-8.533,8.533v42.769c0,4.719,3.814,8.533,8.533,8.533h76.8v37.021     c-48.866,11.588-85.333,55.588-85.333,107.946C145.067,462.234,194.833,512,256,512s110.933-49.766,110.933-110.933     c0-52.358-36.467-96.358-85.333-107.946V256.1h76.8c4.719,0,8.533-3.814,8.533-8.533v-42.769c0-4.71-3.814-8.533-8.533-8.533     h-8.533v-17.26V145.067z M332.8,102.4H179.2V85.333h153.6V102.4z M179.2,119.467h153.6v17.067H179.2V119.467z M179.2,153.6h153.6     v16.87H179.2V153.6z M162.133,17.067h187.733v25.6h-8.533v-8.533c0-4.719-3.814-8.533-8.533-8.533H179.2     c-4.719,0-8.533,3.814-8.533,8.533v8.533h-8.533V17.067z M187.733,51.2v-8.533h136.533V51.2c0,4.719,3.814,8.533,8.533,8.533     v8.533H179.2v-8.533C183.919,59.733,187.733,55.919,187.733,51.2z M349.867,401.067c0,51.755-42.112,93.867-93.867,93.867     c-51.755,0-93.867-42.112-93.867-93.867c0-46.697,34.285-85.539,79.002-92.685c0.762-0.122,1.526-0.234,2.293-0.337     c0.547-0.074,1.097-0.141,1.647-0.205c0.769-0.089,1.54-0.17,2.313-0.24c0.378-0.035,0.756-0.071,1.135-0.101     c1.038-0.081,2.078-0.146,3.12-0.193c0.323-0.015,0.647-0.025,0.97-0.037c1.038-0.037,2.077-0.061,3.116-0.064     c0.09,0,0.18-0.003,0.27-0.003s0.18,0.003,0.27,0.003c1.039,0.003,2.078,0.027,3.116,0.064c0.324,0.012,0.648,0.022,0.97,0.037     c1.042,0.047,2.082,0.112,3.12,0.193c0.379,0.03,0.757,0.067,1.135,0.101c0.773,0.07,1.543,0.151,2.312,0.24     c0.551,0.064,1.102,0.132,1.65,0.206c0.766,0.103,1.529,0.215,2.29,0.337C315.581,315.528,349.867,354.37,349.867,401.067z      M264.533,290.458c-0.028-0.002-0.056-0.003-0.084-0.005c-1.241-0.094-2.489-0.16-3.74-0.213     c-0.289-0.012-0.578-0.023-0.867-0.033c-1.276-0.044-2.555-0.074-3.842-0.074s-2.566,0.03-3.842,0.074     c-0.289,0.01-0.578,0.021-0.867,0.033c-1.252,0.053-2.5,0.119-3.74,0.213c-0.028,0.002-0.056,0.003-0.084,0.005V256.1h17.067     V290.458z M349.867,239.033h-75.56c-0.406-0.059-0.818-0.1-1.24-0.1h-34.133c-0.423,0-0.834,0.041-1.24,0.1h-75.56v-25.702h8.482     c0.017,0,0.034,0.003,0.051,0.003v8.531v0.003c0,4.719,3.814,8.533,8.533,8.533h153.6c4.719,0,8.533-3.814,8.533-8.533v-0.003     v-8.531c0.017,0,0.034-0.002,0.051-0.003h8.482V239.033z M327.661,197.995c-1.604,1.212-2.767,2.972-3.203,5.009     c-0.124,0.579-0.192,1.178-0.192,1.793v0.003v8.531H187.733V204.8v-0.003c0-0.616-0.068-1.215-0.192-1.793     c-0.435-2.037-1.599-3.797-3.203-5.009c-1.43-1.082-3.205-1.731-5.139-1.731v-8.727h153.6v8.727     C330.867,196.264,329.091,196.914,327.661,197.995z"/>
		</g>
	</g>
</g>
<g>
</g>
<g>
</g>
<g>
</g>
<g>
</g>
<g>
</g>
<g>
</g>
<g>
</g>
<g>
</g>
<g>
</g>
<g>
</g>
<g>
</g>
<g>
</g>
<g>
</g>
<g>
</g>
<g>
</g>
</svg>
