<?xml version="1.0" encoding="iso-8859-1"?>
<!-- Generator: Adobe Illustrator 19.0.0, SVG Export Plug-In . SVG Version: 6.00 Build 0)  -->
<svg xmlns="http://www.w3.org/2000/svg" xmlns:xlink="http://www.w3.org/1999/xlink" version="1.1" id="Layer_1" x="0px" y="0px" viewBox="0 0 512 512" style="enable-background:new 0 0 512 512;" xml:space="preserve">
<g>
	<g>
		<g>
			<path d="M256,349.867c4.71,0,8.533-3.814,8.533-8.533c0-4.719-3.823-8.533-8.533-8.533s-8.533,3.814-8.533,8.533     C247.467,346.052,251.29,349.867,256,349.867z"/>
			<path d="M256,452.267c-4.71,0-8.533,3.814-8.533,8.533c0,4.719,3.823,8.533,8.533,8.533s8.533-3.814,8.533-8.533     C264.533,456.081,260.71,452.267,256,452.267z"/>
			<path d="M315.733,409.6c4.71,0,8.533-3.814,8.533-8.533c0-4.719-3.823-8.533-8.533-8.533s-8.533,3.814-8.533,8.533     C307.2,405.786,311.023,409.6,315.733,409.6z"/>
			<path d="M196.267,392.533c-4.71,0-8.533,3.814-8.533,8.533c0,4.719,3.823,8.533,8.533,8.533s8.533-3.814,8.533-8.533     C204.8,396.348,200.977,392.533,196.267,392.533z"/>
			<path d="M304.271,364.867c3.337-3.337,3.337-8.738,0-12.075c-3.337-3.337-8.73-3.337-12.066,0c-3.336,3.336-3.336,8.738,0,12.075     C295.542,368.195,300.935,368.195,304.271,364.867z"/>
			<path d="M207.73,437.267c-3.337,3.337-3.337,8.738,0,12.075c3.337,3.336,8.73,3.336,12.066,0c3.337-3.337,3.337-8.738,0-12.075     C216.46,433.939,211.067,433.939,207.73,437.267z"/>
			<path d="M292.204,437.267c-3.336,3.337-3.336,8.738,0,12.075c3.337,3.336,8.73,3.336,12.066,0c3.337-3.337,3.337-8.738,0-12.075     C300.934,433.939,295.541,433.939,292.204,437.267z"/>
			<path d="M219.796,364.867c3.337-3.337,3.337-8.738,0-12.075c-3.336-3.337-8.73-3.337-12.066,0c-3.337,3.336-3.337,8.738,0,12.075     C211.066,368.195,216.459,368.195,219.796,364.867z"/>
			<path d="M256,366.933c-18.825,0-34.133,15.309-34.133,34.133c0,18.825,15.309,34.133,34.133,34.133s34.133-15.309,34.133-34.133     C290.133,382.242,274.825,366.933,256,366.933z M256,418.133c-9.412,0-17.067-7.654-17.067-17.067     c0-9.412,7.654-17.067,17.067-17.067c9.412,0,17.067,7.654,17.067,17.067C273.067,410.479,265.412,418.133,256,418.133z"/>
			<path d="M349.867,145.067v-34.133V76.8V59.733h8.533c4.71,0,8.533-3.814,8.533-8.533V8.533C366.933,3.814,363.11,0,358.4,0H153.6     c-4.71,0-8.533,3.814-8.533,8.533V51.2c0,4.719,3.823,8.533,8.533,8.533h8.533V76.8v34.133v34.133V179.2v17.067H153.6     c-4.71,0-8.533,3.814-8.533,8.533v42.667c0,4.719,3.823,8.533,8.533,8.533h76.8v37.121     c-48.866,11.588-85.333,55.588-85.333,107.946C145.067,462.234,194.833,512,256,512s110.933-49.766,110.933-110.933     c0-52.358-36.467-96.358-85.333-107.946V256h76.8c4.71,0,8.533-3.814,8.533-8.533V204.8c0-4.719-3.823-8.533-8.533-8.533h-8.533     V179.2V145.067z M332.8,102.4H179.2V85.333h153.6V102.4z M179.2,119.467h153.6v17.067H179.2V119.467z M179.2,153.6h153.6v17.067     H179.2V153.6z M162.133,17.067h187.733v25.6h-8.533v-8.533c0-4.719-3.823-8.533-8.533-8.533H179.2     c-4.71,0-8.533,3.814-8.533,8.533v8.533h-8.533V17.067z M187.733,51.2v-8.533h136.533V51.2c0,4.719,3.823,8.533,8.533,8.533     v8.533H179.2v-8.533C183.91,59.733,187.733,55.919,187.733,51.2z M349.867,401.067c0,51.755-42.112,93.867-93.867,93.867     c-51.755,0-93.867-42.112-93.867-93.867c0-46.694,34.28-85.533,78.992-92.683c0.803-0.128,1.609-0.247,2.417-0.355     c0.489-0.065,0.979-0.124,1.47-0.182c0.807-0.094,1.615-0.179,2.425-0.252c0.356-0.032,0.712-0.067,1.07-0.095     c1.047-0.083,2.097-0.147,3.148-0.195c0.317-0.015,0.635-0.025,0.953-0.036c1.04-0.037,2.08-0.061,3.121-0.064     c0.09,0,0.179-0.003,0.27-0.003s0.18,0.003,0.27,0.003c1.041,0.003,2.081,0.027,3.121,0.064c0.318,0.011,0.636,0.022,0.953,0.036     c1.051,0.048,2.101,0.113,3.148,0.195c0.358,0.028,0.714,0.063,1.07,0.095c0.81,0.073,1.618,0.158,2.425,0.252     c0.491,0.058,0.982,0.117,1.471,0.182c0.808,0.107,1.613,0.226,2.416,0.354C315.586,315.534,349.867,354.373,349.867,401.067z      M264.533,290.458c-0.028-0.002-0.055-0.003-0.083-0.005c-1.247-0.094-2.501-0.161-3.759-0.213     c-0.281-0.012-0.562-0.022-0.844-0.032c-1.278-0.044-2.559-0.074-3.848-0.074s-2.57,0.03-3.848,0.074     c-0.281,0.01-0.562,0.02-0.844,0.032c-1.258,0.053-2.512,0.119-3.759,0.213c-0.028,0.002-0.055,0.003-0.083,0.005V256h17.067     V290.458z M349.867,238.933h-76.8h-34.133h-76.8v-25.6h8.533v8.533c0,4.719,3.823,8.533,8.533,8.533h153.6     c4.71,0,8.533-3.814,8.533-8.533v-8.533h8.533V238.933z M324.267,204.8v8.533H187.733V204.8c0-4.719-3.823-8.533-8.533-8.533     v-8.533h153.6v8.533C328.09,196.267,324.267,200.081,324.267,204.8z"/>
		</g>
	</g>
</g>
<g>
</g>
<g>
</g>
<g>
</g>
<g>
</g>
<g>
</g>
<g>
</g>
<g>
</g>
<g>
</g>
<g>
</g>
<g>
</g>
<g>
</g>
<g>
</g>
<g>
</g>
<g>
</g>
<g>
</g>
</svg>
