<?xml version="1.0" encoding="iso-8859-1"?>
<!-- Generator: Adobe Illustrator 19.0.0, SVG Export Plug-In . SVG Version: 6.00 Build 0)  -->
<svg xmlns="http://www.w3.org/2000/svg" xmlns:xlink="http://www.w3.org/1999/xlink" version="1.1" id="Layer_1" x="0px" y="0px" viewBox="0 0 512 512" style="enable-background:new 0 0 512 512;" xml:space="preserve">
<g>
	<g>
		<g>
			<path d="M418.133,204.8c0-50.6-23.302-95.852-59.733-125.608V8.533c0-4.71-3.814-8.533-8.533-8.533H162.133     c-4.719,0-8.533,3.823-8.533,8.533v70.659C117.169,108.948,93.867,154.2,93.867,204.8s23.302,95.852,59.733,125.608v173.059     c0,3.447,2.074,6.562,5.265,7.885c3.191,1.314,6.861,0.589,9.301-1.852L256,421.666l87.834,87.834c1.63,1.63,3.814,2.5,6.033,2.5     c1.101,0,2.21-0.213,3.268-0.648c3.191-1.323,5.265-4.437,5.265-7.885V330.408C394.831,300.652,418.133,255.4,418.133,204.8z      M170.667,17.067h170.667v49.932c-9.425-5.858-19.488-10.781-30.065-14.627c-0.244-0.089-0.491-0.172-0.736-0.26     c-1.255-0.449-2.516-0.883-3.785-1.303c-0.596-0.197-1.192-0.392-1.79-0.582c-0.992-0.315-1.99-0.617-2.99-0.913     c-1.067-0.317-2.137-0.62-3.21-0.914c-0.888-0.243-1.776-0.486-2.671-0.714c-0.851-0.217-1.705-0.423-2.56-0.626     c-0.705-0.168-1.412-0.33-2.12-0.488c-0.87-0.195-1.74-0.39-2.613-0.57c-0.995-0.205-1.996-0.393-2.997-0.58     c-1.156-0.215-2.315-0.417-3.478-0.607c-0.833-0.137-1.667-0.271-2.504-0.394c-0.782-0.115-1.565-0.226-2.35-0.33     c-1.001-0.133-2.005-0.252-3.012-0.367c-0.607-0.069-1.213-0.147-1.821-0.209c-1.56-0.16-3.128-0.292-4.701-0.407     c-0.551-0.04-1.104-0.071-1.656-0.105c-1.202-0.076-2.408-0.138-3.617-0.187c-0.527-0.021-1.053-0.044-1.58-0.06     c-1.687-0.052-3.378-0.087-5.078-0.087c-1.7,0-3.391,0.035-5.078,0.087c-0.527,0.016-1.054,0.039-1.58,0.06     c-1.209,0.049-2.414,0.112-3.617,0.187c-0.552,0.034-1.105,0.065-1.656,0.105c-1.573,0.115-3.14,0.248-4.7,0.407     c-0.609,0.062-1.215,0.14-1.822,0.209c-1.006,0.115-2.01,0.234-3.011,0.367c-0.785,0.104-1.568,0.214-2.35,0.33     c-0.837,0.124-1.671,0.258-2.503,0.394c-1.166,0.191-2.328,0.393-3.487,0.609c-0.998,0.186-1.996,0.374-2.988,0.578     c-0.874,0.18-1.744,0.376-2.615,0.571c-0.708,0.158-1.414,0.32-2.118,0.487c-0.855,0.204-1.71,0.409-2.561,0.627     c-0.893,0.228-1.781,0.471-2.669,0.714c-1.074,0.294-2.145,0.598-3.212,0.915c-1,0.296-1.997,0.598-2.988,0.913     c-0.598,0.19-1.195,0.385-1.792,0.583c-1.268,0.419-2.529,0.853-3.784,1.302c-0.245,0.088-0.492,0.171-0.736,0.26     c-10.577,3.847-20.64,8.77-30.065,14.627V17.067z M341.333,482.867l-79.3-79.3c-1.664-1.664-3.849-2.5-6.033-2.5     c-2.185,0-4.369,0.836-6.033,2.5l-79.3,79.3V342.601c9.425,5.857,19.487,10.78,30.063,14.627c0.247,0.09,0.497,0.174,0.745,0.263     c1.251,0.448,2.509,0.881,3.774,1.299c0.597,0.198,1.195,0.393,1.794,0.584c0.991,0.315,1.988,0.616,2.988,0.912     c1.067,0.317,2.138,0.621,3.212,0.915c0.888,0.243,1.775,0.485,2.669,0.714c0.851,0.218,1.706,0.423,2.561,0.627     c0.704,0.167,1.41,0.329,2.118,0.487c0.871,0.195,1.741,0.39,2.615,0.571c0.992,0.205,1.99,0.392,2.988,0.578     c1.159,0.216,2.322,0.418,3.487,0.609c0.833,0.137,1.666,0.27,2.503,0.394c0.782,0.115,1.565,0.226,2.35,0.33     c1,0.133,2.005,0.252,3.011,0.367c0.608,0.069,1.213,0.147,1.822,0.209c1.56,0.16,3.128,0.292,4.7,0.407     c0.551,0.04,1.104,0.071,1.656,0.105c1.202,0.076,2.408,0.138,3.617,0.187c0.527,0.021,1.053,0.044,1.58,0.06     c1.687,0.052,3.378,0.087,5.078,0.087c1.7,0,3.391-0.035,5.078-0.087c0.527-0.016,1.054-0.039,1.58-0.06     c1.209-0.049,2.414-0.112,3.617-0.187c0.552-0.034,1.105-0.065,1.656-0.105c1.573-0.115,3.14-0.248,4.701-0.407     c0.609-0.062,1.214-0.14,1.821-0.209c1.006-0.115,2.011-0.234,3.012-0.367c0.785-0.104,1.568-0.214,2.35-0.33     c0.837-0.124,1.671-0.258,2.504-0.394c1.162-0.19,2.322-0.392,3.478-0.607c1.001-0.187,2.002-0.375,2.997-0.58     c0.874-0.18,1.743-0.376,2.613-0.57c0.708-0.158,1.415-0.32,2.12-0.488c0.855-0.203,1.709-0.409,2.56-0.626     c0.894-0.228,1.782-0.471,2.671-0.714c1.073-0.294,2.143-0.598,3.21-0.914c1-0.296,1.997-0.598,2.989-0.913     c0.599-0.191,1.196-0.385,1.793-0.583c1.266-0.418,2.524-0.851,3.776-1.299c0.248-0.089,0.497-0.173,0.745-0.263     c10.577-3.847,20.639-8.769,30.063-14.627V482.867z M345.579,318.831c-0.321,0.187-0.635,0.392-0.934,0.623     c-12.603,9.758-26.398,17.252-40.99,22.363c-0.312,0.109-0.621,0.223-0.934,0.329c-0.36,0.123-0.723,0.239-1.084,0.359     c-0.751,0.249-1.502,0.497-2.258,0.735c-0.249,0.078-0.498,0.154-0.747,0.231c-0.907,0.279-1.817,0.552-2.732,0.814     c-0.141,0.04-0.281,0.081-0.422,0.121c-5.664,1.604-11.466,2.873-17.386,3.781c-0.017,0.003-0.033,0.005-0.05,0.008     c-3.521,0.539-7.084,0.949-10.682,1.229c-0.224,0.017-0.448,0.032-0.673,0.048c-0.907,0.066-1.817,0.124-2.729,0.173     c-0.33,0.018-0.66,0.035-0.99,0.051c-0.845,0.04-1.692,0.071-2.541,0.097c-0.326,0.01-0.652,0.022-0.979,0.03     c-1.147,0.027-2.296,0.044-3.448,0.044c-1.153,0-2.302-0.017-3.449-0.044c-0.327-0.008-0.653-0.02-0.979-0.03     c-0.849-0.026-1.696-0.057-2.541-0.097c-0.33-0.016-0.66-0.033-0.99-0.051c-0.912-0.05-1.821-0.107-2.729-0.173     c-0.224-0.016-0.449-0.031-0.673-0.048c-3.599-0.28-7.161-0.69-10.682-1.229c-0.017-0.003-0.033-0.005-0.05-0.008     c-5.92-0.908-11.723-2.178-17.387-3.782c-0.14-0.04-0.28-0.08-0.42-0.12c-0.915-0.262-1.826-0.535-2.733-0.815     c-0.249-0.077-0.498-0.152-0.746-0.23c-0.756-0.237-1.508-0.485-2.258-0.735c-0.361-0.12-0.724-0.236-1.084-0.359     c-0.313-0.107-0.622-0.221-0.934-0.329c-14.592-5.111-28.387-12.606-40.99-22.363c-0.306-0.238-0.627-0.45-0.957-0.641     c-33.755-26.585-55.466-67.81-55.466-114.012c0-46.185,21.695-87.396,55.427-113.981c0.344-0.198,0.677-0.422,0.995-0.673     c12.603-9.758,26.398-17.252,40.99-22.363c0.312-0.109,0.621-0.223,0.934-0.329c0.36-0.123,0.723-0.239,1.084-0.359     c0.751-0.249,1.502-0.497,2.258-0.735c0.248-0.078,0.498-0.154,0.746-0.23c0.908-0.28,1.818-0.553,2.733-0.815     c0.14-0.04,0.28-0.08,0.42-0.12c5.664-1.604,11.466-2.873,17.387-3.782c0.017-0.003,0.033-0.005,0.05-0.008     c3.521-0.539,7.084-0.949,10.682-1.229c0.224-0.017,0.448-0.032,0.673-0.048c0.907-0.066,1.817-0.124,2.729-0.173     c0.33-0.018,0.66-0.035,0.99-0.051c0.845-0.04,1.692-0.071,2.541-0.097c0.326-0.01,0.652-0.022,0.979-0.03     c1.147-0.027,2.296-0.044,3.449-0.044c1.153,0,2.302,0.017,3.448,0.044c0.327,0.008,0.653,0.02,0.979,0.03     c0.849,0.026,1.696,0.057,2.541,0.097c0.33,0.016,0.66,0.033,0.99,0.051c0.912,0.05,1.821,0.107,2.729,0.173     c0.224,0.016,0.449,0.031,0.673,0.048c3.599,0.28,7.161,0.69,10.682,1.229c0.017,0.003,0.033,0.005,0.05,0.008     c5.92,0.908,11.723,2.178,17.386,3.781c0.141,0.04,0.281,0.08,0.422,0.121c0.915,0.262,1.824,0.535,2.732,0.814     c0.249,0.077,0.499,0.152,0.747,0.231c0.756,0.237,1.508,0.485,2.258,0.735c0.361,0.12,0.724,0.236,1.084,0.359     c0.313,0.107,0.622,0.221,0.934,0.329c14.592,5.111,28.387,12.606,40.99,22.363c0.302,0.236,0.619,0.442,0.944,0.631     c33.762,26.584,55.478,67.814,55.478,114.022C401.067,251.013,379.346,292.246,345.579,318.831z"/>
			<path d="M136.29,200.927c0.299,0.034,0.597,0.051,0.888,0.051c4.326,0,8.021-3.277,8.482-7.663     c0.521-5.111,1.417-10.232,2.654-15.215c1.135-4.582-1.647-9.207-6.221-10.342c-4.574-1.152-9.207,1.647-10.342,6.221     c-1.434,5.769-2.466,11.682-3.072,17.596C128.201,196.259,131.605,200.449,136.29,200.927z"/>
			<path d="M148.203,152.611c1.348,0.785,2.816,1.143,4.267,1.143c2.944,0,5.811-1.519,7.39-4.258     c2.577-4.446,5.487-8.764,8.67-12.834c2.884-3.721,2.219-9.079-1.493-11.981c-3.729-2.901-9.088-2.227-11.981,1.485     c-3.652,4.693-7.006,9.668-9.967,14.788C142.724,145.033,144.124,150.247,148.203,152.611z"/>
			<path d="M150.515,239.156c-1.596-4.873-2.859-9.924-3.763-15.002c-0.819-4.625-5.171-7.723-9.899-6.904     c-4.634,0.828-7.731,5.257-6.904,9.899c1.041,5.845,2.5,11.674,4.335,17.297c1.178,3.601,4.523,5.897,8.115,5.897     c0.879,0,1.766-0.137,2.654-0.427C149.525,248.457,151.974,243.636,150.515,239.156z"/>
			<path d="M358.737,162.962c1.348,3.311,4.54,5.325,7.902,5.325c1.075,0,2.159-0.205,3.217-0.64     c4.361-1.775,6.468-6.75,4.693-11.11c-2.227-5.461-4.873-10.846-7.885-16.017c-2.372-4.07-7.603-5.436-11.674-3.072     c-4.062,2.372-5.444,7.595-3.072,11.665C354.522,153.584,356.817,158.243,358.737,162.962z"/>
			<path d="M164.092,266.855c-2.645-3.908-7.936-4.932-11.853-2.287c-3.9,2.637-4.924,7.945-2.278,11.844     c3.311,4.907,7.014,9.626,11,14.046c1.681,1.869,4.002,2.816,6.332,2.816c2.039,0,4.087-0.725,5.717-2.193     c3.499-3.157,3.772-8.559,0.614-12.058C170.176,275.201,166.967,271.105,164.092,266.855z"/>
			<path d="M230.933,96.513c0.589,0,1.195-0.06,1.792-0.188c5.009-1.067,10.163-1.801,15.326-2.176     c4.702-0.341,8.235-4.42,7.893-9.122c-0.333-4.702-4.429-8.192-9.131-7.902c-5.939,0.427-11.878,1.271-17.655,2.509     c-4.608,0.99-7.552,5.521-6.562,10.129C223.458,93.774,226.991,96.513,230.933,96.513z"/>
			<path d="M278.822,96.223c5.035,1.058,10.044,2.483,14.899,4.241c0.964,0.341,1.937,0.512,2.901,0.512     c3.49,0,6.767-2.159,8.03-5.641c1.596-4.429-0.691-9.318-5.128-10.923c-5.598-2.022-11.383-3.669-17.186-4.89     c-4.582-0.981-9.139,1.988-10.103,6.596C271.27,90.736,274.214,95.258,278.822,96.223z"/>
			<path d="M256.004,315.734c-5.171,0-10.36-0.358-15.437-1.067c-4.668-0.7-8.986,2.603-9.634,7.27     c-0.649,4.668,2.603,8.977,7.27,9.626c5.854,0.828,11.844,1.237,17.801,1.237h0.478c4.719,0,8.294-3.823,8.294-8.533     C264.777,319.557,260.715,315.734,256.004,315.734z"/>
			<path d="M350.707,278.034c-3.49-3.132-8.9-2.842-12.049,0.674c-3.413,3.814-7.151,7.45-11.093,10.795     c-3.601,3.046-4.036,8.431-0.99,12.023c1.69,1.988,4.096,3.012,6.519,3.012c1.946,0,3.908-0.666,5.504-2.022     c4.54-3.849,8.832-8.03,12.774-12.425C354.513,286.576,354.214,281.183,350.707,278.034z"/>
			<path d="M372.373,233.217c-4.471-1.459-9.293,1.016-10.743,5.504c-1.553,4.847-3.499,9.685-5.751,14.37     c-2.057,4.25-0.273,9.344,3.968,11.401c1.195,0.572,2.466,0.845,3.703,0.845c3.174,0,6.229-1.775,7.689-4.83     c2.603-5.393,4.838-10.957,6.647-16.555C379.328,239.472,376.862,234.659,372.373,233.217z"/>
			<path d="M383.27,191.054c-0.503-4.685-4.608-8.047-9.395-7.578c-4.685,0.495-8.073,4.702-7.578,9.387     c0.418,3.951,0.64,7.97,0.64,11.938c0,1.178-0.017,2.347-0.051,3.516c-0.162,4.71,3.533,8.661,8.235,8.815h0.299     c4.582,0,8.363-3.635,8.516-8.252c0.051-1.357,0.06-2.714,0.06-4.079C383.996,200.227,383.748,195.602,383.27,191.054z"/>
			<path d="M190.69,115.184c4.156-3.029,8.559-5.811,13.09-8.243c4.156-2.227,5.709-7.407,3.482-11.554     c-2.236-4.156-7.424-5.709-11.563-3.482c-5.214,2.807-10.283,5.999-15.078,9.498c-3.806,2.773-4.634,8.115-1.852,11.921     c1.664,2.287,4.267,3.499,6.895,3.499C187.405,116.822,189.171,116.293,190.69,115.184z"/>
			<path d="M338.735,127.241c2.244,0,4.471-0.879,6.153-2.62c3.26-3.396,3.166-8.798-0.239-12.066     c-4.275-4.113-8.875-7.97-13.679-11.443c-3.831-2.79-9.165-1.911-11.921,1.894c-2.765,3.814-1.911,9.156,1.903,11.921     c4.164,3.021,8.158,6.357,11.861,9.924C334.477,126.448,336.602,127.241,338.735,127.241z"/>
			<path d="M301.487,305.972c-4.693,2.116-9.574,3.925-14.507,5.359c-4.523,1.323-7.117,6.059-5.794,10.59     c1.092,3.721,4.489,6.144,8.192,6.144c0.785,0,1.587-0.111,2.389-0.35c5.692-1.664,11.324-3.738,16.734-6.178     c4.301-1.937,6.204-6.997,4.267-11.29C310.822,305.955,305.805,304.026,301.487,305.972z"/>
			<path d="M210.914,306.16c-4.685-2.091-9.276-4.54-13.619-7.279c-4.011-2.509-9.267-1.306-11.767,2.688     c-2.509,3.994-1.314,9.259,2.679,11.768c5.035,3.157,10.342,5.99,15.761,8.405c1.126,0.503,2.304,0.742,3.465,0.742     c3.268,0,6.383-1.886,7.799-5.06C217.161,313.123,215.223,308.071,210.914,306.16z"/>
			<path d="M230.4,136.533v85.333c0,4.71,3.814,8.533,8.533,8.533s8.533-3.823,8.533-8.533v-85.333c0-4.71-3.814-8.533-8.533-8.533     S230.4,131.823,230.4,136.533z"/>
			<path d="M273.067,230.4c4.719,0,8.533-3.823,8.533-8.533v-85.333c0-4.71-3.814-8.533-8.533-8.533s-8.533,3.823-8.533,8.533     v85.333C264.533,226.577,268.348,230.4,273.067,230.4z"/>
			<path d="M290.133,273.067c0-4.71-3.814-8.533-8.533-8.533h-51.2c-4.719,0-8.533,3.823-8.533,8.533s3.814,8.533,8.533,8.533h51.2     C286.319,281.6,290.133,277.777,290.133,273.067z"/>
		</g>
	</g>
</g>
<g>
</g>
<g>
</g>
<g>
</g>
<g>
</g>
<g>
</g>
<g>
</g>
<g>
</g>
<g>
</g>
<g>
</g>
<g>
</g>
<g>
</g>
<g>
</g>
<g>
</g>
<g>
</g>
<g>
</g>
</svg>
