<?xml version="1.0" encoding="iso-8859-1"?>
<!-- Generator: Adobe Illustrator 19.0.0, SVG Export Plug-In . SVG Version: 6.00 Build 0)  -->
<svg xmlns="http://www.w3.org/2000/svg" xmlns:xlink="http://www.w3.org/1999/xlink" version="1.1" id="Layer_1" x="0px" y="0px" viewBox="0 0 512 512" style="enable-background:new 0 0 512 512;" xml:space="preserve">
<g>
	<g>
		<g>
			<path d="M418.133,204.8c0-50.6-23.302-95.852-59.733-125.608V8.533c0-4.71-3.814-8.533-8.533-8.533H162.133     c-4.719,0-8.533,3.823-8.533,8.533v70.659C117.169,108.948,93.867,154.2,93.867,204.8s23.302,95.852,59.733,125.608v173.059     c0,3.447,2.074,6.562,5.265,7.885c3.191,1.314,6.861,0.589,9.301-1.852L256,421.666l87.834,87.834c1.63,1.63,3.814,2.5,6.033,2.5     c1.101,0,2.21-0.213,3.268-0.648c3.191-1.323,5.265-4.437,5.265-7.885V330.408C394.831,300.652,418.133,255.4,418.133,204.8z      M170.667,17.067h170.667v49.932c-9.425-5.858-19.488-10.781-30.065-14.627c-0.244-0.089-0.491-0.172-0.736-0.26     c-1.255-0.449-2.516-0.883-3.785-1.303c-0.596-0.197-1.192-0.392-1.79-0.582c-0.992-0.315-1.99-0.617-2.99-0.913     c-1.067-0.317-2.137-0.62-3.21-0.914c-0.888-0.243-1.776-0.486-2.671-0.714c-0.851-0.217-1.705-0.423-2.56-0.626     c-0.705-0.168-1.412-0.33-2.12-0.488c-0.87-0.195-1.74-0.39-2.613-0.57c-0.995-0.205-1.996-0.393-2.997-0.58     c-1.156-0.215-2.315-0.417-3.478-0.607c-0.833-0.137-1.667-0.271-2.504-0.394c-0.782-0.115-1.565-0.226-2.35-0.33     c-1.001-0.133-2.005-0.252-3.012-0.367c-0.607-0.069-1.213-0.147-1.821-0.209c-1.56-0.16-3.128-0.292-4.701-0.407     c-0.551-0.04-1.104-0.071-1.656-0.105c-1.202-0.076-2.408-0.138-3.617-0.187c-0.527-0.021-1.053-0.044-1.58-0.06     c-1.687-0.052-3.378-0.087-5.078-0.087c-1.7,0-3.391,0.035-5.078,0.087c-0.527,0.016-1.054,0.039-1.58,0.06     c-1.209,0.049-2.414,0.112-3.617,0.187c-0.552,0.034-1.105,0.065-1.656,0.105c-1.573,0.115-3.14,0.248-4.7,0.407     c-0.609,0.062-1.215,0.14-1.822,0.209c-1.006,0.115-2.01,0.234-3.011,0.367c-0.785,0.104-1.568,0.214-2.35,0.33     c-0.837,0.124-1.671,0.258-2.503,0.394c-1.166,0.191-2.328,0.393-3.487,0.609c-0.998,0.186-1.996,0.374-2.988,0.578     c-0.874,0.18-1.744,0.376-2.615,0.571c-0.708,0.158-1.414,0.32-2.118,0.487c-0.855,0.204-1.71,0.409-2.561,0.627     c-0.893,0.228-1.781,0.471-2.669,0.714c-1.074,0.294-2.145,0.598-3.212,0.915c-1,0.296-1.997,0.598-2.988,0.913     c-0.598,0.19-1.195,0.385-1.792,0.583c-1.268,0.419-2.529,0.853-3.784,1.302c-0.245,0.088-0.492,0.171-0.736,0.26     c-10.577,3.847-20.64,8.77-30.065,14.627V17.067z M341.333,482.867l-79.3-79.3c-1.664-1.664-3.849-2.5-6.033-2.5     c-2.185,0-4.369,0.836-6.033,2.5l-79.3,79.3V342.601c9.425,5.857,19.487,10.78,30.063,14.627c0.247,0.09,0.497,0.174,0.745,0.263     c1.251,0.448,2.509,0.881,3.774,1.299c0.597,0.198,1.195,0.393,1.794,0.584c0.991,0.315,1.988,0.616,2.988,0.912     c1.067,0.317,2.138,0.621,3.212,0.915c0.888,0.243,1.775,0.485,2.669,0.714c0.851,0.218,1.706,0.423,2.561,0.627     c0.704,0.167,1.41,0.329,2.118,0.487c0.871,0.195,1.741,0.39,2.615,0.571c0.992,0.205,1.99,0.392,2.988,0.578     c1.159,0.216,2.322,0.418,3.487,0.609c0.833,0.137,1.666,0.27,2.503,0.394c0.782,0.115,1.565,0.226,2.35,0.33     c1,0.133,2.005,0.252,3.011,0.367c0.608,0.069,1.213,0.147,1.822,0.209c1.56,0.16,3.128,0.292,4.7,0.407     c0.551,0.04,1.104,0.071,1.656,0.105c1.202,0.076,2.408,0.138,3.617,0.187c0.527,0.021,1.053,0.044,1.58,0.06     c1.687,0.052,3.378,0.087,5.078,0.087c1.7,0,3.391-0.035,5.078-0.087c0.527-0.016,1.054-0.039,1.58-0.06     c1.209-0.049,2.414-0.112,3.617-0.187c0.552-0.034,1.105-0.065,1.656-0.105c1.573-0.115,3.14-0.248,4.701-0.407     c0.609-0.062,1.214-0.14,1.821-0.209c1.006-0.115,2.011-0.234,3.012-0.367c0.785-0.104,1.568-0.214,2.35-0.33     c0.837-0.124,1.671-0.258,2.504-0.394c1.162-0.19,2.322-0.392,3.478-0.607c1.001-0.187,2.002-0.375,2.997-0.58     c0.874-0.18,1.743-0.376,2.613-0.57c0.708-0.158,1.415-0.32,2.12-0.488c0.855-0.203,1.709-0.409,2.56-0.626     c0.894-0.228,1.782-0.471,2.671-0.714c1.073-0.294,2.143-0.598,3.21-0.914c1-0.296,1.997-0.598,2.989-0.913     c0.599-0.191,1.196-0.385,1.793-0.583c1.266-0.418,2.524-0.851,3.776-1.299c0.248-0.089,0.497-0.173,0.745-0.263     c10.577-3.847,20.639-8.769,30.063-14.627V482.867z M345.577,318.832c-0.321,0.187-0.634,0.391-0.933,0.622     c-12.603,9.758-26.398,17.252-40.99,22.363c-0.312,0.109-0.621,0.223-0.934,0.329c-0.36,0.123-0.723,0.239-1.084,0.359     c-0.751,0.249-1.502,0.497-2.258,0.735c-0.249,0.078-0.498,0.154-0.747,0.231c-0.907,0.279-1.817,0.552-2.732,0.814     c-0.141,0.04-0.281,0.081-0.422,0.121c-5.664,1.604-11.466,2.873-17.386,3.781c-0.017,0.003-0.033,0.005-0.05,0.008     c-3.521,0.539-7.084,0.949-10.682,1.229c-0.224,0.017-0.448,0.032-0.673,0.048c-0.907,0.066-1.817,0.124-2.729,0.173     c-0.33,0.018-0.66,0.035-0.99,0.051c-0.845,0.04-1.692,0.071-2.541,0.097c-0.326,0.01-0.652,0.022-0.979,0.03     c-1.147,0.027-2.296,0.044-3.448,0.044c-1.153,0-2.302-0.017-3.449-0.044c-0.327-0.008-0.653-0.02-0.979-0.03     c-0.849-0.026-1.696-0.057-2.541-0.097c-0.33-0.016-0.66-0.033-0.99-0.051c-0.912-0.05-1.821-0.107-2.729-0.173     c-0.224-0.016-0.449-0.031-0.673-0.048c-3.599-0.28-7.161-0.69-10.682-1.229c-0.017-0.003-0.033-0.005-0.05-0.008     c-5.92-0.908-11.723-2.178-17.387-3.782c-0.14-0.04-0.28-0.08-0.42-0.12c-0.915-0.262-1.826-0.535-2.733-0.815     c-0.249-0.077-0.498-0.152-0.746-0.23c-0.756-0.237-1.508-0.485-2.258-0.735c-0.361-0.12-0.724-0.236-1.084-0.359     c-0.313-0.107-0.622-0.221-0.934-0.329c-14.592-5.111-28.387-12.606-40.99-22.363c-0.302-0.235-0.62-0.443-0.945-0.632     c-33.761-26.584-55.477-67.814-55.477-114.022c0-46.19,21.7-87.406,55.439-113.991c0.339-0.196,0.669-0.416,0.983-0.663     c12.603-9.758,26.398-17.252,40.99-22.363c0.312-0.109,0.621-0.223,0.934-0.329c0.36-0.123,0.723-0.239,1.084-0.359     c0.751-0.249,1.502-0.497,2.258-0.735c0.248-0.078,0.498-0.154,0.746-0.23c0.908-0.28,1.818-0.553,2.733-0.815     c0.14-0.04,0.28-0.08,0.42-0.12c5.664-1.604,11.466-2.873,17.387-3.782c0.017-0.003,0.033-0.005,0.05-0.008     c3.521-0.539,7.084-0.949,10.682-1.229c0.224-0.017,0.448-0.032,0.673-0.048c0.907-0.066,1.817-0.124,2.729-0.173     c0.33-0.018,0.66-0.035,0.99-0.051c0.845-0.04,1.692-0.071,2.541-0.097c0.326-0.01,0.652-0.022,0.979-0.03     c1.147-0.027,2.296-0.044,3.449-0.044c1.153,0,2.302,0.017,3.448,0.044c0.327,0.008,0.653,0.02,0.979,0.03     c0.849,0.026,1.696,0.057,2.541,0.097c0.33,0.016,0.66,0.033,0.99,0.051c0.912,0.05,1.821,0.107,2.729,0.173     c0.224,0.016,0.449,0.031,0.673,0.048c3.599,0.28,7.161,0.69,10.682,1.229c0.017,0.003,0.033,0.005,0.05,0.008     c5.92,0.908,11.723,2.178,17.386,3.781c0.141,0.04,0.281,0.08,0.422,0.121c0.915,0.262,1.824,0.535,2.732,0.814     c0.249,0.077,0.499,0.152,0.747,0.231c0.756,0.237,1.508,0.485,2.258,0.735c0.361,0.12,0.724,0.236,1.084,0.359     c0.313,0.107,0.622,0.221,0.934,0.329c14.592,5.111,28.387,12.606,40.99,22.363c0.302,0.236,0.619,0.442,0.944,0.631     c33.762,26.584,55.478,67.814,55.478,114.022C401.067,251.013,379.346,292.248,345.577,318.832z"/>
			<path d="M366.49,167.945c-1.016-3.012-3.635-5.222-6.776-5.709l-65.331-10.189l-30.737-61.969     c-2.884-5.811-12.407-5.811-15.292,0l-30.737,61.969l-65.331,10.189c-3.14,0.486-5.76,2.697-6.775,5.709     c-1.007,3.021-0.265,6.349,1.946,8.644l46.302,48.017l-14.353,63.65c-0.708,3.132,0.41,6.4,2.884,8.448     c2.475,2.057,5.888,2.534,8.849,1.254L256,269.73l64.862,28.228c1.092,0.478,2.253,0.708,3.405,0.708     c1.954,0,3.883-0.674,5.444-1.963c2.475-2.048,3.593-5.316,2.884-8.448l-14.353-63.65l46.302-48.017     C366.754,174.293,367.497,170.965,366.49,167.945z M302.763,216.064c-1.988,2.074-2.816,5.001-2.176,7.799l11.657,51.729     l-52.838-22.989c-1.092-0.469-2.244-0.708-3.405-0.708c-1.161,0-2.313,0.239-3.405,0.708l-52.838,22.989l11.657-51.729     c0.64-2.799-0.188-5.726-2.176-7.799l-38.093-39.501l53.47-8.337c2.739-0.427,5.103-2.159,6.323-4.642L256,113.067l25.062,50.517     c1.22,2.483,3.584,4.216,6.323,4.642l53.47,8.337L302.763,216.064z"/>
		</g>
	</g>
</g>
<g>
</g>
<g>
</g>
<g>
</g>
<g>
</g>
<g>
</g>
<g>
</g>
<g>
</g>
<g>
</g>
<g>
</g>
<g>
</g>
<g>
</g>
<g>
</g>
<g>
</g>
<g>
</g>
<g>
</g>
</svg>
