<?xml version="1.0" encoding="iso-8859-1"?>
<!-- Generator: Adobe Illustrator 19.0.0, SVG Export Plug-In . SVG Version: 6.00 Build 0)  -->
<svg xmlns="http://www.w3.org/2000/svg" xmlns:xlink="http://www.w3.org/1999/xlink" version="1.1" id="Layer_1" x="0px" y="0px" viewBox="0 0 512 512" style="enable-background:new 0 0 512 512;" xml:space="preserve">
<g>
	<g>
		<g>
			<path d="M418.133,204.8c0-50.6-23.302-95.852-59.733-125.608V8.533c0-4.71-3.823-8.533-8.533-8.533H162.133     c-4.71,0-8.533,3.823-8.533,8.533v70.659C117.169,108.948,93.867,154.2,93.867,204.8s23.302,95.852,59.733,125.608v173.059     c0,3.447,2.082,6.562,5.265,7.885c3.183,1.314,6.852,0.589,9.301-1.852L256,421.666l87.834,87.834c1.63,1.63,3.814,2.5,6.033,2.5     c1.101,0,2.21-0.213,3.268-0.648c3.183-1.323,5.265-4.437,5.265-7.885V330.408C394.831,300.652,418.133,255.4,418.133,204.8z      M170.667,17.067h170.667v49.932c-7.909-4.915-16.267-9.17-25.002-12.684c-0.004-0.002-0.009-0.004-0.013-0.005     c-1.662-0.668-3.335-1.314-5.023-1.928c-0.284-0.104-0.571-0.2-0.855-0.302c-1.209-0.432-2.423-0.851-3.645-1.255     c-0.626-0.208-1.253-0.412-1.881-0.612c-0.935-0.297-1.876-0.581-2.818-0.861c-1.186-0.353-2.376-0.69-3.57-1.016     c-0.798-0.217-1.595-0.436-2.398-0.641c-0.884-0.226-1.771-0.439-2.659-0.65c-0.662-0.157-1.325-0.309-1.99-0.458     c-0.904-0.203-1.807-0.406-2.715-0.593c-0.809-0.167-1.624-0.317-2.437-0.471c-1.354-0.257-2.713-0.498-4.076-0.72     c-0.8-0.131-1.6-0.259-2.404-0.378c-0.801-0.118-1.603-0.231-2.407-0.338c-0.975-0.129-1.953-0.245-2.933-0.357     c-0.629-0.071-1.256-0.152-1.887-0.216c-1.554-0.159-3.115-0.291-4.681-0.406c-0.557-0.041-1.117-0.072-1.675-0.107     c-1.197-0.075-2.397-0.138-3.601-0.186c-0.529-0.021-1.057-0.044-1.587-0.061c-1.687-0.052-3.378-0.087-5.077-0.087     c-1.699,0-3.39,0.035-5.077,0.087c-0.53,0.016-1.058,0.039-1.587,0.061c-1.204,0.049-2.404,0.111-3.601,0.186     c-0.558,0.035-1.118,0.066-1.675,0.107c-1.566,0.115-3.128,0.247-4.681,0.406c-0.631,0.064-1.258,0.145-1.887,0.216     c-0.98,0.112-1.958,0.228-2.933,0.357c-0.804,0.106-1.606,0.219-2.407,0.338c-0.804,0.119-1.604,0.248-2.404,0.378     c-1.363,0.222-2.721,0.463-4.076,0.72c-0.813,0.154-1.628,0.305-2.437,0.471c-0.908,0.187-1.811,0.39-2.715,0.593     c-0.665,0.149-1.328,0.301-1.99,0.458c-0.888,0.211-1.775,0.424-2.659,0.65c-0.803,0.205-1.6,0.424-2.398,0.641     c-1.194,0.325-2.384,0.663-3.57,1.016c-0.942,0.28-1.883,0.564-2.818,0.861c-0.629,0.2-1.255,0.404-1.881,0.612     c-1.222,0.404-2.436,0.822-3.645,1.255c-0.284,0.102-0.571,0.198-0.855,0.302c-1.688,0.614-3.361,1.26-5.023,1.928     c-0.004,0.002-0.009,0.004-0.013,0.005c-8.735,3.514-17.093,7.769-25.002,12.684V17.067z M341.333,482.867l-79.3-79.3     c-1.664-1.664-3.849-2.5-6.033-2.5c-2.185,0-4.369,0.836-6.033,2.5l-79.3,79.3V342.601c7.91,4.916,16.269,9.171,25.006,12.686     c0.002,0.001,0.005,0.002,0.007,0.003c1.662,0.668,3.335,1.314,5.023,1.929c0.287,0.105,0.576,0.202,0.864,0.305     c1.206,0.431,2.417,0.848,3.636,1.251c0.627,0.208,1.255,0.413,1.884,0.613c0.935,0.297,1.875,0.581,2.818,0.861     c1.186,0.353,2.376,0.69,3.57,1.016c0.798,0.217,1.595,0.436,2.398,0.641c0.884,0.226,1.771,0.439,2.659,0.65     c0.662,0.157,1.325,0.309,1.99,0.458c0.904,0.203,1.807,0.406,2.715,0.593c0.809,0.167,1.624,0.317,2.437,0.471     c1.354,0.257,2.713,0.498,4.076,0.72c0.8,0.131,1.6,0.259,2.404,0.378c0.801,0.118,1.603,0.231,2.407,0.338     c0.975,0.129,1.953,0.245,2.933,0.357c0.629,0.072,1.256,0.152,1.887,0.216c1.554,0.159,3.115,0.291,4.681,0.406     c0.557,0.041,1.117,0.072,1.675,0.107c1.197,0.075,2.397,0.138,3.601,0.186c0.529,0.021,1.057,0.044,1.587,0.061     c1.687,0.052,3.378,0.087,5.077,0.087c1.699,0,3.39-0.035,5.077-0.087c0.53-0.016,1.058-0.039,1.587-0.061     c1.204-0.049,2.404-0.111,3.601-0.186c0.558-0.035,1.118-0.066,1.675-0.107c1.566-0.115,3.128-0.247,4.681-0.406     c0.631-0.064,1.258-0.145,1.887-0.216c0.98-0.112,1.958-0.228,2.933-0.357c0.804-0.106,1.606-0.219,2.407-0.338     c0.804-0.119,1.604-0.248,2.404-0.378c1.363-0.222,2.721-0.463,4.076-0.72c0.813-0.154,1.628-0.305,2.437-0.471     c0.908-0.187,1.811-0.39,2.715-0.593c0.665-0.149,1.328-0.301,1.99-0.458c0.888-0.211,1.775-0.424,2.659-0.65     c0.803-0.205,1.6-0.424,2.398-0.641c1.194-0.325,2.384-0.663,3.57-1.016c0.942-0.28,1.883-0.564,2.818-0.861     c0.63-0.2,1.257-0.405,1.884-0.613c1.218-0.403,2.43-0.82,3.636-1.251c0.287-0.103,0.577-0.2,0.864-0.305     c1.688-0.614,3.361-1.26,5.023-1.929c0.002-0.001,0.005-0.002,0.007-0.003c8.736-3.515,17.096-7.77,25.006-12.686V482.867z      M345.599,318.814c-0.329,0.191-0.649,0.402-0.955,0.64c-12.603,9.758-26.398,17.252-40.99,22.363     c-0.312,0.109-0.621,0.223-0.934,0.329c-0.36,0.123-0.723,0.239-1.084,0.359c-0.751,0.249-1.502,0.497-2.258,0.735     c-0.249,0.078-0.498,0.154-0.747,0.231c-0.907,0.279-1.817,0.552-2.732,0.814c-0.141,0.04-0.281,0.081-0.422,0.121     c-5.664,1.604-11.466,2.873-17.386,3.781c-0.017,0.003-0.033,0.005-0.05,0.008c-3.521,0.539-7.084,0.949-10.682,1.229     c-0.224,0.017-0.448,0.032-0.673,0.048c-0.907,0.066-1.817,0.124-2.729,0.173c-0.33,0.018-0.66,0.035-0.99,0.051     c-0.845,0.04-1.692,0.071-2.541,0.097c-0.326,0.01-0.652,0.022-0.979,0.03c-1.147,0.027-2.296,0.044-3.448,0.044     c-1.153,0-2.302-0.017-3.449-0.044c-0.327-0.008-0.653-0.02-0.979-0.03c-0.849-0.026-1.696-0.057-2.541-0.097     c-0.33-0.016-0.66-0.033-0.99-0.051c-0.912-0.05-1.821-0.107-2.729-0.173c-0.224-0.016-0.449-0.031-0.673-0.048     c-3.599-0.28-7.161-0.69-10.682-1.229c-0.017-0.003-0.033-0.005-0.05-0.008c-5.92-0.908-11.723-2.178-17.387-3.782     c-0.14-0.04-0.28-0.08-0.42-0.12c-0.915-0.262-1.826-0.535-2.733-0.815c-0.249-0.077-0.498-0.152-0.746-0.23     c-0.756-0.237-1.508-0.485-2.258-0.735c-0.361-0.12-0.724-0.236-1.084-0.359c-0.313-0.107-0.622-0.221-0.934-0.329     c-14.592-5.111-28.387-12.606-40.99-22.363c-0.309-0.241-0.633-0.456-0.966-0.649c-33.749-26.585-55.456-67.807-55.456-114.005     c0-46.207,21.715-87.436,55.475-114.02c0.326-0.19,0.644-0.398,0.947-0.634c12.603-9.758,26.398-17.252,40.99-22.363     c0.312-0.109,0.621-0.223,0.934-0.329c0.36-0.123,0.723-0.239,1.084-0.359c0.751-0.249,1.502-0.497,2.258-0.735     c0.248-0.078,0.498-0.154,0.746-0.23c0.908-0.28,1.818-0.553,2.733-0.815c0.14-0.04,0.28-0.08,0.42-0.12     c5.664-1.604,11.466-2.873,17.387-3.782c0.017-0.003,0.033-0.005,0.05-0.008c3.521-0.539,7.084-0.949,10.682-1.229     c0.224-0.017,0.448-0.032,0.673-0.048c0.907-0.066,1.817-0.124,2.729-0.173c0.33-0.018,0.66-0.035,0.99-0.051     c0.845-0.04,1.692-0.071,2.541-0.097c0.326-0.01,0.652-0.022,0.979-0.03c1.147-0.027,2.296-0.044,3.449-0.044     c1.153,0,2.302,0.017,3.448,0.044c0.327,0.008,0.653,0.02,0.979,0.03c0.849,0.026,1.696,0.057,2.541,0.097     c0.33,0.016,0.66,0.033,0.99,0.051c0.912,0.05,1.821,0.107,2.729,0.173c0.224,0.016,0.449,0.031,0.673,0.048     c3.599,0.28,7.161,0.69,10.682,1.229c0.017,0.003,0.033,0.005,0.05,0.008c5.92,0.908,11.723,2.178,17.386,3.781     c0.141,0.04,0.281,0.08,0.422,0.121c0.915,0.262,1.824,0.535,2.732,0.814c0.249,0.077,0.499,0.152,0.747,0.231     c0.756,0.237,1.508,0.485,2.258,0.735c0.361,0.12,0.724,0.236,1.084,0.359c0.313,0.107,0.622,0.221,0.934,0.329     c14.592,5.111,28.387,12.606,40.99,22.363c0.301,0.235,0.618,0.44,0.942,0.629c33.763,26.584,55.481,67.815,55.481,114.024     C401.067,251.003,379.355,292.229,345.599,318.814z"/>
			<path d="M136.299,200.927c0.29,0.034,0.589,0.051,0.879,0.051c4.318,0,8.03-3.277,8.474-7.663     c0.529-5.129,1.425-10.249,2.662-15.215c1.135-4.582-1.647-9.207-6.229-10.342c-4.565-1.152-9.199,1.647-10.342,6.221     c-1.425,5.743-2.458,11.665-3.063,17.596C128.192,196.259,131.605,200.449,136.299,200.927z"/>
			<path d="M150.507,239.156c-1.596-4.89-2.859-9.933-3.746-14.993c-0.819-4.634-5.265-7.714-9.89-6.921     c-4.642,0.828-7.74,5.248-6.921,9.89c1.033,5.837,2.492,11.665,4.335,17.314c1.178,3.601,4.514,5.897,8.115,5.897     c0.87,0,1.766-0.137,2.645-0.427C149.517,248.457,151.974,243.636,150.507,239.156z"/>
			<path d="M164.083,266.847c-2.645-3.9-7.953-4.924-11.853-2.278c-3.9,2.645-4.915,7.953-2.27,11.853     c3.328,4.915,7.031,9.634,11,14.037c1.69,1.869,4.011,2.816,6.34,2.816c2.031,0,4.079-0.725,5.709-2.193     c3.507-3.157,3.78-8.559,0.623-12.058C170.185,275.209,166.976,271.105,164.083,266.847z"/>
			<path d="M230.933,96.513c0.589,0,1.195-0.06,1.792-0.188c5.009-1.075,10.163-1.801,15.317-2.176     c4.702-0.333,8.243-4.42,7.902-9.122c-0.333-4.693-4.352-8.175-9.122-7.902c-5.948,0.427-11.887,1.271-17.664,2.509     c-4.617,0.99-7.543,5.521-6.562,10.129C223.458,93.774,226.999,96.513,230.933,96.513z"/>
			<path d="M190.69,115.184c4.156-3.038,8.567-5.811,13.09-8.235c4.156-2.227,5.717-7.407,3.49-11.554     c-2.219-4.147-7.398-5.709-11.554-3.49c-5.222,2.799-10.3,5.999-15.095,9.498c-3.806,2.782-4.634,8.115-1.852,11.921     c1.673,2.287,4.267,3.499,6.895,3.499C187.413,116.822,189.171,116.293,190.69,115.184z"/>
			<path d="M358.746,162.979c1.357,3.302,4.54,5.308,7.902,5.308c1.075,0,2.167-0.213,3.226-0.64     c4.36-1.783,6.46-6.767,4.676-11.127c-2.253-5.495-4.907-10.872-7.893-16c-2.372-4.07-7.595-5.444-11.665-3.072     c-4.07,2.372-5.453,7.595-3.072,11.665C354.505,153.558,356.8,158.217,358.746,162.979z"/>
			<path d="M148.203,152.611c1.348,0.785,2.816,1.143,4.267,1.143c2.944,0,5.811-1.527,7.39-4.267     c2.569-4.437,5.478-8.747,8.661-12.826c2.901-3.712,2.236-9.079-1.476-11.981c-3.712-2.893-9.079-2.227-11.981,1.485     c-3.661,4.693-7.014,9.668-9.975,14.788C142.733,145.042,144.124,150.256,148.203,152.611z"/>
			<path d="M372.373,233.217c-4.48-1.459-9.301,1.016-10.743,5.504c-1.57,4.89-3.516,9.719-5.76,14.353     c-2.057,4.241-0.29,9.344,3.951,11.409c1.203,0.572,2.475,0.853,3.721,0.853c3.166,0,6.212-1.775,7.68-4.813     c2.603-5.35,4.838-10.923,6.656-16.572C379.319,239.472,376.862,234.659,372.373,233.217z"/>
			<path d="M350.707,278.034c-3.507-3.14-8.909-2.842-12.049,0.674c-3.422,3.823-7.151,7.45-11.093,10.786     c-3.601,3.046-4.045,8.431-0.998,12.023c1.69,1.997,4.096,3.021,6.519,3.021c1.946,0,3.908-0.657,5.504-2.014     c4.548-3.849,8.849-8.03,12.792-12.442C354.522,286.567,354.214,281.174,350.707,278.034z"/>
			<path d="M383.262,191.045c-0.503-4.693-4.779-8.081-9.395-7.569c-4.685,0.503-8.073,4.71-7.569,9.395     c0.418,3.934,0.64,7.953,0.64,11.93c0,1.186-0.026,2.364-0.06,3.541c-0.137,4.719,3.567,8.653,8.277,8.789h0.256     c4.599,0,8.388-3.652,8.525-8.277c0.043-1.348,0.06-2.697,0.06-4.053C383.996,200.218,383.757,195.585,383.262,191.045z"/>
			<path d="M338.743,127.241c2.236,0,4.48-0.879,6.153-2.628c3.268-3.388,3.166-8.789-0.239-12.058     c-4.267-4.105-8.866-7.962-13.679-11.443c-3.806-2.756-9.148-1.92-11.921,1.894c-2.765,3.814-1.911,9.148,1.903,11.921     c4.173,3.029,8.166,6.366,11.87,9.924C334.485,126.448,336.619,127.241,338.743,127.241z"/>
			<path d="M210.914,306.16c-4.676-2.091-9.267-4.54-13.645-7.287c-4.002-2.492-9.267-1.289-11.768,2.705     c-2.5,3.994-1.289,9.259,2.705,11.767c5.052,3.166,10.359,5.99,15.761,8.397c1.126,0.503,2.304,0.742,3.473,0.742     c3.26,0,6.383-1.886,7.791-5.06C217.152,313.123,215.223,308.071,210.914,306.16z"/>
			<path d="M256.004,315.734c-5.171,0-10.36-0.358-15.437-1.067c-4.642-0.717-8.977,2.603-9.634,7.27     c-0.649,4.668,2.603,8.977,7.279,9.626c5.845,0.828,11.836,1.237,17.792,1.237h0.478c4.71,0,8.294-3.823,8.294-8.533     C264.777,319.557,260.715,315.734,256.004,315.734z"/>
			<path d="M296.606,100.976c3.482,0,6.758-2.159,8.021-5.632c1.604-4.429-0.683-9.318-5.111-10.923     c-5.581-2.022-11.358-3.669-17.186-4.898c-4.599-0.981-9.131,1.988-10.103,6.596c-0.973,4.617,1.98,9.139,6.596,10.103     c5.043,1.067,10.052,2.492,14.874,4.233C294.652,100.805,295.642,100.976,296.606,100.976z"/>
			<path d="M301.487,305.972c-4.702,2.116-9.574,3.925-14.507,5.359c-4.523,1.323-7.125,6.059-5.803,10.581     c1.084,3.729,4.489,6.153,8.183,6.153c0.794,0,1.596-0.111,2.389-0.35c5.7-1.655,11.332-3.738,16.751-6.178     c4.292-1.937,6.204-6.997,4.267-11.29C310.831,305.938,305.771,304.044,301.487,305.972z"/>
			<path d="M267.008,136.9c-3.593-1.101-7.492,0.307-9.574,3.43l-34.133,51.2c-2.611,3.925-1.553,9.224,2.364,11.836     c3.925,2.611,9.216,1.545,11.836-2.364l18.5-27.75v91.281c0,4.71,3.823,8.533,8.533,8.533s8.533-3.823,8.533-8.533V145.067     C273.067,141.312,270.601,137.984,267.008,136.9z"/>
		</g>
	</g>
</g>
<g>
</g>
<g>
</g>
<g>
</g>
<g>
</g>
<g>
</g>
<g>
</g>
<g>
</g>
<g>
</g>
<g>
</g>
<g>
</g>
<g>
</g>
<g>
</g>
<g>
</g>
<g>
</g>
<g>
</g>
</svg>
