<?xml version="1.0" encoding="iso-8859-1"?>
<!-- Generator: Adobe Illustrator 19.0.0, SVG Export Plug-In . SVG Version: 6.00 Build 0)  -->
<svg xmlns="http://www.w3.org/2000/svg" xmlns:xlink="http://www.w3.org/1999/xlink" version="1.1" id="Layer_1" x="0px" y="0px" viewBox="0 0 512 512" style="enable-background:new 0 0 512 512;" xml:space="preserve">
<g>
	<g>
		<g>
			<path d="M106.146,211.217l-3.661,26.547c-0.452,3.217,0.973,6.409,3.661,8.235c2.688,1.818,6.17,1.954,9.011,0.35l21.376-12.169     l21.376,12.169c1.314,0.751,2.773,1.118,4.224,1.118c1.672,0,3.345-0.495,4.787-1.468c2.688-1.826,4.113-5.018,3.661-8.235     l-3.661-26.547l18.159-17.306c2.304-2.193,3.191-5.478,2.321-8.533c-0.879-3.055-3.379-5.367-6.485-5.999l-25.293-5.188     l-11.366-24.218c-1.408-2.995-4.412-4.907-7.723-4.907c-3.311,0-6.315,1.911-7.723,4.907l-11.366,24.218l-25.293,5.188     c-3.106,0.631-5.606,2.944-6.485,5.999c-0.87,3.055,0.017,6.34,2.321,8.533L106.146,211.217z M125.065,190.046     c2.637-0.529,4.873-2.295,6.008-4.727l5.461-11.631l5.461,11.631c1.135,2.432,3.371,4.198,6.007,4.727l13.491,2.773l-9.506,9.062     c-1.997,1.894-2.944,4.625-2.569,7.347l1.886,13.722l-10.547-6.007c-1.306-0.751-2.765-1.118-4.224-1.118     c-1.459,0-2.918,0.367-4.224,1.118l-10.547,6.007l1.886-13.722c0.375-2.722-0.572-5.453-2.569-7.347l-9.506-9.062     L125.065,190.046z"/>
			<path d="M345.079,211.217l-3.661,26.547c-0.452,3.217,0.973,6.409,3.661,8.235c2.697,1.818,6.17,1.954,9.011,0.35l21.376-12.169     l21.376,12.169c1.314,0.751,2.773,1.118,4.224,1.118c1.672,0,3.345-0.495,4.787-1.468c2.688-1.826,4.113-5.018,3.661-8.235     l-3.661-26.547l18.159-17.306c2.304-2.193,3.191-5.478,2.321-8.533c-0.879-3.055-3.379-5.367-6.485-5.999l-25.293-5.188     l-11.366-24.218c-1.408-2.995-4.412-4.907-7.723-4.907c-3.311,0-6.315,1.911-7.723,4.907l-11.366,24.218l-25.293,5.188     c-3.106,0.631-5.606,2.944-6.485,5.999c-0.87,3.055,0.017,6.34,2.321,8.533L345.079,211.217z M363.998,190.046     c2.637-0.529,4.873-2.295,6.008-4.727l5.461-11.631l5.461,11.631c1.135,2.432,3.371,4.198,6.007,4.727l13.491,2.773l-9.506,9.062     c-1.997,1.894-2.944,4.625-2.569,7.347l1.886,13.722l-10.547-6.007c-1.306-0.751-2.765-1.118-4.224-1.118     s-2.918,0.367-4.224,1.118l-10.547,6.007l1.886-13.722c0.375-2.722-0.572-5.453-2.569-7.347l-9.506-9.062L363.998,190.046z"/>
			<path d="M225.613,211.217l-3.661,26.547c-0.452,3.217,0.973,6.409,3.661,8.235c2.697,1.818,6.17,1.954,9.011,0.35L256,234.18     l21.376,12.169c1.314,0.751,2.773,1.118,4.224,1.118c1.672,0,3.345-0.495,4.787-1.468c2.688-1.826,4.113-5.018,3.661-8.235     l-3.661-26.547l18.159-17.306c2.304-2.193,3.191-5.478,2.321-8.533c-0.879-3.055-3.379-5.367-6.485-5.999l-25.293-5.188     l-11.366-24.218c-1.408-2.995-4.412-4.907-7.723-4.907c-3.311,0-6.315,1.911-7.723,4.907l-11.366,24.218l-25.293,5.188     c-3.106,0.631-5.606,2.944-6.485,5.999c-0.87,3.055,0.017,6.34,2.321,8.533L225.613,211.217z M244.531,190.046     c2.637-0.529,4.873-2.295,6.008-4.727L256,173.687l5.461,11.631c1.135,2.432,3.371,4.198,6.007,4.727l13.491,2.773l-9.506,9.062     c-1.997,1.894-2.944,4.625-2.568,7.347l1.886,13.722l-10.547-6.007c-1.306-0.751-2.765-1.118-4.224-1.118     c-1.459,0-2.918,0.367-4.224,1.118l-10.547,6.007l1.886-13.722c0.375-2.722-0.572-5.453-2.569-7.347l-9.506-9.062     L244.531,190.046z"/>
			<path d="M503.467,59.733H8.533C3.814,59.733,0,63.556,0,68.267v375.467c0,4.71,3.814,8.533,8.533,8.533h494.933     c4.719,0,8.533-3.823,8.533-8.533V68.267C512,63.556,508.186,59.733,503.467,59.733z M494.933,435.2H17.067V76.8h477.867V435.2z"/>
			<path d="M110.933,332.8c0,4.71,3.814,8.533,8.533,8.533h76.8c4.719,0,8.533-3.823,8.533-8.533s-3.814-8.533-8.533-8.533h-76.8     C114.748,324.267,110.933,328.09,110.933,332.8z"/>
			<path d="M170.667,358.4h-51.2c-4.719,0-8.533,3.823-8.533,8.533s3.814,8.533,8.533,8.533h51.2c4.719,0,8.533-3.823,8.533-8.533     S175.386,358.4,170.667,358.4z"/>
			<path d="M42.67,384c14.114,0,25.6,11.486,25.6,25.6c0,4.71,3.814,8.533,8.533,8.533h358.4c4.71,0,8.533-3.823,8.533-8.533     c0-14.114,11.477-25.6,25.6-25.6c4.71,0,8.533-3.823,8.533-8.533V136.533c0-4.71-3.823-8.533-8.533-8.533     c-14.123,0-25.6-11.486-25.6-25.6c0-4.71-3.823-8.533-8.533-8.533h-358.4c-4.719,0-8.533,3.823-8.533,8.533     c0,14.114-11.486,25.6-25.6,25.6c-4.719,0-8.533,3.823-8.533,8.533v238.933C34.137,380.177,37.951,384,42.67,384z      M51.203,144.205c16.691-3.396,29.875-16.58,33.271-33.271h343.049c3.405,16.691,16.589,29.875,33.28,33.271v223.59     c-16.691,3.396-29.875,16.58-33.28,33.271H84.475c-3.396-16.691-16.58-29.875-33.271-33.271V144.205z"/>
			<path d="M392.533,358.4h-76.8c-4.719,0-8.533,3.823-8.533,8.533s3.814,8.533,8.533,8.533h76.8c4.719,0,8.533-3.823,8.533-8.533     S397.252,358.4,392.533,358.4z"/>
			<path d="M308.634,337.536c2.611,3.917,7.893,4.983,11.836,2.364l20.002-13.338c11.708,9.267,24.277,9.566,32.734,7.509     l13.295,13.295c1.664,1.664,3.849,2.5,6.033,2.5c2.185,0,4.369-0.836,6.033-2.5c3.337-3.336,3.337-8.73,0-12.066L381.5,318.234     c-2.628-2.628-6.605-3.234-9.89-1.579c-0.128,0.06-12.271,5.999-24.013-6.716c-2.859-3.089-7.526-3.618-10.999-1.306     l-25.6,17.067C307.072,328.311,306.014,333.611,308.634,337.536z"/>
		</g>
	</g>
</g>
<g>
</g>
<g>
</g>
<g>
</g>
<g>
</g>
<g>
</g>
<g>
</g>
<g>
</g>
<g>
</g>
<g>
</g>
<g>
</g>
<g>
</g>
<g>
</g>
<g>
</g>
<g>
</g>
<g>
</g>
</svg>
