<?xml version="1.0" encoding="iso-8859-1"?>
<!-- Generator: Adobe Illustrator 19.0.0, SVG Export Plug-In . SVG Version: 6.00 Build 0)  -->
<svg xmlns="http://www.w3.org/2000/svg" xmlns:xlink="http://www.w3.org/1999/xlink" version="1.1" id="Layer_1" x="0px" y="0px" viewBox="0 0 512 512" style="enable-background:new 0 0 512 512;" xml:space="preserve">
<g>
	<g>
		<g>
			<path d="M187.733,281.6c13.942,0,26.343-6.723,34.133-17.096C229.657,274.877,242.058,281.6,256,281.6     c13.942,0,26.343-6.723,34.133-17.096c7.791,10.373,20.191,17.096,34.133,17.096c23.526,0,42.667-19.14,42.667-42.667     c0-21.892-16.576-39.977-37.834-42.385c2.371-5.304,3.701-11.172,3.701-17.348c0-23.526-19.14-42.667-42.667-42.667     c-13.942,0-26.343,6.723-34.133,17.096c-7.791-10.373-20.191-17.096-34.133-17.096c-23.526,0-42.667,19.14-42.667,42.667     c0,6.176,1.33,12.044,3.701,17.348c-21.258,2.409-37.834,20.493-37.834,42.385C145.067,262.46,164.207,281.6,187.733,281.6z      M256,264.533c-14.114,0-25.6-11.486-25.6-25.6s11.486-25.6,25.6-25.6s25.6,11.486,25.6,25.6S270.114,264.533,256,264.533z      M349.867,238.933c0,14.114-11.486,25.6-25.6,25.6s-25.6-11.486-25.6-25.6s11.486-25.6,25.6-25.6     S349.867,224.819,349.867,238.933z M290.133,153.6c14.114,0,25.6,11.486,25.6,25.6s-11.486,25.6-25.6,25.6     s-25.6-11.486-25.6-25.6S276.019,153.6,290.133,153.6z M221.867,153.6c14.114,0,25.6,11.486,25.6,25.6s-11.486,25.6-25.6,25.6     s-25.6-11.486-25.6-25.6S207.753,153.6,221.867,153.6z M187.733,213.333c14.114,0,25.6,11.486,25.6,25.6s-11.486,25.6-25.6,25.6     s-25.6-11.486-25.6-25.6S173.619,213.333,187.733,213.333z"/>
			<path d="M503.467,59.733H8.533C3.814,59.733,0,63.556,0,68.267v375.467c0,4.71,3.814,8.533,8.533,8.533h494.933     c4.719,0,8.533-3.823,8.533-8.533V68.267C512,63.556,508.186,59.733,503.467,59.733z M494.933,435.2H17.067V76.8h477.867V435.2z"/>
			<path d="M119.467,341.333h76.8c4.719,0,8.533-3.823,8.533-8.533s-3.814-8.533-8.533-8.533h-76.8     c-4.719,0-8.533,3.823-8.533,8.533S114.748,341.333,119.467,341.333z"/>
			<path d="M119.467,375.467h51.2c4.719,0,8.533-3.823,8.533-8.533s-3.814-8.533-8.533-8.533h-51.2     c-4.719,0-8.533,3.823-8.533,8.533S114.748,375.467,119.467,375.467z"/>
			<path d="M42.67,384c14.114,0,25.6,11.486,25.6,25.6c0,4.71,3.814,8.533,8.533,8.533h358.4c4.71,0,8.533-3.823,8.533-8.533     c0-14.114,11.477-25.6,25.6-25.6c4.71,0,8.533-3.823,8.533-8.533V136.533c0-4.71-3.823-8.533-8.533-8.533     c-14.123,0-25.6-11.486-25.6-25.6c0-4.71-3.823-8.533-8.533-8.533h-358.4c-4.719,0-8.533,3.823-8.533,8.533     c0,14.114-11.486,25.6-25.6,25.6c-4.719,0-8.533,3.823-8.533,8.533v238.933C34.137,380.177,37.951,384,42.67,384z      M51.203,144.205c16.691-3.396,29.875-16.58,33.271-33.271h343.049c3.405,16.691,16.589,29.875,33.28,33.271v223.59     c-16.691,3.396-29.875,16.58-33.28,33.271H84.475c-3.396-16.691-16.58-29.875-33.271-33.271V144.205z"/>
			<path d="M392.533,358.4h-76.8c-4.719,0-8.533,3.823-8.533,8.533s3.814,8.533,8.533,8.533h76.8c4.719,0,8.533-3.823,8.533-8.533     S397.252,358.4,392.533,358.4z"/>
			<path d="M347.597,309.939c-2.85-3.089-7.518-3.618-10.999-1.306l-25.6,17.067c-3.925,2.611-4.984,7.91-2.364,11.836     c2.603,3.917,7.902,4.983,11.836,2.364l20.002-13.338c11.708,9.267,24.269,9.566,32.734,7.509l13.295,13.295     c1.664,1.664,3.849,2.5,6.033,2.5c2.185,0,4.369-0.836,6.033-2.5c3.337-3.336,3.337-8.73,0-12.066L381.5,318.234     c-2.62-2.628-6.605-3.234-9.89-1.579C371.482,316.715,359.347,322.654,347.597,309.939z"/>
		</g>
	</g>
</g>
<g>
</g>
<g>
</g>
<g>
</g>
<g>
</g>
<g>
</g>
<g>
</g>
<g>
</g>
<g>
</g>
<g>
</g>
<g>
</g>
<g>
</g>
<g>
</g>
<g>
</g>
<g>
</g>
<g>
</g>
</svg>
