<?xml version="1.0" encoding="iso-8859-1"?>
<!-- Generator: Adobe Illustrator 19.0.0, SVG Export Plug-In . SVG Version: 6.00 Build 0)  -->
<svg xmlns="http://www.w3.org/2000/svg" xmlns:xlink="http://www.w3.org/1999/xlink" version="1.1" id="Layer_1" x="0px" y="0px" viewBox="0 0 511.998 511.998" style="enable-background:new 0 0 511.998 511.998;" xml:space="preserve">
<g>
	<g>
		<g>
			<path d="M479.588,435.199l30.976-46.464c1.741-2.62,1.911-5.982,0.427-8.764c-1.485-2.773-4.378-4.506-7.526-4.506h-51.2v-33.07     c16.737-31.721,25.6-67.402,25.6-103.463c0-122.334-99.524-221.867-221.867-221.867S34.131,116.598,34.131,238.932     c0,36.061,8.863,71.742,25.6,103.463v33.07H8.533c-3.149,0-6.042,1.732-7.526,4.506c-1.485,2.782-1.314,6.144,0.427,8.764     l30.976,46.464L1.433,481.663c-1.741,2.62-1.911,5.982-0.427,8.764c1.485,2.773,4.378,4.506,7.526,4.506h76.8     c4.719,0,8.533-3.823,8.533-8.533v-34.133h324.265v34.133c0,4.71,3.814,8.533,8.533,8.533h76.8c3.149,0,6.042-1.732,7.526-4.506     c1.485-2.782,1.314-6.144-0.427-8.764L479.588,435.199z M85.333,435.199H76.8v-51.2c0-0.011-0.002-0.022-0.002-0.034v-34.099     h53.637h251.127h53.635v34.133v51.2h-8.533H85.333z M134.548,332.799c-20.762-26.82-32.154-59.989-32.154-93.867     c0-84.693,68.915-153.6,153.6-153.6c84.693,0,153.6,68.907,153.6,153.6c0,33.877-11.392,67.046-32.145,93.867H134.548z      M255.998,34.132c112.922,0,204.8,91.878,204.8,204.8c0,32.666-7.851,65.015-22.75,93.867h-39.637     c18.312-27.763,28.25-60.509,28.25-93.867c0-94.106-76.553-170.667-170.667-170.667c-94.106,0-170.667,76.561-170.667,170.667     c0,33.358,9.944,66.104,28.258,93.867H73.948c-14.899-28.851-22.75-61.201-22.75-93.867     C51.198,126.011,143.076,34.132,255.998,34.132z M76.8,477.866H24.473l25.293-37.931c1.911-2.867,1.911-6.605,0-9.472     l-25.293-37.931h35.258v51.2c0,4.71,3.814,8.533,8.533,8.533h0.002H76.8V477.866z M435.198,477.866v-25.6h8.533     c4.719,0,8.533-3.823,8.533-8.533v-51.2h35.26l-25.293,37.931c-1.911,2.867-1.911,6.605,0,9.472l25.293,37.931H435.198z"/>
			<path d="M153.598,383.999h34.133c4.719,0,8.533-3.823,8.533-8.533s-3.814-8.533-8.533-8.533h-34.133     c-4.719,0-8.533,3.823-8.533,8.533S148.879,383.999,153.598,383.999z"/>
			<path d="M221.865,383.999h51.2c4.719,0,8.533-3.823,8.533-8.533s-3.814-8.533-8.533-8.533h-51.2     c-4.719,0-8.533,3.823-8.533,8.533S217.146,383.999,221.865,383.999z"/>
			<path d="M230.398,401.066h-76.8c-4.719,0-8.533,3.823-8.533,8.533c0,4.71,3.814,8.533,8.533,8.533h76.8     c4.719,0,8.533-3.823,8.533-8.533C238.931,404.889,235.117,401.066,230.398,401.066z"/>
			<path d="M358.398,401.066h-17.067c-4.719,0-8.533,3.823-8.533,8.533c0,4.71,3.814,8.533,8.533,8.533h17.067     c4.719,0,8.533-3.823,8.533-8.533C366.931,404.889,363.117,401.066,358.398,401.066z"/>
			<path d="M307.198,401.066h-42.667c-4.719,0-8.533,3.823-8.533,8.533c0,4.71,3.814,8.533,8.533,8.533h42.667     c4.719,0,8.533-3.823,8.533-8.533C315.731,404.889,311.917,401.066,307.198,401.066z"/>
			<path d="M358.398,366.932h-42.667c-4.719,0-8.533,3.823-8.533,8.533s3.814,8.533,8.533,8.533h42.667     c4.719,0,8.533-3.823,8.533-8.533S363.117,366.932,358.398,366.932z"/>
			<path d="M290.131,273.066h-50.509l45.372-56.713c9.361-11.699,11.17-27.469,4.719-41.165     c-6.161-13.082-18.807-21.35-33.715-21.589c-23.526,0-42.667,19.14-42.667,42.667c0,4.71,3.814,8.533,8.533,8.533     s8.533-3.823,8.533-8.533c0-14.114,11.486-25.6,26.027-25.6c7.765,0.128,14.43,4.54,17.852,11.793     c2.867,6.076,3.678,15.377-2.611,23.228L215.2,276.266c-2.048,2.56-2.441,6.076-1.024,9.028c1.425,2.961,4.403,4.838,7.689,4.838     h68.267c4.719,0,8.533-3.823,8.533-8.533C298.665,276.888,294.85,273.066,290.131,273.066z"/>
		</g>
	</g>
</g>
<g>
</g>
<g>
</g>
<g>
</g>
<g>
</g>
<g>
</g>
<g>
</g>
<g>
</g>
<g>
</g>
<g>
</g>
<g>
</g>
<g>
</g>
<g>
</g>
<g>
</g>
<g>
</g>
<g>
</g>
</svg>
