<?xml version="1.0" encoding="iso-8859-1"?>
<!-- Generator: Adobe Illustrator 19.0.0, SVG Export Plug-In . SVG Version: 6.00 Build 0)  -->
<svg xmlns="http://www.w3.org/2000/svg" xmlns:xlink="http://www.w3.org/1999/xlink" version="1.1" id="Layer_1" x="0px" y="0px" viewBox="0 0 512 512" style="enable-background:new 0 0 512 512;" xml:space="preserve">
<g>
	<g>
		<g>
			<path d="M418.133,204.8c0-50.6-23.302-95.852-59.733-125.608V8.533c0-4.71-3.823-8.533-8.533-8.533H162.133     c-4.71,0-8.533,3.823-8.533,8.533v70.659C117.169,108.948,93.867,154.2,93.867,204.8s23.302,95.852,59.733,125.608v173.059     c0,3.447,2.082,6.562,5.265,7.885c3.183,1.314,6.852,0.589,9.301-1.852L256,421.666l87.834,87.834c1.63,1.63,3.814,2.5,6.033,2.5     c1.101,0,2.21-0.213,3.268-0.648c3.183-1.323,5.265-4.437,5.265-7.885V330.408C394.831,300.652,418.133,255.4,418.133,204.8z      M170.667,17.067h170.667v49.932c-7.909-4.915-16.267-9.17-25.002-12.684c-0.004-0.002-0.009-0.004-0.013-0.005     c-1.662-0.668-3.335-1.314-5.023-1.928c-0.284-0.104-0.571-0.2-0.855-0.302c-1.209-0.432-2.423-0.851-3.645-1.255     c-0.626-0.208-1.253-0.412-1.881-0.612c-0.935-0.297-1.876-0.581-2.818-0.861c-1.186-0.353-2.376-0.69-3.57-1.016     c-0.798-0.217-1.595-0.436-2.398-0.641c-0.884-0.226-1.771-0.439-2.659-0.65c-0.662-0.157-1.325-0.309-1.99-0.458     c-0.904-0.203-1.807-0.406-2.715-0.593c-0.809-0.167-1.624-0.317-2.437-0.471c-1.354-0.257-2.713-0.498-4.076-0.72     c-0.8-0.131-1.6-0.259-2.404-0.378c-0.801-0.118-1.603-0.231-2.407-0.338c-0.975-0.129-1.953-0.245-2.933-0.357     c-0.629-0.071-1.256-0.152-1.887-0.216c-1.554-0.159-3.115-0.291-4.681-0.406c-0.557-0.041-1.117-0.072-1.675-0.107     c-1.197-0.075-2.397-0.138-3.601-0.186c-0.529-0.021-1.057-0.044-1.587-0.061c-1.687-0.052-3.378-0.087-5.077-0.087     c-1.699,0-3.39,0.035-5.077,0.087c-0.53,0.016-1.058,0.039-1.587,0.061c-1.204,0.049-2.404,0.111-3.601,0.186     c-0.558,0.035-1.118,0.066-1.675,0.107c-1.566,0.115-3.128,0.247-4.681,0.406c-0.631,0.064-1.258,0.145-1.887,0.216     c-0.98,0.112-1.958,0.228-2.933,0.357c-0.804,0.106-1.606,0.219-2.407,0.338c-0.804,0.119-1.604,0.248-2.404,0.378     c-1.363,0.222-2.721,0.463-4.076,0.72c-0.813,0.154-1.628,0.305-2.437,0.471c-0.908,0.187-1.811,0.39-2.715,0.593     c-0.665,0.149-1.328,0.301-1.99,0.458c-0.888,0.211-1.775,0.424-2.659,0.65c-0.803,0.205-1.6,0.424-2.398,0.641     c-1.194,0.325-2.384,0.663-3.57,1.016c-0.942,0.28-1.883,0.564-2.818,0.861c-0.629,0.2-1.255,0.404-1.881,0.612     c-1.222,0.404-2.436,0.822-3.645,1.255c-0.284,0.102-0.571,0.198-0.855,0.302c-1.688,0.614-3.361,1.26-5.023,1.928     c-0.004,0.002-0.009,0.004-0.013,0.005c-8.735,3.514-17.093,7.769-25.002,12.684V17.067z M341.333,482.867l-79.3-79.3     c-1.664-1.664-3.849-2.5-6.033-2.5c-2.185,0-4.369,0.836-6.033,2.5l-79.3,79.3V342.601c7.91,4.916,16.269,9.171,25.006,12.686     c0.002,0.001,0.005,0.002,0.007,0.003c1.662,0.668,3.335,1.314,5.023,1.929c0.287,0.105,0.576,0.202,0.864,0.305     c1.206,0.431,2.417,0.848,3.636,1.251c0.627,0.208,1.255,0.413,1.884,0.613c0.935,0.297,1.875,0.581,2.818,0.861     c1.186,0.353,2.376,0.69,3.57,1.016c0.798,0.217,1.595,0.436,2.398,0.641c0.884,0.226,1.771,0.439,2.659,0.65     c0.662,0.157,1.325,0.309,1.99,0.458c0.904,0.203,1.807,0.406,2.715,0.593c0.809,0.167,1.624,0.317,2.437,0.471     c1.354,0.257,2.713,0.498,4.076,0.72c0.8,0.131,1.6,0.259,2.404,0.378c0.801,0.118,1.603,0.231,2.407,0.338     c0.975,0.129,1.953,0.245,2.933,0.357c0.629,0.072,1.256,0.152,1.887,0.216c1.554,0.159,3.115,0.291,4.681,0.406     c0.557,0.041,1.117,0.072,1.675,0.107c1.197,0.075,2.397,0.138,3.601,0.186c0.529,0.021,1.057,0.044,1.587,0.061     c1.687,0.052,3.378,0.087,5.077,0.087c1.699,0,3.39-0.035,5.077-0.087c0.53-0.016,1.058-0.039,1.587-0.061     c1.204-0.049,2.404-0.111,3.601-0.186c0.558-0.035,1.118-0.066,1.675-0.107c1.566-0.115,3.128-0.247,4.681-0.406     c0.631-0.064,1.258-0.145,1.887-0.216c0.98-0.112,1.958-0.228,2.933-0.357c0.804-0.106,1.606-0.219,2.407-0.338     c0.804-0.119,1.604-0.248,2.404-0.378c1.363-0.222,2.721-0.463,4.076-0.72c0.813-0.154,1.628-0.305,2.437-0.471     c0.908-0.187,1.811-0.39,2.715-0.593c0.665-0.149,1.328-0.301,1.99-0.458c0.888-0.211,1.775-0.424,2.659-0.65     c0.803-0.205,1.6-0.424,2.398-0.641c1.194-0.325,2.384-0.663,3.57-1.016c0.942-0.28,1.883-0.564,2.818-0.861     c0.63-0.2,1.257-0.405,1.884-0.613c1.218-0.403,2.43-0.82,3.636-1.251c0.287-0.103,0.577-0.2,0.864-0.305     c1.688-0.614,3.361-1.26,5.023-1.929c0.002-0.001,0.005-0.002,0.007-0.003c8.736-3.515,17.096-7.77,25.006-12.686V482.867z      M345.609,318.806c-0.333,0.193-0.656,0.407-0.964,0.647c-12.603,9.758-26.398,17.252-40.99,22.363     c-0.312,0.109-0.621,0.223-0.934,0.329c-0.36,0.123-0.723,0.239-1.084,0.359c-0.751,0.249-1.502,0.497-2.258,0.735     c-0.249,0.078-0.498,0.154-0.747,0.231c-0.907,0.279-1.817,0.552-2.732,0.814c-0.141,0.04-0.281,0.081-0.422,0.121     c-5.664,1.604-11.466,2.873-17.386,3.781c-0.017,0.003-0.033,0.005-0.05,0.008c-3.521,0.539-7.084,0.949-10.682,1.229     c-0.224,0.017-0.448,0.032-0.673,0.048c-0.907,0.066-1.817,0.124-2.729,0.173c-0.33,0.018-0.66,0.035-0.99,0.051     c-0.845,0.04-1.692,0.071-2.541,0.097c-0.326,0.01-0.652,0.022-0.979,0.03c-1.147,0.027-2.296,0.044-3.448,0.044     c-1.153,0-2.302-0.017-3.449-0.044c-0.327-0.008-0.653-0.02-0.979-0.03c-0.849-0.026-1.696-0.057-2.541-0.097     c-0.33-0.016-0.66-0.033-0.99-0.051c-0.912-0.05-1.821-0.107-2.729-0.173c-0.224-0.016-0.449-0.031-0.673-0.048     c-3.599-0.28-7.161-0.69-10.682-1.229c-0.017-0.003-0.033-0.005-0.05-0.008c-5.92-0.908-11.723-2.178-17.387-3.782     c-0.14-0.04-0.28-0.08-0.42-0.12c-0.915-0.262-1.826-0.535-2.733-0.815c-0.249-0.077-0.498-0.152-0.746-0.23     c-0.756-0.237-1.508-0.485-2.258-0.735c-0.361-0.12-0.724-0.236-1.084-0.359c-0.313-0.107-0.622-0.221-0.934-0.329     c-14.592-5.111-28.387-12.606-40.99-22.363c-0.305-0.237-0.625-0.448-0.953-0.638c-33.757-26.585-55.47-67.811-55.47-114.016     c0-46.212,21.72-87.445,55.486-114.029c0.322-0.188,0.636-0.392,0.936-0.625c12.603-9.758,26.398-17.252,40.99-22.363     c0.312-0.109,0.621-0.223,0.934-0.329c0.36-0.123,0.723-0.239,1.084-0.359c0.751-0.249,1.502-0.497,2.258-0.735     c0.248-0.078,0.498-0.154,0.746-0.23c0.908-0.28,1.818-0.553,2.733-0.815c0.14-0.04,0.28-0.08,0.42-0.12     c5.664-1.604,11.466-2.873,17.387-3.782c0.017-0.003,0.033-0.005,0.05-0.008c3.521-0.539,7.084-0.949,10.682-1.229     c0.224-0.017,0.448-0.032,0.673-0.048c0.907-0.066,1.817-0.124,2.729-0.173c0.33-0.018,0.66-0.035,0.99-0.051     c0.845-0.04,1.692-0.071,2.541-0.097c0.326-0.01,0.652-0.022,0.979-0.03c1.147-0.027,2.296-0.044,3.449-0.044     c1.153,0,2.302,0.017,3.448,0.044c0.327,0.008,0.653,0.02,0.979,0.03c0.849,0.026,1.696,0.057,2.541,0.097     c0.33,0.016,0.66,0.033,0.99,0.051c0.912,0.05,1.821,0.107,2.729,0.173c0.224,0.016,0.449,0.031,0.673,0.048     c3.599,0.28,7.161,0.69,10.682,1.229c0.017,0.003,0.033,0.005,0.05,0.008c5.92,0.908,11.723,2.178,17.386,3.781     c0.141,0.04,0.281,0.08,0.422,0.121c0.915,0.262,1.824,0.535,2.732,0.814c0.249,0.077,0.499,0.152,0.747,0.231     c0.756,0.237,1.508,0.485,2.258,0.735c0.361,0.12,0.724,0.236,1.084,0.359c0.313,0.107,0.622,0.221,0.934,0.329     c14.592,5.111,28.387,12.606,40.99,22.363c0.301,0.235,0.618,0.44,0.942,0.629c33.763,26.584,55.481,67.815,55.481,114.024     C401.067,250.999,379.359,292.222,345.609,318.806z"/>
			<path d="M256,93.867c-61.167,0-110.933,49.766-110.933,110.933c0,4.71,3.823,8.533,8.533,8.533s8.533-3.823,8.533-8.533     c0-51.755,42.112-93.867,93.867-93.867c4.71,0,8.533-3.823,8.533-8.533C264.533,97.69,260.71,93.867,256,93.867z"/>
		</g>
	</g>
</g>
<g>
</g>
<g>
</g>
<g>
</g>
<g>
</g>
<g>
</g>
<g>
</g>
<g>
</g>
<g>
</g>
<g>
</g>
<g>
</g>
<g>
</g>
<g>
</g>
<g>
</g>
<g>
</g>
<g>
</g>
</svg>
