<?xml version="1.0" encoding="iso-8859-1"?>
<!-- Generator: Adobe Illustrator 19.0.0, SVG Export Plug-In . SVG Version: 6.00 Build 0)  -->
<svg xmlns="http://www.w3.org/2000/svg" xmlns:xlink="http://www.w3.org/1999/xlink" version="1.1" id="Layer_1" x="0px" y="0px" viewBox="0 0 512 512" style="enable-background:new 0 0 512 512;" xml:space="preserve">
<g>
	<g>
		<g>
			<path d="M255.997,162.133c-51.755,0-93.867,42.112-93.867,93.867c0,4.71,3.823,8.533,8.533,8.533s8.533-3.823,8.533-8.533     c0-42.342,34.458-76.8,76.8-76.8c4.71,0,8.533-3.823,8.533-8.533C264.531,165.956,260.708,162.133,255.997,162.133z"/>
			<path d="M479.588,281.6l30.976-46.464c1.749-2.62,1.912-5.982,0.427-8.764c-1.485-2.773-4.378-4.506-7.526-4.506h-59.736V204.8     c0-4.71-3.814-8.533-8.533-8.533h-47.006c-22.808-50.278-73.482-85.333-132.191-85.333s-109.383,35.055-132.191,85.333H76.797     c-4.71,0-8.533,3.823-8.533,8.533v17.067H8.528c-3.14,0-6.033,1.732-7.518,4.506c-1.485,2.782-1.323,6.144,0.418,8.764     L32.413,281.6L1.428,328.064c-1.741,2.62-1.903,5.982-0.418,8.764c1.485,2.773,4.378,4.506,7.518,4.506h93.867     c4.719,0,8.533-3.823,8.533-8.533v-17.067h12.878c22.808,50.278,73.482,85.333,132.191,85.333s109.383-35.055,132.191-85.333     h12.875V332.8c0,4.71,3.823,8.533,8.533,8.533h93.867c3.149,0,6.042-1.732,7.526-4.506c1.485-2.782,1.323-6.144-0.427-8.764     L479.588,281.6z M93.862,324.267H24.477l25.284-37.931c1.92-2.867,1.92-6.605,0-9.472l-25.284-37.931h43.785V307.2     c0,4.71,3.823,8.533,8.533,8.533h0.003h17.064V324.267z M102.395,298.667H85.331v-85.333h32.006     c-2.613,8.476-4.463,17.282-5.482,26.337c-0.007,0.06-0.014,0.119-0.021,0.179c-0.372,3.342-0.629,6.718-0.769,10.124     c-0.016,0.38-0.031,0.761-0.044,1.141c-0.054,1.623-0.091,3.25-0.091,4.886c0,1.636,0.037,3.263,0.091,4.886     c0.013,0.381,0.028,0.761,0.044,1.141c0.14,3.406,0.397,6.782,0.769,10.124c0.007,0.06,0.014,0.119,0.021,0.179     c1.019,9.055,2.868,17.861,5.482,26.337H102.395z M255.997,384c-53.369,0-99.207-32.837-118.392-79.364     c-0.067-0.213-0.128-0.427-0.213-0.636c-4.672-11.53-7.615-23.481-8.799-35.67c-0.009-0.09-0.016-0.18-0.024-0.27     c-0.086-0.903-0.163-1.807-0.229-2.713c-0.022-0.3-0.038-0.602-0.057-0.902c-0.047-0.716-0.094-1.433-0.13-2.151     c-0.026-0.532-0.042-1.066-0.061-1.599c-0.019-0.507-0.042-1.014-0.055-1.521c-0.026-1.055-0.04-2.113-0.04-3.174     c0-1.061,0.014-2.119,0.04-3.174c0.013-0.508,0.036-1.014,0.055-1.521c0.019-0.533,0.035-1.067,0.061-1.599     c0.035-0.718,0.082-1.434,0.13-2.151c0.02-0.301,0.036-0.602,0.057-0.902c0.066-0.906,0.144-1.81,0.229-2.713     c0.008-0.09,0.015-0.18,0.024-0.27c1.184-12.189,4.127-24.14,8.799-35.67c0.085-0.209,0.146-0.423,0.213-0.636     C156.79,160.837,202.628,128,255.997,128c53.399,0,99.258,32.873,118.423,79.441c0.061,0.187,0.113,0.375,0.188,0.559     c5.061,12.506,8.094,25.508,9.054,38.772c0.001,0.011,0.001,0.022,0.002,0.034c0.072,1.004,0.133,2.009,0.182,3.015     c0.004,0.083,0.006,0.167,0.01,0.25c0.091,1.971,0.14,3.947,0.14,5.929c0,1.981-0.048,3.957-0.14,5.929     c-0.004,0.083-0.006,0.167-0.01,0.25c-0.049,1.007-0.109,2.012-0.182,3.015c-0.001,0.011-0.001,0.022-0.002,0.034     c-0.96,13.264-3.993,26.266-9.054,38.772c-0.074,0.183-0.126,0.372-0.188,0.559C355.255,351.127,309.397,384,255.997,384z      M400.935,261.882c0.012-0.287,0.023-0.574,0.033-0.861c0.057-1.668,0.096-3.34,0.096-5.021c0-1.681-0.039-3.353-0.096-5.021     c-0.01-0.287-0.021-0.574-0.033-0.861c-0.511-12.749-2.669-25.081-6.277-36.785h32.004v85.333h-17.064h-14.94     C398.266,286.963,400.424,274.631,400.935,261.882z M418.131,324.267v-8.533h17.064h0.003c0.638,0,1.257-0.076,1.855-0.209     c2.011-0.446,3.747-1.602,4.947-3.19c1.082-1.43,1.731-3.205,1.731-5.135v-68.267h43.785l-25.284,37.931     c-1.911,2.867-1.911,6.605,0,9.472l25.284,37.931H418.131z"/>
		</g>
	</g>
</g>
<g>
</g>
<g>
</g>
<g>
</g>
<g>
</g>
<g>
</g>
<g>
</g>
<g>
</g>
<g>
</g>
<g>
</g>
<g>
</g>
<g>
</g>
<g>
</g>
<g>
</g>
<g>
</g>
<g>
</g>
</svg>
