<svg viewBox="0 0 32 33"><path d="M16,0c-8.837,0 -16,7.163 -16,16c0,8.837 7.163,16 16,16c8.836,0 16,-7.163 16,-16c0,-8.837 -7.164,-16 -16,-16Zm0,28c-6.617,0 -12,-5.383 -12,-12c0,-6.617 5.383,-12 12,-12c6.617,0 12,5.383 12,12c0,6.617 -5.383,12 -12,12Zm0.02,-20c1.101,0.008 1.98,0.891 1.98,1.98l0,4.02l4.02,0c1.093,0 1.98,0.887 1.98,1.98l0,0.04c0,1.093 -0.887,1.98 -1.98,1.98l-4.02,0l0,4.02c0,1.093 -0.887,1.98 -1.98,1.98l-0.04,0c-1.094,0 -1.98,-0.887 -1.98,-1.98l0,-4.02l-4.02,0c-1.101,-0.008 -1.98,-0.891 -1.98,-1.98l0,-0.04c0,-1.089 0.879,-1.972 1.98,-1.98l4.02,0l0,-4.02c0,-1.089 0.879,-1.972 1.98,-1.98l0.04,0Z"/></svg>