<?xml version="1.0" encoding="UTF-8" standalone="no"?><!DOCTYPE svg PUBLIC "-//W3C//DTD SVG 1.1//EN" "http://www.w3.org/Graphics/SVG/1.1/DTD/svg11.dtd"><svg width="100%" height="100%" viewBox="0 0 16 17" version="1.1" xmlns="http://www.w3.org/2000/svg" xmlns:xlink="http://www.w3.org/1999/xlink" xml:space="preserve" ><path d="M6.613,3.421l2.633,2.587l-7.266,0c-1.094,0 -1.98,0.886 -1.98,1.98l0,0.04c0,1.093 0.886,1.98 1.98,1.98l6.963,0l-0.042,0.26l-2.228,2.248c-0.702,0.71 -0.873,1.845 -0.292,2.657c0.737,1.031 2.169,1.116 3.021,0.255l6.017,-6.074c0.372,-0.375 0.581,-0.884 0.581,-1.417c0,-0.532 -0.209,-1.041 -0.581,-1.417l-6.001,-5.933c-0.774,-0.783 -2.03,-0.783 -2.805,0c-0.776,0.783 -0.776,2.051 0,2.834Z"/></svg>
