<?xml version="1.0" encoding="UTF-8" standalone="no"?><!DOCTYPE svg PUBLIC "-//W3C//DTD SVG 1.1//EN" "http://www.w3.org/Graphics/SVG/1.1/DTD/svg11.dtd"><svg width="100%" height="100%" viewBox="0 0 17 16" version="1.1" xmlns="http://www.w3.org/2000/svg" xmlns:xlink="http://www.w3.org/1999/xlink" xml:space="preserve" ><path d="M12.595,6.613l-2.587,2.633l0,-7.266c0,-1.094 -0.887,-1.98 -1.98,-1.98l-0.04,0c-1.094,0 -1.98,0.886 -1.98,1.98l0,6.963l-0.26,-0.042l-2.249,-2.228c-0.709,-0.702 -1.844,-0.873 -2.656,-0.292c-1.031,0.737 -1.116,2.169 -0.256,3.021l6.075,6.017c0.375,0.372 0.884,0.581 1.416,0.581c0.533,0 1.041,-0.209 1.417,-0.581l5.934,-6.001c0.783,-0.774 0.783,-2.03 0,-2.805c-0.783,-0.776 -2.051,-0.776 -2.834,0Z"/></svg>
