<?xml version="1.0" encoding="UTF-8" standalone="no"?><!DOCTYPE svg PUBLIC "-//W3C//DTD SVG 1.1//EN" "http://www.w3.org/Graphics/SVG/1.1/DTD/svg11.dtd"><svg width="100%" height="100%" viewBox="0 0 33 33" version="1.1" xmlns="http://www.w3.org/2000/svg" xmlns:xlink="http://www.w3.org/1999/xlink" xml:space="preserve" ><path id="North" d="M0,16c0,8.836 7.164,16 16,16c8.837,0 16,-7.164 16,-16c0,-8.837 -7.163,-16 -16,-16c-8.836,0 -16,7.163 -16,16Zm28,0c0,6.617 -5.383,12 -12,12c-6.617,0 -12,-5.383 -12,-12c0,-6.617 5.383,-12 12,-12c6.617,0 12,5.383 12,12Zm-10,1.246l2.587,-2.633c0.783,-0.776 2.051,-0.776 2.834,0c0.783,0.775 0.783,2.031 0,2.806l-5.933,6c-0.376,0.372 -0.885,0.581 -1.417,0.581c-0.533,0 -1.042,-0.209 -1.417,-0.581l-6.074,-6.017c-0.861,-0.852 -0.776,-2.284 0.255,-3.021c0.812,-0.581 1.947,-0.41 2.656,0.292l2.249,2.228l0.26,0.042l0,-6.963c0.014,-1.107 0.895,-1.98 1.98,-1.98l0.04,0c1.085,0 1.966,0.873 1.98,1.98l0,7.266Z"/></svg>
