<?xml version="1.0" encoding="UTF-8" standalone="no"?><!DOCTYPE svg PUBLIC "-//W3C//DTD SVG 1.1//EN" "http://www.w3.org/Graphics/SVG/1.1/DTD/svg11.dtd"><svg width="100%" height="100%" viewBox="0 0 17 16" version="1.1" xmlns="http://www.w3.org/2000/svg" xmlns:xlink="http://www.w3.org/1999/xlink" xml:space="preserve"><path d="M3.421,9.387l2.587,-2.633l0,7.266c0,1.093 0.886,1.98 1.98,1.98l0.04,0c1.093,0 1.98,-0.887 1.98,-1.98l0,-6.963l0.26,0.042l2.248,2.228c0.71,0.702 1.845,0.873 2.657,0.292c1.031,-0.737 1.116,-2.169 0.255,-3.021l-6.074,-6.017c-0.375,-0.372 -0.884,-0.581 -1.417,-0.581c-0.532,0 -1.041,0.209 -1.417,0.581l-5.933,6c-0.783,0.775 -0.783,2.031 0,2.806c0.783,0.776 2.051,0.776 2.834,0Z"/></svg>
