<?xml version="1.0" encoding="UTF-8" standalone="no"?><!DOCTYPE svg PUBLIC "-//W3C//DTD SVG 1.1//EN" "http://www.w3.org/Graphics/SVG/1.1/DTD/svg11.dtd"><svg width="100%" height="100%" viewBox="0 0 33 33" version="1.1" xmlns="http://www.w3.org/2000/svg" xmlns:xlink="http://www.w3.org/1999/xlink" xml:space="preserve" ><path id="North" d="M16,32c8.836,0 16,-7.163 16,-16c0,-8.837 -7.164,-16 -16,-16c-8.837,0 -16,7.163 -16,16c0,8.837 7.163,16 16,16Zm0,-28c6.617,0 12,5.383 12,12c0,6.617 -5.383,12 -12,12c-6.617,0 -12,-5.383 -12,-12c0,-6.617 5.383,-12 12,-12Zm1.246,10l-2.633,-2.587c-0.776,-0.783 -0.776,-2.051 0,-2.834c0.775,-0.783 2.031,-0.783 2.806,0l6,5.933c0.372,0.376 0.581,0.885 0.581,1.417c0,0.533 -0.209,1.042 -0.581,1.417l-6.017,6.075c-0.852,0.86 -2.284,0.775 -3.021,-0.256c-0.581,-0.812 -0.41,-1.947 0.292,-2.656l2.228,-2.249l0.042,-0.26l-6.963,0c-1.107,-0.014 -1.98,-0.895 -1.98,-1.98l0,-0.04c0,-1.085 0.873,-1.966 1.98,-1.98l7.266,0Z"/></svg>
