<?xml version="1.0" encoding="UTF-8" standalone="no"?><!DOCTYPE svg PUBLIC "-//W3C//DTD SVG 1.1//EN" "http://www.w3.org/Graphics/SVG/1.1/DTD/svg11.dtd"><svg width="100%" height="100%" viewBox="0 0 25 33" version="1.1" xmlns="http://www.w3.org/2000/svg" xmlns:xlink="http://www.w3.org/1999/xlink" xml:space="preserve" ><path id="Bookmark" d="M22,0l-20,0c-1.105,0 -2,0.895 -2,2l0,27.997c0,1.176 0.966,2.003 2.006,2.003c0.372,0 0.753,-0.106 1.103,-0.339l8.238,-7.099c0.375,-0.323 0.931,-0.323 1.306,0l8.238,7.099c0.35,0.233 0.731,0.339 1.103,0.339c1.04,0 2.006,-0.827 2.006,-2.003l0,-27.997c0,-1.105 -0.895,-2 -2,-2Zm-2,25.613l-5.389,-4.643l-1.958,-1.688c-0.375,-0.323 -0.931,-0.323 -1.306,0l-1.958,1.688l-5.389,4.643l0,-20.613c0,-0.552 0.448,-1 1,-1l14,0c0.552,0 1,0.448 1,1l0,20.613Z" style="fill-rule:nonzero;"/></svg>
