<svg width="100%" height="100%" viewBox="0 0 154 145" >
    <g>
        <path d="M68.919,113.149c-0.353,-0.635 0.222,-1.765 1.21,-1.616c1.806,0.273 2.275,2.667 2.456,4.425c0.032,0.226 0.058,0.448 0.08,0.661c0.082,0.577 0.124,1.126 0.158,1.564c0.325,3.379 0.195,6.757 0.13,10.136c-0.124,2.804 -0.189,5.728 0.035,8.542c0.364,2.108 1.39,4.976 3.898,3.973c1.551,-0.582 2.652,-2.129 3.047,-3.68c-0.025,-0.197 -0.048,-0.393 -0.071,-0.59c-0.269,-2.085 -0.383,-4.17 -0.443,-6.255c-0.064,-3.574 0,-7.147 0.065,-10.72c0,-2.209 0.195,-4.548 -0.065,-6.692c-0.194,-1.299 1.82,-1.884 1.95,-0.585c0.048,0.333 0.091,0.667 0.128,1.002c0.029,0.22 0.056,0.441 0.08,0.662c0.637,4.771 0.017,9.778 0.017,14.537c0.057,2.678 0.064,5.355 0.328,7.988c0.15,1.063 0.505,4.343 1.526,4.463c0.727,0.072 1.047,0.755 0.96,1.32c0.087,0.21 0.114,0.445 0.081,0.662c0.264,0.641 -0.029,1.505 -0.881,1.42c-1.559,-0.195 -2.339,-1.429 -2.794,-2.729c-1.429,2.014 -3.768,3.379 -6.302,2.339c-2.427,-1.057 -3.179,-3.436 -3.437,-5.956c-0.031,-0.219 -0.057,-0.44 -0.08,-0.662c-0.264,-1.857 -0.194,-3.851 -0.281,-5.49c-0.195,-3.248 0.13,-6.562 0.13,-9.81c0,-0.64 0.116,-3.05 -0.055,-5.143c-0.193,-1.123 -0.524,-1.959 -1.084,-2.045c-0.61,-0.092 -0.805,-0.583 -0.706,-1.059c-0.106,-0.192 -0.129,-0.429 -0.08,-0.662Zm-5.113,-17.436c-0.312,-0.708 0.178,-1.61 0.86,-1.607l0.012,0c0.179,0.004 0.371,0.07 0.566,0.218c1.423,1.112 1.902,2.925 2.084,4.749c0.032,0.22 0.058,0.441 0.08,0.662c0.153,1.054 0.179,2.141 0.205,3.124c0,3.833 0,7.407 0.065,11.175c0,5.003 0.065,10.2 0,15.138c0,2.469 -0.065,4.872 0.065,7.276c0,0.171 0.012,0.354 0.026,0.538l0.013,0.159c0.014,0.184 0.026,0.367 0.026,0.538c0,0 0,0.065 0,0.13c0.006,0.089 0.012,0.177 0.019,0.266c0.07,0.418 0.16,0.837 0.275,1.269c0.13,0.325 0.26,1.364 0.455,1.559c0.235,0.29 0.294,0.615 0.237,0.91c0.102,0.22 0.121,0.448 0.08,0.662c0.47,1.007 -0.812,2.205 -1.651,1.246c-0.39,-0.455 -0.649,-1.105 -0.909,-1.754c-0.65,0.844 -1.495,1.429 -2.534,1.884c-1.819,0.715 -3.833,0.78 -5.458,-0.39c-1.961,-1.48 -2.721,-4.056 -2.999,-6.708c-0.031,-0.22 -0.057,-0.44 -0.081,-0.662c-0.305,-2.208 -0.23,-4.53 -0.199,-6.362c0,-2.014 0.195,-4.093 0.065,-6.172c-0.195,-2.794 -0.649,-6.173 0.585,-8.836c1.754,-3.833 6.757,-4.288 9.68,-1.949c-0.065,-2.534 -0.129,-4.873 -0.065,-7.342c0,-1.689 0.065,-3.313 0,-5.003c-0.017,-0.34 -0.025,-0.755 -0.052,-1.194c-0.15,-0.725 -0.427,-1.388 -0.956,-1.77c-0.365,-0.297 -0.474,-0.713 -0.414,-1.093c-0.093,-0.213 -0.115,-0.443 -0.08,-0.661Zm29.798,2.966c-0.379,-0.633 0.225,-1.405 0.902,-1.408l0.012,0c0.214,0.002 0.434,0.081 0.633,0.266c1.351,1.317 1.866,3.185 2.063,5.139c0.032,0.219 0.058,0.44 0.081,0.662c0.3,2.094 0.154,4.353 0.226,6.177c0.13,5.523 -0.13,10.915 -0.195,16.438c-0.065,3.118 -0.26,6.302 -0.065,9.42c0.013,0.23 0.029,0.473 0.05,0.725c0.343,2.102 1.188,4.322 3.363,4.709c2.144,0.325 5.003,0.065 6.302,-1.949c1.169,-1.885 1.429,-4.028 1.494,-6.237l0,-2.209c0,-5.783 -0.065,-11.565 0.065,-17.282c0.065,-2.859 0,-5.718 0,-8.576c0,-0.53 0.023,-1.231 -0.016,-1.955c-0.195,-0.925 -0.59,-1.726 -1.383,-2.049c-0.544,-0.212 -0.723,-0.734 -0.646,-1.186c-0.095,-0.208 -0.117,-0.443 -0.08,-0.661c-0.32,-0.702 0.182,-1.706 1.021,-1.361c2.084,0.824 2.722,2.769 2.911,4.783c0.033,0.218 0.06,0.439 0.08,0.661c0.136,0.895 0.158,1.828 0.158,2.701c0.028,1.961 0.019,3.91 0.006,5.858l-0.012,1.669c-0.014,1.947 -0.023,3.896 0.006,5.857c0,4.678 0.065,9.291 0,13.968c0,0.325 -0.065,0.65 -0.065,0.975l0,1.169c0,0.31 0.007,0.623 0.025,0.934c0.117,0.589 0.304,1.148 0.594,1.641c1.039,1.689 3.183,3.184 5.197,3.249c2.534,0.13 4.873,-1.884 5.393,-4.353c0.52,-2.209 0.91,-4.938 0.78,-7.147c-0.325,-4.938 -0.39,-9.81 -0.455,-14.748c0,-2.891 -0.198,-5.831 -0.119,-8.778c-0.448,-0.072 -0.897,-0.2 -1.345,-0.424c-1.25,-0.592 -2.083,-2.133 -2.147,-3.586c-0.043,-0.22 -0.07,-0.442 -0.08,-0.662c-0.324,-1.64 0.261,-3.368 2.261,-3.702c1.17,-0.195 2.989,-0.26 3.509,1.17c0.113,0.363 0.179,0.766 0.209,1.192c0.038,0.212 0.064,0.434 0.08,0.662c0.096,0.53 0.116,1.117 0.086,1.722c1.052,-0.454 2.022,-1.089 2.613,-1.562c0.824,-0.66 1.927,0.214 1.659,0.971c0.119,0.202 0.16,0.437 0.08,0.662c0.192,0.326 0.181,0.738 -0.214,1.054c-1.234,0.975 -2.858,2.014 -4.483,2.404c-0.065,0.26 -0.065,0.52 -0.065,0.78c-0.129,6.107 -0.065,12.214 0.13,18.256c0.13,3.184 0.52,6.302 0.065,9.421c-0.26,2.209 -0.26,4.548 -1.559,6.432c-2.469,3.508 -6.562,4.612 -10.265,2.144c-1.429,-0.975 -2.339,-2.079 -2.859,-3.249c-0.909,2.274 -2.534,4.093 -5.262,4.483c-1.949,0.325 -4.418,0.455 -6.042,-0.845c-1.802,-1.544 -2.712,-3.981 -2.918,-6.237c-0.034,-0.221 -0.06,-0.442 -0.081,-0.661c-0.036,-0.244 -0.065,-0.486 -0.086,-0.727c-0.454,-6.822 0.325,-13.708 0.325,-20.53c0,-3.054 -0.13,-6.107 -0.195,-9.161c0,-0.828 0.019,-1.775 -0.048,-2.721c-0.201,-1.098 -0.593,-2.114 -1.35,-2.842c-0.292,-0.272 -0.35,-0.596 -0.263,-0.884c-0.13,-0.217 -0.145,-0.449 -0.081,-0.662Zm32.513,38.673c-0.345,-2.294 0.014,-4.857 0.09,-7.005c0.13,-2.989 -0.455,-5.978 -0.52,-8.901c-0.065,-2.794 0.065,-6.367 2.079,-8.446c2.209,-2.274 5.587,-2.209 7.666,0.065c1.005,1.102 1.509,2.77 1.672,4.496c0.033,0.219 0.06,0.44 0.081,0.662c0.287,1.929 0.111,4.015 -0.293,5.521c-0.259,1.299 -0.909,2.858 -2.144,3.443c-2.014,0.975 -4.288,0.975 -6.432,1.494c0.065,1.624 0.065,3.184 0,4.808c-0.071,0.98 -0.187,2.436 -0.091,3.868c0.357,1.921 1.289,3.488 3.504,3.32c6.757,-0.52 1.04,-8.836 6.172,-11.045c0.896,-0.348 1.715,0.599 1.525,1.295c0.102,0.215 0.138,0.45 0.08,0.662c0.206,0.43 0.142,0.942 -0.405,1.185c-2.988,1.235 -0.454,6.432 -2.339,8.771c-1.819,2.339 -5.717,3.574 -8.251,1.43c-1.543,-1.266 -2.133,-3.045 -2.314,-4.962c-0.032,-0.218 -0.059,-0.439 -0.08,-0.661Zm13.462,-41.732c-0.431,-0.73 0.459,-1.887 1.441,-1.396c1.394,0.696 1.824,2.656 2.003,4.404c0.032,0.222 0.058,0.444 0.081,0.662c0.132,0.931 0.172,1.854 0.22,2.559c0.296,3.425 0.215,6.904 0.101,10.387c3.427,-1.922 8.081,-0.78 9.419,3.428c0.219,0.752 0.356,1.532 0.435,2.326c0.031,0.219 0.058,0.439 0.08,0.661c0.221,1.535 0.196,3.136 0.101,4.703c-0.13,2.274 0,4.483 0.13,6.757c0.129,3.573 1.039,12.604 -3.899,13.708c-2.079,0.455 -4.547,-0.26 -6.237,-1.754c0,0.325 0,0.65 0,0.974c0,1.365 -2.079,1.365 -2.079,0l0,-0.234c-0.051,-0.123 -0.08,-0.266 -0.08,-0.427l0,-0.235c-0.051,-0.123 -0.08,-0.265 -0.08,-0.427c0,-6.302 0.195,-12.604 0,-18.906c-0.13,-3.248 -0.195,-6.367 -0.065,-9.615c0.13,-3.574 0.26,-7.082 0.065,-10.655c0,-0.6 0.041,-1.879 -0.055,-3.159c-0.175,-0.972 -0.482,-1.787 -1.019,-2.08c-0.46,-0.23 -0.578,-0.641 -0.481,-1.019c-0.12,-0.202 -0.138,-0.438 -0.081,-0.662Zm-74.141,21.983c-0.764,-2.542 -4.113,-3.878 -6.401,-2.27c-1.949,1.43 -1.949,4.288 -1.884,6.432c0.13,3.184 0.195,6.172 0.13,9.291c-0.033,1.5 -0.098,3.213 0.042,4.884c0.194,1.183 0.529,2.308 1.097,3.278c2.014,3.509 6.432,1.105 7.081,-2.079c-0.13,-1.624 -0.065,-3.183 -0.065,-4.418c-0.065,-4.743 0,-9.745 0,-14.488l0,-0.63Zm85.869,1.12c-0.214,-1.18 -0.652,-2.352 -1.551,-3.101c-2.079,-1.624 -4.677,-1.104 -6.367,0.65l-0.065,0.065c-0.128,6.995 0.061,13.99 0.128,20.984c0.736,2.635 5.596,4.94 6.923,1.861c1.625,-3.703 1.105,-8.186 0.845,-12.084c-0.126,-2.77 0.297,-5.601 0.087,-8.375Zm-16.321,-0.79c-0.331,-1.816 -1.159,-3.393 -3.096,-3.285c-4.611,0.288 -4.262,6.763 -3.898,10.625c1.615,-0.32 3.292,-0.387 4.777,-0.904c1.689,-0.519 2.079,-2.079 2.209,-3.638c0.041,-0.718 0.082,-1.741 0.008,-2.798Zm-12.675,-17.181c-0.165,-0.257 -0.469,-0.374 -1.011,-0.202c-0.482,0.192 -0.805,0.591 -0.938,1.048c0.02,0.033 0.04,0.065 0.063,0.097c0.389,0.585 0.974,0.845 1.624,0.975c0.065,-0.65 0.13,-1.235 0.26,-1.884l0.002,-0.034Zm-118.891,-50.436c-0.432,-0.675 0.41,-1.808 1.344,-1.313c0.52,0.26 0.91,0.714 1.169,1.234c1.213,-0.853 2.83,-1.365 4.356,-1.364l0.026,0.001c0.672,0.003 1.327,0.106 1.92,0.324c2.404,0.974 3.964,2.793 5.003,5.132c0.631,1.362 0.923,2.724 1.065,4.112c0.032,0.22 0.058,0.441 0.081,0.662c0.217,1.539 0.212,3.106 0.249,4.736c0,1.918 0.043,3.851 0.088,5.785l0.019,0.774c0.045,1.933 0.088,3.866 0.088,5.785c0.065,3.768 0.065,7.601 -0.26,11.37c-0.13,1.949 -0.39,4.093 -1.689,5.652c-1.3,1.689 -3.379,2.274 -5.458,2.339c-1.754,0 -3.508,0.195 -5.327,0.13c-1.689,0 -2.794,-0.39 -4.223,0.974c-0.725,0.725 -1.834,-0.178 -1.598,-0.983c-0.107,-0.203 -0.146,-0.436 -0.08,-0.661c-0.17,-0.322 -0.17,-0.721 0.153,-1.043c1.624,-1.495 2.924,-1.56 4.613,-1.495c0.065,-5.652 0.13,-11.239 0,-16.827c-0.13,-3.053 -0.195,-5.977 -0.065,-8.966c0.13,-3.313 0.26,-6.626 0.065,-9.94c0,-0.531 0.04,-1.694 -0.044,-2.87c-0.166,-0.898 -0.458,-1.648 -0.965,-1.914c-0.445,-0.209 -0.553,-0.609 -0.45,-0.972c-0.127,-0.199 -0.144,-0.437 -0.08,-0.662Zm100.795,14.14c-0.417,-0.782 0.469,-1.963 1.446,-1.42c0.715,0.455 1.235,1.04 1.56,1.689c0.909,-1.104 2.144,-1.884 3.703,-1.819c1.559,0.065 2.859,0.715 3.508,2.209c0.308,0.727 0.459,1.489 0.526,2.262c0.035,0.219 0.061,0.44 0.08,0.662c0.196,1.232 0.12,2.511 0.075,3.727c0,0.583 -0.037,1.293 -0.008,2.005c0.16,0.69 0.46,1.295 1.016,1.674c0.405,0.286 0.522,0.712 0.453,1.098c0.099,0.211 0.12,0.443 0.08,0.661c0.401,0.857 -0.483,2.039 -1.411,1.384c-1.45,-1.058 -1.931,-2.636 -2.084,-4.306c-0.034,-0.218 -0.06,-0.439 -0.081,-0.661c-0.199,-1.297 -0.14,-2.686 -0.14,-3.958c0,-0.49 0.046,-1.15 0.027,-1.819c-0.111,-0.431 -0.291,-0.81 -0.581,-1.081c-1.689,-1.624 -3.573,0.65 -4.418,2.209c0.13,2.534 0.065,5.068 0,7.602c-0.13,6.107 0,12.149 -0.065,18.191c0,1.364 -2.079,1.364 -2.079,0l0.003,-0.229c-0.053,-0.124 -0.083,-0.268 -0.083,-0.432l0.002,-0.229c-0.053,-0.125 -0.083,-0.269 -0.083,-0.433c0.065,-5.198 -0.065,-10.46 0,-15.723c0.065,-2.728 0.065,-5.457 0.065,-8.186c0,-0.502 0.061,-1.127 0.065,-1.755c-0.139,-0.677 -0.431,-1.263 -1.009,-1.599c-0.449,-0.25 -0.572,-0.673 -0.487,-1.062c-0.11,-0.205 -0.129,-0.439 -0.08,-0.661Zm12.575,0.079c-0.419,-0.848 0.526,-2.092 1.605,-1.499c1.575,0.933 2.155,2.546 2.304,4.276c0.035,0.218 0.061,0.439 0.08,0.662c0.066,0.411 0.102,0.833 0.116,1.258c0.065,3.314 0,3.833 -0.065,7.147c-0.065,3.638 -0.195,7.276 -0.065,10.915c0.036,0.546 -0.029,2.279 0.078,3.798c0.114,0.585 0.285,1.027 0.541,1.18c0.489,0.27 0.629,0.714 0.546,1.125c0.105,0.208 0.125,0.44 0.08,0.661c0.426,0.848 -0.55,2.078 -1.57,1.487c-1.19,-0.649 -1.479,-2.29 -1.618,-3.646c-0.032,-0.224 -0.058,-0.446 -0.08,-0.661c-0.074,-0.509 -0.113,-1.007 -0.152,-1.434c-0.26,-2.859 -0.26,-5.783 -0.195,-8.706c0,-3.769 0.13,-4.808 0.13,-8.576c0,-0.96 0.186,-2.593 0.102,-4.12c-0.191,-0.924 -0.56,-1.698 -1.24,-2.093c-0.461,-0.267 -0.596,-0.705 -0.517,-1.112c-0.102,-0.208 -0.123,-0.44 -0.08,-0.662Zm5.674,24.412c-0.345,-2.294 0.014,-4.857 0.089,-7.005c0.13,-2.988 -0.454,-5.977 -0.519,-8.901c-0.065,-2.793 0.065,-6.367 2.079,-8.446c2.209,-2.273 5.587,-2.208 7.666,0.065c1.005,1.103 1.509,2.771 1.672,4.497c0.033,0.219 0.059,0.44 0.08,0.661c0.288,1.929 0.112,4.016 -0.292,5.521c-0.26,1.3 -0.91,2.859 -2.144,3.444c-2.014,0.974 -4.288,0.974 -6.432,1.494c0.065,1.624 0.065,3.183 0,4.808c-0.072,0.98 -0.187,2.436 -0.091,3.868c0.356,1.921 1.288,3.487 3.504,3.319c6.757,-0.519 1.039,-8.835 6.172,-11.044c0.895,-0.349 1.715,0.599 1.524,1.295c0.103,0.214 0.139,0.45 0.081,0.661c0.206,0.431 0.141,0.943 -0.405,1.186c-2.989,1.234 -0.455,6.432 -2.339,8.771c-1.819,2.339 -5.717,3.573 -8.251,1.429c-1.544,-1.266 -2.134,-3.045 -2.314,-4.961c-0.033,-0.218 -0.059,-0.439 -0.08,-0.662Zm-101.937,0c-0.345,-2.294 0.014,-4.857 0.089,-7.005c0.13,-2.988 -0.454,-5.977 -0.519,-8.901c-0.065,-2.793 0.065,-6.367 2.079,-8.446c2.209,-2.273 5.587,-2.208 7.666,0.065c1.005,1.103 1.509,2.771 1.672,4.497c0.033,0.219 0.059,0.44 0.08,0.661c0.288,1.929 0.112,4.016 -0.292,5.521c-0.26,1.3 -0.909,2.859 -2.144,3.444c-2.014,0.974 -4.288,0.974 -6.432,1.494c0.065,1.624 0.065,3.183 0,4.808c-0.072,0.98 -0.187,2.436 -0.091,3.868c0.356,1.921 1.288,3.487 3.504,3.319c6.757,-0.519 1.039,-8.835 6.172,-11.044c0.896,-0.349 1.715,0.599 1.524,1.295c0.103,0.214 0.139,0.45 0.081,0.661c0.206,0.431 0.141,0.943 -0.405,1.186c-2.989,1.234 -0.455,6.432 -2.339,8.771c-1.819,2.339 -5.717,3.573 -8.251,1.429c-1.544,-1.266 -2.134,-3.045 -2.314,-4.961c-0.033,-0.218 -0.059,-0.439 -0.08,-0.662Zm70.232,0c-0.345,-2.294 0.014,-4.857 0.089,-7.005c0.13,-2.988 -0.454,-5.977 -0.519,-8.901c-0.065,-2.793 0.065,-6.367 2.079,-8.446c2.209,-2.273 5.587,-2.208 7.666,0.065c1.005,1.103 1.508,2.771 1.672,4.497c0.033,0.219 0.059,0.44 0.08,0.661c0.288,1.929 0.112,4.016 -0.292,5.521c-0.26,1.3 -0.91,2.859 -2.144,3.444c-2.014,0.974 -4.288,0.974 -6.432,1.494c0.065,1.624 0.065,3.183 0,4.808c-0.072,0.98 -0.187,2.436 -0.091,3.868c0.356,1.921 1.288,3.487 3.504,3.319c6.757,-0.519 1.039,-8.835 6.172,-11.044c0.895,-0.349 1.715,0.599 1.524,1.295c0.103,0.214 0.139,0.45 0.081,0.661c0.206,0.431 0.141,0.943 -0.405,1.186c-2.989,1.234 -0.455,6.432 -2.339,8.771c-1.819,2.339 -5.717,3.573 -8.251,1.429c-1.544,-1.266 -2.134,-3.045 -2.314,-4.961c-0.033,-0.218 -0.059,-0.439 -0.08,-0.662Zm-27.092,0c-0.346,-2.294 0.014,-4.857 0.089,-7.005c0.13,-2.988 -0.455,-5.977 -0.52,-8.901c-0.065,-2.793 0.065,-6.367 2.079,-8.446c2.209,-2.273 5.588,-2.208 7.667,0.065c1.005,1.103 1.508,2.771 1.672,4.497c0.032,0.219 0.059,0.44 0.08,0.661c0.287,1.929 0.112,4.016 -0.292,5.521c-0.26,1.3 -0.91,2.859 -2.144,3.444c-2.014,0.974 -4.288,0.974 -6.432,1.494c0.065,1.624 0.065,3.183 0,4.808c-0.072,0.98 -0.188,2.436 -0.092,3.868c0.357,1.921 1.289,3.487 3.505,3.319c6.756,-0.519 1.039,-8.835 6.172,-11.044c0.895,-0.349 1.715,0.599 1.524,1.295c0.103,0.214 0.138,0.45 0.08,0.661c0.206,0.431 0.142,0.943 -0.404,1.186c-2.989,1.234 -0.455,6.432 -2.339,8.771c-1.819,2.339 -5.717,3.573 -8.251,1.429c-1.544,-1.266 -2.134,-3.045 -2.314,-4.961c-0.033,-0.218 -0.06,-0.439 -0.08,-0.662Zm-15.843,-41.765c-0.422,-0.768 0.465,-1.917 1.444,-1.428c1.394,0.697 1.824,2.656 2.004,4.405c0.031,0.222 0.057,0.444 0.08,0.662c0.132,0.93 0.172,1.854 0.221,2.559c0.296,3.5 0.214,7 0.098,10.45c2.516,-1.445 5.902,-1.448 7.992,0.895c1.258,1.411 1.778,3.157 1.953,4.975c0.033,0.219 0.059,0.44 0.081,0.662c0.219,1.485 0.17,3.042 0.076,4.522c-0.13,3.314 -0.065,6.562 -0.13,9.811c0,1.884 0,3.703 0.195,5.522c0.01,0.187 0.02,0.389 0.035,0.599c0.143,0.711 0.403,1.377 0.909,1.781c0.342,0.279 0.417,0.627 0.325,0.94c0.128,0.214 0.143,0.446 0.081,0.661c0.504,0.85 -0.743,1.975 -1.675,1.217c-1.172,-0.955 -1.561,-2.665 -1.729,-4.314c-0.032,-0.22 -0.058,-0.442 -0.08,-0.662c-0.149,-1.04 -0.181,-2.099 -0.236,-2.974c-0.13,-3.184 0.13,-6.367 0,-9.551c-0.058,-2.521 0.306,-5.042 0.139,-7.515c-0.792,-3.82 -4.798,-5.765 -7.969,-2.531c0,0.065 0,0.065 -0.065,0.065c-0.13,8.901 0.129,17.866 0.129,26.767c0,1.3 -2.079,1.3 -2.079,0l0.001,-0.255c-0.052,-0.117 -0.081,-0.253 -0.081,-0.406l0,-0.256c-0.051,-0.117 -0.08,-0.252 -0.08,-0.406c0,-6.367 0.195,-12.669 0,-18.971c-0.13,-3.249 -0.195,-6.432 -0.065,-9.616c0.13,-3.573 0.26,-7.146 0.065,-10.72c0,-0.597 0.041,-1.868 -0.053,-3.135c-0.175,-0.966 -0.483,-1.769 -1.021,-2.038c-0.453,-0.252 -0.575,-0.67 -0.485,-1.053c-0.113,-0.206 -0.132,-0.44 -0.08,-0.662Zm35.003,11.878c0.14,-0.018 0.28,-0.052 0.42,-0.052c0.65,-0.065 1.299,-0.13 1.949,-0.195c0.065,-2.988 0.13,-5.912 0.13,-8.901c0,-1.299 2.079,-1.299 2.079,0c0,0.085 0,0.17 0,0.255c0.051,0.118 0.08,0.253 0.08,0.407c0,0.085 0,0.17 0,0.255c0.051,0.117 0.081,0.253 0.081,0.407c0,1.279 -0.013,2.545 -0.027,3.81l-0.012,1.085c-0.009,0.822 -0.018,1.645 -0.022,2.472c1.374,-0.125 2.749,-0.252 4.123,-0.439c0.875,-0.132 1.397,0.71 1.267,1.333c0.093,0.215 0.124,0.451 0.08,0.661c0.228,0.522 0.083,1.17 -0.602,1.278c-0.609,0.073 -1.227,0.146 -1.848,0.219l-1.242,0.146c-0.62,0.073 -1.238,0.146 -1.847,0.22c0,4.158 -0.065,8.316 -0.13,12.474c-0.065,4.028 -0.26,7.991 -0.195,11.954c0.024,0.964 -0.035,2.068 0.027,3.138c0.246,1.221 0.798,2.284 2.021,2.88c0.469,0.235 0.593,0.657 0.499,1.041c0.116,0.204 0.135,0.439 0.08,0.662c0.417,0.731 -0.421,1.861 -1.393,1.375c-2.151,-1.019 -2.921,-3.123 -3.126,-5.323c-0.033,-0.219 -0.06,-0.44 -0.081,-0.661c-0.081,-0.54 -0.123,-1.092 -0.137,-1.642c-0.13,-3.898 -0.13,-7.796 0,-11.629c0.195,-4.483 0,-8.966 0.065,-13.384c0,-0.231 0.007,-0.455 0.016,-0.674l-2.324,0.178c0,4.028 -0.065,8.057 -0.13,12.085c-0.065,4.028 -0.195,7.991 -0.13,11.954c0,0.982 -0.078,2.111 -0.019,3.2c0.246,1.195 0.8,2.232 2.002,2.818c0.498,0.236 0.626,0.661 0.525,1.047c0.121,0.205 0.138,0.44 0.081,0.662c0.43,0.731 -0.45,1.853 -1.42,1.369c-2.15,-1.019 -2.921,-3.123 -3.126,-5.323c-0.033,-0.219 -0.06,-0.44 -0.08,-0.661c-0.082,-0.54 -0.124,-1.092 -0.138,-1.642c-0.13,-3.898 -0.065,-7.796 0,-11.629c0.195,-4.483 0,-8.966 0.065,-13.384c0,-0.094 0.002,-0.186 0.005,-0.277c-1.088,0.114 -2.127,0.175 -3.223,0.236c-0.844,0 -1.884,0.195 -2.403,-0.585c-0.204,-0.27 -0.235,-0.541 -0.156,-0.774c-0.134,-0.233 -0.148,-0.462 -0.08,-0.662c-0.578,-0.999 1.078,-1.926 1.829,-0.861c-0.52,-0.78 -0.844,-0.455 0.195,-0.455c0.228,-0.029 0.467,-0.045 0.709,-0.059l0.207,-0.012c0.241,-0.015 0.481,-0.031 0.708,-0.059c0.78,0 1.56,-0.065 2.339,-0.13c0.065,-3.119 0.13,-6.237 0.13,-9.356c0.065,-1.299 2.079,-1.299 2.079,0l0,0.25c0.051,0.119 0.08,0.256 0.08,0.412l0,0.25c0.052,0.118 0.081,0.256 0.081,0.412c0,1.336 -0.013,2.672 -0.027,4.007l-0.012,1.146c-0.009,0.89 -0.018,1.781 -0.022,2.671Zm-48.426,29.57c-0.118,-0.789 -0.157,-1.602 -0.141,-2.4c0.065,-2.988 0.325,-5.847 0,-8.836c-0.39,-4.223 -1.364,-12.019 3.638,-14.033c2.339,-0.91 5.328,-0.13 6.432,2.209c0.506,1.041 0.78,2.136 0.879,3.248c0.034,0.219 0.06,0.44 0.08,0.661c0.237,1.528 0.116,3.103 -0.213,4.626c-0.259,1.294 -2.194,0.783 -1.952,-0.505c-0.092,-0.185 -0.128,-0.408 -0.081,-0.662c-0.093,-0.188 -0.129,-0.417 -0.077,-0.676c0.182,-0.882 0.336,-2.005 0.295,-3.104c-0.166,-0.751 -0.471,-1.432 -0.979,-1.94c-1.689,-1.624 -4.288,-0.844 -5.198,1.17c-1.754,3.638 -0.714,8.316 -0.454,12.214c0.194,2.534 -0.26,5.067 -0.13,7.601c0,0.3 0.005,0.623 0.024,0.957c0.183,0.91 0.544,1.772 1.244,2.333c1.105,0.974 2.859,0.974 4.093,0.26c2.599,-1.56 1.625,-3.963 1.82,-6.432c0.195,-1.819 0.714,-3.314 2.468,-4.093c0.896,-0.349 1.715,0.599 1.525,1.295c0.103,0.214 0.138,0.45 0.08,0.661c0.206,0.431 0.142,0.943 -0.404,1.186c-2.729,1.104 -0.845,5.587 -1.82,7.861c-1.039,2.469 -4.418,4.028 -6.951,3.184c-2.78,-0.909 -3.844,-3.444 -4.098,-6.123c-0.033,-0.219 -0.059,-0.44 -0.08,-0.662Zm-17.915,-29.539c-0.337,-1.989 -1.171,-4.072 -2.661,-5.451c-1.949,-1.755 -5.132,-2.08 -7.016,-0.065c-0.056,0 -0.064,0 -0.065,0.039l0.005,0.043l0.008,0.075c0.121,0.879 0.182,1.751 0.182,2.441c0.259,3.509 0.194,7.082 0.065,10.655c-0.248,8.525 0.034,17.05 0.062,25.575c2.253,0.017 5.149,0.364 7.054,-0.715c1.624,-0.975 2.079,-2.794 2.273,-4.613c0.26,-2.599 0.325,-5.263 0.39,-7.926c0,-3.574 -0.065,-7.212 -0.13,-10.85c-0.126,-3.026 0.115,-6.174 -0.167,-9.208Zm56.049,10.438c-0.33,-1.816 -1.158,-3.393 -3.096,-3.285c-4.611,0.288 -4.262,6.762 -3.898,10.625c1.615,-0.32 3.292,-0.387 4.777,-0.904c1.689,-0.52 2.079,-2.079 2.209,-3.638c0.041,-0.718 0.082,-1.741 0.008,-2.798Zm-43.139,0c-0.331,-1.816 -1.159,-3.393 -3.097,-3.285c-4.61,0.288 -4.262,6.762 -3.897,10.625c1.614,-0.32 3.292,-0.387 4.776,-0.904c1.69,-0.52 2.079,-2.079 2.209,-3.638c0.041,-0.718 0.082,-1.741 0.009,-2.798Zm101.937,0c-0.331,-1.816 -1.159,-3.393 -3.097,-3.285c-4.61,0.288 -4.262,6.762 -3.897,10.625c1.614,-0.32 3.292,-0.387 4.776,-0.904c1.69,-0.52 2.079,-2.079 2.209,-3.638c0.041,-0.718 0.082,-1.741 0.009,-2.798Zm-31.705,0c-0.331,-1.816 -1.159,-3.393 -3.097,-3.285c-4.61,0.288 -4.262,6.762 -3.897,10.625c1.614,-0.32 3.291,-0.387 4.776,-0.904c1.689,-0.52 2.079,-2.079 2.209,-3.638c0.041,-0.718 0.082,-1.741 0.009,-2.798Zm17.282,-10.047c-0.132,-0.436 -0.101,-0.899 0.056,-1.318c0.13,-0.585 0.52,-0.91 1.04,-1.17c0.389,-0.13 0.844,0 1.234,0.13c0.585,0.26 1.169,1.04 1.104,1.689c-0.003,0.027 -0.007,0.054 -0.011,0.08c0.075,0.194 0.111,0.394 0.092,0.582c-0.004,0.027 -0.007,0.053 -0.011,0.08c0.074,0.194 0.11,0.393 0.091,0.581c-0.065,0.52 -0.26,0.975 -0.78,1.235c0,0 -0.065,0 -0.065,0.065c-0.194,0.26 -0.519,0.455 -0.909,0.455c-0.585,-0.065 -1.235,-0.26 -1.559,-0.78c-0.155,-0.309 -0.217,-0.64 -0.202,-0.967c-0.065,-0.217 -0.091,-0.441 -0.08,-0.662Zm-92.412,0.217c-0.128,-0.197 -0.165,-0.455 -0.048,-0.756c0.519,-1.429 1.429,-2.534 2.339,-3.703c0.324,-0.39 1.039,-0.325 1.364,0c0.247,0.247 0.312,0.574 0.242,0.878c0.111,0.207 0.131,0.44 0.081,0.662c0.197,0.369 0.106,0.825 -0.163,1.147c-0.714,0.91 -1.494,1.82 -1.884,2.859c-0.379,1.138 -2.172,0.677 -1.851,-0.425c-0.114,-0.176 -0.156,-0.401 -0.08,-0.662Zm-6.057,-58.127c-0.431,-0.675 0.41,-1.807 1.344,-1.313c1.383,0.668 1.786,2.559 1.954,4.211c0.032,0.223 0.058,0.444 0.08,0.662c0.12,0.836 0.159,1.661 0.206,2.298c0.26,3.508 0.13,7.081 0,10.59c-0.247,8.525 0.034,17.108 0.063,25.639c1.899,0.003 3.857,0.063 5.754,0c1.234,0 3.443,0.39 4.547,-0.195c0.846,-0.448 1.615,0.437 1.434,1.139c0.101,0.208 0.137,0.444 0.08,0.662c0.201,0.413 0.143,0.935 -0.378,1.211c-1.365,0.65 -3.379,0.455 -4.873,0.455c-2.469,0.065 -5.003,0 -7.537,0c-0.519,0 -0.974,-0.455 -0.974,-0.974c0,-0.096 0,-0.192 0,-0.288c-0.052,-0.116 -0.08,-0.243 -0.08,-0.374c0,-0.096 0,-0.191 0,-0.287c-0.052,-0.117 -0.081,-0.244 -0.081,-0.375c0,-5.912 0.195,-11.889 0,-17.801c-0.13,-2.989 -0.13,-5.977 -0.065,-8.966c0.13,-3.313 0.26,-6.627 0.13,-9.875c-0.029,-0.548 -0.006,-1.673 -0.092,-2.816c-0.167,-0.922 -0.461,-1.696 -0.982,-1.968c-0.445,-0.21 -0.552,-0.609 -0.449,-0.973c-0.127,-0.199 -0.144,-0.437 -0.081,-0.662Zm15.85,21.737c-0.026,-0.078 -0.044,-0.162 -0.053,-0.252c-0.195,-2.794 -0.26,-7.601 3.053,-8.641c3.833,-1.299 6.887,0.78 7.862,4.548c0.303,1.118 0.501,2.253 0.625,3.396c0.029,0.221 0.056,0.441 0.08,0.662c0.403,2.987 0.254,6.044 0.105,9.025c-0.065,2.144 0,4.223 0.065,6.367c0.057,0.401 -0.038,1.513 -0.016,2.707c0.028,0.114 0.039,0.247 0.011,0.363c0.001,0.038 0.003,0.076 0.005,0.113c0.065,0.13 0.13,0.39 0.065,0.585l0,0.043c0.164,0.712 0.451,1.234 0.879,1.362c0.601,0.151 0.799,0.663 0.709,1.138c0.101,0.2 0.123,0.435 0.08,0.661c0.346,0.688 -0.229,1.785 -1.213,1.539c-1.105,-0.325 -1.69,-1.105 -2.08,-2.014c-1.494,1.299 -3.638,2.014 -5.327,1.884c-3.387,-0.161 -4.772,-2.903 -5.039,-5.832c-0.033,-0.219 -0.06,-0.44 -0.08,-0.662c-0.125,-0.82 -0.155,-1.671 -0.109,-2.496c0.13,-3.508 -0.845,-7.731 1.949,-10.46c2.079,-1.884 5.457,-1.624 7.991,-0.455c0.057,-1.375 0.127,-3.067 -0.007,-4.706c-0.262,-1.575 -0.784,-2.999 -1.781,-3.911c-1.884,-1.689 -4.808,-1.039 -5.393,1.495c-0.325,1.494 -0.26,3.053 -0.195,4.612c0.13,1.3 -1.949,1.3 -2.079,0c-0.009,-0.132 -0.018,-0.269 -0.026,-0.41c-0.027,-0.077 -0.045,-0.161 -0.054,-0.251c-0.009,-0.133 -0.018,-0.27 -0.027,-0.41Zm9.409,7.051c-2.027,-1.326 -6.146,-1.668 -7.028,1.167c-0.65,2.144 -0.195,4.418 -0.325,6.627c-0.031,0.56 -0.047,1.217 -0.008,1.888c0.325,1.643 1.165,3.026 3.161,2.831c1.559,-0.195 3.768,-0.975 4.288,-2.664c0,-0.974 0,-1.949 0,-2.729c-0.111,-2.394 -0.127,-4.74 -0.088,-7.12Z" style="fill:#5b3500;"/>
        <path d="M64.598,93.968c0.179,0.004 0.371,0.07 0.565,0.218c2.079,1.625 2.144,4.743 2.209,7.212c0,3.833 0,7.407 0.065,11.175c0,5.002 0.065,10.2 0,15.138c0,2.468 -0.065,4.872 0.065,7.276c0,0.171 0.013,0.354 0.027,0.538l0.012,0.159c0.014,0.184 0.026,0.367 0.026,0.538c0,0 0,0.065 0,0.13c0.065,0.974 0.195,1.884 0.455,2.858c0.13,0.325 0.26,1.365 0.455,1.559c0.844,1.04 -0.585,2.534 -1.495,1.495c-0.389,-0.455 -0.649,-1.105 -0.909,-1.754c-0.65,0.844 -1.494,1.429 -2.534,1.884c-1.819,0.714 -3.833,0.779 -5.457,-0.39c-3.444,-2.599 -3.184,-8.576 -3.119,-12.409c0,-2.014 0.195,-4.093 0.065,-6.172c-0.195,-2.794 -0.65,-6.172 0.585,-8.836c1.754,-3.833 6.757,-4.288 9.68,-1.949c-0.065,-2.534 -0.13,-4.873 -0.065,-7.342c0,-1.689 0.065,-3.313 0,-5.002c-0.065,-1.235 0,-3.444 -1.169,-4.288c-0.853,-0.693 -0.307,-2.042 0.527,-2.038l0.012,0Zm18.769,46.858c-1.104,-0.13 -1.429,-3.963 -1.559,-4.678c-0.39,-2.989 -0.39,-6.042 -0.455,-9.096c0,-4.872 0.65,-10.005 -0.065,-14.878c-0.13,-1.299 -2.144,-0.714 -1.949,0.585c0.26,2.144 0.065,4.483 0.065,6.692c-0.065,3.573 -0.13,7.146 -0.065,10.72c0.065,2.274 0.195,4.548 0.52,6.822c-0.39,1.559 -1.494,3.118 -3.054,3.703c-2.923,1.169 -3.833,-2.924 -4.028,-4.938c-0.26,-2.923 -0.195,-5.977 -0.065,-8.901c0.065,-3.378 0.195,-6.756 -0.13,-10.135c-0.13,-1.689 -0.389,-5.003 -2.533,-5.327c-1.3,-0.195 -1.885,1.819 -0.585,2.014c1.689,0.26 1.299,7.341 1.299,8.511c0,3.248 -0.325,6.562 -0.13,9.81c0.195,3.638 -0.39,9.031 3.639,10.785c2.533,1.039 4.872,-0.325 6.302,-2.339c0.454,1.299 1.234,2.534 2.793,2.729c1.3,0.13 1.3,-1.949 0,-2.079Zm11.071,-43.693c0.213,0.002 0.434,0.081 0.633,0.266c2.664,2.599 2.079,7.342 2.209,10.655c0.13,5.523 -0.13,10.915 -0.195,16.437c-0.065,3.119 -0.26,6.302 -0.065,9.421c0.13,2.404 0.65,6.237 3.574,6.757c2.144,0.325 5.002,0.065 6.302,-1.949c1.169,-1.884 1.429,-4.028 1.494,-6.237l0,-2.209c0,-5.783 -0.065,-11.565 0.065,-17.282c0.065,-2.859 0,-5.717 0,-8.576c0,-1.559 0.195,-4.613 -1.559,-5.328c-1.17,-0.454 -0.65,-2.339 0.454,-1.884c2.794,1.105 2.989,4.223 2.989,6.822c0.065,4.483 -0.065,8.901 0,13.384c0,4.678 0.065,9.29 0,13.968c0,0.325 -0.065,0.65 -0.065,0.975l0,1.169c0,1.364 0.13,2.794 0.78,3.898c1.039,1.69 3.183,3.184 5.197,3.249c2.534,0.13 4.873,-1.884 5.393,-4.353c0.519,-2.209 0.909,-4.938 0.779,-7.147c-0.325,-4.937 -0.39,-9.81 -0.454,-14.748c0,-3.313 -0.26,-6.692 -0.065,-10.07c-0.52,-0.065 -1.04,-0.195 -1.56,-0.455c-2.469,-1.169 -3.313,-6.042 0.195,-6.627c1.17,-0.195 2.989,-0.26 3.509,1.17c0.324,1.039 0.259,2.404 0.064,3.703c1.17,-0.455 2.274,-1.17 2.924,-1.689c0.975,-0.78 2.339,0.584 1.364,1.364c-1.234,0.975 -2.858,2.014 -4.482,2.404c-0.065,0.26 -0.065,0.52 -0.065,0.78c-0.13,6.107 -0.065,12.214 0.13,18.256c0.129,3.183 0.519,6.302 0.065,9.421c-0.26,2.208 -0.26,4.547 -1.56,6.432c-2.469,3.508 -6.562,4.612 -10.265,2.143c-1.429,-0.974 -2.339,-2.079 -2.859,-3.248c-0.909,2.274 -2.533,4.093 -5.262,4.483c-1.949,0.325 -4.418,0.455 -6.042,-0.845c-1.819,-1.559 -2.729,-4.028 -2.924,-6.302c-0.455,-6.822 0.325,-13.708 0.325,-20.53c0,-3.054 -0.13,-6.107 -0.195,-9.161c0,-2.209 0.13,-5.262 -1.559,-6.886c-0.707,-0.657 -0.04,-1.628 0.719,-1.631l0.012,0Zm43.383,32.361c-5.133,2.209 0.585,10.525 -6.172,11.045c-4.288,0.325 -3.768,-5.847 -3.573,-8.511c0.065,-1.624 0.065,-3.184 0,-4.808c2.144,-0.52 4.418,-0.52 6.432,-1.494c1.234,-0.585 1.884,-2.144 2.144,-3.444c0.714,-2.663 0.714,-7.146 -1.3,-9.355c-2.079,-2.274 -5.457,-2.339 -7.666,-0.065c-2.014,2.079 -2.144,5.652 -2.079,8.446c0.065,2.924 0.649,5.912 0.52,8.901c-0.13,3.703 -1.105,8.641 2.144,11.304c2.533,2.144 6.432,0.91 8.251,-1.429c1.884,-2.339 -0.65,-7.536 2.339,-8.771c1.169,-0.52 0.129,-2.274 -1.04,-1.819Zm15.528,-0.845c-0.13,-2.273 -0.26,-4.482 -0.13,-6.756c0.13,-2.144 0.13,-4.353 -0.455,-6.367c-1.364,-4.288 -6.172,-5.393 -9.615,-3.314c0,-0.13 0,-0.26 0,-0.39c0.129,-3.833 0.259,-7.666 -0.065,-11.434c-0.13,-1.884 -0.195,-5.328 -2.144,-6.302c-1.17,-0.585 -2.209,1.169 -1.04,1.754c1.429,0.78 1.234,5.262 1.234,6.562c0.195,3.573 0.065,7.081 -0.064,10.655c-0.13,3.248 -0.065,6.367 0.064,9.615c0.195,6.302 0,12.604 0,18.906c0,1.365 2.079,1.365 2.079,0c0,-0.325 0,-0.649 0,-0.974c1.69,1.494 4.159,2.209 6.238,1.754c4.937,-1.105 4.028,-10.135 3.898,-13.709Zm-95.008,10.431c-1.559,-2.663 -1.364,-6.497 -1.299,-9.485c0.065,-3.119 0,-6.107 -0.13,-9.291c-0.065,-2.144 -0.065,-5.003 1.884,-6.432c2.404,-1.689 5.977,-0.13 6.497,2.664c0,0.26 0.065,0.455 0.065,0.715c0,0.259 0,0.519 0,0.844c0,4.743 -0.065,9.746 0,14.488c0,1.235 -0.065,2.794 0.065,4.418c-0.65,3.184 -5.067,5.588 -7.082,2.079Zm91.954,-0.035c-1.429,3.313 -6.952,0.389 -7.017,-2.469c0,-0.195 -0.065,-0.325 -0.065,-0.455c-0.064,-7.082 -0.259,-14.163 -0.129,-21.245l0.065,-0.065c1.689,-1.754 4.288,-2.274 6.367,-0.65c1.169,0.975 1.559,2.664 1.689,4.158c0.26,2.859 -0.195,5.783 -0.065,8.641c0.26,3.898 0.779,8.381 -0.845,12.085Zm-18.646,-25.858c3.508,-0.195 3.378,5.132 3.248,7.406c-0.13,1.559 -0.519,3.119 -2.209,3.639c-1.494,0.519 -3.183,0.584 -4.807,0.909c-0.325,-3.443 -1.43,-11.629 3.768,-11.954Zm-11.305,-11.63c-0.584,-0.844 -0.26,-2.079 0.715,-2.469c1.234,-0.389 1.234,0.715 1.169,1.56c-0.13,0.649 -0.195,1.234 -0.259,1.884c-0.65,-0.13 -1.235,-0.39 -1.625,-0.975Zm-110.109,-52.821c0.672,0.003 1.326,0.106 1.92,0.324c2.404,0.974 3.963,2.793 5.003,5.132c1.234,2.664 1.169,5.328 1.234,8.187c0,1.918 0.043,3.851 0.089,5.785l0.018,0.773c0.045,1.934 0.088,3.867 0.088,5.786c0.065,3.768 0.065,7.601 -0.26,11.369c-0.13,1.949 -0.39,4.093 -1.689,5.653c-1.299,1.689 -3.378,2.274 -5.457,2.339c-1.755,0 -3.509,0.195 -5.328,0.13c-1.689,0 -2.794,-0.39 -4.223,0.974c-0.844,0.845 -2.209,-0.52 -1.364,-1.364c1.624,-1.495 2.923,-1.56 4.613,-1.495c0.065,-5.652 0.13,-11.239 0,-16.827c-0.13,-3.053 -0.195,-5.977 -0.065,-8.965c0.13,-3.314 0.259,-6.627 0.065,-9.941c0,-1.169 0.194,-5.392 -1.17,-6.107c-1.104,-0.52 -0.13,-2.209 0.975,-1.624c0.519,0.26 0.909,0.715 1.169,1.234c1.213,-0.853 2.83,-1.365 4.356,-1.363l0.026,0Zm105.806,26.571c-1.429,-0.974 -1.169,-3.443 -1.169,-5.002c0.065,-1.754 0.195,-3.638 -0.52,-5.328c-0.65,-1.494 -1.949,-2.144 -3.508,-2.209c-1.56,-0.065 -2.794,0.715 -3.704,1.819c-0.324,-0.649 -0.844,-1.234 -1.559,-1.689c-1.169,-0.649 -2.209,1.17 -1.039,1.819c0.779,0.455 1.039,1.365 1.104,2.339c0,0.195 0,0.325 0.065,0.52c0,0.65 -0.065,1.299 -0.065,1.819c0,2.729 0,5.458 -0.065,8.186c-0.065,5.263 0.065,10.525 0,15.723c0,1.364 2.079,1.364 2.079,0c0.065,-6.042 -0.065,-12.084 0.065,-18.191c0.065,-2.534 0.13,-5.068 0,-7.602c0.845,-1.559 2.729,-3.833 4.418,-2.209c0.975,0.91 0.715,3.054 0.715,4.223c0,2.664 -0.26,5.847 2.144,7.602c1.104,0.779 2.144,-1.04 1.039,-1.82Zm5.263,16.828c-0.975,-0.585 -0.715,-5.328 -0.78,-6.303c-0.13,-3.638 0,-7.276 0.065,-10.914c0.065,-3.314 0.13,-3.834 0.065,-7.147c-0.065,-1.949 -0.585,-3.833 -2.339,-4.873c-1.299,-0.714 -2.404,1.235 -1.169,1.949c2.014,1.17 1.299,5.653 1.299,7.537c0,3.768 -0.13,4.808 -0.13,8.576c-0.065,2.923 -0.065,5.847 0.195,8.706c0.13,1.429 0.26,3.638 1.689,4.418c1.235,0.714 2.404,-1.235 1.105,-1.949Zm12.864,-11.045c-5.133,2.209 0.584,10.525 -6.172,11.045c-4.288,0.324 -3.769,-5.848 -3.574,-8.511c0.065,-1.625 0.065,-3.184 0,-4.808c2.144,-0.52 4.418,-0.52 6.432,-1.495c1.235,-0.584 1.884,-2.143 2.144,-3.443c0.715,-2.664 0.715,-7.147 -1.299,-9.355c-2.079,-2.274 -5.458,-2.339 -7.667,-0.065c-2.014,2.079 -2.144,5.652 -2.079,8.446c0.065,2.923 0.65,5.912 0.52,8.9c-0.13,3.704 -1.104,8.641 2.144,11.305c2.534,2.144 6.432,0.91 8.251,-1.429c1.884,-2.339 -0.649,-7.537 2.339,-8.771c1.17,-0.52 0.13,-2.274 -1.039,-1.819Zm-101.937,0c-5.133,2.209 0.584,10.525 -6.172,11.045c-4.288,0.324 -3.769,-5.848 -3.574,-8.511c0.065,-1.625 0.065,-3.184 0,-4.808c2.144,-0.52 4.418,-0.52 6.432,-1.495c1.235,-0.584 1.884,-2.143 2.144,-3.443c0.715,-2.664 0.715,-7.147 -1.299,-9.355c-2.079,-2.274 -5.458,-2.339 -7.667,-0.065c-2.014,2.079 -2.144,5.652 -2.079,8.446c0.065,2.923 0.65,5.912 0.52,8.9c-0.13,3.704 -1.104,8.641 2.144,11.305c2.534,2.144 6.432,0.91 8.251,-1.429c1.884,-2.339 -0.649,-7.537 2.339,-8.771c1.17,-0.52 0.13,-2.274 -1.039,-1.819Zm43.139,0c-5.132,2.209 0.585,10.525 -6.172,11.045c-4.288,0.324 -3.768,-5.848 -3.573,-8.511c0.065,-1.625 0.065,-3.184 0,-4.808c2.144,-0.52 4.418,-0.52 6.432,-1.495c1.234,-0.584 1.884,-2.143 2.144,-3.443c0.715,-2.664 0.715,-7.147 -1.299,-9.355c-2.079,-2.274 -5.458,-2.339 -7.667,-0.065c-2.014,2.079 -2.144,5.652 -2.079,8.446c0.065,2.923 0.65,5.912 0.52,8.9c-0.13,3.704 -1.105,8.641 2.144,11.305c2.534,2.144 6.432,0.91 8.251,-1.429c1.884,-2.339 -0.65,-7.537 2.339,-8.771c1.169,-0.52 0.13,-2.274 -1.04,-1.819Zm27.093,0c-5.133,2.209 0.584,10.525 -6.172,11.045c-4.288,0.324 -3.769,-5.848 -3.574,-8.511c0.065,-1.625 0.065,-3.184 0,-4.808c2.144,-0.52 4.418,-0.52 6.432,-1.495c1.235,-0.584 1.884,-2.143 2.144,-3.443c0.715,-2.664 0.715,-7.147 -1.299,-9.355c-2.079,-2.274 -5.458,-2.339 -7.667,-0.065c-2.014,2.079 -2.144,5.652 -2.079,8.446c0.065,2.923 0.65,5.912 0.52,8.9c-0.13,3.704 -1.104,8.641 2.144,11.305c2.534,2.144 6.432,0.91 8.251,-1.429c1.884,-2.339 -0.649,-7.537 2.339,-8.771c1.17,-0.52 0.13,-2.274 -1.039,-1.819Zm-39.762,11.369c-0.974,-0.779 -1.039,-2.533 -1.104,-3.703c-0.195,-1.819 -0.195,-3.638 -0.195,-5.522c0.065,-3.249 0,-6.497 0.13,-9.811c0.195,-3.053 0.195,-6.432 -1.949,-8.836c-2.144,-2.403 -5.653,-2.338 -8.186,-0.779c0,-0.13 0,-0.325 0,-0.455c0.13,-3.768 0.26,-7.601 -0.065,-11.435c-0.13,-1.884 -0.195,-5.327 -2.144,-6.302c-1.17,-0.584 -2.209,1.17 -1.04,1.82c1.43,0.714 1.235,5.197 1.235,6.497c0.195,3.573 0.065,7.146 -0.065,10.719c-0.13,3.184 -0.065,6.367 0.065,9.616c0.195,6.302 0,12.604 0,18.971c0,1.299 2.079,1.299 2.079,0c0,-8.901 -0.26,-17.867 -0.13,-26.767c0.065,0 0.065,0 0.065,-0.065c3.313,-3.379 7.536,-1.105 8.056,3.053c0.325,2.729 -0.13,5.523 -0.065,8.316c0.13,3.184 -0.13,6.367 0,9.551c0.13,2.079 0.13,5.197 1.884,6.627c1.04,0.844 2.469,-0.65 1.429,-1.495Zm26.342,-32.119c-0.621,0.073 -1.239,0.146 -1.848,0.219c0,4.158 -0.065,8.316 -0.13,12.475c-0.065,4.028 -0.26,7.991 -0.195,11.954c0.065,2.534 -0.455,6.042 2.209,7.341c1.169,0.585 0.195,2.339 -0.975,1.755c-2.468,-1.17 -3.118,-3.769 -3.183,-6.302c-0.13,-3.899 -0.13,-7.797 0,-11.63c0.195,-4.483 0,-8.966 0.065,-13.384c0,-0.714 0.065,-1.364 0.065,-2.014c-0.845,0.065 -1.689,0.13 -2.534,0.195c0,4.028 -0.065,8.056 -0.13,12.085c-0.065,4.028 -0.195,7.991 -0.13,11.954c0,2.534 -0.52,6.042 2.144,7.341c1.235,0.585 0.195,2.339 -0.974,1.755c-2.469,-1.17 -3.119,-3.769 -3.184,-6.302c-0.13,-3.899 -0.065,-7.797 0,-11.63c0.195,-4.483 0,-8.966 0.065,-13.384c0,-0.584 0.065,-1.104 0.065,-1.624c-1.169,0.13 -2.274,0.195 -3.443,0.26c-0.845,0 -1.884,0.195 -2.404,-0.585c-0.78,-1.039 0.974,-2.079 1.754,-0.974c-0.52,-0.78 -0.845,-0.455 0.195,-0.455c0.52,-0.065 1.104,-0.065 1.624,-0.13c0.78,0 1.559,-0.065 2.339,-0.13c0.065,-3.118 0.13,-6.237 0.13,-9.356c0.065,-1.299 2.079,-1.299 2.079,0c0,3.054 -0.065,6.108 -0.065,9.161c0.195,0 0.39,-0.065 0.585,-0.065c0.649,-0.065 1.299,-0.13 1.949,-0.195c0.065,-2.988 0.13,-5.912 0.13,-8.901c0,-1.299 2.079,-1.299 2.079,0c0,1.28 -0.013,2.546 -0.027,3.811l-0.012,1.085c-0.014,1.265 -0.026,2.531 -0.026,3.81c1.429,-0.13 2.858,-0.26 4.288,-0.454c1.299,-0.195 1.819,1.754 0.584,1.949c-0.609,0.073 -1.227,0.146 -1.847,0.219l-1.242,0.146Zm-44.208,12.304c0.52,-2.404 0.52,-4.938 -0.585,-7.212c-1.104,-2.339 -4.093,-3.118 -6.432,-2.209c-5.003,2.014 -4.028,9.811 -3.638,14.034c0.325,2.988 0.065,5.847 0,8.835c-0.065,3.249 0.779,6.757 4.158,7.862c2.534,0.844 5.912,-0.715 6.952,-3.184c0.974,-2.274 -0.91,-6.757 1.819,-7.861c1.169,-0.52 0.13,-2.274 -1.04,-1.819c-1.754,0.779 -2.274,2.274 -2.469,4.093c-0.195,2.469 0.78,4.872 -1.819,6.432c-1.234,0.714 -2.988,0.714 -4.093,-0.26c-1.299,-1.04 -1.429,-3.119 -1.429,-4.613c-0.13,-2.534 0.325,-5.068 0.13,-7.601c-0.26,-3.899 -1.3,-8.576 0.455,-12.215c0.909,-2.014 3.508,-2.793 5.197,-1.169c1.494,1.494 1.234,4.483 0.845,6.367c-0.26,1.299 1.689,1.819 1.949,0.52Zm-38.267,-20.531c1.884,-2.014 5.067,-1.689 7.016,0.065c1.755,1.625 2.599,4.223 2.794,6.497c0.325,3.119 0.065,6.367 0.195,9.486c0.065,3.638 0.13,7.276 0.13,10.85c-0.065,2.663 -0.13,5.327 -0.39,7.926c-0.195,1.819 -0.649,3.638 -2.274,4.613c-1.949,1.104 -4.937,0.714 -7.211,0.714c0,-8.965 -0.325,-17.931 -0.065,-26.897c0.13,-3.573 0.195,-7.147 -0.065,-10.655c0,-0.715 -0.065,-1.624 -0.195,-2.534c0,-0.065 0,-0.065 0.065,-0.065Zm121.428,12.669c3.508,-0.195 3.378,5.133 3.248,7.407c-0.13,1.559 -0.52,3.118 -2.209,3.638c-1.494,0.52 -3.183,0.585 -4.808,0.91c-0.325,-3.444 -1.429,-11.63 3.769,-11.955Zm-58.798,0c3.509,-0.195 3.379,5.133 3.249,7.407c-0.13,1.559 -0.52,3.118 -2.209,3.638c-1.495,0.52 -3.184,0.585 -4.808,0.91c-0.325,-3.444 -1.429,-11.63 3.768,-11.955Zm-43.139,0c3.508,-0.195 3.378,5.133 3.248,7.407c-0.13,1.559 -0.52,3.118 -2.209,3.638c-1.494,0.52 -3.183,0.585 -4.808,0.91c-0.324,-3.444 -1.429,-11.63 3.769,-11.955Zm70.232,0c3.508,-0.195 3.378,5.133 3.248,7.407c-0.13,1.559 -0.52,3.118 -2.209,3.638c-1.494,0.52 -3.183,0.585 -4.808,0.91c-0.325,-3.444 -1.429,-11.63 3.769,-11.955Zm22.219,-4.353c0.39,0 0.715,-0.194 0.91,-0.454c0,-0.065 0.065,-0.065 0.065,-0.065c0.519,-0.26 0.714,-0.715 0.779,-1.235c0.065,-0.649 -0.52,-1.429 -1.104,-1.689c-0.39,-0.13 -0.845,-0.26 -1.235,-0.13c-0.519,0.26 -0.909,0.585 -1.039,1.17c-0.195,0.519 -0.195,1.104 0.065,1.624c0.325,0.52 0.974,0.714 1.559,0.779Zm-92.321,-1.104c0.389,-1.04 1.169,-1.949 1.884,-2.859c0.325,-0.389 0.389,-0.974 0,-1.364c-0.325,-0.325 -1.04,-0.39 -1.365,0c-0.909,1.169 -1.819,2.274 -2.339,3.703c-0.454,1.17 1.43,1.689 1.82,0.52Zm20.702,-15.875c-0.649,-0.195 -0.974,-1.3 -1.039,-2.599c0,0 0,-0.065 0,-0.13c0.065,-0.195 0,-0.455 -0.065,-0.585c-0.065,-1.364 0.065,-2.729 0,-3.183c-0.065,-2.144 -0.13,-4.223 -0.065,-6.367c0.195,-3.899 0.39,-7.927 -0.65,-11.76c-0.974,-3.768 -4.028,-5.847 -7.861,-4.548c-3.313,1.04 -3.249,5.848 -3.054,8.641c0.13,1.3 2.209,1.3 2.079,0c-0.065,-1.559 -0.13,-3.118 0.195,-4.613c0.585,-2.533 3.509,-3.183 5.393,-1.494c2.274,2.079 2.079,6.822 1.949,9.94c-2.534,-1.169 -5.912,-1.429 -7.991,0.455c-2.794,2.729 -1.82,6.952 -1.949,10.46c-0.195,3.509 0.974,7.472 5.067,7.667c1.689,0.13 3.833,-0.585 5.328,-1.884c0.389,0.909 0.974,1.689 2.079,2.014c1.299,0.324 1.884,-1.69 0.584,-2.014Zm-28.16,-41.704c1.364,0.714 1.169,4.872 1.234,6.107c0.13,3.248 0,6.562 -0.13,9.875c-0.065,2.989 -0.065,5.977 0.065,8.966c0.195,5.912 0,11.889 0,17.802c0,0.519 0.455,0.974 0.975,0.974c2.533,0 5.067,0.065 7.536,0c1.494,0 3.508,0.195 4.873,-0.455c1.104,-0.584 0.13,-2.274 -0.975,-1.689c-1.104,0.585 -3.313,0.195 -4.548,0.195c-1.949,0.065 -3.963,0 -5.912,0c0,-8.966 -0.325,-17.997 -0.065,-26.962c0.13,-3.509 0.26,-7.082 0,-10.59c-0.13,-1.755 -0.195,-4.938 -2.079,-5.848c-1.104,-0.584 -2.079,1.105 -0.974,1.625Zm20.689,40.989c-3.314,0.325 -3.443,-3.703 -3.314,-6.042c0.13,-2.209 -0.324,-4.483 0.325,-6.627c0.91,-2.924 5.263,-2.469 7.212,-1.04c-0.065,2.794 -0.065,5.523 0.065,8.316c0,0.78 0,1.755 0,2.729c-0.52,1.689 -2.729,2.469 -4.288,2.664Z" style="fill:#a25e00;"/>
    </g>
</svg>
