<svg width="100%" height="100%" viewBox="0 0 376 67" >
    <g id="logo-1"><path d="M37.251,0.043l0.044,0l-0.009,0.022l0.045,0l-0.009,0.022l0.045,0l-0.01,0.022l0.045,0l-0.009,0.021l0.045,0l-0.009,0.022l0.044,0l-0.009,0.022l0.045,0l-0.009,0.022l0.045,0l-0.009,0.021l0.044,0l-0.009,0.022l0.045,0l-0.009,0.022l0.045,0l-0.009,0.022l0.044,0l-0.009,0.021l0.045,0l-0.009,0.022l0.044,0l-0.009,0.022l0.045,0l-0.009,0.022l0.045,0l-0.009,0.021l0.044,0l-0.009,0.022l0.045,0l-21.714,52.18l21.09,0c0.713,-0.149 1.435,-0.487 2.166,-1.016c1.016,-0.734 1.724,-1.576 2.124,-2.527l2.338,-5.572l5.027,-12.052c0.901,-2.189 2.248,-4.19 4.044,-6.004c1.795,-1.815 3.821,-3.24 6.077,-4.277c2.256,-1.037 4.478,-1.555 6.666,-1.555c2.021,0 3.724,0.426 5.108,1.277l0.027,0.016l0.009,0.006l0.027,0.016l0.008,0.005l0.027,0.017l0.009,0.005l0.027,0.016l0.009,0.006l0.027,0.016l0.008,0.006l0.027,0.016l0.009,0.005l0.027,0.017l0.009,0.005l0.026,0.016l0.009,0.006l0.027,0.016l0.009,0.006l0.027,0.016l0.008,0.005l0.027,0.017l0.009,0.005l0.027,0.016l0.009,0.006l0.027,0.016l0.008,0.006l0.027,0.016l0.009,0.005l0.027,0.017l0.009,0.005l0.026,0.016l0.009,0.006l0.027,0.016l0.009,0.006c0.617,0.375 1.172,0.834 1.664,1.377l4.529,0l-0.01,0.022l0.045,0l-0.009,0.021l0.045,0l-0.009,0.022l0.044,0l-0.009,0.022l0.045,0l-0.009,0.022l0.045,0l-0.009,0.021l0.044,0l-0.009,0.022l0.045,0l-0.009,0.022l0.045,0l-0.009,0.022l0.044,0l-0.009,0.021l0.045,0l-0.009,0.022l0.044,0l-0.009,0.022l0.045,0l-0.009,0.022l0.045,0l-0.009,0.021l0.044,0l-0.009,0.022l0.045,0l-0.009,0.022l0.045,0l-0.009,0.021l0.044,0l-0.009,0.022l0.045,0l-12.33,29.674l1.529,0l-0.003,0.022l0.039,0l-0.004,0.021l0.039,0l-0.003,0.022l0.039,0l-0.003,0.022l0.039,0l-0.004,0.022l0.039,0l-0.003,0.021l0.039,0l-0.003,0.022l0.038,0l-0.003,0.022l0.039,0l-0.003,0.022l0.039,0l-0.004,0.021l0.039,0l-0.003,0.022l0.039,0l-0.003,0.022l0.039,0l-0.004,0.022l0.039,0l-0.003,0.021l0.039,0l-0.003,0.022l0.038,0l-0.003,0.022l0.039,0l-0.003,0.022l0.039,0l-0.004,0.021l0.039,0l-0.698,4.709l-2.462,0c-0.9,0 -1.661,-0.193 -2.282,-0.58l-0.033,-0.019l-0.003,-0.002l-0.033,-0.02l-0.003,-0.002l-0.032,-0.02l-0.003,-0.002l-0.033,-0.02l-0.003,-0.002l-0.033,-0.019l-0.003,-0.002l-0.032,-0.02l-0.003,-0.002l-0.033,-0.02l-0.003,-0.002l-0.032,-0.02l-0.003,-0.002l-0.033,-0.019l-0.003,-0.002l-0.033,-0.02l-0.003,-0.002l-0.032,-0.02l-0.003,-0.002l-0.033,-0.02l-0.003,-0.002l-0.033,-0.019l-0.003,-0.002l-0.032,-0.02l-0.003,-0.002l-0.033,-0.02l-0.003,-0.002l-0.032,-0.02l-0.003,-0.002l-0.033,-0.019l-0.003,-0.002c-0.467,-0.283 -0.857,-0.673 -1.169,-1.17c-0.108,-0.174 -0.199,-0.354 -0.274,-0.539c-2.906,1.772 -5.811,2.658 -8.714,2.658c-2.023,0 -3.721,-0.422 -5.094,-1.266l-0.02,-0.012l-0.016,-0.01l-0.019,-0.012l-0.016,-0.01l-0.02,-0.011l-0.016,-0.01l-0.02,-0.012l-0.016,-0.01l-0.019,-0.012l-0.016,-0.01l-0.02,-0.012l-0.016,-0.01l-0.02,-0.011l-0.016,-0.01l-0.019,-0.012l-0.016,-0.01l-0.02,-0.012l-0.016,-0.01l-0.019,-0.012l-0.016,-0.01l-0.02,-0.011l-0.016,-0.01l-0.02,-0.012l-0.016,-0.01l-0.019,-0.012l-0.016,-0.01l-0.02,-0.012l-0.016,-0.01l-0.02,-0.011l-0.016,-0.01l-0.019,-0.012l-0.016,-0.01l-0.02,-0.012l-0.016,-0.01c-0.805,-0.488 -1.5,-1.12 -2.083,-1.897c-1.04,1.047 -2.219,1.886 -3.536,2.518c-1.41,0.676 -2.807,1.015 -4.189,1.015l0.003,-0.022l-0.039,0l0.003,-0.022l-0.038,0l0.003,-0.022l-0.039,0.001l0.003,-0.022l-0.039,0l0.004,-0.022l-0.039,0l0.003,-0.021l-22.139,0l-0.731,1.728l-0.075,0.216c-0.642,1.411 -1.659,2.592 -3.053,3.542c-0.29,0.198 -0.582,0.376 -0.874,0.533l360.21,0l-0.004,0.021l0.039,0l-0.003,0.022l0.039,0l-0.003,0.022l0.039,0l-0.004,0.022l0.039,0l-0.003,0.021l0.039,0l-0.003,0.022l0.038,0l-0.003,0.022l0.039,0l-0.003,0.022l0.039,0l-0.004,0.021l0.039,0l-0.003,0.022l0.039,0l-0.003,0.022l0.039,0l-0.004,0.022l0.039,0l-0.003,0.021l0.039,0l-0.003,0.022l0.038,0l-0.003,0.022l0.039,0l-0.003,0.022l0.039,0l-0.003,0.021l0.038,0l-0.003,0.022l0.039,0l-0.357,2.407l-369.164,0l0.003,-0.022l-0.039,0l0.004,-0.022l-0.039,0l0.003,-0.021l-0.039,0l0.003,-0.022l-0.039,0l0.004,-0.022l-0.039,0l0.003,-0.022l-0.039,0l0.003,-0.021l-0.038,0l0.003,-0.022l-0.039,0l0.003,-0.022l-0.039,0l0.004,-0.022l-0.039,0l0.003,-0.021l-0.039,0l0.003,-0.022l-0.039,0l0.004,-0.022l-0.039,0l0.003,-0.022l-0.039,0l0.003,-0.021l-0.038,0l0.003,-0.022l-0.039,0l0.003,-0.022l-0.039,0l0.003,-0.022l-0.038,0l0.356,-2.406l2.679,0l-0.003,-0.002l-0.007,-0.004l-0.029,-0.018l-0.007,-0.004l-0.029,-0.018l-0.006,-0.004l-0.029,-0.017l-0.007,-0.005l-0.029,-0.017c-0.521,-0.313 -0.95,-0.749 -1.288,-1.31c-0.815,-1.296 -0.867,-2.794 -0.154,-4.493c0.621,-1.469 1.646,-2.7 3.074,-3.693c1.429,-0.994 2.878,-1.49 4.347,-1.49l1.641,0l21.877,-52.571l4.838,0l-0.009,0.021Zm48.218,56.4c-0.767,-0.464 -1.403,-1.1 -1.907,-1.907c-1.203,-1.987 -1.246,-4.319 -0.129,-6.998c0.888,-2.102 2.305,-3.938 4.251,-5.507c1.946,-1.57 4,-2.556 6.163,-2.959l16.23,-38.964l1.814,0c3.773,0 7.116,0.713 10.029,2.138c0.51,0.25 1.001,0.519 1.474,0.807l0.009,0.006l0.026,0.016l0.01,0.005l0.026,0.017l0.009,0.005l0.027,0.016l0.009,0.006l0.026,0.016l0.009,0.006l0.027,0.016l0.009,0.005l0.026,0.017l0.01,0.005l0.026,0.016l0.009,0.006l0.027,0.016l0.009,0.006l0.026,0.016l0.01,0.005l0.026,0.017l0.009,0.005l0.027,0.016l0.009,0.006l0.026,0.016l0.009,0.006l0.027,0.016l0.009,0.005l0.026,0.017l0.01,0.005l0.026,0.016l0.009,0.006l0.027,0.016l0.009,0.006l0.026,0.016c2.241,1.359 4.057,3.149 5.447,5.37c1.717,2.794 2.595,5.998 2.635,9.612c0.04,3.614 -0.75,7.394 -2.372,11.339c-1.567,3.773 -3.769,7.358 -6.606,10.756c-2.836,3.398 -6.121,6.422 -9.854,9.071c-0.517,0.375 -1.031,0.735 -1.543,1.08c-0.019,0.519 0.088,0.965 0.32,1.339c0.107,0.175 0.234,0.328 0.382,0.46c0.38,0.153 0.835,0.229 1.365,0.229l10.454,0c0.288,0 0.601,-0.122 0.94,-0.367c0.339,-0.245 0.572,-0.511 0.701,-0.799l3.007,-7.171l5.371,-12.916c1.384,-3.312 3.7,-6.112 6.948,-8.402c3.248,-2.289 6.528,-3.434 9.84,-3.434l0.648,0c1.745,0.095 3.227,0.517 4.448,1.266l0.013,0.008l0.023,0.014l0.012,0.008l0.023,0.014l0.013,0.008l0.023,0.014l0.013,0.007l0.023,0.014l0.012,0.008l0.023,0.014l0.013,0.008l0.023,0.014l0.013,0.008l0.022,0.014l0.013,0.007l0.023,0.014l0.013,0.008l0.023,0.014l0.012,0.008l0.023,0.014l0.013,0.008l0.023,0.014l0.013,0.007l0.023,0.014l0.012,0.008l0.023,0.014l0.013,0.008l0.023,0.014l0.013,0.008l0.022,0.014l0.013,0.007l0.023,0.014l0.013,0.008l0.023,0.014c1.013,0.614 1.848,1.452 2.503,2.514c0.766,1.238 1.166,2.671 1.198,4.298c0.033,1.627 -0.307,3.29 -1.02,4.989c-1.384,3.312 -3.7,6.112 -6.948,8.402c-3.248,2.289 -6.542,3.434 -9.883,3.434l-8.294,0l-0.419,1.08c-0.887,2.102 -0.901,3.844 -0.04,5.227c0.248,0.398 0.553,0.733 0.913,1.006c0.692,0.335 1.534,0.503 2.526,0.503l14.342,0c0.288,0 0.601,-0.122 0.94,-0.367c0.338,-0.245 0.572,-0.511 0.701,-0.799l3.007,-7.171l5.371,-12.916c1.384,-3.312 3.7,-6.112 6.948,-8.402c3.248,-2.289 6.528,-3.434 9.839,-3.434c2.038,0 3.742,0.421 5.112,1.264l0.023,0.014l0.013,0.008l0.022,0.014l0.013,0.007l0.023,0.014l0.013,0.008l0.023,0.014l0.012,0.008l0.023,0.014l0.013,0.008l0.023,0.014l0.013,0.007l0.023,0.014l0.012,0.008l0.023,0.014l0.013,0.008l0.023,0.014l0.013,0.008l0.023,0.014l0.012,0.007l0.023,0.014l0.013,0.008l0.023,0.014l0.012,0.008l0.023,0.014l0.013,0.008l0.023,0.014l0.013,0.007l0.023,0.014l0.012,0.008l0.023,0.014l0.013,0.008l0.023,0.014l0.013,0.008c1.008,0.612 1.838,1.451 2.488,2.516c1.394,2.246 1.602,4.924 0.623,8.034l-4.795,0l0.009,-0.022l-0.045,0l0.009,-0.021l-0.044,0l0.008,-0.022l-0.044,0l0.009,-0.022l-0.045,0l0.009,-0.022l-0.044,0l0.008,-0.021l-0.044,0l0.009,-0.022l-0.045,0l0.009,-0.022l-0.044,0l0.009,-0.021l-0.045,0l0.009,-0.022l-0.044,0l0.008,-0.022l-0.044,0l0.009,-0.022l-0.045,0l0.009,-0.021l-0.044,0l0.008,-0.022l-0.044,0l0.009,-0.022l-0.045,0l0.009,-0.022l-0.044,0l0.009,-0.021l-0.045,0l0.009,-0.022l-0.044,0c0.858,-2.102 0.87,-3.83 0.034,-5.184c-0.246,-0.394 -0.549,-0.726 -0.907,-0.998c-0.702,-0.341 -1.561,-0.511 -2.576,-0.511c-2.247,0 -4.528,0.821 -6.845,2.462c-2.317,1.642 -3.946,3.6 -4.888,5.875l-5.371,12.916c-0.888,2.102 -0.915,3.844 -0.084,5.227c0.254,0.392 0.561,0.723 0.92,0.993c0.704,0.344 1.558,0.516 2.563,0.516c2.016,0 4.09,-0.684 6.222,-2.052c2.133,-1.368 3.778,-3.045 4.937,-5.032l4.967,0l-0.009,0.021l0.045,0l-0.009,0.022l0.045,0l-0.009,0.022l0.044,0l-0.009,0.022l0.045,0l-0.009,0.021l0.045,0l-0.01,0.022l0.045,0l-0.009,0.022l0.045,0l-0.009,0.022l0.044,0l-0.009,0.021l0.045,0l-0.009,0.022l0.045,0l-0.009,0.022l0.044,0l-0.009,0.022l0.045,0l-0.009,0.021l0.045,0l-0.01,0.022l0.045,0l-0.009,0.022l0.045,0l-0.009,0.022l0.044,0l-0.009,0.021l0.045,0l-0.009,0.022l0.045,0l-2.788,6.693l3.04,0c0.259,0 0.565,-0.122 0.918,-0.367c0.353,-0.245 0.594,-0.511 0.724,-0.799l8.334,-20.087l10.053,-24.104l4.838,0l-0.009,0.022l0.045,0l-0.009,0.022l0.045,0l-0.009,0.021l0.044,0l-0.009,0.022l0.045,0l-0.009,0.022l0.044,0l-0.009,0.022l0.045,0l-0.009,0.021l0.045,0l-0.009,0.022l0.044,0l-0.009,0.022l0.045,0l-0.009,0.022l0.045,0l-0.009,0.021l0.044,0l-0.009,0.022l0.045,0l-0.009,0.022l0.045,0l-0.01,0.022l0.045,0l-0.009,0.021l0.045,0l-0.009,0.022l0.044,0l-0.009,0.022l0.045,0l-0.009,0.021l0.045,0l-5.655,13.589c2.347,-1.141 4.665,-1.712 6.953,-1.712c2.022,0 3.72,0.422 5.093,1.266l0.02,0.012l0.016,0.01l0.02,0.012l0.016,0.009l0.019,0.012l0.016,0.01l0.02,0.012l0.016,0.01l0.019,0.012l0.016,0.01l0.02,0.012l0.016,0.009l0.02,0.012l0.016,0.01l0.019,0.012l0.016,0.01l0.02,0.012l0.016,0.01l0.02,0.012l0.016,0.009l0.019,0.012l0.016,0.01l0.02,0.012l0.016,0.01l0.019,0.012l0.016,0.01l0.02,0.012l0.016,0.009l0.02,0.012l0.016,0.01l0.019,0.012l0.016,0.01l0.02,0.012l0.016,0.01c1.009,0.612 1.844,1.45 2.506,2.514c0.767,1.238 1.167,2.663 1.202,4.276c0.034,1.613 -0.307,3.283 -1.024,5.011l-8.208,19.652l3.429,0c0.288,0 0.601,-0.122 0.94,-0.367c0.338,-0.245 0.572,-0.511 0.701,-0.799l3.007,-7.171l5.371,-12.916c1.384,-3.312 3.7,-6.112 6.948,-8.402c3.248,-2.289 6.528,-3.434 9.839,-3.434l0.648,0c1.745,0.095 3.228,0.517 4.449,1.266l0.013,0.008l0.022,0.014l0.013,0.008l0.023,0.014l0.013,0.008l0.023,0.014l0.012,0.007l0.023,0.014l0.013,0.008l0.023,0.014l0.013,0.008l0.023,0.014l0.012,0.008l0.023,0.014l0.013,0.007l0.023,0.014l0.013,0.008l0.022,0.014l0.013,0.008l0.023,0.014l0.013,0.008l0.023,0.014l0.012,0.007l0.023,0.014l0.013,0.008l0.023,0.014l0.013,0.008l0.023,0.014l0.012,0.008l0.023,0.014l0.013,0.007l0.023,0.014l0.013,0.008l0.022,0.014c1.014,0.614 1.848,1.452 2.503,2.514c0.767,1.238 1.167,2.671 1.199,4.298c0.032,1.627 -0.308,3.29 -1.02,4.989c-1.384,3.312 -3.7,6.112 -6.948,8.402c-3.248,2.289 -6.542,3.434 -9.883,3.434l-8.294,0l-0.419,1.08c-0.888,2.102 -0.901,3.844 -0.041,5.227c0.249,0.398 0.553,0.733 0.914,1.006c0.691,0.335 1.533,0.503 2.526,0.503l11.879,0l0.019,-0.13l2.247,0c0.259,0 0.565,-0.122 0.918,-0.367c0.353,-0.245 0.596,-0.525 0.73,-0.842l0.019,-0.13l4.207,-10.021l0.944,-2.29l13.217,-31.75l4.839,0l-0.009,0.022l0.044,0l-0.009,0.022l0.045,0l-0.009,0.021l0.044,0l-0.009,0.022l0.045,0l-0.009,0.022l0.045,0l-0.009,0.022l0.044,0l-0.009,0.021l0.045,0l-0.009,0.022l0.045,0l-0.009,0.022l0.044,0l-0.009,0.022l0.045,0l-0.009,0.021l0.044,0l-0.009,0.022l0.045,0l-0.009,0.022l0.045,0l-0.009,0.022l0.044,0l-0.009,0.021l0.045,0l-0.009,0.022l0.045,0l-0.009,0.022l0.044,0l-0.009,0.022l0.045,0l-8.028,19.306l3.127,0l-0.003,0.022l0.039,0l-0.004,0.022l0.039,0l-0.003,0.021l0.039,0l-0.003,0.022l0.039,0l-0.004,0.022l0.039,0l-0.003,0.022l0.039,0l-0.003,0.021l0.038,0l-0.003,0.022l0.039,0l-0.003,0.022l0.039,0l-0.004,0.022l0.039,0l-0.003,0.021l0.039,0l-0.003,0.022l0.039,0l-0.004,0.022l0.039,0l-0.003,0.022l0.039,0l-0.003,0.021l0.038,0l-0.003,0.022l0.039,0l-0.003,0.022l0.039,0l-0.003,0.022l0.038,0l-0.691,4.665l-4.882,0c0.308,1.037 0.581,2.153 0.822,3.348c0.24,1.195 0.432,2.714 0.577,4.557c0.144,1.843 0.037,3.873 -0.32,6.091c-0.358,2.217 -0.983,4.391 -1.874,6.522c-0.019,0.044 -0.037,0.086 -0.055,0.127l2.922,0c0.259,0 0.565,-0.122 0.918,-0.367c0.353,-0.245 0.596,-0.525 0.73,-0.842l0.019,-0.13l4.207,-10.021l0.944,-2.29l13.217,-31.75l4.839,0l-0.01,0.022l0.045,0l-0.009,0.022l0.045,0l-0.009,0.021l0.044,0l-0.009,0.022l0.045,0l-0.009,0.022l0.045,0l-0.009,0.022l0.044,0l-0.009,0.021l0.045,0l-0.009,0.022l0.045,0l-0.009,0.022l0.044,0l-0.009,0.022l0.045,0l-0.009,0.021l0.044,0l-0.009,0.022l0.045,0l-0.009,0.022l0.045,0l-0.009,0.022l0.044,0l-0.009,0.021l0.045,0l-0.009,0.022l0.045,0l-0.009,0.022l0.044,0l-0.009,0.022l0.045,0l-8.028,19.306l3.127,0l-0.003,0.022l0.039,0l-0.004,0.022l0.039,0l-0.003,0.021l0.039,0l-0.003,0.022l0.039,0l-0.004,0.022l0.039,0l-0.003,0.022l0.039,0l-0.003,0.021l0.038,0l-0.003,0.022l0.039,0l-0.003,0.022l0.039,0l-0.004,0.022l0.039,0l-0.003,0.021l0.039,0l-0.003,0.022l0.039,0l-0.004,0.022l0.039,0l-0.003,0.022l0.039,0l-0.003,0.021l0.038,0l-0.003,0.022l0.039,0l-0.003,0.022l0.039,0l-0.004,0.022l0.039,0l-0.691,4.665l-4.882,0c0.307,1.037 0.581,2.153 0.822,3.348c0.24,1.195 0.432,2.714 0.577,4.557c0.144,1.843 0.037,3.873 -0.32,6.091c-0.358,2.217 -0.983,4.391 -1.874,6.522c-0.019,0.044 -0.037,0.086 -0.055,0.127l1.539,0l-0.003,0.022l0.039,0l-0.003,0.022l0.039,0l-0.004,0.022l0.039,0l-0.003,0.021l0.039,0l-0.003,0.022l0.039,0l-0.004,0.021l1.404,0c0.288,0 0.602,-0.122 0.94,-0.367c0.339,-0.245 0.573,-0.511 0.702,-0.799l3.007,-7.171l5.371,-12.916c1.384,-3.312 3.699,-6.112 6.947,-8.402c3.248,-2.289 6.528,-3.434 9.84,-3.434l0.648,0c1.745,0.095 3.228,0.517 4.449,1.266l0.012,0.008l0.023,0.014l0.013,0.008l0.023,0.014l0.013,0.008l0.023,0.014l0.012,0.007l0.023,0.014l0.013,0.008l0.023,0.014l0.013,0.008l0.022,0.014l0.013,0.008l0.023,0.014l0.013,0.007l0.023,0.014l0.012,0.008l0.023,0.014l0.013,0.008l0.023,0.014l0.013,0.008l0.023,0.014l0.012,0.007l0.023,0.014l0.013,0.008l0.023,0.014l0.013,0.008l0.022,0.014l0.013,0.008l0.023,0.014l0.013,0.007l0.023,0.014l0.012,0.008l0.023,0.014c1.014,0.614 1.848,1.452 2.503,2.514c0.767,1.238 1.167,2.671 1.199,4.298c0.032,1.627 -0.308,3.29 -1.021,4.989c-1.383,3.312 -3.699,6.112 -6.947,8.402c-3.248,2.289 -6.542,3.434 -9.883,3.434l-8.294,0l-0.419,1.08c-0.888,2.102 -0.901,3.844 -0.041,5.227c0.249,0.398 0.553,0.733 0.914,1.006c0.691,0.335 1.533,0.503 2.526,0.503l14.125,0c0.26,0 0.566,-0.122 0.919,-0.367c0.353,-0.245 0.594,-0.511 0.723,-0.799l2.97,-7.214l8.34,-20.023c-0.046,-0.025 -0.09,-0.051 -0.134,-0.078c-0.012,-0.007 -0.023,-0.015 -0.035,-0.022c-0.012,-0.007 -0.024,-0.014 -0.036,-0.022c-0.012,-0.007 -0.024,-0.014 -0.036,-0.022c-0.011,-0.007 -0.023,-0.014 -0.035,-0.021c-0.012,-0.007 -0.024,-0.015 -0.036,-0.022c-0.012,-0.007 -0.024,-0.014 -0.035,-0.022c-0.012,-0.007 -0.024,-0.014 -0.036,-0.022c-0.012,-0.007 -0.024,-0.014 -0.036,-0.021c-0.012,-0.007 -0.024,-0.015 -0.035,-0.022c-0.012,-0.007 -0.024,-0.014 -0.036,-0.022c-0.012,-0.007 -0.024,-0.014 -0.036,-0.022c-0.012,-0.007 -0.023,-0.014 -0.035,-0.021c-0.012,-0.007 -0.024,-0.015 -0.036,-0.022c-0.012,-0.007 -0.024,-0.014 -0.035,-0.022c-0.012,-0.007 -0.024,-0.014 -0.036,-0.021c-0.012,-0.008 -0.024,-0.015 -0.036,-0.022c-0.012,-0.007 -0.024,-0.015 -0.035,-0.022c-0.397,-0.239 -0.72,-0.557 -0.968,-0.955c-0.597,-1.004 -0.632,-2.137 -0.105,-3.398l0.006,-0.015c0.413,-1.036 1.125,-1.907 2.137,-2.613c1.011,-0.706 2.036,-1.058 3.072,-1.058c0.74,0 1.367,0.159 1.88,0.478l0.014,0.008l0.022,0.014l0.014,0.008l0.022,0.013l0.014,0.009l0.021,0.013l0.014,0.008l0.022,0.014l0.014,0.008l0.022,0.014l0.013,0.008l0.022,0.013l0.014,0.009l0.022,0.013l0.014,0.008l0.022,0.014l0.013,0.008l0.022,0.014l0.014,0.008l0.022,0.013l0.014,0.009l0.021,0.013l0.014,0.008l0.022,0.014l0.014,0.008l0.022,0.014l0.014,0.008l0.021,0.013l0.014,0.009l0.022,0.013l0.014,0.008l0.022,0.014l0.013,0.008l0.022,0.014c0.403,0.241 0.738,0.578 1.005,1.012c0.354,0.588 0.499,1.25 0.435,1.984l13.561,0l-0.003,0.022l0.038,0l-0.003,0.022l0.039,0l-0.003,0.021l0.039,0l-0.004,0.022l0.039,0l-0.003,0.022l0.039,0l-0.003,0.022l0.039,0l-0.004,0.021l0.039,0l-0.003,0.022l0.039,0l-0.003,0.022l0.038,0l-0.003,0.022l0.039,0l-0.003,0.021l0.039,0l-0.004,0.022l0.039,0l-0.003,0.022l0.039,0l-0.003,0.022l0.039,0l-0.004,0.021l0.039,0l-0.003,0.022l0.039,0l-0.003,0.022l0.038,0l-0.003,0.022l0.039,0l-0.692,4.665l-2.591,0c-0.289,0 -0.599,0.058 -0.933,0.173l-8.735,21.037c-0.887,2.102 -0.901,3.844 -0.04,5.226c0.24,0.4 0.54,0.737 0.9,1.01c0.689,0.333 1.536,0.5 2.539,0.5l-0.003,0.021l0.039,0l-0.003,0.022l1.559,0c0.26,0 0.558,-0.122 0.897,-0.367c0.339,-0.245 0.573,-0.511 0.702,-0.799l13.01,-31.232l4.838,0l-0.009,0.022l0.045,0l-0.009,0.022l0.045,0l-0.009,0.021l0.044,0l-0.009,0.022l0.045,0l-0.009,0.022l0.045,0l-0.009,0.022l0.044,0l-0.009,0.021l0.045,0l-0.009,0.022l0.045,0l-0.01,0.022l0.045,0l-0.009,0.022l0.045,0l-0.009,0.021l0.044,0l-0.009,0.022l0.045,0l-0.009,0.022l0.045,0l-0.009,0.022l0.044,0l-0.009,0.021l0.045,0l-0.009,0.022l0.045,0l-0.01,0.022l0.045,0l-0.009,0.022l0.045,0l-13.323,32.006l3.731,0c0.288,0 0.602,-0.122 0.94,-0.367c0.339,-0.245 0.573,-0.511 0.702,-0.799l3.007,-7.171l5.371,-12.916c1.383,-3.312 3.699,-6.112 6.947,-8.402c3.248,-2.289 6.528,-3.434 9.84,-3.434l0.648,0c1.745,0.095 3.228,0.517 4.448,1.266l0.013,0.008l0.023,0.014l0.013,0.008l0.023,0.014l0.012,0.008l0.023,0.014l0.013,0.007l0.023,0.014l0.013,0.008l0.023,0.014l0.012,0.008l0.023,0.014l0.013,0.008l0.023,0.014l0.013,0.007l0.022,0.014l0.013,0.008l0.023,0.014l0.013,0.008l0.023,0.014l0.012,0.008l0.023,0.014l0.013,0.007l0.023,0.014l0.013,0.008l0.023,0.014l0.012,0.008l0.023,0.014l0.013,0.008l0.023,0.014l0.013,0.007l0.022,0.014l0.013,0.008l0.023,0.014c1.014,0.614 1.848,1.452 2.503,2.514c0.767,1.238 1.166,2.671 1.199,4.298c0.032,1.627 -0.308,3.29 -1.021,4.989c-1.384,3.312 -3.699,6.112 -6.947,8.402c-3.248,2.289 -6.543,3.434 -9.883,3.434l-8.294,0l-0.419,1.08c-0.888,2.102 -0.902,3.844 -0.041,5.227c0.248,0.398 0.553,0.733 0.913,1.006c0.692,0.335 1.534,0.503 2.527,0.503l12.44,0l-0.003,0.022l0.039,0l-0.003,0.021l0.039,0l-0.004,0.022l0.039,0l-0.003,0.022l0.039,0l-0.003,0.022l0.039,0l-0.004,0.021l0.039,0l-0.003,0.022l0.039,0l-0.003,0.022l0.038,0l-0.003,0.022l0.039,0l-0.003,0.021l0.039,0l-0.003,0.022l0.038,0l-0.003,0.022l0.039,0l-0.003,0.022l0.039,0l-0.004,0.021l0.039,0l-0.003,0.022l0.039,0l-0.003,0.022l0.039,0l-0.004,0.022l0.039,0l-0.003,0.021l0.039,0l-0.698,4.709l-12.441,0c-2.01,0 -3.701,-0.421 -5.073,-1.264l-0.012,-0.007l-0.024,-0.014l-0.011,-0.007l-0.024,-0.015l-0.012,-0.007l-0.024,-0.015l-0.012,-0.007l-0.024,-0.015l-0.011,-0.007l-0.024,-0.014l-0.012,-0.007l-0.024,-0.015l-0.012,-0.007l-0.024,-0.015l-0.011,-0.007l-0.024,-0.015l-0.012,-0.007l-0.024,-0.014l-0.011,-0.007l-0.025,-0.015l-0.011,-0.007l-0.024,-0.015l-0.012,-0.007l-0.024,-0.015l-0.011,-0.007l-0.024,-0.014l-0.012,-0.007l-0.024,-0.015l-0.012,-0.007l-0.024,-0.015l-0.011,-0.007l-0.024,-0.015l-0.012,-0.007l-0.024,-0.014c-0.613,-0.371 -1.162,-0.826 -1.649,-1.363c-0.688,0.858 -1.52,1.562 -2.498,2.11c-1.052,0.591 -2.125,0.886 -3.22,0.886l-4.578,0c-0.884,0 -1.644,-0.197 -2.281,-0.591l-0.011,-0.007l-0.025,-0.015l-0.011,-0.007l-0.024,-0.015l-0.012,-0.006l-0.024,-0.015l-0.011,-0.007l-0.025,-0.015l-0.011,-0.007l-0.024,-0.015l-0.012,-0.007l-0.024,-0.015l-0.011,-0.006l-0.024,-0.015l-0.012,-0.007l-0.024,-0.015l-0.012,-0.007l-0.024,-0.015l-0.011,-0.007l-0.024,-0.015l-0.012,-0.006l-0.024,-0.015l-0.011,-0.007l-0.025,-0.015l-0.011,-0.007l-0.024,-0.015l-0.012,-0.007l-0.004,-0.002c-1.054,0.588 -2.107,0.883 -3.158,0.883l-2.247,0l0.004,-0.022l-0.039,0l0.003,-0.022l-0.039,0l0.003,-0.018c-1.705,-0.09 -3.159,-0.504 -4.365,-1.243l-0.006,-0.004l-0.029,-0.018l-0.007,-0.004l-0.029,-0.018l-0.006,-0.004l-0.03,-0.018l-0.006,-0.003l-0.029,-0.018l-0.006,-0.004l-0.03,-0.018l-0.006,-0.004l-0.029,-0.018l-0.007,-0.004l-0.029,-0.018l-0.006,-0.003l-0.03,-0.018l-0.006,-0.004l-0.029,-0.018l-0.007,-0.004l-0.029,-0.018l-0.006,-0.004l-0.03,-0.018l-0.006,-0.003l-0.029,-0.018l-0.006,-0.004l-0.03,-0.018l-0.006,-0.004l-0.029,-0.018l-0.007,-0.004l-0.029,-0.018l-0.006,-0.003l-0.03,-0.018l-0.006,-0.004l-0.029,-0.018c-1.012,-0.613 -1.85,-1.452 -2.512,-2.518c-0.767,-1.238 -1.16,-2.671 -1.178,-4.298c-0.017,-1.627 0.33,-3.29 1.043,-4.989l8.116,-19.609l-6.195,0l-11.816,28.424c-0.571,1.324 -1.491,2.433 -2.761,3.326c-1.27,0.892 -2.567,1.339 -3.892,1.339l-14.169,0c-2.009,0 -3.7,-0.421 -5.073,-1.264l-0.012,-0.007l-0.024,-0.014l-0.011,-0.007l-0.024,-0.015l-0.012,-0.007l-0.024,-0.015l-0.011,-0.007l-0.025,-0.015l-0.011,-0.007l-0.024,-0.014l-0.012,-0.007l-0.024,-0.015l-0.011,-0.007l-0.024,-0.015l-0.012,-0.007l-0.024,-0.015l-0.012,-0.007l-0.024,-0.014l-0.011,-0.007l-0.024,-0.015l-0.012,-0.007l-0.024,-0.015l-0.011,-0.007l-0.025,-0.015l-0.011,-0.007l-0.024,-0.014l-0.012,-0.007l-0.024,-0.015l-0.011,-0.007l-0.024,-0.015l-0.012,-0.007l-0.024,-0.015l-0.012,-0.007l-0.024,-0.014c-0.612,-0.371 -1.162,-0.826 -1.649,-1.363c-0.687,0.858 -1.52,1.562 -2.497,2.11c-1.053,0.591 -2.126,0.886 -3.22,0.886l-2.463,0l0.004,-0.022l-0.039,0l0.003,-0.022l-0.039,0l0.003,-0.021l-0.038,0l0.003,-0.022l-0.039,0l0.003,-0.022l-0.039,0l0.004,-0.022l-0.039,0l0.003,-0.021l-0.039,0l0.003,-0.021l-1.283,0c-0.749,0 -1.431,-0.158 -2.046,-0.475c-1.795,1.814 -3.759,2.721 -5.89,2.721c-0.966,0 -1.79,-0.212 -2.471,-0.636l-0.035,-0.021l-0.001,0l-0.035,-0.021l-0.001,-0.001l-0.034,-0.021l-0.001,-0.001l-0.035,-0.021l-0.001,-0.001l-0.035,-0.021l-0.001,0l-0.034,-0.021l-0.001,-0.001l-0.035,-0.021l-0.001,-0.001l-0.034,-0.021l-0.002,-0.001l-0.034,-0.021l-0.001,0l-0.035,-0.021l-0.001,-0.001l-0.034,-0.021l-0.001,-0.001l-0.035,-0.021l-0.001,-0.001l-0.035,-0.021l-0.001,0l-0.034,-0.021l-0.001,-0.001l-0.035,-0.021l-0.001,-0.001l-0.034,-0.021l-0.002,-0.001l-0.034,-0.021l-0.001,0c-0.513,-0.311 -0.946,-0.74 -1.3,-1.287c-0.027,-0.049 -0.055,-0.099 -0.083,-0.15l-0.242,0.066c-0.21,0.058 -0.424,0.094 -0.642,0.108c-0.218,0.015 -0.428,0.022 -0.629,0.022l-3.845,0c-0.749,0 -1.431,-0.158 -2.046,-0.475c-1.795,1.814 -3.759,2.721 -5.89,2.721c-0.966,0 -1.79,-0.212 -2.471,-0.636l-0.035,-0.021l-0.001,0l-0.035,-0.021l-0.001,-0.001l-0.034,-0.021l-0.001,-0.001l-0.035,-0.021l-0.001,-0.001l-0.034,-0.021l-0.002,0l-0.034,-0.021l-0.001,-0.001l-0.035,-0.021l-0.001,-0.001l-0.034,-0.021l-0.001,-0.001l-0.035,-0.021l-0.001,0l-0.035,-0.021l-0.001,-0.001l-0.034,-0.021l-0.001,-0.001l-0.035,-0.021l-0.001,-0.001l-0.035,-0.021l-0.001,0l-0.034,-0.021l-0.001,-0.001l-0.035,-0.021l-0.001,-0.001l-0.034,-0.021l-0.002,-0.001l-0.034,-0.021l-0.001,0c-0.513,-0.311 -0.946,-0.74 -1.3,-1.287c-0.027,-0.049 -0.055,-0.099 -0.083,-0.15l-0.241,0.066c-0.211,0.058 -0.425,0.094 -0.643,0.108c-0.218,0.015 -0.428,0.022 -0.629,0.022l-1.728,0l-0.026,0.173l-12.441,0c-2.009,0 -3.7,-0.421 -5.073,-1.264l-0.011,-0.007l-0.024,-0.014l-0.012,-0.007l-0.024,-0.015l-0.012,-0.007l-0.024,-0.015l-0.011,-0.007l-0.024,-0.015l-0.012,-0.007l-0.024,-0.014l-0.012,-0.007l-0.024,-0.015l-0.011,-0.007l-0.024,-0.015l-0.012,-0.007l-0.024,-0.015l-0.011,-0.007l-0.025,-0.014l-0.011,-0.007l-0.024,-0.015l-0.012,-0.007l-0.024,-0.015l-0.011,-0.007l-0.024,-0.015l-0.012,-0.007l-0.024,-0.014l-0.012,-0.007l-0.024,-0.015l-0.011,-0.007l-0.024,-0.015l-0.012,-0.007l-0.024,-0.015l-0.012,-0.007l-0.024,-0.014c-0.612,-0.371 -1.162,-0.826 -1.648,-1.363c-0.688,0.858 -1.521,1.562 -2.498,2.11c-1.052,0.591 -2.126,0.886 -3.22,0.886l-4.277,0c-0.917,0 -1.693,-0.198 -2.329,-0.594l-0.034,-0.02l-0.002,-0.001l-0.033,-0.021l-0.003,-0.001l-0.033,-0.02l-0.002,-0.002l-0.033,-0.02l-0.003,-0.002l-0.033,-0.02l-0.003,-0.001l-0.033,-0.021l-0.002,-0.001l-0.033,-0.02l-0.003,-0.002l-0.033,-0.02l-0.002,-0.002l-0.034,-0.02l-0.002,-0.001l-0.033,-0.021l-0.003,-0.001l-0.033,-0.02l-0.002,-0.002l-0.033,-0.02l-0.003,-0.002l-0.033,-0.02l-0.003,-0.001l-0.033,-0.021l-0.002,-0.001l-0.033,-0.02l-0.003,-0.002l-0.033,-0.02l-0.002,-0.002l-0.034,-0.02l-0.002,-0.001c-0.479,-0.29 -0.879,-0.69 -1.202,-1.2c-0.717,-1.18 -0.759,-2.548 -0.125,-4.103l8.377,-20.087c0.859,-2.102 0.873,-3.845 0.041,-5.227c-0.246,-0.394 -0.548,-0.726 -0.907,-0.998c-0.702,-0.341 -1.561,-0.511 -2.576,-0.511c-2.246,0 -4.535,0.821 -6.866,2.462c-2.332,1.642 -3.968,3.6 -4.91,5.875l-8.335,20.087c-0.221,0.518 -0.51,1.015 -0.869,1.49c-0.358,0.475 -0.761,0.907 -1.207,1.296c-0.446,0.389 -0.913,0.72 -1.4,0.993c-0.487,0.274 -1.008,0.49 -1.565,0.648c-0.556,0.159 -1.093,0.238 -1.612,0.238l-4.017,0c-0.9,0 -1.661,-0.193 -2.282,-0.58l-0.033,-0.019l-0.003,-0.002l-0.033,-0.02l-0.003,-0.002l-0.032,-0.02l-0.003,-0.002l-0.033,-0.02l-0.003,-0.002l-0.033,-0.019l-0.003,-0.002l-0.032,-0.02l-0.003,-0.002l-0.033,-0.02l-0.003,-0.002l-0.032,-0.02l-0.003,-0.002l-0.033,-0.019l-0.003,-0.002l-0.033,-0.02l-0.003,-0.002l-0.032,-0.02l-0.003,-0.002l-0.033,-0.02l-0.003,-0.002l-0.033,-0.019l-0.003,-0.002l-0.032,-0.02l-0.003,-0.002l-0.033,-0.02l-0.003,-0.002l-0.032,-0.02l-0.003,-0.002l-0.033,-0.019l-0.003,-0.002c-0.467,-0.283 -0.857,-0.673 -1.169,-1.17c-0.108,-0.174 -0.199,-0.354 -0.274,-0.539c-2.906,1.772 -5.811,2.658 -8.714,2.658c-2.01,0 -3.701,-0.421 -5.074,-1.264l-0.011,-0.007l-0.024,-0.014l-0.012,-0.007l-0.024,-0.015l-0.011,-0.007l-0.025,-0.015l-0.011,-0.007l-0.024,-0.015l-0.012,-0.007l-0.024,-0.014l-0.011,-0.007l-0.024,-0.015l-0.012,-0.007l-0.024,-0.015l-0.012,-0.007l-0.024,-0.015l-0.011,-0.007l-0.024,-0.014l-0.012,-0.007l-0.024,-0.015l-0.012,-0.007l-0.024,-0.015l-0.011,-0.007l-0.024,-0.015l-0.012,-0.007l-0.024,-0.014l-0.011,-0.007l-0.024,-0.015l-0.012,-0.007l-0.024,-0.015l-0.012,-0.007l-0.024,-0.015l-0.011,-0.007l-0.024,-0.014c-0.613,-0.371 -1.163,-0.826 -1.649,-1.363c-0.688,0.858 -1.521,1.562 -2.498,2.11c-1.052,0.591 -2.125,0.886 -3.22,0.886l-14.341,0c-2.01,0 -3.701,-0.421 -5.074,-1.264l-0.011,-0.007l-0.024,-0.014l-0.012,-0.007l-0.024,-0.015l-0.011,-0.007l-0.024,-0.015l-0.012,-0.007l-0.024,-0.015l-0.012,-0.007l-0.024,-0.014l-0.011,-0.007l-0.024,-0.015l-0.012,-0.007l-0.024,-0.015l-0.012,-0.007l-0.024,-0.015l-0.011,-0.007l-0.024,-0.014l-0.012,-0.007l-0.024,-0.015l-0.011,-0.007l-0.024,-0.015l-0.012,-0.007l-0.024,-0.015l-0.012,-0.007l-0.024,-0.014l-0.011,-0.007l-0.024,-0.015l-0.012,-0.007l-0.024,-0.015l-0.012,-0.007l-0.024,-0.015l-0.011,-0.007l-0.024,-0.014c-0.613,-0.371 -1.163,-0.826 -1.649,-1.363c-0.688,0.858 -1.521,1.562 -2.498,2.11c-1.052,0.591 -2.125,0.886 -3.22,0.886l-10.454,0c-1.54,0 -2.837,-0.324 -3.891,-0.972l-0.009,-0.005l-0.027,-0.017l-0.008,-0.005l-0.027,-0.017l-0.009,-0.005l-0.027,-0.016l-0.009,-0.006l-0.027,-0.016l-0.008,-0.005l-0.027,-0.017l-0.009,-0.005l-0.027,-0.017l-0.009,-0.005l-0.027,-0.016l-0.008,-0.006l-0.027,-0.016l-0.009,-0.005l-0.027,-0.017l-0.008,-0.005l-0.027,-0.017l-0.009,-0.005l-0.027,-0.016l-0.009,-0.006l-0.027,-0.016l-0.008,-0.005l-0.027,-0.017l-0.009,-0.005l-0.027,-0.017l-0.009,-0.005l-0.027,-0.016l-0.008,-0.006l-0.027,-0.016l-0.009,-0.005l-0.027,-0.017c-0.794,-0.48 -1.451,-1.143 -1.972,-1.987c-0.198,-0.298 -0.368,-0.627 -0.508,-0.985c-5.739,2.876 -11.332,4.314 -16.781,4.314c-1.542,0 -2.837,-0.322 -3.883,-0.966l-0.014,-0.009l-0.022,-0.013l-0.014,-0.009l-0.021,-0.013l-0.015,-0.008l-0.021,-0.013l-0.014,-0.009l-0.022,-0.013l-0.014,-0.009l-0.021,-0.013l-0.015,-0.009l-0.021,-0.013l-0.014,-0.008l-0.022,-0.013l-0.014,-0.009l-0.021,-0.013l-0.014,-0.009l-0.022,-0.013l-0.014,-0.009l-0.021,-0.013l-0.015,-0.008l-0.021,-0.013l-0.014,-0.009l-0.022,-0.013l-0.014,-0.009l-0.021,-0.013l-0.015,-0.009l-0.021,-0.013l-0.014,-0.008l-0.022,-0.013l-0.014,-0.009l-0.021,-0.013l-0.014,-0.009l-0.022,-0.013Zm-77.096,1.277c-0.287,0.083 -0.586,0.24 -0.896,0.469c-0.485,0.36 -0.817,0.756 -0.997,1.188l-0.009,0.025c0.295,-0.077 0.597,-0.23 0.908,-0.46c0.469,-0.345 0.793,-0.734 0.972,-1.166l0.022,-0.056Zm242.594,-16.919l-0.609,1.47l-4.42,10.583c-0.349,0.835 -0.475,1.476 -0.378,1.922c0.53,-0.08 1.095,-0.397 1.695,-0.952c0.701,-0.648 1.339,-1.649 1.914,-3.003c1.311,-3.135 1.91,-6.475 1.798,-10.02Zm17.754,0l-0.609,1.47l-4.42,10.583c-0.349,0.835 -0.475,1.476 -0.378,1.922c0.53,-0.08 1.095,-0.397 1.695,-0.952c0.701,-0.648 1.339,-1.649 1.914,-3.003c1.311,-3.135 1.91,-6.475 1.798,-10.02Zm-200.482,-15.6c-0.702,-0.341 -1.561,-0.511 -2.576,-0.511c-2.247,0 -4.528,0.821 -6.845,2.462c-2.317,1.642 -3.946,3.6 -4.888,5.875l-5.371,12.916c-0.888,2.102 -0.915,3.844 -0.084,5.227c0.254,0.392 0.561,0.723 0.92,0.993c0.704,0.344 1.558,0.516 2.563,0.516c2.247,0 4.535,-0.821 6.866,-2.462c2.332,-1.642 3.968,-3.6 4.91,-5.875l5.371,-12.916c0.888,-2.102 0.901,-3.845 0.041,-5.227c-0.246,-0.394 -0.549,-0.726 -0.907,-0.998Zm25.763,27.192c3.881,-0.569 7.784,-1.914 11.707,-4.034c4.211,-2.275 7.998,-5.191 11.362,-8.747c3.364,-3.557 5.911,-7.38 7.64,-11.469c1.342,-3.225 2.006,-6.292 1.991,-9.201c-0.015,-2.909 -0.71,-5.457 -2.085,-7.646c-0.942,-1.586 -2.193,-2.886 -3.751,-3.9c-0.106,-0.061 -0.214,-0.121 -0.323,-0.179c-2.014,-1.08 -4.331,-1.721 -6.95,-1.923l-19.591,47.099Zm-2.925,-6.618c-1.209,0.921 -2.091,2.043 -2.646,3.364c-0.496,1.21 -0.512,2.189 -0.047,2.938c0.01,0.016 0.02,0.032 0.03,0.047l2.663,-6.349Zm277.418,-20.582c-0.692,-0.335 -1.534,-0.503 -2.527,-0.503c-2.246,0 -4.536,0.828 -6.869,2.484c-2.333,1.656 -3.969,3.607 -4.907,5.853l-2.795,6.736l6.194,0c1.469,0 3,-0.374 4.595,-1.123c1.594,-0.749 3.034,-1.771 4.32,-3.067c1.287,-1.296 2.241,-2.678 2.862,-4.147c0.887,-2.102 0.901,-3.845 0.04,-5.227c-0.248,-0.398 -0.553,-0.733 -0.913,-1.006Zm-64.191,0c-0.692,-0.335 -1.534,-0.503 -2.526,-0.503c-2.247,0 -4.536,0.828 -6.87,2.484c-2.333,1.656 -3.969,3.607 -4.907,5.853l-2.795,6.736l6.195,0c1.468,0 3,-0.374 4.594,-1.123c1.594,-0.749 3.034,-1.771 4.321,-3.067c1.286,-1.296 2.24,-2.678 2.861,-4.147c0.887,-2.102 0.901,-3.845 0.04,-5.227c-0.248,-0.398 -0.553,-0.733 -0.913,-1.006Zm-62.895,0c-0.691,-0.335 -1.534,-0.503 -2.526,-0.503c-2.247,0 -4.536,0.828 -6.87,2.484c-2.333,1.656 -3.969,3.607 -4.906,5.853l-2.795,6.736l6.194,0c1.468,0 3,-0.374 4.594,-1.123c1.594,-0.749 3.034,-1.771 4.321,-3.067c1.286,-1.296 2.24,-2.678 2.861,-4.147c0.888,-2.102 0.901,-3.845 0.041,-5.227c-0.249,-0.398 -0.553,-0.733 -0.914,-1.006Zm-87.863,0c-0.691,-0.335 -1.533,-0.503 -2.526,-0.503c-2.246,0 -4.536,0.828 -6.869,2.484c-2.334,1.656 -3.969,3.607 -4.907,5.853l-2.795,6.736l6.194,0c1.469,0 3,-0.374 4.594,-1.123c1.594,-0.749 3.035,-1.771 4.321,-3.067c1.287,-1.296 2.24,-2.678 2.861,-4.147c0.888,-2.102 0.901,-3.845 0.041,-5.227c-0.249,-0.398 -0.553,-0.733 -0.914,-1.006Zm190.478,-10.143c-0.443,-0.262 -0.755,-0.757 -0.77,-1.779c0.008,-0.566 0.5,-0.768 1.16,-1.261c0.308,-0.622 0.414,-1.441 1.458,-1.741c0.41,-0.735 1.597,-1.153 2.18,-1.139c1.013,-0.706 2.698,-1.744 5.094,-1.364l2.448,0.69l-0.019,0.006l0.055,0.016l-0.019,0.006l0.054,0.015l-0.019,0.007l0.055,0.015l-0.019,0.006l0.055,0.016l-0.019,0.006l0.054,0.016l-0.019,0.006l0.055,0.015l-0.019,0.007l0.055,0.015l-0.02,0.006l0.055,0.016l-0.019,0.006l0.055,0.016l-0.019,0.006l0.055,0.015l-0.02,0.007l0.055,0.015l-0.019,0.006l0.055,0.016l-0.019,0.006l0.054,0.016l-0.019,0.006l0.055,0.015l-0.019,0.007l0.055,0.015l-0.019,0.006l0.054,0.016l-0.019,0.006l0.055,0.016l-0.019,0.006l0.055,0.015l-3.047,1.001c0.503,0.642 0.09,2.309 -1.041,2.309l0.002,0.002c0.01,0.004 0.017,0.007 0.021,0.011l0.015,0.011c0.009,0.003 0.016,0.007 0.021,0.011l0.014,0.011c0.01,0.003 0.017,0.007 0.022,0.01l0.014,0.011c0.009,0.004 0.017,0.008 0.021,0.011l0.014,0.011c0.01,0.004 0.017,0.007 0.022,0.011l0.014,0.011c0.01,0.003 0.017,0.007 0.022,0.011l0.014,0.011c0.009,0.003 0.017,0.007 0.021,0.01c0.664,0.509 1.246,1.464 1.278,2.043c-0.471,0.923 -1.086,1.643 -2.398,1.381l-5.735,-0.005c-0.325,-0.056 -0.637,-0.134 -0.9,-0.3l-0.02,-0.012l-0.016,-0.009l-0.02,-0.012l-0.015,-0.01l-0.021,-0.012l-0.015,-0.01l-0.02,-0.012l-0.015,-0.01l-0.021,-0.012l-0.015,-0.009l-0.021,-0.012l-0.015,-0.01l-0.02,-0.012l-0.015,-0.01l-0.021,-0.012l-0.015,-0.009l-0.021,-0.013l-0.015,-0.009l-0.02,-0.012l-0.015,-0.01l-0.021,-0.012l-0.015,-0.01l-0.02,-0.012l-0.016,-0.009l-0.02,-0.013l-0.015,-0.009l-0.021,-0.012l-0.015,-0.01l-0.02,-0.012l-0.015,-0.01l-0.021,-0.012l-0.015,-0.009l-0.021,-0.013l-0.015,-0.009Z" style="fill:#007b4e;"/><path d="M369.164,66.053l-369.164,0l0.357,-2.407l2.689,0c-0.592,-0.317 -1.073,-0.783 -1.444,-1.399c-0.816,-1.296 -0.868,-2.794 -0.155,-4.493c0.621,-1.468 1.646,-2.699 3.075,-3.693c1.429,-0.993 2.877,-1.49 4.346,-1.49l1.642,0l21.876,-52.571l4.838,0l-21.876,52.571l21.894,0c0.712,-0.148 1.434,-0.487 2.166,-1.015c1.016,-0.735 1.724,-1.577 2.124,-2.527l2.338,-5.573l5.026,-12.052c0.901,-2.188 2.249,-4.19 4.044,-6.004c1.795,-1.814 3.821,-3.24 6.077,-4.277c2.256,-1.036 4.478,-1.555 6.667,-1.555c3.11,0 5.466,1.008 7.068,3.024l4.838,0l-12.492,30.065l2.332,0l-0.698,4.709l-2.462,0c-1.555,0 -2.694,-0.576 -3.416,-1.728c-0.232,-0.375 -0.388,-0.778 -0.468,-1.21c-3.055,1.959 -6.109,2.938 -9.161,2.938c-3.485,0 -6.006,-1.253 -7.564,-3.759c-1.093,1.152 -2.344,2.067 -3.755,2.744c-1.41,0.676 -2.807,1.015 -4.189,1.015l0.019,-0.13l-22.333,0l-0.731,1.728l-0.075,0.216c-0.642,1.411 -1.659,2.592 -3.053,3.542c-0.566,0.387 -1.137,0.695 -1.712,0.924l361.689,0l-0.357,2.407Zm-360.642,-8.817l-0.346,0c-0.432,0 -0.89,0.18 -1.376,0.54c-0.485,0.36 -0.817,0.756 -0.996,1.188c-0.092,0.23 -0.114,0.374 -0.065,0.432c0.025,0.029 0.109,0.043 0.253,0.043c0.432,0 0.883,-0.173 1.351,-0.518c0.469,-0.346 0.793,-0.735 0.972,-1.167l0.207,-0.518Zm114.971,0.13l-10.454,0c-2.678,0 -4.62,-0.979 -5.828,-2.938c-0.306,-0.461 -0.543,-0.993 -0.713,-1.598c-5.891,3.024 -11.63,4.536 -17.217,4.536c-2.649,0 -4.567,-0.951 -5.754,-2.851c-1.203,-1.987 -1.246,-4.32 -0.129,-6.998c0.887,-2.103 2.304,-3.938 4.251,-5.508c1.946,-1.569 4,-2.556 6.162,-2.959l16.23,-38.964l1.815,0c3.772,0 7.115,0.713 10.028,2.139c2.914,1.425 5.208,3.477 6.885,6.155c1.717,2.794 2.595,5.997 2.635,9.612c0.04,3.614 -0.75,7.393 -2.372,11.339c-1.567,3.772 -3.769,7.358 -6.606,10.756c-2.836,3.398 -6.121,6.422 -9.854,9.071c-0.517,0.375 -1.031,0.735 -1.543,1.08c-0.019,0.518 0.088,0.965 0.32,1.339c0.44,0.72 1.237,1.08 2.389,1.08l10.453,0c0.288,0 0.602,-0.122 0.94,-0.367c0.339,-0.245 0.573,-0.511 0.702,-0.799l3.007,-7.171l5.371,-12.916c1.383,-3.312 3.699,-6.112 6.947,-8.402c3.248,-2.289 6.528,-3.434 9.84,-3.434l0.648,0c3.171,0.173 5.476,1.426 6.916,3.758c0.767,1.239 1.166,2.671 1.198,4.298c0.033,1.628 -0.307,3.291 -1.02,4.99c-1.384,3.312 -3.7,6.112 -6.948,8.402c-3.248,2.289 -6.542,3.434 -9.883,3.434l-8.293,0l-0.42,1.08c-0.887,2.102 -0.901,3.844 -0.04,5.226c0.791,1.268 2.151,1.901 4.081,1.901l14.341,0c0.288,0 0.601,-0.122 0.94,-0.367c0.339,-0.245 0.573,-0.511 0.702,-0.799l3.007,-7.171l5.37,-12.916c1.384,-3.312 3.7,-6.112 6.948,-8.402c3.248,-2.289 6.528,-3.434 9.84,-3.434c3.513,0 6.034,1.253 7.564,3.758c1.395,2.247 1.602,4.925 0.623,8.035l-4.795,0c0.859,-2.102 0.87,-3.83 0.034,-5.184c-0.791,-1.267 -2.166,-1.9 -4.124,-1.9c-2.246,0 -4.528,0.82 -6.845,2.462c-2.317,1.641 -3.946,3.6 -4.888,5.875l-5.371,12.916c-0.888,2.102 -0.915,3.844 -0.084,5.226c0.82,1.268 2.195,1.901 4.125,1.901c2.016,0 4.09,-0.684 6.222,-2.052c2.132,-1.368 3.778,-3.045 4.936,-5.032l4.968,0l-2.951,7.084l3.844,0c0.259,0 0.566,-0.122 0.919,-0.367c0.353,-0.245 0.594,-0.511 0.723,-0.799l8.334,-20.087l10.054,-24.104l4.838,0l-6.04,14.514c2.699,-1.497 5.358,-2.246 7.979,-2.246c3.485,0 6.006,1.253 7.564,3.758c0.767,1.239 1.167,2.664 1.202,4.277c0.034,1.613 -0.307,3.283 -1.024,5.011l-8.371,20.043l4.233,0c0.288,0 0.601,-0.122 0.94,-0.367c0.339,-0.245 0.572,-0.511 0.702,-0.799l3.007,-7.171l5.37,-12.916c1.384,-3.312 3.7,-6.112 6.948,-8.402c3.248,-2.289 6.528,-3.434 9.84,-3.434l0.648,0c3.171,0.173 5.476,1.426 6.916,3.758c0.766,1.239 1.166,2.671 1.198,4.298c0.032,1.628 -0.308,3.291 -1.02,4.99c-1.384,3.312 -3.7,6.112 -6.948,8.402c-3.248,2.289 -6.542,3.434 -9.883,3.434l-8.294,0l-0.419,1.08c-0.888,2.102 -0.901,3.844 -0.041,5.226c0.792,1.268 2.152,1.901 4.081,1.901l11.88,0l0.019,-0.129l2.246,0c0.259,0 0.565,-0.123 0.918,-0.368c0.354,-0.244 0.597,-0.525 0.73,-0.842l0.019,-0.13l4.208,-10.021l0.944,-2.29l13.217,-31.749l4.838,0l-8.191,19.697l3.931,0l-0.691,4.666l-4.882,0c0.308,1.036 0.581,2.152 0.822,3.347c0.24,1.196 0.432,2.715 0.577,4.558c0.144,1.843 0.037,3.873 -0.32,6.09c-0.358,2.218 -0.983,4.392 -1.874,6.523c-0.088,0.202 -0.157,0.375 -0.207,0.519l3.715,0c0.259,0 0.565,-0.123 0.918,-0.368c0.354,-0.244 0.597,-0.525 0.73,-0.842l0.019,-0.13l4.208,-10.021l0.944,-2.29l13.217,-31.749l4.838,0l-8.191,19.697l3.931,0l-0.691,4.666l-4.882,0c0.307,1.036 0.581,2.152 0.822,3.347c0.24,1.196 0.432,2.715 0.577,4.558c0.144,1.843 0.037,3.873 -0.32,6.09c-0.358,2.218 -0.983,4.392 -1.874,6.523c-0.088,0.202 -0.157,0.375 -0.207,0.519l2.333,0l-0.019,0.129l1.598,0c0.288,0 0.601,-0.122 0.94,-0.367c0.338,-0.245 0.572,-0.511 0.701,-0.799l3.007,-7.171l5.371,-12.916c1.384,-3.312 3.7,-6.112 6.948,-8.402c3.248,-2.289 6.528,-3.434 9.84,-3.434l0.647,0c3.171,0.173 5.477,1.426 6.916,3.758c0.767,1.239 1.167,2.671 1.199,4.298c0.032,1.628 -0.308,3.291 -1.021,4.99c-1.383,3.312 -3.699,6.112 -6.947,8.402c-3.248,2.289 -6.542,3.434 -9.883,3.434l-8.294,0l-0.419,1.08c-0.888,2.102 -0.901,3.844 -0.041,5.226c0.791,1.268 2.152,1.901 4.081,1.901l14.126,0c0.259,0 0.565,-0.122 0.918,-0.367c0.353,-0.245 0.594,-0.511 0.723,-0.799l2.971,-7.214l8.384,-20.13c-0.773,-0.23 -1.356,-0.662 -1.752,-1.296c-0.597,-1.004 -0.632,-2.136 -0.105,-3.398l0.006,-0.014c0.413,-1.037 1.125,-1.908 2.137,-2.614c1.012,-0.705 2.036,-1.058 3.073,-1.058c1.296,0 2.245,0.489 2.849,1.469c0.416,0.691 0.543,1.483 0.382,2.375l14.255,0l-0.692,4.666l-2.591,0c-0.288,0 -0.599,0.057 -0.933,0.173l-8.735,21.036c-0.887,2.103 -0.901,3.845 -0.04,5.227c0.762,1.267 2.123,1.901 4.081,1.901l-0.007,0.043l1.599,0c0.259,0 0.558,-0.122 0.896,-0.367c0.339,-0.245 0.573,-0.511 0.702,-0.799l13.011,-31.232l4.838,0l-13.486,32.398l4.536,0c0.288,0 0.601,-0.122 0.94,-0.367c0.338,-0.245 0.572,-0.511 0.701,-0.799l3.007,-7.171l5.371,-12.916c1.384,-3.312 3.7,-6.112 6.948,-8.402c3.248,-2.289 6.528,-3.434 9.839,-3.434l0.648,0c3.171,0.173 5.476,1.426 6.916,3.758c0.767,1.239 1.166,2.671 1.199,4.298c0.032,1.628 -0.308,3.291 -1.021,4.99c-1.383,3.312 -3.699,6.112 -6.947,8.402c-3.248,2.289 -6.543,3.434 -9.883,3.434l-8.294,0l-0.419,1.08c-0.888,2.102 -0.902,3.844 -0.041,5.226c0.791,1.268 2.152,1.901 4.081,1.901l12.441,0l-0.698,4.709l-12.441,0c-3.197,0 -5.587,-1.066 -7.172,-3.197c-0.717,0.95 -1.601,1.721 -2.654,2.311c-1.052,0.59 -2.125,0.886 -3.22,0.886l-4.578,0c-1.095,0 -2,-0.303 -2.717,-0.908c-1.069,0.605 -2.136,0.908 -3.201,0.908l-2.247,0l0.009,-0.058c-3.152,-0.148 -5.458,-1.396 -6.918,-3.744c-0.767,-1.238 -1.159,-2.671 -1.177,-4.298c-0.018,-1.627 0.329,-3.29 1.042,-4.989l8.278,-20l-6.997,0l-11.817,28.423c-0.571,1.325 -1.491,2.434 -2.761,3.327c-1.27,0.892 -2.567,1.339 -3.892,1.339l-14.169,0c-3.196,0 -5.587,-1.066 -7.172,-3.197c-0.717,0.95 -1.601,1.721 -2.653,2.311c-1.053,0.59 -2.126,0.886 -3.22,0.886l-2.463,0l0.026,-0.173l-1.555,0c-0.749,0 -1.431,-0.159 -2.046,-0.475c-1.795,1.814 -3.759,2.721 -5.89,2.721c-1.67,0 -2.915,-0.633 -3.735,-1.901c-0.114,-0.201 -0.226,-0.417 -0.336,-0.648c-0.21,0.058 -0.42,0.116 -0.63,0.173c-0.211,0.058 -0.425,0.094 -0.643,0.108c-0.218,0.015 -0.428,0.022 -0.629,0.022l-3.845,0c-0.749,0 -1.431,-0.159 -2.046,-0.475c-1.795,1.814 -3.759,2.721 -5.89,2.721c-1.67,0 -2.915,-0.633 -3.735,-1.901c-0.114,-0.201 -0.226,-0.417 -0.336,-0.648c-0.21,0.058 -0.42,0.116 -0.63,0.173c-0.211,0.058 -0.425,0.094 -0.643,0.108c-0.218,0.015 -0.428,0.022 -0.629,0.022l-1.728,0l-0.026,0.173l-12.441,0c-3.196,0 -5.587,-1.066 -7.172,-3.197c-0.716,0.95 -1.601,1.721 -2.653,2.311c-1.052,0.59 -2.126,0.886 -3.22,0.886l-4.277,0c-1.584,0 -2.749,-0.591 -3.495,-1.771c-0.718,-1.181 -0.76,-2.549 -0.126,-4.104l8.378,-20.087c0.858,-2.102 0.872,-3.844 0.04,-5.227c-0.791,-1.267 -2.166,-1.9 -4.124,-1.9c-2.246,0 -4.535,0.82 -6.866,2.462c-2.332,1.641 -3.968,3.6 -4.91,5.875l-8.335,20.086c-0.221,0.519 -0.51,1.015 -0.869,1.491c-0.358,0.475 -0.761,0.907 -1.207,1.296c-0.446,0.388 -0.913,0.72 -1.4,0.993c-0.487,0.274 -1.008,0.49 -1.565,0.648c-0.556,0.158 -1.093,0.238 -1.612,0.238l-4.017,0c-1.555,0 -2.694,-0.576 -3.416,-1.728c-0.232,-0.375 -0.388,-0.778 -0.468,-1.21c-3.055,1.959 -6.109,2.938 -9.161,2.938c-3.197,0 -5.588,-1.066 -7.172,-3.197c-0.717,0.95 -1.602,1.721 -2.654,2.311c-1.052,0.59 -2.126,0.886 -3.22,0.886l-14.341,0c-3.197,0 -5.588,-1.066 -7.172,-3.197c-0.717,0.95 -1.602,1.721 -2.654,2.311c-1.052,0.59 -2.125,0.886 -3.22,0.886Zm143.394,-6.566c1.517,-3.629 2.081,-7.531 1.693,-11.707l-1.145,2.765l-4.42,10.583c-0.446,1.066 -0.528,1.814 -0.246,2.246c0.02,0.058 0.102,0.087 0.246,0.087c0.605,0 1.258,-0.324 1.958,-0.972c0.701,-0.648 1.339,-1.649 1.914,-3.002Zm-17.754,0c1.517,-3.629 2.081,-7.531 1.693,-11.707l-1.145,2.765l-4.42,10.583c-0.446,1.066 -0.528,1.814 -0.246,2.246c0.02,0.058 0.102,0.087 0.246,0.087c0.605,0 1.258,-0.324 1.958,-0.972c0.701,-0.648 1.339,-1.649 1.914,-3.002Zm-185.434,-6.48l5.37,-12.916c0.888,-2.102 0.902,-3.844 0.041,-5.227c-0.791,-1.267 -2.166,-1.9 -4.124,-1.9c-2.246,0 -4.528,0.82 -6.845,2.462c-2.317,1.641 -3.946,3.6 -4.888,5.875l-5.371,12.916c-0.888,2.102 -0.915,3.844 -0.084,5.226c0.82,1.268 2.195,1.901 4.125,1.901c2.246,0 4.535,-0.821 6.866,-2.462c2.331,-1.642 3.968,-3.6 4.91,-5.875Zm49.217,-39.439l-19.801,47.603c4.162,-0.489 8.348,-1.871 12.559,-4.147c4.21,-2.275 7.998,-5.19 11.362,-8.747c3.364,-3.556 5.91,-7.379 7.64,-11.469c1.342,-3.225 2.005,-6.292 1.99,-9.201c-0.015,-2.908 -0.71,-5.457 -2.084,-7.646c-1.13,-1.9 -2.702,-3.391 -4.716,-4.47c-2.014,-1.08 -4.331,-1.721 -6.95,-1.923Zm-25.162,43.845c-0.496,1.21 -0.511,2.189 -0.047,2.938c0.139,0.23 0.34,0.432 0.602,0.604l3.207,-7.645c-1.795,1.036 -3.049,2.404 -3.762,4.103Zm281.578,-17.322c0.888,-2.102 0.901,-3.844 0.04,-5.227c-0.791,-1.267 -2.151,-1.9 -4.081,-1.9c-2.246,0 -4.536,0.828 -6.869,2.484c-2.333,1.655 -3.969,3.607 -4.907,5.853l-2.957,7.127l6.998,0c1.468,0 3,-0.374 4.594,-1.123c1.594,-0.749 3.034,-1.771 4.321,-3.067c1.286,-1.296 2.24,-2.678 2.861,-4.147Zm-214.948,0c0.887,-2.102 0.901,-3.844 0.04,-5.227c-0.791,-1.267 -2.151,-1.9 -4.081,-1.9c-2.246,0 -4.536,0.828 -6.869,2.484c-2.334,1.655 -3.969,3.607 -4.907,5.853l-2.957,7.127l6.997,0c1.469,0 3.001,-0.374 4.595,-1.123c1.594,-0.749 3.034,-1.771 4.32,-3.067c1.287,-1.296 2.241,-2.678 2.862,-4.147Zm87.862,0c0.888,-2.102 0.901,-3.844 0.041,-5.227c-0.791,-1.267 -2.152,-1.9 -4.081,-1.9c-2.246,0 -4.536,0.828 -6.87,2.484c-2.333,1.655 -3.969,3.607 -4.906,5.853l-2.958,7.127l6.998,0c1.469,0 3,-0.374 4.594,-1.123c1.594,-0.749 3.035,-1.771 4.321,-3.067c1.287,-1.296 2.24,-2.678 2.861,-4.147Zm62.895,0c0.888,-2.102 0.901,-3.844 0.041,-5.227c-0.792,-1.267 -2.152,-1.9 -4.081,-1.9c-2.247,0 -4.536,0.828 -6.87,2.484c-2.333,1.655 -3.969,3.607 -4.907,5.853l-2.957,7.127l6.998,0c1.469,0 3,-0.374 4.594,-1.123c1.594,-0.749 3.035,-1.771 4.321,-3.067c1.287,-1.296 2.24,-2.678 2.861,-4.147Zm45.447,-16.093l-5.735,-0.006c-0.85,-0.144 -1.612,-0.446 -1.635,-2.056c0.009,-0.566 0.5,-0.768 1.16,-1.261c0.309,-0.621 0.414,-1.44 1.458,-1.74c0.41,-0.736 1.597,-1.154 2.181,-1.14c1.012,-0.705 2.697,-1.743 5.094,-1.364l2.448,0.69l-3.047,1.001c0.503,0.642 0.09,2.311 -1.043,2.309c-1.175,-0.001 -1.727,-0.003 -2.672,0.43c1.073,-0.492 2.793,-0.378 2.911,-0.287c0.664,0.509 1.246,1.464 1.278,2.043c-0.471,0.923 -1.086,1.643 -2.398,1.381Z" style="fill:#3d9a78;"/></g>
</svg>
