<?xml version="1.0" encoding="UTF-8" standalone="no"?><!DOCTYPE svg PUBLIC "-//W3C//DTD SVG 1.1//EN" "http://www.w3.org/Graphics/SVG/1.1/DTD/svg11.dtd"><svg width="100%" height="100%" viewBox="0 0 33 25" version="1.1" xmlns="http://www.w3.org/2000/svg" xmlns:xlink="http://www.w3.org/1999/xlink" xml:space="preserve" style="fill-rule:evenodd;clip-rule:evenodd;stroke-linejoin:round;stroke-miterlimit:1.41421;"><path d="M2,13.989c-1.105,0 -2,-0.895 -2,-1.999c0,-1.104 0.895,-1.998 2,-1.998l28,0c1.105,0 2,0.894 2,1.998c0,1.104 -0.895,1.999 -2,1.999l-28,0Z"/><clipPath id="_clip1"><path d="M2,13.989c-1.105,0 -2,-0.895 -2,-1.999c0,-1.104 0.895,-1.998 2,-1.998l28,0c1.105,0 2,0.894 2,1.998c0,1.104 -0.895,1.999 -2,1.999l-28,0Z"/></clipPath><g clip-path="url(#_clip1)"><path d="M2,9.992l25.999,0l0,3.997l-25.999,0c-1.105,0 -2,-0.895 -2,-1.999c0,-1.104 0.895,-1.998 2,-1.998Z" style="fill:none;"/></g><path d="M2,3.998c-1.105,0 -2,-0.895 -2,-1.999c0,-1.104 0.895,-1.999 2,-1.999l28,0c1.105,0 2,0.895 2,1.999c0,1.104 -0.895,1.999 -2,1.999l-28,0Z"/><clipPath id="_clip2"><path d="M2,3.998c-1.105,0 -2,-0.895 -2,-1.999c0,-1.104 0.895,-1.999 2,-1.999l28,0c1.105,0 2,0.895 2,1.999c0,1.104 -0.895,1.999 -2,1.999l-28,0Z"/></clipPath><g clip-path="url(#_clip2)"><path d="M2,0l25.999,0l0,3.998l-25.999,0c-1.105,0 -2,-0.895 -2,-1.999c0,-1.104 0.895,-1.999 2,-1.999Z" style="fill:none;"/></g><path d="M2,24.002c-1.105,0 -2,-0.894 -2,-1.998c0,-1.104 0.895,-1.999 2,-1.999l28,0c1.105,0 2,0.895 2,1.999c0,1.104 -0.895,1.998 -2,1.998l-28,0Z"/><clipPath id="_clip3"><path d="M2,24.002c-1.105,0 -2,-0.894 -2,-1.998c0,-1.104 0.895,-1.999 2,-1.999l28,0c1.105,0 2,0.895 2,1.999c0,1.104 -0.895,1.998 -2,1.998l-28,0Z"/></clipPath><g clip-path="url(#_clip3)"><path d="M2,20.005l25.999,0l0,3.997l-25.999,0c-1.105,0 -2,-0.894 -2,-1.998c0,-1.104 0.895,-1.999 2,-1.999Z" style="fill:none;"/></g></svg>