<?xml version="1.0" encoding="UTF-8" standalone="no"?><!DOCTYPE svg PUBLIC "-//W3C//DTD SVG 1.1//EN" "http://www.w3.org/Graphics/SVG/1.1/DTD/svg11.dtd"><svg width="100%" height="100%" viewBox="0 0 37 29" version="1.1" xmlns="http://www.w3.org/2000/svg" xmlns:xlink="http://www.w3.org/1999/xlink" xml:space="preserve" style="fill-rule:evenodd;clip-rule:evenodd;stroke-linejoin:round;stroke-miterlimit:1.41421;"><path id="Camera" d="M21.172,0c0.538,0.003 1.042,0.214 1.414,0.586l3.414,3.414l8,0c1.105,0 2,0.895 2,2l0,20c0,1.105 -0.895,2 -2,2l-4.031,0l0.001,-0.003c-1.091,-0.017 -1.97,-0.903 -1.97,-1.997c0,-1.1 0.887,-1.992 2,-2l1,0c0.559,-0.007 1,-0.452 1,-1l0,-14c0,-0.548 -0.441,-0.993 -1,-1l-6.657,0l-1.171,-1.172l-2.829,-2.828l-4.686,0l-2.829,2.828l-1.171,1.172l-6.657,0c-0.552,0 -1,0.448 -1,1l0,14c0,0.552 0.448,1 1,1l1,0c1.105,0 2,0.895 2,2c0,1.105 -0.895,2 -2,2l-4,0c-1.105,0 -2,-0.895 -2,-2l0,-20c0,-1.1 0.887,-1.992 2,-2l8,0l3.414,-3.414c0.372,-0.372 0.876,-0.583 1.414,-0.586l6.344,0Zm-3.172,10c-4.418,0 -8,3.582 -8,8c0,4.418 3.582,8 8,8c4.418,0 8,-3.582 8,-8c0,-4.418 -3.582,-8 -8,-8l0,0Zm0,4c2.206,0 4,1.794 4,4c0,2.206 -1.794,4 -4,4c-2.206,0 -4,-1.794 -4,-4c0,-2.206 1.794,-4 4,-4Z"/></svg>