<?xml version="1.0" encoding="UTF-8" standalone="no"?><!DOCTYPE svg PUBLIC "-//W3C//DTD SVG 1.1//EN" "http://www.w3.org/Graphics/SVG/1.1/DTD/svg11.dtd"><svg width="100%" height="100%" viewBox="0 0 33 33" version="1.1" xmlns="http://www.w3.org/2000/svg" xmlns:xlink="http://www.w3.org/1999/xlink" xml:space="preserve" style="fill-rule:evenodd;clip-rule:evenodd;stroke-linejoin:round;stroke-miterlimit:1.41421;"><path id="Cross" d="M16,0c-8.837,0 -16,7.163 -16,16c0,8.837 7.163,16 16,16c8.836,0 16,-7.163 16,-16c0,-8.837 -7.164,-16 -16,-16Zm0,28c-6.617,0 -12,-5.383 -12,-12c0,-6.617 5.383,-12 12,-12c6.617,0 12,5.383 12,12c0,6.617 -5.383,12 -12,12Zm5.443,-17.416l-0.027,-0.027c-0.742,-0.743 -1.945,-0.743 -2.688,0l-2.728,2.728l-2.728,-2.728c-0.743,-0.743 -1.946,-0.743 -2.688,0l-0.027,0.027c-0.743,0.742 -0.743,1.945 0,2.687l2.728,2.729l-2.728,2.729c-0.743,0.742 -0.743,1.945 0,2.687l0.027,0.027c0.742,0.742 1.945,0.742 2.688,0l2.728,-2.728l2.728,2.728c0.743,0.742 1.946,0.742 2.688,0l0.027,-0.027c0.743,-0.742 0.743,-1.945 0,-2.687l-2.728,-2.729l2.728,-2.729c0.743,-0.742 0.743,-1.945 0,-2.687Z"/></svg>
