<svg viewBox="0 0 37 33"><path id="Painting" d="M34.006,0c1.11,0.006 2,0.899 2,2l0,20.033l0,0l0,0l0,7.973c0,1.105 -0.895,2 -2,2l-24.021,0l-0.001,0l0,0l-7.984,0c-1.104,0 -2,-0.895 -2,-2l0,-28.006c0,-1.101 0.89,-1.994 2,-2l32.006,0Zm-2.001,17.215l0,-12.214c0,-0.552 -0.447,-1 -1,-1l-26.004,0c-0.553,0 -1,0.448 -1,1l0,22.004c0,0.553 0.447,1.001 1,1.001l4.197,0l15.175,-15.176c0.061,-0.09 0.131,-0.172 0.209,-0.25c0.391,-0.391 0.905,-0.584 1.417,-0.577c0.514,-0.007 1.032,0.187 1.425,0.58c0.089,0.089 0.168,0.185 0.235,0.286l4.346,4.346Zm0,5.578l-5.993,-5.993l-11.205,11.206l16.198,0c0.558,-0.006 1,-0.452 1,-1.001l0,-4.212Zm-16.002,-10.791c0,2.21 -1.791,4.001 -4.001,4.001c-2.209,0 -4.001,-1.791 -4.001,-4.001c0,-2.209 1.792,-4 4.001,-4c2.21,0 4.001,1.791 4.001,4Z"/></svg>