<?xml version="1.0" encoding="UTF-8" standalone="no"?><!DOCTYPE svg PUBLIC "-//W3C//DTD SVG 1.1//EN" "http://www.w3.org/Graphics/SVG/1.1/DTD/svg11.dtd"><svg width="100%" height="100%" viewBox="0 0 32 33" version="1.1" xmlns="http://www.w3.org/2000/svg" xmlns:xlink="http://www.w3.org/1999/xlink" xml:space="preserve" ><path id="Search--and-thou-shall-find-" d="M11.931,4c4.386,0 7.955,3.589 7.955,8c0,1.661 -0.51,3.26 -1.475,4.624l-0.783,1.106l-1.099,0.787c-1.356,0.97 -2.946,1.483 -4.598,1.483c-4.386,0 -7.954,-3.589 -7.954,-8c0,-4.411 3.568,-8 7.954,-8m0,-4c-6.589,0 -11.931,5.373 -11.931,12c0,6.627 5.342,12 11.931,12c2.576,0 4.954,-0.829 6.903,-2.224l9.582,9.637c0.389,0.391 0.899,0.587 1.409,0.587c0.51,0 1.02,-0.196 1.409,-0.587c0.777,-0.782 0.777,-2.051 0,-2.833l-9.583,-9.637c1.388,-1.961 2.212,-4.353 2.212,-6.943c0,-6.627 -5.342,-12 -11.932,-12l0,0Z" style="fill-rule:nonzero;"/></svg>
