<?xml version="1.0" encoding="UTF-8" standalone="no"?><!DOCTYPE svg PUBLIC "-//W3C//DTD SVG 1.1//EN" "http://www.w3.org/Graphics/SVG/1.1/DTD/svg11.dtd"><svg width="100%" height="100%" viewBox="0 0 32 33" version="1.1" xmlns="http://www.w3.org/2000/svg" xmlns:xlink="http://www.w3.org/1999/xlink" xml:space="preserve" ><path id="Shopping-Cart" d="M11.995,29c0,1.657 -1.342,3 -2.998,3c-1.657,0 -2.999,-1.343 -2.999,-3c0,-1.657 1.342,-3 2.999,-3c1.656,0 2.998,1.343 2.998,3Zm15.994,0c0,1.657 -1.342,3 -2.999,3c-1.656,0 -2.998,-1.343 -2.998,-3c0,-1.657 1.342,-3 2.998,-3c1.657,0 2.999,1.343 2.999,3Zm0.998,-29c1.954,0.003 3.383,1.836 2.91,3.728l-2.362,9.964c-0.32,1.353 -1.528,2.308 -2.918,2.308l-18.62,0l0,4l19.992,0c1.105,0 2,0.895 2,2c0,1.103 -0.893,1.997 -2,2l-20.992,0c-1.656,0 -2.999,-1.343 -2.999,-3l0,-17l-1.999,0c-1.106,-0.003 -1.999,-0.897 -1.999,-2c0,-1.103 0.893,-1.997 1.999,-2l26.988,0Zm-3.16,12l1.896,-8l-19.726,0l0,8l17.83,0Z"/></svg>
