<?xml version="1.0" encoding="UTF-8" standalone="no"?><!DOCTYPE svg PUBLIC "-//W3C//DTD SVG 1.1//EN" "http://www.w3.org/Graphics/SVG/1.1/DTD/svg11.dtd"><svg width="100%" height="100%" viewBox="0 0 16 13" version="1.1" xmlns="http://www.w3.org/2000/svg" xmlns:xlink="http://www.w3.org/1999/xlink" xml:space="preserve" ><path id="twitter" d="M13.498,2.074l1.509,-0.296c0,0 -1.264,1.405 -1.509,1.481c-0.002,0.001 -0.005,-0.002 -0.008,-0.002c-0.032,0.686 0.008,0.891 0.008,0.891c-2.884,12.215 -13.498,6.815 -13.498,6.815c3.862,0.101 4.206,-1.482 4.206,-1.482c-2.262,-0.337 -2.698,-1.777 -2.698,-1.777c0.769,0.345 1.199,-0.297 1.199,-0.297c-2.441,-0.623 -2.098,-2.963 -2.098,-2.963c0.408,0.369 1.074,0.509 1.471,0.562c-0.276,-0.317 -2.554,-3.017 -1.171,-4.413c0,0 1.664,2.957 6.07,3.24l0.294,-0.073c-0.045,-0.209 -0.07,-0.426 -0.07,-0.649c0,-1.718 1.409,-3.111 3.148,-3.111c2.095,0 2.547,1.185 2.547,1.185l1.499,-0.889c0,0 -0.164,1.485 -0.899,1.778Z"/></svg>
